<svg width="11" height="20" viewBox="0 0 11 20" fill="none" xmlns="http://www.w3.org/2000/svg">
<path d="M0.516704 1.18296C0.362198 1.33715 0.239619 1.5203 0.155983 1.72192C0.0723472 1.92354 0.0292969 2.13968 0.0292969 2.35796C0.0292969 2.57624 0.0723472 2.79238 0.155983 2.994C0.239619 3.19563 0.362198 3.37877 0.516704 3.53296L6.98337 9.99963L0.516704 16.4663C0.205075 16.7779 0.0300026 17.2006 0.0300026 17.6413C0.0300026 18.082 0.205075 18.5047 0.516704 18.8163C0.828333 19.1279 1.25099 19.303 1.6917 19.303C2.13241 19.303 2.55507 19.1279 2.8667 18.8163L10.5167 11.1663C10.6712 11.0121 10.7938 10.829 10.8774 10.6273C10.9611 10.4257 11.0041 10.2096 11.0041 9.9913C11.0041 9.77302 10.9611 9.55688 10.8774 9.35526C10.7938 9.15363 10.6712 8.97049 10.5167 8.8163L2.8667 1.1663C2.23337 0.532963 1.1667 0.532963 0.516704 1.18296Z" fill="white" fill-opacity="0.6"/>
</svg>
