<svg width="32" height="32" viewBox="0 0 32 32" fill="none" xmlns="http://www.w3.org/2000/svg">
<path d="M5.86634 9.86732L9.06634 5.33398H12.3997L9.59967 9.33398H17.9997C20.2982 9.33398 22.5026 10.2471 24.1279 11.8724C25.7532 13.4977 26.6663 15.7021 26.6663 18.0007C26.6663 20.2992 25.7532 22.5036 24.1279 24.1289C22.5026 25.7542 20.2982 26.6673 17.9997 26.6673H11.9997L13.333 24.0007H17.9997C19.591 24.0007 21.1171 23.3685 22.2423 22.2433C23.3675 21.1181 23.9997 19.592 23.9997 18.0007C23.9997 16.4094 23.3675 14.8832 22.2423 13.758C21.1171 12.6328 19.591 12.0007 17.9997 12.0007H9.59967L12.3997 16.0007H9.06634L5.86634 11.4673L5.33301 10.6673L5.86634 9.86732Z" fill="black" fill-opacity="0.8"/>
</svg>
