<svg width="231" height="55" viewBox="0 0 231 55" fill="none" xmlns="http://www.w3.org/2000/svg">
<path d="M80.3442 2.09432C83.2204 2.09432 85.2976 3.69217 85.2976 6.56831C85.2976 8.16616 84.6584 10.2434 83.5399 12.7999L71.2365 43.1592L57.3351 11.6814C56.2166 9.28466 55.7373 7.52702 55.7373 5.76938C55.7373 3.85196 57.3351 2.09432 60.8504 2.09432V0.65625H40.3979V2.09432C44.5523 2.09432 45.8306 3.53239 48.2274 9.12488L67.881 54.3441H68.9995L87.3748 9.60423C89.6118 4.33131 92.4879 1.93453 94.7249 1.93453V0.65625H80.504V2.09432H80.3442ZM0.611328 0.65625V2.09432C6.3636 2.09432 7.64188 3.53239 7.64188 8.32595V43.4787C7.64188 50.9886 6.52339 51.7876 0.611328 51.7876V53.2256H40.8772L45.3512 39.0047L44.2327 38.6852C39.9185 49.3908 36.8826 50.9886 27.7748 50.9886H22.1824C15.1518 50.9886 14.8322 50.8289 14.8322 42.2004V10.2434C14.8322 3.69217 16.1105 2.2541 23.1411 2.2541V0.65625H0.611328ZM167.267 2.09432V0.65625H154.165L134.991 42.2004L115.018 0.65625H101.596V2.09432C107.188 2.09432 108.466 3.85196 108.466 8.96509V43.3189C108.466 50.8289 107.028 51.6278 101.596 51.6278V53.0658H117.894V51.6278C112.301 51.6278 111.023 50.8289 111.023 43.3189V8.96509L131.316 53.0658H132.594L152.727 8.96509V43.3189C152.727 50.8289 151.608 51.6278 145.377 51.6278V53.0658H167.267V51.6278C161.196 51.6278 160.237 50.6691 160.237 43.3189V8.16616C160.237 3.53239 161.675 2.09432 167.267 2.09432ZM188.839 10.4032C188.839 3.05303 189.957 2.09432 195.869 2.09432V0.65625H174.458V2.09432C180.53 2.09432 181.488 3.05303 181.488 10.4032V43.3189C181.488 50.6691 180.37 51.6278 174.458 51.6278V53.0658H195.869V51.6278C189.797 51.6278 188.839 50.6691 188.839 43.3189V29.4176C188.839 27.9795 189.478 27.5002 191.075 27.5002H214.244C216.002 27.5002 216.481 28.1393 216.481 29.897V43.3189C216.481 50.6691 215.363 51.6278 209.451 51.6278V53.0658H230.862V51.6278C224.79 51.6278 223.831 50.6691 223.831 43.3189V10.4032C223.831 3.05303 224.95 2.09432 230.862 2.09432V0.65625H209.451V2.09432C215.523 2.09432 216.481 3.05303 216.481 10.4032V22.7066C216.481 24.6241 216.002 25.1034 214.244 25.1034H190.916C189.318 25.1034 188.679 24.6241 188.679 23.3458V10.4032H188.839Z" fill="black"/>
</svg>
