<svg width="19" height="17" viewBox="0 0 19 17" fill="none" xmlns="http://www.w3.org/2000/svg">
<path d="M9.49996 14.2742L5.34996 16.7742C5.16663 16.8909 4.97496 16.9409 4.77496 16.9242C4.57496 16.9076 4.39996 16.8409 4.24996 16.7242C4.09996 16.6076 3.9833 16.4619 3.89996 16.2872C3.81663 16.1126 3.79996 15.9166 3.84996 15.6992L4.94996 10.9742L1.27496 7.79922C1.1083 7.64922 1.0043 7.47822 0.962963 7.28622C0.921629 7.09422 0.933963 6.90689 0.999963 6.72422C1.06596 6.54155 1.16596 6.39155 1.29996 6.27422C1.43396 6.15689 1.6173 6.08189 1.84996 6.04922L6.69996 5.62422L8.57496 1.17422C8.6583 0.974219 8.78763 0.824219 8.96296 0.724219C9.1383 0.624219 9.3173 0.574219 9.49996 0.574219C9.68263 0.574219 9.86163 0.624219 10.037 0.724219C10.2123 0.824219 10.3416 0.974219 10.425 1.17422L12.3 5.62422L17.15 6.04922C17.3833 6.08255 17.5666 6.15755 17.7 6.27422C17.8333 6.39089 17.9333 6.54089 18 6.72422C18.0666 6.90755 18.0793 7.09522 18.038 7.28722C17.9966 7.47922 17.8923 7.64989 17.725 7.79922L14.05 10.9742L15.15 15.6992C15.2 15.9159 15.1833 16.1119 15.1 16.2872C15.0166 16.4626 14.9 16.6082 14.75 16.7242C14.6 16.8402 14.425 16.9069 14.225 16.9242C14.025 16.9416 13.8333 16.8916 13.65 16.7742L9.49996 14.2742Z" fill="white"/>
</svg>
