<svg width="369" height="513" viewBox="0 0 369 513" fill="none" xmlns="http://www.w3.org/2000/svg">
<rect width="369" height="513" rx="15" fill="#f8f8f8"/>
<path d="M19.704 59.52C19.704 57.6 21.24 56.336 23.544 56.336C25.608 56.336 26.968 57.488 27.144 59.408H25.976C25.848 58.112 24.968 57.376 23.528 57.376C21.912 57.376 20.856 58.208 20.856 59.504C20.856 60.512 21.448 61.152 22.648 61.456L24.616 61.936C26.408 62.368 27.336 63.392 27.336 64.944C27.336 66.928 25.8 68.192 23.432 68.192C21.208 68.192 19.704 67.024 19.56 65.152H20.744C20.808 66.352 21.864 67.136 23.432 67.136C25.112 67.136 26.184 66.32 26.184 65.008C26.184 63.984 25.608 63.312 24.376 63.024L22.44 62.544C20.648 62.112 19.704 61.088 19.704 59.52ZM34.2876 60.256H35.3916V68H34.4316L34.2876 66.688C33.8556 67.584 32.7836 68.192 31.5676 68.192C29.7436 68.192 28.7516 66.944 28.7516 65.056V60.24H29.8716V64.704C29.8716 66.544 30.6876 67.2 31.9196 67.2C33.4076 67.2 34.2876 66.208 34.2876 64.368V60.256ZM38.4754 68H37.3714V60.256H38.3314L38.4594 61.36C38.8434 60.544 39.7074 60.048 40.7954 60.048C42.0114 60.048 42.9234 60.688 43.2914 61.696C43.6434 60.688 44.5874 60.048 45.8354 60.048C47.5154 60.048 48.6194 61.136 48.6194 62.928V68H47.5474V63.152C47.5474 61.824 46.8114 61.04 45.6274 61.04C44.3314 61.04 43.5634 62.016 43.5634 63.216V68H42.4754V63.136C42.4754 61.824 41.7234 61.056 40.5554 61.056C39.2594 61.056 38.4754 62.016 38.4754 63.2V68ZM51.6241 68H50.5201V60.256H51.4801L51.6081 61.36C51.9921 60.544 52.8561 60.048 53.9441 60.048C55.1601 60.048 56.0721 60.688 56.4401 61.696C56.7921 60.688 57.7361 60.048 58.9841 60.048C60.6641 60.048 61.7681 61.136 61.7681 62.928V68H60.6961V63.152C60.6961 61.824 59.9601 61.04 58.7761 61.04C57.4801 61.04 56.7121 62.016 56.7121 63.216V68H55.6241V63.136C55.6241 61.824 54.8721 61.056 53.7041 61.056C52.4081 61.056 51.6241 62.016 51.6241 63.2V68ZM65.8929 68.192C64.2449 68.192 63.2689 67.264 63.2689 65.904C63.2689 64.48 64.3569 63.584 66.1649 63.44L68.7249 63.232V62.976C68.7249 61.456 67.8129 60.976 66.6769 60.976C65.3329 60.976 64.5329 61.584 64.5329 62.624H63.5249C63.5249 61.056 64.8049 60.048 66.7089 60.048C68.5009 60.048 69.8129 60.944 69.8129 62.992V68H68.8849L68.7409 66.64C68.2609 67.616 67.2049 68.192 65.8929 68.192ZM66.1489 67.296C67.7809 67.296 68.7249 66.16 68.7249 64.48V64.064L66.4369 64.24C64.9809 64.368 64.3889 65.008 64.3889 65.872C64.3889 66.816 65.0929 67.296 66.1489 67.296ZM75.7563 60.16V61.152H75.1483C73.7243 61.152 72.8123 62.112 72.8123 63.584V68H71.7083V60.256H72.7483L72.8283 61.456C73.1323 60.624 73.9483 60.08 75.0363 60.08C75.2763 60.08 75.4843 60.096 75.7563 60.16ZM76.3543 71.376V70.464H77.2023C77.8743 70.464 78.5463 70.416 78.9303 69.376L79.2663 68.464L76.1303 60.256H77.2983L79.7943 67.008L82.2423 60.256H83.3783L79.8263 69.776C79.3783 70.992 78.6263 71.488 77.5223 71.488C77.0583 71.488 76.7063 71.456 76.3543 71.376Z" fill="#151E22"/>
<path d="M28.36 120.42V117.432C23.356 117.072 20.152 114.156 20.044 109.764H24.652C24.688 111.816 26.02 113.112 28.36 113.4V105.732L27.208 105.48C22.672 104.508 20.404 101.988 20.404 98.028C20.404 93.816 23.572 90.792 28.36 90.288V87.228H31.132V90.288C35.668 90.756 38.476 93.6 38.62 97.92H34.156C34.084 95.976 33.004 94.716 31.132 94.32V102.06L32.356 102.348C36.964 103.356 39.052 105.588 39.052 109.404C39.052 113.796 35.956 116.82 31.132 117.36V120.42H28.36ZM28.216 101.412L28.36 101.448V94.284C26.2 94.644 24.904 95.94 24.904 97.884C24.904 99.792 25.912 100.908 28.216 101.412ZM31.384 106.38L31.132 106.308V113.328C33.292 112.896 34.588 111.636 34.588 109.8C34.588 107.964 33.544 106.848 31.384 106.38ZM46.5687 94.824H40.8087V90.684H50.9967V117H46.5687V94.824ZM61.3444 115.416C61.3444 118.404 59.1844 120.78 56.2684 121.14V119.376C57.8884 119.088 59.1124 118.116 59.1124 116.856C58.8244 117 58.5004 117.072 58.0684 117.072C56.6644 117.072 55.5124 116.028 55.5124 114.588C55.5124 112.86 56.6284 111.708 58.2484 111.708C60.0484 111.708 61.3444 113.184 61.3444 115.416ZM63.2122 103.896C63.2122 95.724 67.6042 90.18 74.3362 90.18C81.0682 90.18 85.4962 95.724 85.4962 103.896C85.4962 112.032 81.3202 117.468 74.3362 117.468C67.3522 117.468 63.2122 112.032 63.2122 103.896ZM67.7482 103.896C67.7482 109.98 70.1962 113.4 74.3362 113.4C78.5122 113.4 80.9602 109.98 80.9602 103.896C80.9602 97.668 78.5122 94.248 74.3362 94.248C70.1962 94.248 67.7482 97.668 67.7482 103.896ZM87.875 103.896C87.875 95.724 92.267 90.18 98.999 90.18C105.731 90.18 110.159 95.724 110.159 103.896C110.159 112.032 105.983 117.468 98.999 117.468C92.015 117.468 87.875 112.032 87.875 103.896ZM92.411 103.896C92.411 109.98 94.859 113.4 98.999 113.4C103.175 113.4 105.623 109.98 105.623 103.896C105.623 97.668 103.175 94.248 98.999 94.248C94.859 94.248 92.411 97.668 92.411 103.896ZM112.538 103.896C112.538 95.724 116.93 90.18 123.662 90.18C130.394 90.18 134.822 95.724 134.822 103.896C134.822 112.032 130.646 117.468 123.662 117.468C116.678 117.468 112.538 112.032 112.538 103.896ZM117.074 103.896C117.074 109.98 119.522 113.4 123.662 113.4C127.838 113.4 130.286 109.98 130.286 103.896C130.286 97.668 127.838 94.248 123.662 94.248C119.522 94.248 117.074 97.668 117.074 103.896ZM142.488 115.416C142.488 118.404 140.328 120.78 137.412 121.14V119.376C139.032 119.088 140.256 118.116 140.256 116.856C139.968 117 139.644 117.072 139.212 117.072C137.808 117.072 136.656 116.028 136.656 114.588C136.656 112.86 137.772 111.708 139.392 111.708C141.192 111.708 142.488 113.184 142.488 115.416ZM144.356 103.896C144.356 95.724 148.748 90.18 155.48 90.18C162.212 90.18 166.64 95.724 166.64 103.896C166.64 112.032 162.464 117.468 155.48 117.468C148.496 117.468 144.356 112.032 144.356 103.896ZM148.892 103.896C148.892 109.98 151.34 113.4 155.48 113.4C159.656 113.4 162.104 109.98 162.104 103.896C162.104 97.668 159.656 94.248 155.48 94.248C151.34 94.248 148.892 97.668 148.892 103.896ZM169.018 103.896C169.018 95.724 173.41 90.18 180.142 90.18C186.874 90.18 191.302 95.724 191.302 103.896C191.302 112.032 187.126 117.468 180.142 117.468C173.158 117.468 169.018 112.032 169.018 103.896ZM173.554 103.896C173.554 109.98 176.002 113.4 180.142 113.4C184.318 113.4 186.766 109.98 186.766 103.896C186.766 97.668 184.318 94.248 180.142 94.248C176.002 94.248 173.554 97.668 173.554 103.896ZM193.681 103.896C193.681 95.724 198.073 90.18 204.805 90.18C211.537 90.18 215.965 95.724 215.965 103.896C215.965 112.032 211.789 117.468 204.805 117.468C197.821 117.468 193.681 112.032 193.681 103.896ZM198.217 103.896C198.217 109.98 200.665 113.4 204.805 113.4C208.981 113.4 211.429 109.98 211.429 103.896C211.429 97.668 208.981 94.248 204.805 94.248C200.665 94.248 198.217 97.668 198.217 103.896Z" fill="#151E22"/>
<path d="M17 430V357.993L53.3253 333.04L126.613 268.162H191.404L252.159 221.821L286.36 207.562L352 127V430H17Z" fill="url(#paint0_linear_840_32452)"/>
<path d="M17 359L53.3253 333.938L126.613 268.778H191.404L252.159 222.235L286.36 207.914L352 127" stroke="#05F29A" stroke-width="2"/>
<rect width="330" height="1" transform="translate(17 424)" fill="#E0E0E0"/>
<path d="M25.544 456.984L17.736 457V455.8L21.464 452.584C23.336 450.968 23.864 450.184 23.864 448.952C23.864 447.496 23.032 446.632 21.64 446.632C20.216 446.632 19.288 447.672 19.256 449.32H17.688C17.736 446.84 19.304 445.224 21.656 445.224C23.976 445.224 25.464 446.632 25.464 448.856C25.464 450.504 24.648 451.672 22.6 453.448L20.2 455.528H25.544V456.984ZM26.6671 451.224C26.6671 447.64 28.5231 445.208 31.4351 445.208C34.3311 445.208 36.1871 447.64 36.1871 451.224C36.1871 454.824 34.4111 457.208 31.4351 457.208C28.4431 457.208 26.6671 454.824 26.6671 451.224ZM28.2191 451.224C28.2191 454.072 29.4031 455.8 31.4351 455.8C33.4671 455.8 34.6351 454.072 34.6351 451.224C34.6351 448.344 33.4671 446.616 31.4351 446.616C29.4031 446.616 28.2191 448.344 28.2191 451.224ZM45.2009 456.984L37.3929 457V455.8L41.1209 452.584C42.9929 450.968 43.5209 450.184 43.5209 448.952C43.5209 447.496 42.6889 446.632 41.2969 446.632C39.8729 446.632 38.9449 447.672 38.9129 449.32H37.3449C37.3929 446.84 38.9609 445.224 41.3129 445.224C43.6329 445.224 45.1209 446.632 45.1209 448.856C45.1209 450.504 44.3049 451.672 42.2569 453.448L39.8569 455.528H45.2009V456.984ZM54.1465 456.984L46.3385 457V455.8L50.0665 452.584C51.9385 450.968 52.4665 450.184 52.4665 448.952C52.4665 447.496 51.6345 446.632 50.2425 446.632C48.8185 446.632 47.8905 447.672 47.8585 449.32H46.2905C46.3385 446.84 47.9065 445.224 50.2585 445.224C52.5785 445.224 54.0665 446.632 54.0665 448.856C54.0665 450.504 53.2505 451.672 51.2025 453.448L48.8025 455.528H54.1465V456.984Z" fill="#7D7D7D"/>
<path d="M173.544 456.984L165.736 457V455.8L169.464 452.584C171.336 450.968 171.864 450.184 171.864 448.952C171.864 447.496 171.032 446.632 169.64 446.632C168.216 446.632 167.288 447.672 167.256 449.32H165.688C165.736 446.84 167.304 445.224 169.656 445.224C171.976 445.224 173.464 446.632 173.464 448.856C173.464 450.504 172.648 451.672 170.6 453.448L168.2 455.528H173.544V456.984ZM174.667 451.224C174.667 447.64 176.523 445.208 179.435 445.208C182.331 445.208 184.187 447.64 184.187 451.224C184.187 454.824 182.411 457.208 179.435 457.208C176.443 457.208 174.667 454.824 174.667 451.224ZM176.219 451.224C176.219 454.072 177.403 455.8 179.435 455.8C181.467 455.8 182.635 454.072 182.635 451.224C182.635 448.344 181.467 446.616 179.435 446.616C177.403 446.616 176.219 448.344 176.219 451.224ZM193.201 456.984L185.393 457V455.8L189.121 452.584C190.993 450.968 191.521 450.184 191.521 448.952C191.521 447.496 190.689 446.632 189.297 446.632C187.873 446.632 186.945 447.672 186.913 449.32H185.345C185.393 446.84 186.961 445.224 189.313 445.224C191.633 445.224 193.121 446.632 193.121 448.856C193.121 450.504 192.305 451.672 190.257 453.448L187.857 455.528H193.201V456.984ZM197.699 451.016H196.547V449.976L199.827 446.824H194.627V445.432H201.811V446.696L198.643 449.72C200.611 449.96 202.099 451.288 202.099 453.368C202.099 455.704 200.339 457.192 197.987 457.192C195.715 457.192 194.083 455.8 194.083 453.4H195.635C195.635 454.904 196.563 455.784 198.019 455.784C199.523 455.784 200.499 454.824 200.499 453.336C200.499 451.944 199.539 451.016 197.699 451.016Z" fill="#7D7D7D"/>
<path d="M321.544 456.984L313.736 457V455.8L317.464 452.584C319.336 450.968 319.864 450.184 319.864 448.952C319.864 447.496 319.032 446.632 317.64 446.632C316.216 446.632 315.288 447.672 315.256 449.32H313.688C313.736 446.84 315.304 445.224 317.656 445.224C319.976 445.224 321.464 446.632 321.464 448.856C321.464 450.504 320.648 451.672 318.6 453.448L316.2 455.528H321.544V456.984ZM322.667 451.224C322.667 447.64 324.523 445.208 327.435 445.208C330.331 445.208 332.187 447.64 332.187 451.224C332.187 454.824 330.411 457.208 327.435 457.208C324.443 457.208 322.667 454.824 322.667 451.224ZM324.219 451.224C324.219 454.072 325.403 455.8 327.435 455.8C329.467 455.8 330.635 454.072 330.635 451.224C330.635 448.344 329.467 446.616 327.435 446.616C325.403 446.616 324.219 448.344 324.219 451.224ZM341.201 456.984L333.393 457V455.8L337.121 452.584C338.993 450.968 339.521 450.184 339.521 448.952C339.521 447.496 338.689 446.632 337.297 446.632C335.873 446.632 334.945 447.672 334.913 449.32H333.345C333.393 446.84 334.961 445.224 337.313 445.224C339.633 445.224 341.121 446.632 341.121 448.856C341.121 450.504 340.305 451.672 338.257 453.448L335.857 455.528H341.201V456.984ZM350.636 454.664H349.26V457H347.756V454.664H341.772V453.272L347.228 445.432H349.26V453.272H350.636V454.664ZM343.468 453.272H347.756V447.096L343.468 453.272Z" fill="#7D7D7D"/>
<defs>
<linearGradient id="paint0_linear_840_32452" x1="255.77" y1="278.856" x2="265.274" y2="387.177" gradientUnits="userSpaceOnUse">
<stop stop-color="#05F29A" stop-opacity="0.2"/>
<stop offset="1" stop-color="#038C59" stop-opacity="0"/>
</linearGradient>
</defs>
</svg>
