<svg width="191" height="95" viewBox="0 0 191 95" fill="none" xmlns="http://www.w3.org/2000/svg">
<g opacity="0.2">
<path fill-rule="evenodd" clip-rule="evenodd" d="M79.731 108.331C79.5969 105.837 79.432 103.346 79.2347 100.856C78.8414 95.8972 78.3265 90.9344 77.4697 86.0325C76.6245 81.196 75.4415 76.493 73.7371 71.8842C72.9464 69.746 72.0901 67.9219 70.8479 65.9998C69.6733 64.1824 68.1744 62.951 66.3071 61.854C64.6246 60.8655 62.67 59.1506 61.0563 58.0437C60.3826 57.5816 58.9966 57.6124 58.5346 56.9289C57.9296 56.0338 58.3219 54.6638 57.712 53.7716C57.015 52.7516 56.0384 51.9592 54.9371 51.3835C53.7352 50.5693 52.3195 50.2007 50.9001 50.2514C48.8069 50.1245 46.6988 50.7911 45.355 52.4954C44.6844 53.346 44.2929 54.3274 44.2387 55.414C44.2246 55.6966 44.3153 55.9194 44.4647 56.0803C44.3761 56.1988 44.288 56.3174 44.2004 56.4366C43.9255 56.0293 43.2831 55.8129 42.8549 56.1203C41.4542 57.1261 39.9404 57.9259 38.3426 58.5122C37.9688 58.3352 37.5162 58.4172 37.196 58.706C37.0661 58.8232 36.9282 58.9234 36.7841 59.0085C36.1917 59.1691 35.5901 59.3033 34.9796 59.4071C34.7885 59.4395 34.6265 59.548 34.5037 59.6944C34.3218 59.5242 34.0717 59.4425 33.7924 59.549C30.5679 60.7787 27.5227 62.689 25.2081 65.277C22.6437 68.1442 21.2969 71.7109 20.2715 75.365C19.1615 79.3205 18.4522 83.3746 17.8564 87.4354C17.2527 91.55 16.658 95.6807 16.2427 99.8192C16.0089 102.148 15.9198 104.498 16.0256 106.837C16.0783 108.006 16.1851 109.172 16.3551 110.329C16.3947 110.6 16.4361 110.912 16.5029 111.224C16.3 111.184 16.0582 111.356 16.0993 111.631C16.3858 113.544 18.6985 114.102 20.2935 114.322C22.9026 114.682 25.5251 114.882 28.1592 114.898C30.7477 114.913 33.3358 114.747 35.9189 114.598C38.5672 114.445 41.2154 114.292 43.8636 114.136C54.4739 113.514 65.0848 112.899 75.6951 112.276C76.6645 112.219 77.7714 112.142 78.6017 111.58C79.7399 110.809 79.7984 109.583 79.731 108.331Z" fill="#151E22"/>
<path fill-rule="evenodd" clip-rule="evenodd" d="M28.0072 86.9278C27.9703 86.8588 28.0558 86.7968 28.1125 86.8466C29.4006 87.9773 30.0749 89.7934 30.2163 91.472C30.3661 93.252 30.1537 95.0949 30.0726 96.8741C29.9822 98.856 29.901 100.839 29.7908 102.82C29.6788 104.829 29.5582 106.839 29.4548 108.849L29.2222 113.371C29.1975 113.853 29.2511 114.445 29.0662 114.895C28.7797 115.592 27.9287 115.484 27.7498 114.902L27.7442 114.882L27.7279 114.895C27.5701 114.37 27.6882 113.746 27.715 113.203L27.9586 108.263C28.1308 104.77 28.2843 101.278 28.4693 97.7867L28.5321 96.6229C28.6186 95.0562 28.6849 93.4934 28.7381 91.9272L28.7554 91.405C28.8059 89.8324 28.7658 88.3478 28.0072 86.9278ZM59.232 57.9373C59.9496 57.8692 60.4915 58.1072 61.143 58.358C61.4268 58.4671 61.6955 58.5933 61.9678 58.7239C62.3087 58.8874 62.5279 59.1765 62.7378 59.4821L62.85 59.6468C63.7241 60.9279 64.312 62.4059 64.9755 63.8007C65.7515 65.4322 66.5353 67.0602 67.2948 68.6995L67.6696 69.5072C67.8569 69.911 68.0438 70.3151 68.2278 70.7205L68.5458 71.426C68.8652 72.1415 69.1516 72.8984 68.6963 73.6365C68.273 74.323 67.5224 74.8542 66.9281 75.3848C66.4323 75.8276 65.9365 76.2703 65.4404 76.7129C66.4657 77.7401 67.1541 79.0333 67.5587 80.4203C68.1335 80.1807 68.8351 80.1348 69.4295 80.0311C70.2615 79.886 70.3634 81.1461 69.5782 81.1307C68.9983 81.1193 68.318 81.1785 67.7231 81.0564C67.8265 81.5121 67.9015 81.9748 67.9492 82.4387C68.1992 84.8702 67.6529 87.3158 67.0832 89.6684L67.0364 89.8615C66.4177 92.4079 65.8311 94.9608 65.3063 97.5283C64.7803 100.101 64.3072 102.685 63.8872 105.277C63.4597 107.916 63.1572 110.569 62.8321 113.222C62.7829 113.623 62.5304 113.967 62.0869 113.967C61.7175 113.967 61.2952 113.623 61.3417 113.222C61.6771 110.333 62.1529 107.46 62.6255 104.591C63.4396 99.6502 64.4642 94.7526 65.643 89.8871L65.8489 89.0398C66.3792 86.8423 66.8603 84.578 66.5943 82.3113C66.3777 80.4655 65.6062 78.4975 64.0816 77.3511L64.0351 77.3166C63.679 77.0553 63.542 76.5557 63.8927 76.2116C64.1159 75.9926 64.3394 75.7739 64.563 75.5553L65.9052 74.2444L66.1758 73.9797C66.4014 73.7593 66.6281 73.5403 66.8616 73.328C67.0029 73.1996 67.386 72.9547 67.4141 72.7435C67.4323 72.6056 67.2691 72.3635 67.203 72.2365L66.9 71.6248C66.728 71.276 66.5613 70.9247 66.3933 70.5739C66.0452 69.8472 65.6921 69.1226 65.3516 68.3923L63.3058 64.0072C62.7287 62.77 62.2146 61.4639 61.4601 60.3202L61.3113 60.0973C61.1871 59.9095 61.0775 59.7288 60.999 59.4992C60.9235 59.2783 60.8288 59.0358 60.6893 58.8473C60.3625 58.405 59.7379 58.154 59.2153 58.0614C59.1398 58.0479 59.1672 57.9436 59.232 57.9373ZM43.4975 56.7862C43.5429 56.7862 43.5498 56.8511 43.5079 56.8637C42.8773 57.0534 42.2748 57.3594 41.7833 57.8012C41.5481 58.0126 41.3113 58.2525 41.1661 58.5371C41.1105 58.646 41.0798 58.761 41.0572 58.8803L41.05 58.9202C41.0126 59.1357 40.959 59.2556 40.8495 59.4281L40.8307 59.4574C40.206 60.4225 39.7682 61.4945 39.3679 62.5678L38.4961 64.9081L37.6249 67.2487C37.3442 68.0028 37.0633 68.757 36.7826 69.5112C36.6275 69.9275 36.468 70.3421 36.3086 70.7568C36.2396 70.9365 36.1654 71.1148 36.1023 71.2966C36.0937 71.3215 36.0661 71.4712 36.0454 71.5075L36.0524 71.5199C36.2282 71.8156 36.6968 72.0626 36.9624 72.2775L37.8771 73.0172C38.5292 73.5447 39.1981 74.0575 39.8307 74.6086C40.228 74.9546 39.9808 75.5742 39.5377 75.7187C38.7951 75.9607 38.0676 76.2504 37.3361 76.5242C37.0407 76.6348 36.733 76.731 36.441 76.853L36.2632 76.9298C36.1938 76.9611 36.2271 76.9608 36.2299 77.0889C36.2327 77.2234 36.2708 77.3635 36.2927 77.4956C36.5391 78.9859 36.8002 80.4736 37.0759 81.9588C38.051 87.2106 39.2159 92.424 40.5445 97.5974C41.2156 100.21 41.9353 102.81 42.621 105.418C43.3052 108.02 44.2053 110.584 45.0648 113.133C45.3073 113.851 44.1683 114.161 43.9317 113.445C42.9412 110.448 42.035 107.425 41.0992 104.411C39.4366 99.056 38.1264 93.5845 36.9676 88.0998C36.3933 85.3814 35.868 82.6527 35.3922 79.9153C35.3021 79.3971 35.2138 78.8786 35.1273 78.3597L35.0012 77.5966C34.9147 77.0526 34.8655 76.486 35.2882 76.0555C35.7009 75.6353 36.4094 75.4864 36.9524 75.2894L36.9918 75.2748C37.3374 75.1458 37.6855 75.0216 38.0322 74.8934C37.5214 74.4912 37.017 74.08 36.5075 73.678C36.0965 73.3537 35.6791 73.036 35.274 72.7043C34.9399 72.4306 34.6676 72.0793 34.6327 71.6343C34.5972 71.1795 34.792 70.7575 34.9492 70.3404L34.9642 70.3001C35.1185 69.8836 35.2732 69.4674 35.4318 69.0525L36.4135 66.4844C37.0373 64.8525 37.6347 63.2074 38.2908 61.5882C38.5504 60.9474 38.8333 60.3167 39.1676 59.711C39.3288 59.419 39.5016 59.1331 39.6894 58.8574C39.8999 58.5483 40.0909 58.3976 40.417 58.227C40.9385 57.9543 41.3477 57.497 41.8713 57.2159C42.3853 56.9398 42.914 56.7926 43.4975 56.7862ZM45.1903 53.8745C45.2103 53.8402 45.2631 53.8555 45.2638 53.8944C45.2774 54.7055 45.0848 55.5342 44.9663 56.3362C44.8472 57.141 44.809 57.9905 44.6369 58.7867C44.6333 58.8238 44.6261 58.8603 44.616 58.8962L44.6078 58.9235C44.5351 59.1466 44.3461 59.3357 44.1142 59.3947C44.1871 59.799 44.2558 60.2039 44.3136 60.611C44.4129 61.3108 44.5035 62.0116 44.5925 62.7126L44.6992 63.5539C44.7999 64.3467 44.8978 65.1399 44.9946 65.9332C45.2408 66.0362 45.4921 66.1212 45.7494 66.1948C46.342 66.3644 46.949 66.4334 47.5605 66.4934C48.8059 66.6156 50.0607 66.6722 51.3105 66.7416L51.5783 66.7567C52.9833 66.8373 54.3961 66.8516 55.7976 66.7073C56.4926 66.6358 57.1821 66.5158 57.8598 66.3458C58.2042 66.2593 58.5389 66.1302 58.8825 66.0458C58.9965 66.0177 59.0984 65.9531 59.2126 65.8841C59.2633 65.82 59.3345 65.7714 59.4272 65.7527L59.4523 65.7483L59.4772 65.7447L59.4857 65.7408L59.4851 65.7435C59.5554 65.734 59.6222 65.7341 59.6852 65.7427C59.7102 65.1242 59.7374 64.5057 59.7715 63.8873C59.8629 62.2266 60.1153 60.4941 59.7784 58.8478C59.7671 58.7925 59.8424 58.773 59.862 58.8248C60.5232 60.5676 60.449 62.4733 60.4823 64.3076C60.5148 66.1014 60.4951 67.8964 60.4862 69.6907C60.6147 69.7454 60.7292 69.8195 60.82 69.9235C61.0013 70.1314 61.0534 70.4927 60.82 70.6933C60.7165 70.7822 60.602 70.844 60.4806 70.8868C60.4741 72.4455 60.4631 74.0044 60.4474 75.5632C60.7438 75.7921 60.7715 76.3358 60.4363 76.5617C60.3805 81.6097 60.2888 86.6577 60.2128 91.7049L60.0534 102.294C60.0322 103.705 59.9971 105.116 59.9845 106.526L59.9945 106.53L60.0297 106.547C60.0891 106.574 60.1774 106.62 60.1958 106.666C60.2006 106.678 60.2018 106.686 60.2012 106.692C60.2985 106.706 60.3948 106.752 60.4781 106.831C60.6839 107.027 60.6421 107.321 60.4781 107.52L60.4343 107.574C60.3321 107.698 60.1381 107.746 59.9796 107.72C59.9812 108.601 59.9868 109.481 59.984 110.362C59.9831 110.631 59.9791 110.9 59.9744 111.169L59.9633 111.814C59.956 112.182 59.9234 112.649 59.5466 112.814C59.1216 113.001 58.7405 112.848 58.5684 112.416C58.5218 112.299 58.5318 112.19 58.5488 112.075C58.5435 111.901 58.5163 111.7 58.5197 111.538L58.5337 110.866C58.5359 110.762 58.5401 110.659 58.5431 110.555L58.5308 110.556C57.0205 110.63 55.4997 110.594 53.987 110.593L53.3142 110.594C52.7528 110.595 52.1903 110.592 51.6297 110.57L51.4196 110.561C51 110.542 50.5586 110.535 50.1236 110.498C50.179 110.944 50.2308 111.391 50.277 111.839C50.3207 112.263 49.8829 112.624 49.4924 112.624C49.0285 112.624 48.7632 112.259 48.7077 111.839C48.4456 109.857 48.3384 107.856 48.088 105.873C47.8637 104.096 47.6692 102.315 47.4715 100.536L47.4055 99.9422C46.682 93.4648 45.9797 86.9849 45.3079 80.5019L44.9951 77.4712C44.6791 74.4167 44.3614 71.3619 44.0934 68.3028C43.9401 66.5539 43.7989 64.8046 43.666 63.0539C43.5685 61.7678 43.5073 60.4888 43.4674 59.2052C43.3102 59.0434 43.2314 58.8071 43.301 58.5631C43.3417 58.4207 43.3891 58.2791 43.4391 58.1377C43.4359 57.9988 43.4327 57.8599 43.43 57.7208C43.4274 57.5892 43.561 57.5215 43.6679 57.5433C43.8622 57.0726 44.0762 56.606 44.2548 56.1399C44.5438 55.3855 44.782 54.5725 45.1903 53.8745ZM29.0489 62.0284C32.0702 60.1342 35.6667 58.7712 39.2688 58.9179C39.3507 58.9213 39.3738 59.0462 39.2887 59.0651C37.3674 59.4943 35.4249 60.017 33.6059 60.7778C31.7816 61.5409 30.0469 62.5683 28.502 63.803C25.6514 66.0811 23.4358 69.0442 21.9769 72.3843C21.1224 74.341 20.5234 76.4067 20.0004 78.4731C19.4469 80.66 18.9907 82.8705 18.6115 85.0943C17.8623 89.487 17.4262 93.928 17.1941 98.3767C16.958 102.902 17.0553 107.431 16.8869 111.957C16.8578 112.741 15.7374 112.725 15.6804 111.957C15.2989 106.811 15.5103 101.583 15.8631 96.4408C16.1804 91.8182 16.7345 87.2052 17.6267 82.657L17.7044 82.2628C18.5385 78.0548 19.5446 73.7448 21.561 69.934C23.2825 66.6806 25.9402 63.9775 29.0489 62.0284ZM71.0049 82.1396C71.0206 82.0945 71.0802 82.0951 71.0961 82.1396C71.4405 83.1041 71.4529 84.1924 71.5444 85.2092L71.5516 85.2872C71.6394 86.2146 71.7055 87.1431 71.767 88.0723L71.7899 88.4209C72.0366 92.2118 72.3449 95.9984 72.8097 99.7694C73.2727 103.526 73.8988 107.257 74.5759 110.98C74.6513 111.394 74.4678 111.817 74.0332 111.936C73.6502 112.041 73.1584 111.805 73.0774 111.393C72.6571 109.256 72.3172 107.116 72.014 104.961C71.4801 101.165 71.0818 97.3518 70.8256 93.5272C70.6971 91.6064 70.618 89.6863 70.5865 87.7613C70.572 86.8682 70.5952 85.9729 70.6427 85.0807L70.6541 84.8748C70.7066 83.9629 70.7012 83.0092 71.0049 82.1396ZM38.3573 106.286C38.3977 106.264 38.4476 106.309 38.4221 106.35C37.837 107.302 37.0456 108.122 36.2806 108.93C35.4809 109.775 34.701 110.645 33.8852 111.474C33.2957 112.072 32.3475 111.107 32.9696 110.558C33.8443 109.786 34.7586 109.052 35.6488 108.298L36.0382 107.968C36.7681 107.351 37.5197 106.739 38.3573 106.286ZM66.1439 105.809C66.1003 105.726 66.2 105.659 66.2678 105.714C66.7397 106.098 67.1626 106.556 67.6183 106.961C68.0696 107.362 68.5377 107.736 69.0186 108.101C69.5015 108.468 69.9949 108.82 70.5016 109.153C70.9219 109.429 71.3551 109.65 71.7953 109.88C71.9991 109.906 72.1879 110.006 72.339 110.196C72.5778 110.496 72.6032 111.061 72.2719 111.322L72.2124 111.369C71.8258 111.673 71.3667 111.71 70.9861 111.369C70.5611 110.988 70.1594 110.569 69.7512 110.167L69.6286 110.046C69.19 109.62 68.7621 109.18 68.3587 108.72L67.9935 108.304C67.316 107.531 66.6107 106.698 66.1439 105.809ZM63.9708 61.2497C63.8923 61.1977 63.9407 61.0577 64.0376 61.0911L64.2153 61.1526C64.9579 61.4107 65.7222 61.697 66.3964 62.0944C67.1209 62.5215 67.7898 63.0302 68.4289 63.576C69.7518 64.7057 70.8773 66.0949 71.8338 67.5429C73.753 70.4484 74.9398 73.776 75.8981 77.1055C76.9198 80.6556 77.7065 84.2821 78.3488 87.9188C79.0015 91.6147 79.505 95.3439 79.8359 99.0826C79.9989 100.924 80.1083 102.767 80.1633 104.615C80.1917 105.566 80.1908 106.516 80.1829 107.467C80.1808 107.711 80.1825 107.956 80.1852 108.2L80.1945 108.934C80.1995 109.398 80.255 109.885 80.1448 110.338C79.9675 111.067 78.7621 110.931 78.8018 110.186C78.7654 109.938 78.764 109.682 78.7734 109.425C78.7677 109.392 78.7615 109.358 78.7546 109.323C78.7348 109.225 78.7516 109.134 78.7903 109.055C78.7965 108.932 78.8022 108.81 78.8042 108.689C78.8121 108.2 78.8116 107.712 78.7981 107.222C78.7695 106.19 78.7285 105.158 78.687 104.126C78.6042 102.065 78.4889 100.002 78.3219 97.9456C77.7406 90.7871 76.5133 83.5878 74.4517 76.7008C73.4942 73.5026 72.1742 70.3631 70.2812 67.5995C69.4409 66.3726 68.4928 65.2394 67.4418 64.1876C66.3841 63.1293 65.2186 62.0764 63.9708 61.2497ZM49.7059 107.397L49.8487 108.431C49.9201 108.948 49.9909 109.465 50.058 109.982C50.514 109.92 50.9805 109.894 51.4199 109.855C52.1891 109.787 52.9637 109.754 53.7352 109.722C55.3306 109.656 56.934 109.542 58.5311 109.55C58.5475 109.55 58.5629 109.551 58.5784 109.552L58.6576 107.512L57.5355 107.511C56.5849 107.509 55.6344 107.501 54.6837 107.493C53.8275 107.486 52.971 107.484 52.1149 107.467L51.748 107.458C51.0988 107.44 50.382 107.476 49.7059 107.397ZM58.7516 104.437C58.7058 104.442 58.6592 104.446 58.6097 104.449C58.3875 104.458 58.1635 104.451 57.941 104.453C57.4675 104.457 56.994 104.461 56.5203 104.461C55.5732 104.46 54.6261 104.466 53.6792 104.478C52.7043 104.489 51.73 104.506 50.755 104.508C50.2826 104.509 49.8118 104.497 49.3395 104.483C49.4159 105.155 49.4957 105.826 49.5839 106.495C50.3172 106.396 51.1059 106.446 51.8226 106.439L51.9157 106.438C52.8938 106.421 53.8729 106.433 54.8513 106.434C55.8578 106.436 56.8643 106.439 57.8709 106.447L58.6978 106.454L58.6994 106.412C58.7237 105.754 58.7393 105.096 58.7516 104.437ZM48.9757 101.225C49.0674 102.018 49.1535 102.811 49.2412 103.605C49.2995 103.596 49.3585 103.588 49.4187 103.582C49.8917 103.532 50.3638 103.49 50.8385 103.46C51.7849 103.402 52.7312 103.371 53.6791 103.345C54.6539 103.319 55.6288 103.299 56.6038 103.285C57.0776 103.279 57.5509 103.279 58.0246 103.283C58.2469 103.284 58.4714 103.277 58.6932 103.292C58.7196 103.294 58.7449 103.297 58.77 103.3L58.7866 102.108C58.7895 101.91 58.7925 101.711 58.7957 101.513C58.0635 101.558 57.3192 101.541 56.5876 101.541L56.419 101.541C55.4997 101.545 54.58 101.533 53.6609 101.514C52.7126 101.494 51.7663 101.463 50.8198 101.402C50.4363 101.378 50.0556 101.345 49.6742 101.303L49.4834 101.281C49.3175 101.262 49.1466 101.246 48.9757 101.225ZM58.8712 97.8626C57.1078 98.0026 55.3539 98.0611 53.5859 98.0785L53.3206 98.0808C51.7582 98.0927 50.183 98.1571 48.6169 98.1157C48.7106 98.9278 48.8039 99.74 48.898 100.552C49.1223 100.541 49.3476 100.541 49.5669 100.533C50.0128 100.517 50.4571 100.513 50.9033 100.512C51.8224 100.51 52.7416 100.518 53.6608 100.516C54.6081 100.514 55.5552 100.498 56.5024 100.481C57.2703 100.466 58.0463 100.408 58.8163 100.41L58.8712 97.8626ZM58.9454 94.3983C58.7411 94.4661 58.4998 94.4705 58.2354 94.4826L57.5527 94.5166C57.2364 94.5322 56.92 94.5467 56.6034 94.5583C55.5485 94.5969 54.4936 94.633 53.4385 94.6666C52.3574 94.7009 51.271 94.7209 50.1897 94.6868C49.66 94.6701 49.1348 94.6423 48.6067 94.5981C48.4762 94.5872 48.3431 94.58 48.2098 94.5706C48.3327 95.6466 48.4561 96.7224 48.5799 97.7983C50.1385 97.6069 51.7091 97.4878 53.2657 97.2899L54.6733 97.1101C56.0801 96.9305 57.4859 96.7542 58.8979 96.6056L58.9454 94.3983ZM59.0208 90.8951C58.721 90.9691 58.3793 90.9655 58.0914 90.9836L58.0381 90.9873C57.4926 91.0287 56.9457 91.0494 56.3989 91.0629C55.3273 91.0893 54.255 91.1025 53.183 91.1091L52.5384 91.1131C51.679 91.1181 50.8202 91.1203 49.9606 91.1003C49.4092 91.0875 48.8591 91.0604 48.3082 91.0328C48.1431 91.0245 47.9744 91.019 47.8051 91.0105C47.9203 92.0293 48.0366 93.0477 48.1527 94.0662C48.3337 94.0375 48.5156 94.0156 48.6889 93.9863C49.133 93.9112 49.5762 93.8513 50.0234 93.7977C50.9921 93.6816 51.9658 93.598 52.9391 93.5275C53.9382 93.4551 54.9382 93.3938 55.9375 93.3237L56.6452 93.2738C56.8811 93.2574 57.117 93.2416 57.353 93.2271C57.7561 93.2024 58.2247 93.2303 58.6245 93.1425C58.7327 93.0974 58.8529 93.0871 58.9733 93.1128L59.0208 90.8951ZM59.1112 86.7943C59.0075 86.9261 58.8526 86.9952 58.6679 87.0191C57.7057 87.1439 56.7187 87.164 55.7483 87.2228L55.5773 87.2336C54.5754 87.2997 53.5729 87.3515 52.5702 87.4048C51.5402 87.4595 50.5104 87.5041 49.4796 87.54C49.0419 87.5553 48.6021 87.5571 48.1638 87.5514L47.9761 87.5486C47.7961 87.5456 47.6076 87.546 47.4186 87.5399C47.5232 88.4924 47.6288 89.4449 47.7358 90.3971C47.9285 90.3762 48.121 90.3602 48.3078 90.3404C48.8585 90.2822 49.4084 90.2246 49.9603 90.1811C51.006 90.0987 52.0525 90.0491 53.1002 89.9973C54.1721 89.9442 55.2445 89.9088 56.3166 89.8587C56.8363 89.8344 57.3559 89.8042 57.8742 89.7564C58.2374 89.723 58.6688 89.5993 59.0477 89.6448C59.0684 88.6946 59.09 87.7444 59.1112 86.7943ZM59.1959 83.1218C59.1795 83.1473 59.1603 83.1718 59.137 83.1947C58.7134 83.6134 58.1913 83.5811 57.6299 83.625L57.5955 83.6278C57.0453 83.6741 56.4949 83.7181 55.9441 83.7578C54.8431 83.8374 53.7399 83.893 52.6373 83.9425C51.5089 83.9933 50.3732 84.0282 49.2437 84.0051C48.5204 83.9903 47.7629 83.9929 47.0251 83.9224C47.1384 84.9715 47.2524 86.0205 47.3672 87.0694C47.5746 87.0303 47.7834 87.0003 47.9812 86.9692C48.4795 86.8908 48.9784 86.8119 49.4797 86.7542C50.4813 86.6388 51.4832 86.531 52.4868 86.4336C53.3451 86.3504 54.203 86.2658 55.0619 86.1898L55.5774 86.1452C56.6022 86.059 57.6399 85.9168 58.668 85.8957C58.8374 85.8923 59.029 85.9845 59.1261 86.1301C59.1488 85.1273 59.1723 84.1246 59.1959 83.1218ZM59.267 80.1478C59.0053 80.1796 58.7234 80.1615 58.4819 80.1694C57.8713 80.1894 57.2606 80.2079 56.6499 80.2259L52.9857 80.3341C51.7382 80.3709 50.4863 80.3985 49.2383 80.3808C48.6893 80.3731 48.1379 80.3722 47.5891 80.3423L47.4062 80.3312C47.1804 80.3162 46.9032 80.3141 46.6326 80.2865L46.9521 83.2475C47.6863 83.1414 48.4429 83.1017 49.1709 83.0395L49.3264 83.0258C50.4001 82.9279 51.4789 82.8632 52.5545 82.7903C53.6578 82.7156 54.7596 82.6249 55.8614 82.5321C56.4121 82.4858 56.9627 82.4396 57.513 82.3889L57.581 82.3822C58.1008 82.3279 58.5896 82.2124 59.05 82.519C59.1174 82.5638 59.1701 82.6237 59.2062 82.6908C59.2263 81.8431 59.246 80.9954 59.267 80.1478ZM59.3527 76.692C57.1212 76.7819 54.8894 76.85 52.6562 76.88C51.3992 76.8968 50.1437 76.8849 48.8869 76.8587C48.3419 76.8472 47.7924 76.8212 47.2478 76.7794L47.0438 76.763C46.7849 76.7412 46.5129 76.7254 46.242 76.6993C46.354 77.7173 46.465 78.7355 46.5752 79.7539C46.8416 79.7044 47.1201 79.6815 47.3536 79.6516L47.4066 79.6446C47.9868 79.5647 48.5724 79.5182 49.1554 79.4669C50.2906 79.3668 51.4315 79.3024 52.5697 79.2476C53.7353 79.1915 54.9015 79.1439 56.0673 79.0921L57.2331 79.0399C57.4274 79.0313 57.6217 79.0228 57.816 79.0146C58.0937 79.0029 58.3713 78.9917 58.6489 78.9802C58.7858 78.9745 58.9281 78.9559 59.0652 78.963L59.1042 78.9578C59.1222 78.9555 59.1381 78.9536 59.1527 78.9521C59.19 78.9237 59.2302 78.9001 59.2727 78.8822L59.2985 78.8722L59.3527 76.692ZM45.8757 73.4176C45.9793 74.3341 46.0818 75.2508 46.1829 76.1676C46.5012 76.1312 46.8232 76.1111 47.1272 76.0838C47.7399 76.0288 48.3556 75.9807 48.9702 75.9524L50.1986 75.8954C51.0175 75.8575 51.8363 75.8208 52.6558 75.7909C54.8984 75.7091 57.1411 75.6152 59.3824 75.5007C59.3982 74.8789 59.4145 74.2572 59.4312 73.6354C59.3236 73.7507 59.1682 73.8265 58.9639 73.826C56.6109 73.8197 54.256 73.8333 51.9032 73.7946C50.7255 73.7752 49.5491 73.7466 48.3727 73.6862C47.7971 73.6567 47.2183 73.5964 46.6471 73.5172C46.4035 73.4835 46.1369 73.4594 45.8757 73.4176ZM45.4998 70.1518C45.6104 71.0906 45.7189 72.0297 45.8256 72.9689C46.1179 72.9168 46.4197 72.889 46.6924 72.8519C47.2781 72.7722 47.8675 72.7087 48.4575 72.6754C49.6055 72.6105 50.7542 72.5777 51.9038 72.5533C54.2565 72.5033 56.6115 72.5037 58.9646 72.4851C59.1857 72.4833 59.3498 72.5708 59.4575 72.7014C59.4738 72.1152 59.4911 71.5289 59.5088 70.9425C59.2816 70.9186 59.0562 70.8846 58.8477 70.87C58.2068 70.8252 57.5657 70.7843 56.9243 70.7476C55.5858 70.6707 54.2461 70.6052 52.9068 70.5469C51.567 70.4886 50.2269 70.4316 48.8868 70.3819L48.3007 70.3605C47.3687 70.3259 46.421 70.2821 45.4998 70.1518ZM45.078 66.6164C45.1932 67.5672 45.3065 68.5182 45.4197 69.4693L45.4541 69.7636C46.5749 69.5457 47.7562 69.4818 48.8864 69.4338C50.2268 69.3767 51.5648 69.3474 52.9064 69.3515C54.2466 69.3555 55.5848 69.3872 56.9239 69.4426C57.5931 69.4702 58.2621 69.5022 58.9309 69.5385C59.1147 69.5485 59.3303 69.5432 59.5522 69.5464C59.557 69.3969 59.5611 69.2475 59.5663 69.0981C59.5866 68.4927 59.6066 67.8874 59.6273 67.2821C59.175 67.5145 58.5869 67.6082 58.1324 67.7073L58.0805 67.7187C57.33 67.8874 56.5636 67.9967 55.7975 68.0635C54.293 68.1948 52.7728 68.1457 51.2698 68.0186L51.0065 67.996C49.6866 67.8815 48.3182 67.7364 47.0387 67.4097C46.4292 67.2541 45.799 67.0363 45.2529 66.7207C45.1961 66.6878 45.1375 66.6531 45.078 66.6164ZM57.7872 55.3169C57.8002 55.2655 57.8772 55.2538 57.9025 55.3019C58.0802 55.6397 58.1464 56.0451 58.2698 56.407C58.4026 56.7961 58.5265 57.1881 58.673 57.5725C58.9791 58.3756 59.3402 59.1473 59.7707 59.8913C60.1971 60.6279 59.0032 61.1538 58.6895 60.3473C58.3656 59.515 58.0993 58.6545 57.9383 57.7751C57.8596 57.346 57.7895 56.9111 57.7668 56.4751C57.7472 56.1006 57.6946 55.6822 57.7872 55.3169Z" fill="#151E22"/>
<path fill-rule="evenodd" clip-rule="evenodd" d="M66.5001 38.9756C66.4666 37.0905 66.4296 35.1677 66.1495 33.301C65.8756 31.476 65.1222 29.8263 63.8275 28.5011C61.0775 25.686 57.0912 24.9985 53.3807 24.3683L47.0368 23.291C45.1014 22.9624 43.0366 22.4371 41.0811 22.9032C40.1176 23.1328 39.2993 23.6663 38.5514 24.2975C37.8306 24.9059 37.0555 25.5592 36.5671 26.3777C36.0778 27.1974 35.9094 28.1556 35.7504 29.0827C35.571 30.1279 35.4316 31.1813 35.3326 32.2372C35.1341 34.3527 35.1071 36.4841 35.251 38.604C35.3207 39.6322 35.4317 40.6574 35.5733 41.6782C35.6435 42.1843 35.723 42.6892 35.8126 43.1923C35.839 43.3407 35.8591 43.5049 35.8862 43.6709C35.6861 44.2402 35.5724 44.8299 35.5816 45.417C35.6086 47.1464 37.0677 48.2352 38.5387 48.8198C39.3917 49.1587 40.2834 49.389 41.1214 49.7677C42.003 50.166 42.6031 50.8117 43.2059 51.5482C44.3555 52.953 45.6528 54.2156 47.1342 55.2689C50.2749 57.5023 54.2529 58.5587 58.0637 57.7569C58.978 57.5645 59.9004 57.2658 60.7223 56.8157C61.5901 56.3405 62.2426 55.6519 62.7905 54.8378C63.8079 53.3264 64.5375 51.6245 65.0895 49.8926C65.6524 48.126 66.0521 46.3562 66.27 44.5141C66.4872 42.6779 66.533 40.8231 66.5001 38.9756Z" fill="#151E22"/>
<path fill-rule="evenodd" clip-rule="evenodd" d="M46.2555 16.7264C48.8808 16.3652 52.5042 17.5393 53.8116 19.9067C60.0535 18.4346 67.9262 18.3864 73.0708 23.287C78.439 29.1002 71.6963 36.7648 67.2253 38.4929C67.5508 40.0755 67.0432 50.2142 63.4519 54.7366C60.6017 58.5684 53.9644 60.3368 50.8931 55.76L50.8691 55.7222C50.5401 55.1937 50.8235 55.2106 51.1612 55.6038C54.1687 58.2496 58.2578 58.2948 61.4089 55.5026C67.3145 50.399 66.7056 37.8852 63.8955 30.6458C55.8935 29.7666 47.326 32.1929 41.7992 38.2187L42.1729 40.4695C42.2366 40.853 42.3089 41.2361 42.3641 41.6209C42.3994 41.8675 42.4034 42.1127 42.2326 42.3123C41.6688 42.9711 40.7185 41.9811 39.9367 41.5872C39.7058 41.5548 39.4746 41.5422 39.2478 41.5582C35.4914 42.0422 36.2315 49.332 40.3601 48.0542C40.707 47.8381 41.005 47.904 41.1396 48.2177C42.1237 49.1195 42.7725 50.7277 44.4075 52.2767C44.9844 52.8578 45.5093 53.3439 46.1582 53.81C46.5393 54.1956 47.6894 54.5887 47.3248 55.2485C46.6354 56.7499 42.57 52.0338 41.8512 50.7296C39.5992 51.6192 37.1035 51.317 34.7697 51.0996C22.4577 50.4592 24.1013 37.4759 34.1932 29.2789C36.0928 27.8798 38.1887 26.7385 40.3674 25.8603C40.6649 25.7404 40.5349 25.2518 40.2333 25.3734C38.7917 25.9546 37.3864 26.6464 36.0467 27.4471L36.0447 26.9684C36.0427 26.1621 36.0554 25.3227 36.1954 24.5861C36.2653 24.0756 36.383 23.5304 36.5642 23.1203C36.7882 21.8629 40.2971 17.5467 46.2555 16.7264ZM39.0839 43.2314C39.274 43.0507 39.6289 43.2661 39.7981 43.2607C40.2309 43.32 40.642 43.5028 40.9627 43.7285C41.1744 43.8472 41.3228 43.9586 41.4468 44.0611L41.4501 44.0602C41.4492 44.0602 41.448 44.0611 41.447 44.0613L41.4587 44.0692C41.6392 44.1975 42.3001 44.9203 41.8826 44.7259C41.8515 44.6855 41.8196 44.6466 41.7874 44.6085C41.784 44.6137 41.7792 44.6188 41.7735 44.6238L41.7969 44.6586C42.1518 45.1926 41.5391 44.63 41.4448 44.4806C41.4404 44.4842 41.4353 44.4866 41.4304 44.4892L41.5531 44.6387C41.5703 44.6599 41.5838 44.6769 41.595 44.6912L41.6209 44.7162C42.0312 45.1196 42.044 45.4828 41.5673 44.8862C41.5861 44.9143 41.6011 44.9441 41.6032 44.9706L41.6315 45.0066C42.0058 45.4891 41.7013 45.3177 41.5153 45.1116L41.4998 45.0939L41.503 45.0987C41.676 45.3654 41.3327 45.1783 41.272 45.0357L41.2695 45.0292C41.2034 44.9753 41.1627 44.9147 41.1487 44.8994L41.1461 44.8968C40.8243 44.567 40.3578 44.2879 39.9615 44.161C39.9041 44.1501 39.846 44.1414 39.7873 44.1351C39.549 44.0819 39.308 44.0455 39.0646 44.0258C39.0348 44.0223 39.0046 44.0004 38.9821 43.9721C38.614 43.9597 38.7276 43.8088 38.8803 43.7807L38.883 43.7803L38.8527 43.7777C38.6165 43.7547 38.4551 43.6699 38.694 43.6178L38.7243 43.6118C38.7206 43.606 38.7173 43.6002 38.7141 43.5944C38.5095 43.5719 38.643 43.373 38.7566 43.4211C38.7088 43.2649 38.9272 43.3429 38.9544 43.3196C38.9752 43.2966 39.001 43.2762 39.0159 43.2751C39.0817 43.2287 39.0498 43.2329 39.0839 43.2314ZM40.3353 40.702L40.2874 40.73C40.2486 40.7527 40.2087 40.7677 40.1687 40.7766C40.2252 40.8006 40.281 40.8266 40.3363 40.8544C40.3354 40.8205 40.3348 40.7866 40.3348 40.7527L40.3353 40.702Z" fill="#151E22"/>
<path fill-rule="evenodd" clip-rule="evenodd" d="M59.0521 51.0091C58.4324 51.1887 57.7673 51.2047 57.1357 51.0193C56.5628 50.8511 55.9745 50.481 55.5529 49.9912C55.1783 49.5561 54.9358 49.0274 54.9453 48.463C54.9464 48.3985 54.9694 48.3447 55.0048 48.3029C55.043 48.258 55.0963 48.2271 55.1534 48.2137C55.2121 48.1999 55.2742 48.2048 55.327 48.2288C55.3748 48.2506 55.4158 48.2875 55.4415 48.3415C55.5063 48.4266 55.5708 48.5105 55.6356 48.5921C56.1566 49.2357 56.6612 49.7167 57.4446 49.8892C57.8697 49.9828 58.2942 49.9413 58.6838 49.7984C59.1007 49.6455 59.4777 49.3767 59.7731 49.0327C59.9065 48.8772 60.0641 48.8138 60.2182 48.8127C60.3929 48.8115 60.5655 48.8927 60.6955 49.0224C60.8233 49.1499 60.9089 49.3233 60.9167 49.5045C60.9235 49.6637 60.8716 49.8299 60.7335 49.9781C60.2789 50.4666 59.6896 50.8244 59.0521 51.0091ZM59.033 42.9483C59.6682 43.3345 60.636 44.2352 59.9527 45.1927C59.1484 46.037 57.9903 45.069 57.4197 44.6312C56.8905 44.2919 56.296 45.1645 56.7869 45.5607C60.9106 48.6149 62.5841 43.0493 59.3543 42.4942C58.9987 42.433 58.8666 42.8288 59.033 42.9483ZM53.0916 41.2488C52.8874 41.1182 52.6473 41.0734 52.3811 41.1945C52.1731 41.2891 51.8083 41.6045 51.5545 42.0192C51.3808 42.3029 51.2576 42.6357 51.2833 42.9823C51.2892 43.0628 51.2595 43.1222 51.2126 43.1661C51.1755 43.2008 51.122 43.2262 51.0592 43.2342C51.0058 43.241 50.9461 43.2349 50.8975 43.2197C50.8052 43.1908 50.7563 43.1309 50.7379 43.082C50.5601 42.6097 50.6367 42.0827 50.8359 41.6073C51.1048 40.9656 51.593 40.4282 51.9129 40.2549C52.4603 39.9582 53.1061 39.9446 53.6542 40.2468C54.1209 40.504 54.4126 40.9192 54.7028 41.3425C54.7645 41.4325 54.8258 41.5218 54.889 41.6095C55.0159 41.7853 55.0285 41.9597 54.9794 42.1093C54.925 42.2749 54.7862 42.4147 54.6128 42.4879C54.4524 42.5555 54.2663 42.565 54.1017 42.4955C53.9626 42.4368 53.8349 42.3224 53.7541 42.1283C53.6181 41.8013 53.3914 41.4406 53.0916 41.2488ZM63.4597 41.9764C63.3199 42.0492 63.2105 42.0712 63.0554 42.0247C62.9697 41.999 62.8849 41.9496 62.8185 41.8832C62.7527 41.8174 62.7053 41.7355 62.6868 41.6448C62.6415 41.4207 62.519 41.211 62.3443 41.0743C62.1951 40.9575 62.0067 40.8955 61.7978 40.9305C61.5723 40.9681 61.3575 41.1128 61.2096 41.2833C61.1601 41.3404 61.1214 41.4052 61.0824 41.4696C61.0095 41.59 60.9386 41.7019 60.8381 41.7903C60.8 41.824 60.7426 41.8472 60.687 41.8472C60.6643 41.8472 60.6414 41.8436 60.6195 41.8368C60.3951 41.6114 60.352 41.4405 60.3592 41.271C60.3668 41.0932 60.4369 40.9132 60.5501 40.7452C60.8157 40.3512 61.32 40.0282 61.6603 39.955C62.1263 39.8548 62.5892 39.9751 62.9603 40.2355C63.3421 40.5034 63.625 40.9194 63.7132 41.3882C63.7344 41.5011 63.7254 41.623 63.6824 41.7287C63.6404 41.8319 63.5672 41.9204 63.4597 41.9764ZM54.1189 37.0487C53.8392 37.3213 53.5082 37.3635 53.1733 37.4011C52.9872 37.4221 52.8387 37.4391 52.6925 37.4721C52.2908 37.5628 51.8936 37.6995 51.5313 37.8963C51.1526 38.102 50.7398 38.3501 50.4429 38.6679C50.3723 38.7436 50.3057 38.8229 50.2391 38.9025C50.1783 38.975 50.1197 39.0448 50.058 39.1121C49.9872 39.1895 49.9199 39.2705 49.8529 39.3513C49.8115 39.4195 49.8034 39.4363 49.795 39.4538C49.7825 39.48 49.7679 39.5094 49.7512 39.5409C49.7284 39.584 49.7017 39.6313 49.6737 39.6741C49.6271 39.7524 49.6021 39.7739 49.5805 39.7836C49.5447 39.7995 49.5107 39.8074 49.4777 39.8031C49.4468 39.7991 49.4177 39.7843 49.3889 39.76C49.2453 39.6386 49.203 39.4394 49.2073 39.228C49.2139 38.9072 49.3322 38.5519 49.4413 38.3336C49.6948 37.8262 50.0465 37.2987 50.4693 36.92C50.9518 36.4878 51.4796 36.1605 52.0859 35.935C52.4627 35.7948 52.899 35.6661 53.3095 35.6824C53.6049 35.6941 53.887 35.782 54.12 36.0014C54.263 36.1361 54.3317 36.3277 54.3317 36.5191C54.3317 36.7144 54.2603 36.9108 54.1189 37.0487ZM64.0286 39.545C64.0108 39.5741 63.9862 39.5942 63.9588 39.6063C63.9301 39.6189 63.8981 39.6226 63.8673 39.6174C63.8367 39.6122 63.8075 39.5984 63.7845 39.5771C63.7623 39.5568 63.7455 39.5298 63.7379 39.4967C63.5522 38.6809 63.1917 38.0739 62.4221 37.6824C62.0436 37.4899 61.6083 37.3675 61.1962 37.27C61.0764 37.2416 60.9499 37.2232 60.8224 37.2046C60.4231 37.1463 60.0208 37.0795 59.7605 36.7565C59.6036 36.562 59.5378 36.3132 59.575 36.0857C59.61 35.8715 59.7352 35.6751 59.9626 35.5573C60.5289 35.2644 61.2327 35.5519 61.8046 35.7967C61.847 35.8149 61.8886 35.8327 61.9294 35.8499C62.4886 36.0861 62.9987 36.3978 63.418 36.8436C63.7507 37.1972 64.0589 37.7201 64.1831 38.2579C64.2863 38.7054 64.262 39.1622 64.0286 39.545Z" fill="#151E22"/>
<path fill-rule="evenodd" clip-rule="evenodd" d="M59.1265 46.2272C58.191 45.8057 56.5112 46.1735 55.9014 46.3197C54.4836 46.6599 53.0574 47.3949 52.6166 48.5465C52.1199 49.8443 53.1109 50.2529 53.2567 50.1861C54.2382 50.2553 55.407 49.6381 56.4355 49.4788C57.2704 49.3483 58.1512 49.2345 58.9334 48.7907C59.5046 49.105 60.7946 49.2749 61.8357 49.5497C62.7224 49.7836 63.1065 50.291 63.9285 50.1831C64.9137 50.0538 64.5104 47.981 63.4124 47.1413C62.2108 46.2223 60.1784 45.8496 59.1265 46.2272ZM60.9788 55.0899C60.1604 55.2895 60.1055 53.495 60.0138 52.8611C59.9421 52.3658 59.5382 51.0885 58.514 51.1436C57.4898 51.1987 57.1048 52.2688 57.1568 52.9344C57.1905 53.3661 57.5881 55.5524 56.319 55.829C55.5099 55.8261 54.5738 55.7715 53.7231 55.6146C52.7218 55.3877 51.4197 54.5934 51.0758 56.1577C50.952 56.7206 55.3628 58.3932 57.3201 58.5445C59.3051 58.947 61.6276 58.3282 63.0408 56.8091C63.3624 56.4635 64.2679 55.029 64.3324 54.6776C64.468 53.9392 64.1541 53.464 63.2408 53.7243C62.5956 54.0689 61.5052 54.9615 60.9788 55.0899Z" fill="#151E22"/>
<path fill-rule="evenodd" clip-rule="evenodd" d="M64.9356 44.3782C63.6732 44.9864 61.912 44.0893 61.0632 43.1496C60.7542 42.8075 60.5159 41.8286 60.6347 41.2077C60.9566 39.5264 62.1662 38.5173 63.4432 38.1727C65.2133 37.6949 66.9947 38.9053 66.787 40.3336C66.5901 41.6873 66.2917 43.6509 64.9356 44.3782ZM56.3428 41.1483C56.2416 42.9806 54.7707 44.5844 53.0126 45.0596C50.1801 45.8502 48.7803 43.8584 48.1462 41.7125C48.0832 41.4992 47.9351 40.8484 48.3325 40.2902C49.8956 38.0943 53.6988 38.4686 55.5983 39.0715C56.1543 39.6034 56.3816 40.3711 56.3428 41.1483ZM66.3075 37.9884C66.3066 37.9895 66.3056 37.9905 66.3048 37.9916C66.2982 37.9876 66.2918 37.9835 66.2851 37.9796C66.2925 37.9827 66.3003 37.9853 66.3075 37.9884ZM68.6771 38.1994C68.5126 36.3339 62.6612 37.0482 61.9771 37.2011C60.1101 37.7504 58.4975 39.2449 56.4101 38.588C54.2472 36.176 46.9637 36.8677 45.4368 38.0964C45.1478 37.9829 44.7964 38.0438 44.424 38.1508C42.5117 38.0817 33.7818 38.7412 35.5674 41.1828C35.8385 41.3708 36.1092 41.1795 36.1167 40.7921C45.4252 37.4306 44.5229 40.5792 45.6269 40.2114C45.7954 40.26 45.9713 40.2907 46.1252 40.323C46.9796 40.598 47.2697 40.513 47.3823 41.4726C48.1555 48.882 58.0185 46.3247 57.2096 40.2471C58.0105 40.203 58.7111 39.8566 59.5581 40.1949C60.1462 45.9201 64.7516 46.1512 66.1376 44.1665C67.1827 42.789 66.7683 40.7102 68.2049 39.6265C68.772 40.1013 68.8085 38.4989 68.6771 38.1994Z" fill="#151E22"/>
</g>
<g opacity="0.2">
<path fill-rule="evenodd" clip-rule="evenodd" d="M78.2784 106.724C78.0742 108.597 77.6117 110.659 78.4934 112.426C77.9381 112.451 78.3885 112.612 78.6882 112.667C78.8593 112.799 79.0893 112.852 79.3056 112.834C80.4284 113.071 81.5876 113.157 82.7277 113.291C96.9625 114.474 111.293 114.16 125.554 113.65C126.018 113.63 126.329 113.293 126.365 112.839C126.887 106.158 127.147 99.4565 127.134 92.7551C126.902 90.4001 128.681 91.3191 127.732 88.2158C126.969 84.9426 125.84 81.7565 124.4 78.7207C123.404 76.7451 122.466 74.6664 120.949 73.0282C120.469 72.962 120.061 72.4855 119.656 72.2194C119.246 72.1395 118.942 71.7909 118.526 71.6837C117.733 71.4775 115.959 71.0388 115.284 71.5664C115.258 71.5591 115.231 71.5529 115.204 71.5453C115.072 71.6918 114.891 71.5819 114.792 71.4502C114.455 71.1883 112.981 71.1614 112.813 70.7594C111.941 69.9679 111.708 68.3023 111.708 67.3278C111.382 66.9612 111.359 67.0293 110.916 66.8355C110.482 66.2879 109.958 65.8108 109.373 65.4347C106.079 63.2714 101.3 65.551 100.529 69.3112C99.3101 70.2767 98.0555 71.2574 96.5627 71.7604C95.8342 71.3855 95.0042 71.2658 94.231 71.2651C93.6547 71.2441 92.8582 70.9107 92.4837 71.5175C86.1821 73.5812 82.3789 79.5833 79.6746 85.2703C79.2955 86.08 78.8421 86.9278 78.9581 87.8503C79.0378 88.9551 80.2364 89.6127 80.0099 90.7835C79.6807 94.0043 79.3062 97.2218 78.9635 100.442C78.7351 102.536 78.5067 104.63 78.2784 106.724Z" fill="#151E22"/>
<path fill-rule="evenodd" clip-rule="evenodd" d="M124.378 91.3592C123.971 91.5067 123.4 91.6506 123.108 91.984C123.075 91.6733 123.041 91.3627 123.007 91.0519C123.861 91.0317 124.716 91.0243 125.57 91.0004C125.167 91.0991 124.769 91.2179 124.378 91.3592ZM122.503 110.904C122.209 110.906 121.914 110.927 121.621 110.938C121.055 110.96 120.49 110.982 119.924 111.003C118.77 111.046 117.617 111.088 116.463 111.128C114.178 111.208 111.892 111.281 109.607 111.348C105.036 111.483 100.463 111.564 95.8924 111.718C94.6245 111.761 93.3567 111.794 92.0899 111.863C91.4334 111.899 90.7739 111.929 90.1206 112.006C89.5695 112.07 89.0262 112.178 88.4782 112.258C88.5149 111.544 88.5494 110.83 88.5852 110.115C88.6191 109.439 88.6507 108.763 88.6821 108.087C90.8215 108.199 92.9635 108.245 95.1057 108.264C97.3718 108.284 99.6372 108.34 101.903 108.345C106.39 108.353 110.876 108.297 115.363 108.252C116.631 108.239 117.9 108.226 119.169 108.214C119.804 108.207 120.438 108.201 121.073 108.195C121.389 108.191 121.708 108.198 122.024 108.185C122.362 108.171 122.567 108.075 122.812 107.848C122.943 107.726 122.948 107.479 122.812 107.359C122.615 107.185 122.433 107.052 122.16 107.033C121.892 107.013 121.613 107.04 121.344 107.043C120.755 107.051 120.166 107.059 119.577 107.066C118.444 107.081 117.311 107.096 116.178 107.111C113.912 107.141 111.646 107.172 109.381 107.206C107.16 107.24 104.939 107.265 102.719 107.321C100.452 107.378 98.1878 107.481 95.9214 107.554C93.509 107.632 91.0978 107.724 88.6909 107.905C88.7487 106.652 88.802 105.399 88.8521 104.146C93.6313 104.406 98.4138 104.591 103.201 104.599C108.188 104.608 113.175 104.522 118.161 104.392C118.864 104.374 119.566 104.355 120.269 104.333C120.631 104.322 120.994 104.311 121.356 104.298C121.623 104.288 121.897 104.277 122.138 104.15C122.613 103.898 122.695 103.163 122.131 102.962C121.823 102.852 121.495 102.96 121.42 103.238C121.397 103.24 121.375 103.242 121.356 103.243C121.084 103.253 120.812 103.261 120.54 103.269C119.951 103.288 119.362 103.307 118.773 103.326C117.685 103.36 116.597 103.391 115.51 103.42C113.288 103.479 111.067 103.527 108.846 103.564C104.447 103.637 100.049 103.705 95.6517 103.805C93.387 103.857 91.123 103.924 88.8586 103.982C88.9127 102.619 88.9638 101.257 89.0098 99.8943C89.0152 99.7347 89.021 99.5749 89.0268 99.4152C89.3513 99.4865 89.6836 99.526 90.0142 99.5728C90.5878 99.654 91.1632 99.7141 91.7393 99.7749C92.8248 99.8895 93.9139 99.9598 95.0034 100.02C97.2246 100.142 99.4465 100.229 101.67 100.297C106.069 100.431 110.472 100.46 114.873 100.445C117.262 100.437 119.666 100.468 122.054 100.364C122.202 100.404 122.353 100.4 122.5 100.352C122.62 102.482 122.748 104.612 122.873 106.742C122.957 108.178 123.031 109.62 123.135 111.058C122.933 110.958 122.746 110.902 122.503 110.904ZM81.0956 89.2633C80.6765 89.0582 80.2144 88.8711 79.8445 88.5805C79.4401 88.2629 79.3408 87.8899 79.4651 87.3915C79.4744 87.3542 79.4853 87.3172 79.4949 87.2801C82.4747 87.2874 85.4469 87.1562 88.4254 87.0854C91.4515 87.0136 94.4765 86.9532 97.5034 86.9361C103.54 86.9021 109.576 87.0383 115.609 87.2079C117.782 87.2689 119.955 87.329 122.128 87.3884C122.079 87.9184 122.098 88.4614 122.087 88.9877C122.077 89.4499 122.079 89.9128 122.086 90.3757C120.949 90.3729 119.813 90.3483 118.676 90.3355C115.861 90.3038 113.048 90.3846 110.234 90.449C104.607 90.5778 98.9776 90.6792 93.3511 90.8487C91.8229 90.8947 90.2849 90.9189 88.7497 90.9843C88.6969 90.7346 88.6383 90.4861 88.5722 90.2393C88.4672 89.8471 88.3487 89.444 88.0346 89.1716C88.0195 89.1584 87.9987 89.1642 87.9919 89.1829C87.8726 89.5136 87.9028 89.8503 87.9377 90.1968C87.9653 90.4705 87.984 90.745 87.9978 91.0198C87.0432 91.07 86.0906 91.1407 85.143 91.2465C84.872 91.1125 84.6009 90.9789 84.3294 90.8459C83.2516 90.318 82.1735 89.7908 81.0956 89.2633ZM115.69 99.1102C113.466 99.1282 111.243 99.1301 109.02 99.1158C104.619 99.0876 100.22 98.9793 95.8197 98.8918C94.5952 98.8676 93.3722 98.8435 92.1475 98.8435C91.5134 98.8435 90.8772 98.8477 90.2439 98.8752C89.8452 98.8925 89.4411 98.895 89.0443 98.9429C89.0921 97.6606 89.142 96.377 89.1404 95.094C93.3379 95.73 97.5805 95.9046 101.819 96.0298C106.114 96.1565 110.41 96.2222 114.706 96.2285C115.927 96.2303 117.148 96.2276 118.369 96.2204C118.957 96.217 119.545 96.2125 120.133 96.2069C120.448 96.2039 120.766 96.2104 121.082 96.197C121.416 96.183 121.618 96.1038 121.851 95.8663C121.97 95.7448 121.976 95.535 121.851 95.414C121.435 95.0123 120.945 95.0995 120.404 95.1062C119.861 95.113 119.319 95.1188 118.776 95.1237C117.691 95.1336 116.605 95.1399 115.52 95.1427C113.395 95.148 111.269 95.1399 109.144 95.1182C104.849 95.0742 100.554 94.9787 96.26 94.8781C93.8859 94.8225 91.5123 94.8377 89.1402 94.9529C89.1393 94.7399 89.1373 94.5268 89.1331 94.3138C89.1175 93.5071 89.039 92.7004 88.9161 91.9026C90.0786 91.8986 91.2411 91.8737 92.3984 91.8589C95.2126 91.8228 98.0262 91.7661 100.84 91.7096C103.631 91.6536 106.422 91.5976 109.214 91.5416C112.003 91.4856 114.801 91.4816 117.587 91.331C119.091 91.2496 120.595 91.1391 122.1 91.0811C122.102 91.2192 122.105 91.3574 122.108 91.4955C122.145 93.1907 122.211 94.8841 122.296 96.5775C122.337 97.3911 122.381 98.2047 122.425 99.0182C122.404 99.0161 122.382 99.0148 122.359 99.0146C120.137 98.9998 117.912 99.0922 115.69 99.1102ZM80.5088 84.3887C80.7633 83.7335 81.0398 83.0828 81.3386 82.441C82.6074 82.7992 83.9609 82.9841 85.2704 83.1071C86.6644 83.2381 88.0611 83.3118 89.4609 83.3403C92.2205 83.3967 94.98 83.2658 97.7366 83.1518C103.407 82.9176 109.076 82.7466 114.751 82.7356C116.336 82.7324 117.921 82.7398 119.506 82.7577C120.298 82.7666 121.091 82.7773 121.883 82.7909C122.29 82.7979 122.698 82.8056 123.105 82.814C123.286 82.8177 123.468 82.8311 123.649 82.8256C123.89 82.8183 124.066 82.7458 124.289 82.6585C124.546 82.5584 124.698 82.1287 124.377 81.9864C124.057 81.844 123.8 81.7607 123.445 81.7529C123.06 81.7447 122.675 81.7371 122.29 81.73C121.589 81.7171 120.887 81.7064 120.185 81.6976C118.759 81.6798 117.332 81.6723 115.906 81.6725C113.099 81.6729 110.291 81.7061 107.484 81.7721C101.85 81.9047 96.2274 82.2976 90.5947 82.4662C89.0421 82.5127 87.4867 82.5218 85.9341 82.4752C84.4303 82.4301 82.9296 82.3035 81.4276 82.2502C81.9464 81.1561 82.5334 80.0906 83.1958 79.0775C85.6997 79.1655 88.1982 79.1004 90.7026 79.0241C92.0167 78.9841 93.3309 78.9435 94.6449 78.8984C95.302 78.8759 95.959 78.8533 96.6161 78.8308C96.9333 78.8199 97.2505 78.8091 97.5677 78.7982C97.9094 78.7865 98.269 78.8086 98.6009 78.7187C98.661 78.7024 98.7087 78.6676 98.7446 78.6233C99.628 79.0779 100.562 79.4365 101.523 79.7022C103.608 80.2791 105.851 80.4955 108.008 80.318C109.739 80.1755 111.464 79.7469 112.986 78.9077C116.423 79.2242 119.908 79.0755 123.352 79.053C123.681 79.0509 123.818 78.7493 123.763 78.5005C124.868 80.8835 125.601 83.467 126.286 85.9798C126.712 87.5415 127.091 89.1129 127.451 90.69C127.436 90.6913 127.421 90.6926 127.406 90.6941C127.448 90.5213 127.354 90.3177 127.118 90.3122C125.724 90.2802 124.325 90.3603 122.931 90.3732C122.892 90.0243 122.852 89.6753 122.811 89.3265C122.755 88.8514 122.687 88.3774 122.63 87.9023C122.609 87.73 122.59 87.5637 122.566 87.4001C123.67 87.4301 124.774 87.4605 125.878 87.4896C126.595 87.5086 126.593 86.3985 125.878 86.3767C119.811 86.1908 113.744 86.0031 107.675 85.9C101.603 85.7969 95.509 85.7333 89.441 86.0448C86.1343 86.2144 82.8357 86.4412 79.5701 87.0008C79.8237 86.1154 80.1776 85.2411 80.5088 84.3887ZM85.673 75.9542C85.7829 76.0366 85.8181 76.0886 85.9823 76.1175C86.1604 76.1486 86.3435 76.1586 86.5233 76.1762C86.9079 76.2139 87.2935 76.2279 87.6795 76.2462C88.4502 76.2828 89.2208 76.3216 89.992 76.3451C91.5229 76.3915 93.0866 76.4574 94.6168 76.3893C94.9912 76.3726 95.1615 76.0638 95.1275 75.7825C95.4145 76.138 95.7283 76.4718 96.0624 76.7761C96.5997 77.2652 97.1797 77.6988 97.7911 78.0814C97.3945 78.0959 96.9906 78.1457 96.6162 78.1618C95.9818 78.1889 95.3474 78.2161 94.713 78.2434C93.3761 78.3009 92.0394 78.3626 90.7027 78.4251C88.2289 78.5407 85.7635 78.6847 83.299 78.9207C84.0028 77.8626 84.7913 76.8645 85.673 75.9542ZM125.937 81.0932C124.892 78.223 123.544 75.2415 121.119 73.2702C119.873 72.2568 118.484 71.5559 116.911 71.2238C116.863 71.2136 116.844 71.2823 116.891 71.2978C119.611 72.1905 121.623 74.5524 122.985 76.9729C123.231 77.4116 123.46 77.8607 123.676 78.3166C123.606 78.2308 123.498 78.1737 123.352 78.1761C120.136 78.2302 116.882 78.1757 113.674 78.49C113.755 78.4354 113.837 78.3809 113.918 78.3235C114.794 77.6986 115.583 76.9339 116.235 76.0678C116.628 76.1674 117.041 76.1917 117.442 76.2298C117.977 76.2806 118.515 76.3039 119.052 76.3328C119.587 76.3615 120.125 76.3642 120.661 76.3772C121.03 76.3861 121.75 76.4473 121.751 75.8834C121.751 75.3188 121.03 75.3785 120.661 75.3859C120.125 75.3965 119.587 75.398 119.052 75.4232C118.538 75.4472 118.021 75.4667 117.509 75.5127C117.196 75.5407 116.875 75.5591 116.561 75.6088C117.072 74.8458 117.479 74.0147 117.751 73.1381C117.778 73.0499 117.787 72.9675 117.783 72.8912C117.898 72.7695 117.971 72.6028 117.971 72.4501C117.971 72.087 117.688 71.8743 117.358 71.8364C116.05 71.6868 114.608 71.4736 113.554 70.613C113.078 70.2247 112.695 69.7656 112.335 69.2715C111.93 68.7162 111.778 68.0166 111.777 67.3369C111.777 67.2987 111.713 67.2872 111.708 67.3275C111.51 68.7057 111.795 70.2788 112.784 71.3114C113.755 72.3252 115.073 72.705 116.412 72.9268C115.86 74.5033 114.949 75.8881 113.671 76.9771C112.246 78.1905 110.442 78.8395 108.604 79.0845C106.62 79.3487 104.541 79.2202 102.59 78.7889C100.711 78.3733 98.8726 77.63 97.3431 76.4438C96.5715 75.8453 95.8617 75.1399 95.2432 74.3849C94.7327 73.7617 94.3413 73.0668 93.9031 72.3993C95.5379 72.8477 97.5145 72.2351 98.8839 71.3699C99.6906 70.8604 100.397 70.2242 100.978 69.4674C101.264 69.0941 101.519 68.7001 101.729 68.2788C101.838 68.0597 101.936 67.8342 102.027 67.6067C102.083 67.4662 102.137 67.3218 102.137 67.1673C102.137 67.0534 102.108 66.9474 102.051 66.8492C101.934 66.7248 101.911 66.6888 101.981 66.7409C101.866 66.5052 101.534 66.4454 101.321 66.5677C101.242 66.6133 101.055 66.7017 100.963 66.8492C100.901 66.9489 100.868 67.0682 100.828 67.1776C100.766 67.3504 100.702 67.5211 100.624 67.6875C100.441 68.0739 100.222 68.4428 99.9717 68.7894C99.5147 69.4231 98.9273 69.9962 98.2874 70.4434C97.6157 70.9129 96.8917 71.2967 96.1065 71.5364C95.2772 71.7894 94.4563 71.865 93.6007 71.9577C93.5915 71.945 93.5827 71.9323 93.5735 71.9197C93.557 71.8969 93.5214 71.9042 93.5199 71.9342C93.5192 71.9485 93.5196 71.9628 93.5192 71.9771C93.3972 72.0343 93.3871 72.2064 93.523 72.2724C93.5734 73.0642 93.9149 73.844 94.2871 74.5292C94.4421 74.8146 94.6173 75.0911 94.807 75.3582C94.7509 75.3368 94.6878 75.3232 94.617 75.3205C93.0862 75.2618 91.5229 75.3374 89.9922 75.3934C89.2435 75.4208 88.4957 75.4628 87.7477 75.5029C87.3621 75.5235 86.9756 75.5367 86.5914 75.5766C86.3993 75.5966 86.206 75.6123 86.0149 75.6411C86.0011 75.6432 85.9882 75.6454 85.9761 75.6476C86.4488 75.1818 86.9472 74.7405 87.4733 74.3288C89.1992 72.9782 91.1814 71.8778 93.2963 71.2793C93.3163 71.2736 93.3134 71.2393 93.2913 71.2416C89.0847 71.6719 85.5808 74.3237 83.1296 77.6533C81.7696 79.5009 80.738 81.5461 79.8504 83.6551C79.403 84.7182 78.9797 85.8001 78.6252 86.8981C78.445 87.4561 78.3637 88.048 78.6218 88.5954C78.8197 89.0154 79.1849 89.3276 79.5678 89.5755C79.5932 89.5921 79.6194 89.6074 79.6451 89.6235C79.2538 90.9874 78.9916 92.3869 78.7401 93.7822C78.4669 95.2979 78.2285 96.8199 78.0238 98.3464C77.6145 101.398 77.3011 104.455 77.1642 107.532C77.1264 108.382 77.1011 109.234 77.09 110.086C77.0845 110.512 77.0869 110.938 77.0927 111.364C77.0994 111.84 77.0348 112.378 77.2774 112.804C77.6016 113.372 78.2312 113.177 78.508 112.788C78.5121 112.793 78.5162 112.798 78.5203 112.804C78.5454 112.754 78.5664 112.705 78.5844 112.656C78.6142 112.59 78.6336 112.522 78.6407 112.452C78.6929 112.188 78.6732 111.92 78.6711 111.633C78.668 111.229 78.6704 110.825 78.6715 110.422C78.6738 109.66 78.6824 108.898 78.7041 108.136C78.7476 106.613 78.8324 105.091 78.9484 103.571C79.1789 100.553 79.519 97.5485 79.81 94.536C79.9581 93.0022 80.1368 91.4644 80.1677 89.9224C80.5269 90.1116 80.8975 90.283 81.2561 90.4656C81.9213 90.8044 82.5865 91.1431 83.2516 91.4819C83.8968 91.8104 84.5428 92.1368 85.1892 92.4631C85.8409 92.792 86.4883 93.2269 87.2215 93.3078C87.6134 93.351 87.7553 92.8227 87.5244 92.5762C87.2228 92.254 86.8223 92.0538 86.4197 91.8663C86.9546 91.8859 87.4902 91.8964 88.0261 91.9005C88.0334 92.575 88.0096 93.2509 87.9758 93.9239C87.8926 95.5746 87.7769 97.2224 87.6674 98.8715C87.4397 102.3 87.2194 105.729 87.0474 109.16C87.0054 110.001 86.9632 110.841 86.9211 111.682C86.9006 112.09 86.8722 112.499 86.8606 112.908C86.8476 113.367 86.8589 113.942 87.2833 114.225C87.5831 114.425 87.9058 114.331 88.1308 114.056C88.4318 113.688 88.4313 113.155 88.4555 112.704C88.4611 112.599 88.4661 112.495 88.4715 112.391C88.9312 112.45 89.3875 112.533 89.8491 112.578C90.413 112.633 90.9805 112.665 91.5468 112.68C92.7017 112.709 93.8547 112.72 95.0099 112.72C97.296 112.72 99.5818 112.681 101.868 112.644C106.439 112.57 111.01 112.442 115.58 112.3C116.847 112.261 118.114 112.22 119.381 112.177C120.037 112.154 120.693 112.131 121.349 112.108C121.97 112.086 122.649 112.166 123.195 111.844C123.211 112.04 123.227 112.237 123.244 112.433C123.277 112.804 123.538 113.124 123.935 113.124C124.308 113.124 124.628 112.807 124.626 112.433C124.486 109.043 124.185 105.653 123.946 102.269C123.727 99.1605 123.522 96.0479 123.209 92.947C123.297 93.0045 123.406 93.0401 123.534 93.0407C123.944 93.0424 124.352 92.7884 124.735 92.6533C125.122 92.5171 125.515 92.3993 125.913 92.3026C126.149 92.2453 126.385 92.1974 126.623 92.1565C126.594 92.6417 126.601 93.1311 126.592 93.6145C126.578 94.3576 126.555 95.1004 126.537 95.8433C126.502 97.3071 126.489 98.771 126.461 100.235C126.405 103.186 126.312 106.136 126.154 109.083C126.111 109.893 126.062 110.703 126.008 111.512C125.98 111.939 125.95 112.366 125.918 112.793C125.887 113.213 125.815 113.658 125.973 114.061C125.978 114.058 125.983 114.055 125.988 114.052C126.098 114.398 126.582 114.564 126.811 114.17C127.167 113.556 127.085 112.675 127.126 111.984C127.17 111.242 127.21 110.5 127.245 109.758C127.314 108.273 127.363 106.788 127.391 105.302C127.447 102.329 127.438 99.3522 127.256 96.3838C127.206 95.5722 127.137 94.762 127.065 93.9522C127.012 93.3451 126.982 92.7214 126.887 92.114C127.35 92.0457 127.817 92.0061 128.288 91.9944C128.744 91.983 129.038 91.5716 128.941 91.1363C128.185 87.7261 127.132 84.3736 125.937 81.0932Z" fill="#151E22"/>
<path fill-rule="evenodd" clip-rule="evenodd" d="M106.894 40.1191C110.767 40.1191 114.772 43.122 116.192 45.0382C117.385 46.6492 118.028 53.9343 118.028 58.8576C118.028 59.8873 118.596 61.8283 118.43 62.8132C117.823 66.4224 115.176 69.4493 109.938 69.4493C104.701 69.4493 100.945 67.3724 97.0523 61.796C95.1633 61.796 94.2479 60.3468 94.2346 58.0599C94.2213 55.773 96.0579 54.941 96.0579 54.941C96.0579 54.941 95.403 45.9159 97.0523 43.5661C98.7015 41.2164 103.022 40.1191 106.894 40.1191Z" fill="#151E22"/>
<path fill-rule="evenodd" clip-rule="evenodd" d="M105.265 38.8445C107.71 38.5968 110.106 38.8049 112.515 39.2355C112.699 39.2688 112.804 39.3897 112.842 39.5349C113.977 39.5868 115.114 39.6701 116.247 39.7322C116.658 39.7547 116.891 40.1613 116.704 40.5284C116.666 40.6013 116.628 40.6723 116.588 40.7432L116.638 40.7269C116.979 40.6174 117.347 40.5635 117.679 40.7372C118.102 40.9582 118.268 41.446 118.174 41.8949C118.15 42.0096 118.11 42.1194 118.065 42.2266C118.157 42.2204 118.251 42.2225 118.344 42.2348C118.837 42.3003 119.204 42.6789 119.23 43.1831C119.268 43.9445 118.778 44.7169 118.2 45.262C118.284 45.4347 118.316 45.638 118.281 45.844C118.212 46.2513 117.912 46.4953 117.564 46.6544C117.709 47.115 117.778 47.5965 117.737 48.0887C117.724 48.2529 117.58 48.3886 117.429 48.4219C117.994 49.9785 118.28 51.6497 118.485 53.2781C118.632 54.4366 118.704 55.602 118.713 56.7693C118.717 57.2963 118.709 57.8239 118.687 58.351L118.678 58.5486C118.65 59.1184 118.649 59.7167 118.547 60.2803C118.896 60.8745 119.036 61.6121 119.096 62.278C119.169 63.1022 119.053 63.9523 118.793 64.7363C117.812 67.6987 114.852 69.5681 111.879 70.054C109.128 70.5036 105.943 69.8984 104.335 67.3978C104.31 67.3582 104.364 67.3255 104.395 67.3515C105.546 68.2875 106.88 68.705 108.33 68.9084C110.837 69.2591 113.655 68.6641 115.667 67.0867C116.633 66.3294 117.329 65.2269 117.636 64.0403C117.792 63.4338 117.846 62.8013 117.784 62.1771C117.721 61.5439 117.441 61.0036 117.265 60.4052C117.205 60.2032 117.268 60.0155 117.391 59.8819C117.426 59.396 117.508 58.9062 117.539 58.4218C117.574 57.8711 117.595 57.3206 117.603 56.7693C117.617 55.6258 117.569 54.4802 117.473 53.3416C117.297 51.2565 116.83 49.222 116.556 47.1546C116.454 47.2457 116.309 47.2831 116.156 47.2035L116.141 47.1949L116.057 47.1472C116.053 47.1472 116.047 47.1479 116.042 47.1485C115.473 47.2038 114.882 47.1247 114.337 46.9547C113.766 46.7774 113.236 46.5045 112.763 46.1408C112.673 46.5972 112.635 47.0584 112.634 47.5237C112.634 47.8144 112.326 47.9652 112.082 47.8411C111 47.2911 109.966 46.6573 108.984 45.945C108.87 46.5324 108.755 47.1198 108.64 47.7079C108.596 47.9345 108.307 48.0259 108.122 47.9181C107.387 47.4903 106.752 46.9302 106.235 46.2642C106.132 46.4617 106.028 46.6591 105.924 46.8561L105.767 47.1512C105.612 47.4412 105.405 47.7619 105.066 47.8546C104.707 47.9529 104.408 47.7203 104.287 47.3955C104.25 47.2945 104.216 47.1908 104.185 47.0864C103.879 47.7844 103.534 48.4667 103.144 49.1176C102.559 50.0939 101.857 50.9638 101.156 51.8562C100.943 52.1271 100.579 51.8685 100.55 51.6052C100.533 51.4503 100.519 51.2947 100.506 51.1398C100.098 51.9637 99.6722 52.7799 99.2082 53.5725L99.2747 53.8329C99.4661 54.6024 99.6251 55.3773 99.7979 56.1509C99.8537 56.4004 99.7211 56.7573 99.4296 56.7998C99.0814 56.8505 98.7519 57.0285 98.3952 56.9061C98.0063 56.7725 97.9294 56.4362 97.7458 56.1174C97.7092 56.0539 97.6666 55.9956 97.6207 55.9402L97.6091 55.9553C97.5804 55.9929 97.5122 55.952 97.5293 55.909L97.5492 55.8593C97.3915 55.6918 97.2027 55.5521 97.0291 55.4018C96.6167 55.3323 96.1527 55.4084 95.8685 55.576C95.2213 55.958 94.924 56.7454 94.9178 57.4694C94.9103 58.3167 95.1729 59.2692 95.6162 59.9938C95.8113 60.3124 96.0786 60.6003 96.4318 60.7416C96.7825 60.882 97.1623 60.8384 97.519 60.9707C97.755 61.0588 97.9003 61.3208 97.7577 61.5582C97.7482 61.5746 97.7373 61.5896 97.727 61.6053L97.8331 61.7462C97.906 61.8438 97.9821 61.9482 98.0531 62.0569C98.2345 62.2658 98.4254 62.467 98.6103 62.6724C98.9519 63.051 99.2834 63.44 99.6196 63.824C99.9368 64.1864 100.272 64.5268 100.618 64.8618C100.945 65.1791 101.353 65.4458 101.653 65.7843C101.945 66.1145 102.024 66.691 101.544 66.8821C101.012 67.094 100.542 66.5973 100.184 66.2661L100.169 66.2522C99.5138 65.6488 98.9218 64.9591 98.4517 64.1998C97.986 64.5169 97.3125 64.5472 96.8488 64.2302C96.6047 64.0634 96.4175 63.783 96.3265 63.478C96.2407 63.4973 96.155 63.5085 96.0714 63.5072C96.0284 63.5322 95.9852 63.5565 95.9415 63.5792C95.5957 63.7592 95.1709 63.6788 95.0126 63.2959C94.8686 62.9484 95.017 62.5537 95.1468 62.2189L95.1736 62.1497C95.2473 61.9587 95.3284 61.7506 95.4294 61.5548C95.1484 61.3433 94.9082 61.0806 94.7051 60.7818C94.0224 59.7755 93.6814 58.3037 93.8321 57.103C93.9228 56.3784 94.263 55.6279 94.8203 55.1393L94.7999 55.0861C94.6437 54.6898 94.5018 54.2919 94.4097 53.8731C94.302 53.3832 94.2494 52.8756 94.2017 52.3768C94.1008 51.3234 94.1281 50.2461 94.2624 49.1967C94.5148 47.2215 95.1545 45.2825 96.2901 43.6389C95.9681 43.2533 95.7131 42.7996 95.846 42.2778C95.9068 42.0382 96.0451 41.8111 96.2539 41.6739C96.3691 41.5982 96.5062 41.5866 96.6215 41.5238L96.6562 41.5048C96.7068 41.4752 96.6681 41.4783 96.6379 41.341C96.5185 40.7924 96.6174 40.2623 97.221 40.0801C97.7891 39.9089 98.3265 40.2725 98.6628 40.7058C99.5426 40.0814 100.702 39.7547 101.722 39.477C102.881 39.1624 104.07 38.966 105.265 38.8445ZM95.7611 57.2458C95.757 56.7989 96.1805 56.5233 96.5973 56.5963C96.8771 56.645 97.1106 56.8121 97.3298 56.9848L97.4367 57.0694C97.7036 57.2791 98.0101 57.5051 98.1692 57.8019C98.4025 58.2399 97.9095 58.8293 97.4491 58.5223C97.1333 58.3106 96.9309 57.9714 96.7237 57.6563L96.7023 57.6238C96.6082 57.4825 96.5257 57.3324 96.3967 57.2192L96.3688 57.1948C96.3264 57.1586 96.2809 57.1256 96.2262 57.11C96.1206 57.0796 95.925 57.1222 95.8784 57.2479L95.8743 57.2608C95.8572 57.3243 95.7618 57.3106 95.7611 57.2458Z" fill="#151E22"/>
<path fill-rule="evenodd" clip-rule="evenodd" d="M111.229 64.1108C110.771 63.9237 110.362 63.6116 110.063 63.2129C109.959 63.0743 109.932 62.928 109.954 62.7941C109.978 62.6436 110.067 62.5072 110.188 62.4157C110.31 62.3239 110.463 62.2786 110.61 62.3017C110.738 62.3217 110.865 62.3918 110.966 62.5372L110.987 62.5663C111.165 62.8069 111.397 63.0043 111.661 63.1316C111.915 63.2543 112.2 63.3115 112.494 63.2782C113.055 63.2148 113.442 62.9114 113.852 62.4993C113.903 62.4473 113.954 62.3936 114.006 62.3391C114.038 62.2897 114.083 62.2579 114.133 62.2413C114.188 62.2228 114.251 62.2238 114.308 62.2438C114.363 62.2631 114.413 62.2997 114.446 62.3484C114.477 62.3946 114.495 62.4518 114.489 62.5176C114.452 62.9446 114.228 63.3257 113.911 63.625C113.559 63.9574 113.093 64.1873 112.653 64.2679C112.169 64.3568 111.676 64.2931 111.229 64.1108ZM112.882 57.5227C113.397 57.8359 114.181 58.5661 113.627 59.3425C112.975 60.0271 112.036 59.2422 111.574 58.8872C111.145 58.6121 110.662 59.3197 111.061 59.6409C114.404 62.1172 115.761 57.6046 113.142 57.1545C112.854 57.1049 112.747 57.4258 112.882 57.5227ZM106.89 54.6421C106.947 53.9356 108.023 53.7751 108.13 54.4743C108.226 55.1006 108.113 55.676 107.831 56.2399C107.561 56.7786 106.884 56.5273 106.833 56.0367C106.764 55.3792 106.855 55.0817 106.89 54.6421ZM115.079 54.3293C115.229 54.1328 115.445 53.9986 115.705 54.0744C116.515 54.3114 116.276 55.4626 115.992 56.0229C115.837 56.3272 115.337 56.4044 115.111 56.1365C114.743 55.6995 114.566 54.827 115.035 54.3966C115.047 54.3744 115.061 54.3519 115.079 54.3293ZM107.819 51.5501L107.947 51.5277C108.344 51.4591 108.836 51.3933 109.116 51.7119C109.265 51.8808 109.316 52.1948 109.116 52.3565C108.765 52.641 108.376 52.5307 107.955 52.5548C107.608 52.5747 107.275 52.6322 106.941 52.7278C106.207 52.9374 105.61 53.3202 104.983 53.7405C104.901 53.7956 104.817 53.6905 104.857 53.6136C105.218 52.9052 105.919 52.3232 106.621 51.9685C106.995 51.7792 107.405 51.6221 107.819 51.5501ZM114.34 51.2329L114.438 51.253C115.504 51.476 116.89 51.9215 117.395 52.9694C117.414 53.1176 117.394 53.1494 117.377 53.1701L117.372 53.177C117.358 53.1947 117.347 53.2192 117.283 53.2393C117.265 53.2351 117.247 53.2306 117.229 53.2258C116.998 53.1651 116.814 53.0815 116.637 52.9948L116.445 52.9C116.222 52.7906 115.997 52.6852 115.758 52.6073C115.249 52.4413 114.726 52.3243 114.194 52.2618C114.079 52.2483 113.968 52.2094 113.881 52.1427C113.798 52.0794 113.734 51.9918 113.705 51.8754C113.668 51.7246 113.678 51.6105 113.759 51.4746C113.82 51.3725 113.907 51.3017 114.007 51.261C114.109 51.2196 114.225 51.2098 114.34 51.2329Z" fill="#151E22"/>
<path fill-rule="evenodd" clip-rule="evenodd" d="M116.466 47.3584C116.86 47.2233 117.175 47.6334 117.099 47.9908C117.01 48.4118 116.57 48.7497 116.279 49.0464C115.974 49.3589 115.662 49.6652 115.339 49.96C114.721 50.5236 114.082 51.0543 113.407 51.549L113.201 51.7002C112.583 52.1527 111.966 52.5948 111.304 52.9865C110.945 53.198 110.583 53.4027 110.216 53.5999C110.085 53.6702 109.926 53.7786 109.761 53.8592C110.362 54.3231 110.824 55.0313 110.925 55.6911C111.173 57.3299 110.117 58.8487 108.628 59.4525C107.885 59.7534 107.058 59.8407 106.265 59.75C105.457 59.6578 104.639 59.419 104.114 58.7572C103.648 58.1698 103.481 57.4201 103.447 56.6838C103.431 56.3345 103.435 55.9905 103.509 55.6815C103.187 55.6843 102.866 55.6829 102.548 55.6863C101.761 55.6938 100.972 55.6973 100.184 55.6754C99.3721 55.6522 98.5639 55.616 97.7544 55.5438C97.3991 55.5117 97.0458 55.4591 96.6924 55.4086C96.3495 55.3602 95.9709 55.3418 95.6504 55.2012C95.6286 55.1923 95.6376 55.161 95.6565 55.1548C95.9982 55.0443 96.3863 55.064 96.7423 55.0422L97.0893 55.0212C97.3783 55.0039 97.6671 54.988 97.957 54.9787C98.6265 54.9567 99.2956 54.9513 99.965 54.9398L100.252 54.9344C101.04 54.9188 101.827 54.9099 102.615 54.8846C102.942 54.8744 103.269 54.8553 103.597 54.8376C103.635 54.7508 103.691 54.6717 103.745 54.5947C103.906 54.3641 104.111 54.1607 104.323 53.9765C104.757 53.5971 105.246 53.3154 105.792 53.1264C106.333 52.9398 107.123 52.8472 107.695 52.8592C108.267 52.8713 109.083 52.952 109.344 53.4198C109.372 53.4682 109.87 53.3748 110.018 53.2614C110.364 52.9975 110.704 52.7259 111.037 52.4475C111.657 51.9297 112.293 51.42 112.88 50.866C113.485 50.2943 114.085 49.713 114.661 49.1126C114.95 48.8117 115.238 48.5101 115.519 48.2017C115.805 47.8872 116.051 47.4997 116.466 47.3584Z" fill="#151E22"/>
</g>
<g opacity="0.2">
<path fill-rule="evenodd" clip-rule="evenodd" d="M187.159 86.351C187.67 86.0837 188.17 85.7933 188.662 85.4911C189.008 85.2838 188.702 84.7617 188.346 84.9504C188.165 85.0469 187.984 85.1443 187.802 85.2402C187.945 85.1171 188.078 84.983 188.196 84.8369L188.188 84.8288C188.646 84.4184 188.058 83.644 187.537 83.9811C187.078 84.3142 186.615 84.6539 186.087 84.8732C184.996 85.3364 183.791 85.413 182.619 85.4264C182.191 85.3941 181.781 85.4685 181.365 85.5513C181.528 84.8966 181.936 84.4022 182.153 83.7681C182.313 83.1279 181.389 82.6918 181.062 83.3072C180.981 83.4583 180.905 83.6112 180.83 83.7648C180.122 84.4087 178.941 84.352 178.227 85.0433C177.82 85.4042 177.621 85.8939 177.543 86.3854C177.489 86.7192 177.572 87.0538 177.371 87.3494C176.395 88.7294 174.854 90.9106 174.072 92.4292C173.518 88.8205 172.038 84.3569 170.51 81.0571C170.004 80.0018 169.426 78.9706 168.667 78.0761C168.753 77.7777 168.449 77.2482 168.256 77.4112C167.662 76.6848 166.611 76.4967 165.766 76.1356C164.626 75.6477 163.679 74.6336 163.214 73.4809C162.616 71.286 161.145 71.0072 159.105 71.1042C157.152 71.1018 155.707 71.9374 155.281 73.926C154.415 75.4354 152.371 75.1858 150.901 75.5854C149.823 75.8317 148.778 76.2125 147.784 76.6958C146.678 75.6466 142.718 80.05 142.358 81.1832C142.57 81.2243 142.781 81.2738 142.989 81.334C143.175 81.3878 143.097 81.6687 142.91 81.6237C142.676 81.5676 142.442 81.529 142.206 81.5023C142.198 81.5248 142.192 81.5473 142.187 81.5694C142.161 81.5676 142.135 81.5654 142.108 81.5636C142.167 81.5942 142.223 81.6297 142.278 81.6754C142.411 81.786 142.238 81.9994 142.097 81.9113C141.963 81.8115 141.789 81.8273 141.629 81.7938C141.62 82.1226 140.447 81.7547 140.265 81.6458C139.455 81.5445 138.622 81.6532 137.866 81.2626C136.86 81.0507 135.847 80.8164 134.853 80.5465C134.589 80.6492 134.342 81.0166 134.551 81.2862C134.669 81.4089 134.517 81.6092 134.369 81.522C133.873 81.2295 133.489 80.773 133.163 80.2811C133.01 80.1264 132.737 80.1597 132.532 80.0955C132.504 80.145 132.488 80.2001 132.488 80.2567C131.614 80.4006 132.238 81.3551 132.677 81.6525C132.444 81.8043 132.435 82.1015 132.455 82.3497C132.406 82.438 132.389 82.5476 132.432 82.6467C132.597 83.0254 132.952 83.3443 133.222 83.6512C133.52 83.9901 133.786 84.3308 134.149 84.6055C135.533 85.6604 137.202 86.2502 138.915 86.4809C139.523 86.5743 140.398 86.7174 140.774 87.2318C140.682 87.8423 140.512 88.4278 140.358 89.0231C140.143 89.8134 140.158 90.6407 140.155 91.4463C140.125 91.4221 140.067 91.4271 140.059 91.4732C140.009 91.8072 139.971 92.1486 139.768 92.4292C139.591 92.9511 139.472 93.5076 139.406 94.0558C139.139 96.6548 139.076 99.3304 139.676 101.889C139.908 102.838 140.285 103.74 140.799 104.571C140.952 104.818 141.198 104.891 141.419 104.842C142.159 105.227 143.091 105.35 143.889 105.252C146.608 104.482 145.661 106.337 149.473 105.769C156.054 104.93 162.704 106.578 169.271 105.611C169.433 106.86 171.55 106.502 172.285 105.974C174.491 104.334 175.586 99.1415 176.692 96.5075C177.453 94.4315 178.727 90.7544 180.395 89.3614C180.895 88.97 181.5 88.764 182.105 88.5976C184.362 88.0156 186.629 87.4652 188.891 86.8993C189.275 86.8048 189.206 86.1503 188.796 86.1923C188.251 86.248 187.705 86.2984 187.159 86.351Z" fill="#151E22"/>
<path fill-rule="evenodd" clip-rule="evenodd" d="M136.896 85.9609C136.743 85.9419 136.594 85.8874 136.445 85.8444C136.217 85.778 135.995 85.7005 135.775 85.612C135.322 85.4306 134.883 85.2161 134.472 84.9537C133.807 84.5293 133.219 83.9855 132.776 83.3307L132.745 83.2851C132.492 82.8995 132.026 82.0434 132.549 81.7507C132.212 81.4688 131.893 80.9624 131.911 80.5716C131.936 80.0187 132.614 80.0263 132.964 80.2607C133.193 80.4141 133.365 80.6291 133.538 80.8405C133.729 81.0754 133.932 81.2993 134.144 81.5148C134.201 81.5718 134.257 81.6276 134.315 81.6826L134.373 81.7372C134.364 81.7157 134.356 81.6937 134.349 81.6712C134.232 81.3069 134.372 80.8325 134.736 80.6656C134.959 80.5633 135.19 80.6257 135.406 80.7125L135.439 80.726C135.73 80.8465 136.024 80.953 136.327 81.0384C137.561 81.3868 138.849 81.4448 140.114 81.6188C140.601 81.6862 141.097 81.7712 141.582 81.8961C141.767 81.1109 142.22 80.3582 142.712 79.7389C145.066 76.7762 148.949 75.7971 152.501 75.1633C152.825 75.1058 153.093 75.5347 153.281 75.4332C153.639 75.2413 153.953 74.9693 154.229 74.6739C154.817 74.0436 155.234 73.3024 155.724 72.6001C155.966 72.2532 156.524 72.5636 156.299 72.936L156.189 73.118C155.736 73.8634 155.233 74.6317 154.583 75.2098C154.237 75.5167 153.853 75.7591 153.415 75.9105C153.082 76.025 152.616 76.1215 152.253 76.0105L152.209 75.9469C152.223 75.9681 152.238 75.9893 152.253 76.0105C153.202 77.3866 154.393 78.5512 155.648 79.6504C156.915 80.7592 158.282 81.7522 159.657 82.723L159.771 82.8039C162.011 81.1694 163.903 79.0376 165.231 76.6019C164.953 76.5683 164.677 76.3899 164.439 76.2569C164.153 76.096 163.884 75.904 163.674 75.6481C163.217 75.0908 163.276 74.3725 163.194 73.6962C163.189 73.6542 163.244 73.6437 163.27 73.6647C163.518 73.8707 163.605 74.2081 163.708 74.4995C163.822 74.8199 163.951 75.0838 164.212 75.3092C164.455 75.5192 164.752 75.6736 165.041 75.8111C165.189 75.8816 165.927 76.0629 166.011 76.213C167.286 75.9136 168.529 76.4309 169.473 77.3036C170.386 78.1469 171.056 79.243 171.648 80.3252C172.279 81.4798 172.796 82.6834 173.242 83.9205C173.693 85.1761 174.04 86.4592 174.23 87.7808C174.391 88.895 174.489 90.0268 174.553 91.1534L174.561 91.2942C175.504 89.8132 176.471 88.3476 177.458 86.8951C177.233 86.2958 177.482 85.684 177.902 85.2211C178.368 84.7088 179.012 84.4709 179.628 84.1939L179.709 84.1573C180.006 84.0218 180.302 83.8726 180.558 83.6696C180.805 83.4737 180.986 83.2038 181.246 83.0233C181.624 82.7604 182.309 82.8164 182.327 83.3907C182.336 83.7061 182.2 84.052 182.077 84.3354C181.936 84.6559 181.747 84.9462 181.522 85.2131C181.512 85.2256 181.5 85.2354 181.489 85.2432L181.48 85.2486C181.791 85.3001 182.104 85.3416 182.423 85.3561C183.067 85.3856 183.718 85.3381 184.349 85.2021C184.994 85.0632 185.62 84.8373 186.201 84.5223C186.697 84.2534 187.156 83.9055 187.72 83.8236C187.772 83.8156 187.824 83.8106 187.878 83.8076C187.968 83.8026 188.058 83.9085 188.023 83.9975C188.003 84.0465 187.983 84.095 187.96 84.144C187.766 84.5733 187.467 84.9898 187.094 85.306L187.065 85.3301C187.196 85.2846 187.326 85.2336 187.453 85.1761C188.202 84.8387 188.882 84.3289 189.685 84.124C189.723 84.114 189.761 84.105 189.8 84.0965C190.048 84.043 190.179 84.3129 190.033 84.4979C190.009 84.5278 189.986 84.5573 189.961 84.5868C189.603 85.0317 189.208 85.4445 188.772 85.8154C188.623 85.9424 188.469 86.0653 188.312 86.1829C188.246 86.2326 188.18 86.2814 188.112 86.3293L188.079 86.3528C188.158 86.2973 188.235 86.2408 188.312 86.1829C188.804 86.0339 189.288 85.8574 189.763 85.662C189.951 85.5845 190.097 85.7754 190.117 85.9324C190.184 86.4583 189.601 86.8387 189.221 87.0915C188.84 87.3455 188.421 87.5384 187.992 87.6933C187.167 87.9917 186.3 88.1272 185.435 88.2486L185.014 88.3071C183.351 88.5399 181.613 88.8181 180.419 90.1131C179.75 90.8388 179.297 91.7406 178.883 92.6278C178.47 93.5141 178.106 94.4238 177.762 95.3385C177.404 96.2851 177.093 97.2493 176.762 98.2055C176.458 99.0835 176.096 99.9503 175.736 100.808L175.68 100.944C174.917 102.767 174.005 104.485 172.735 106.007C172.526 106.259 172.187 105.902 172.381 105.653C173.709 103.939 174.634 101.917 175.397 99.9005C175.744 98.9828 176.035 98.0431 176.369 97.1204L176.567 96.5722C176.832 95.8415 177.1 95.1118 177.379 94.3868C177.732 93.4695 178.12 92.5633 178.565 91.6866L178.612 91.5943C179.047 90.7485 179.563 89.9149 180.274 89.2748C181.554 88.1223 183.257 87.8458 184.904 87.6268L185.422 87.5585C186.118 87.4659 186.817 87.3637 187.494 87.1775C187.884 87.0706 188.266 86.9336 188.625 86.7446C188.768 86.6697 188.907 86.5872 189.042 86.4973C188.657 86.6102 188.267 86.7026 187.87 86.7751C187.676 86.8106 187.483 86.8372 187.291 86.8556C186.797 86.9046 186.307 86.9026 185.801 86.8761C185.758 86.8736 185.744 86.8061 185.79 86.7977C186.142 86.7349 186.495 86.6565 186.847 86.5714L186.952 86.5457C186.954 86.4873 186.977 86.4252 187.025 86.3663C187.2 86.1534 187.532 86.0444 187.763 85.8939C188.004 85.7364 188.238 85.5666 188.461 85.3846C188.664 85.2182 188.86 85.0422 189.049 84.8583L189.105 84.8028C189.086 84.8213 189.068 84.8398 189.049 84.8582C188.54 85.0932 188.058 85.3946 187.527 85.5806C187.104 85.729 186.662 85.8289 186.215 85.8644L186.187 85.8666L186.16 85.8684C185.693 85.9019 185.224 85.8884 184.765 85.9894C184.714 86.0009 184.698 85.9319 184.744 85.9124C185.145 85.7455 185.562 85.681 185.984 85.603C185.993 85.57 186.016 85.5405 186.056 85.5215L186.164 85.47C186.485 85.3156 186.784 85.1598 187.052 84.9092C187.287 84.6878 187.484 84.4289 187.631 84.142C187.041 84.2714 186.523 84.7188 185.986 84.9702C185.402 85.2446 184.783 85.4416 184.148 85.5536L184.075 85.566C182.887 85.7642 181.459 85.7389 180.395 85.1212C180.361 85.1012 180.386 85.0557 180.421 85.0612C180.722 85.1107 181.021 85.1691 181.32 85.2211C181.262 85.1676 181.236 85.0717 181.303 84.9947C181.571 84.687 181.784 84.3354 181.919 83.9506L181.945 83.8754C182.008 83.6969 182.113 83.4197 182.006 83.2587C181.903 83.1053 181.66 83.1263 181.515 83.1913C181.214 83.3272 181.014 83.6667 180.76 83.8715C180.483 84.0955 180.168 84.2614 179.846 84.4099L179.778 84.4408C179.221 84.6916 178.625 84.9028 178.187 85.3456C177.951 85.5835 177.748 85.8809 177.68 86.2143C177.649 86.3673 177.649 86.5247 177.69 86.6762C177.723 86.7946 177.791 86.8677 177.752 86.9881C177.701 87.1435 177.52 87.3295 177.427 87.4679C177.319 87.6279 177.212 87.7883 177.105 87.9488C176.89 88.2697 176.677 88.5916 176.463 88.913C176.037 89.5568 175.615 90.2036 175.196 90.8524C175.06 91.0636 174.924 91.2751 174.788 91.4868L174.586 91.8046L174.479 91.9721L174.296 92.2594C174.303 92.2859 174.302 92.3139 174.294 92.3384C174.262 92.4271 174.204 92.4878 174.132 92.5318L174.119 92.5393C173.052 94.2253 172.003 95.9223 170.943 97.6123C170.887 98.1281 170.834 98.6444 170.788 99.1607C170.684 100.329 170.612 101.501 170.589 102.674C170.578 103.242 170.624 103.813 170.648 104.381C170.66 104.651 170.676 104.922 170.698 105.192L170.714 105.384C170.735 105.647 170.747 105.909 170.652 106.16C170.568 106.38 170.312 106.429 170.161 106.262C168.186 106.182 166.209 106.122 164.233 106.084C160.695 106.016 157.155 106.027 153.617 106.095C151.839 106.13 150.062 106.178 148.285 106.238C147.409 106.267 146.534 106.308 145.658 106.32C145.186 106.326 144.443 106.155 144.405 105.623L144.404 105.607C144.345 105.623 144.284 105.636 144.222 105.646C144.194 105.65 144.167 105.649 144.143 105.643L144.13 105.64C143.427 105.854 142.537 105.548 141.869 105.37L141.813 105.355C141.175 105.189 140.663 104.951 140.245 104.422C139.513 103.496 139.263 102.252 139.133 101.106C139.011 100.027 139.004 98.9289 139.152 97.8522C139.065 96.975 139.15 96.0698 139.25 95.1975C139.299 94.7661 139.356 94.3353 139.425 93.9064C139.464 93.667 139.514 93.43 139.565 93.1936C139.586 93.0991 139.603 92.9974 139.629 92.8991L139.641 92.8572C139.561 92.8677 139.474 92.8502 139.389 92.8038C139.188 92.6933 139.13 92.4698 139.126 92.256C139.115 91.6111 139.192 90.9479 139.26 90.3071C139.329 89.6673 139.423 89.0249 139.546 88.3931L139.577 88.2302C139.67 87.7576 139.777 87.2697 139.965 86.8256C139.26 86.7057 138.557 86.5782 137.873 86.3612C137.539 86.2548 137.21 86.1224 136.896 85.9609ZM173.693 92.6709C173.682 92.6734 173.672 92.6764 173.661 92.6794C173.379 92.7583 173.095 92.8253 172.811 92.8973C172.32 93.0208 171.84 93.1587 171.384 93.3732C171.289 94.5798 171.147 95.7825 171.012 96.9858L170.986 97.2265C171.192 96.8426 171.404 96.4617 171.626 96.0853C172.3 94.9382 172.989 93.8 173.693 92.6709ZM139.813 92.7908C139.814 92.9342 139.784 93.0832 139.768 93.2211C139.742 93.4451 139.721 93.67 139.695 93.8939C139.641 94.3438 139.595 94.7941 139.562 95.246C139.54 95.5344 139.526 95.8238 139.514 96.1133C139.797 95.054 140.172 94.0179 140.529 92.9802C140.469 92.9739 140.408 92.9593 140.345 92.9426L140.24 92.9141C140.177 92.898 139.975 92.8482 139.813 92.7908ZM174.586 91.8041L174.588 91.8516C174.595 92.0201 174.494 92.1151 174.372 92.1395C174.443 92.0276 174.514 91.9156 174.586 91.8041ZM142.168 83.8209C142.467 83.8474 142.759 83.9109 143.038 84.0209L143.065 84.0314C143.271 84.111 143.573 84.2111 143.64 84.4313C143.659 84.4937 143.608 84.5452 143.55 84.5502C143.326 84.5682 143.062 84.3282 142.855 84.2473C142.624 84.1573 142.382 84.0903 142.137 84.0548C141.587 83.9743 141.013 84.0354 140.496 84.2358C140.465 84.2478 140.446 84.1993 140.474 84.1848C140.995 83.9009 141.575 83.7685 142.168 83.8209ZM135.848 85.2504C135.813 85.2199 135.779 85.1879 135.745 85.1559C135.477 84.9024 135.239 84.6065 135.064 84.2814L135.018 84.1934C134.875 83.9164 134.699 83.5216 135.035 83.322C135.236 83.2026 135.478 83.2325 135.702 83.305C135.716 83.3095 135.731 83.3145 135.745 83.3195C135.845 83.3545 135.941 83.3964 136.027 83.4364C136.401 83.6079 136.73 83.8573 137.075 84.0773C137.448 84.3157 137.817 84.4682 138.248 84.5574L138.289 84.5656C138.694 84.6456 139.132 84.697 139.414 85.0299C139.485 85.114 139.42 85.2714 139.298 85.2299C138.518 84.9665 137.692 84.9085 136.975 84.4761C136.678 84.2972 136.398 84.0918 136.094 83.9223C135.933 83.8322 135.767 83.7535 135.59 83.6995L135.494 83.671C135.437 83.6545 135.369 83.6381 135.324 83.6544C135.237 83.6844 135.265 83.7307 135.292 83.8116L135.294 83.8198C135.505 84.4707 136.104 85.0154 136.66 85.3758C136.787 85.4588 136.918 85.5348 137.051 85.6053C137.95 86.085 138.957 86.3083 139.946 86.5733C139.946 86.5733 140.517 86.7329 140.707 86.7929C140.917 86.7754 141.158 86.8499 141.317 86.9389C141.471 87.0253 141.595 87.1413 141.689 87.2778C141.689 87.2778 141.78 87.3532 141.796 87.4702C141.844 87.5787 141.876 87.6956 141.892 87.8176C141.901 87.8891 141.883 87.944 141.849 87.983C141.951 89.5521 141.527 91.1124 141.05 92.6037L141.002 92.7507L140.972 92.844C140.457 94.425 139.866 95.9945 139.602 97.643C139.426 98.7441 139.431 99.8838 139.56 100.99L139.57 101.066C139.697 102.112 139.942 103.285 140.607 104.127C140.946 104.557 141.348 104.747 141.862 104.886L141.89 104.893C142.354 105.016 142.834 105.189 143.313 105.242C143.758 105.29 144.131 105.125 144.531 104.97L144.531 104.969C145.374 104.223 145.757 103.136 146.04 102.04C146.773 99.2015 146.682 96.2554 146.266 93.3758C146.049 91.8713 145.755 90.3798 145.461 88.8887C145.314 88.1435 145.155 87.3997 145.024 86.6519L144.946 86.2119C144.903 85.9674 144.861 85.7227 144.826 85.4768C144.778 85.1464 144.763 84.8215 144.747 84.4891C144.343 83.8198 143.757 83.2685 143.078 82.8731C142.592 82.5897 142.077 82.3933 141.546 82.2508C140.028 81.8414 138.372 81.8704 136.844 81.5555C136.331 81.4499 135.844 81.293 135.357 81.105L135.29 81.0792C135.067 80.9922 134.839 80.9437 134.728 81.2071C134.649 81.3946 134.696 81.5895 134.815 81.747C135.105 82.1329 135.689 82.3118 136.128 82.4508C136.392 82.5347 136.662 82.6012 136.935 82.6507C137.208 82.7002 137.481 82.7127 137.743 82.8091C137.844 82.8461 137.864 83.0066 137.743 83.035C137.411 83.1125 137.078 83.0461 136.748 82.9816C136.386 82.9101 136.029 82.8086 135.682 82.6802C135.618 82.6566 135.552 82.6317 135.485 82.6053L135.434 82.5852C135.486 82.6232 135.539 82.6607 135.592 82.6982C135.606 82.7082 135.597 82.7346 135.579 82.7282C134.763 82.4239 134.022 81.8748 133.447 81.2252L133.418 81.1927C133.216 80.9607 132.755 80.2589 132.366 80.4544C132.001 80.6377 132.623 81.3443 132.86 81.6332L132.887 81.667C133.156 81.674 133.416 81.8414 133.634 81.9764C134.012 82.2109 134.408 82.4128 134.81 82.6017C135.611 82.9781 136.461 83.2435 137.253 83.6389C137.263 83.6444 137.255 83.6578 137.245 83.6564C136.741 83.5759 136.242 83.4474 135.755 83.288L135.733 83.2812L135.712 83.274C135.407 83.174 135.107 83.0611 134.812 82.9406C134.483 82.8067 134.163 82.6562 133.851 82.4858C133.57 82.3318 133.257 82.0544 132.93 82.0134C132.895 82.0089 132.864 82.0084 132.837 82.0109C132.462 82.0424 132.772 82.6642 132.877 82.8501C133.049 83.1555 133.255 83.4374 133.493 83.6949C133.974 84.2177 134.557 84.6321 135.188 84.9545C135.403 85.0644 135.624 85.1614 135.848 85.2504Z" fill="#151E22"/>
<path fill-rule="evenodd" clip-rule="evenodd" d="M159.818 52.1797C162.055 52.1797 164.739 53.2646 164.967 53.2863L164.974 53.2866C165.094 53.2866 165.563 53.6442 166.381 54.3593L165.495 56.0884L165.567 56.1569C165.91 56.4861 166.203 56.7861 166.434 57.0226C168.322 58.9537 168.662 66.5358 168.217 69.18C167.772 71.8241 166.947 74.4114 163.11 74.4114C159.273 74.4114 155.004 72.1033 154.346 71.3845C153.908 70.9053 153.415 70.6757 152.869 70.6958C152.847 70.6674 152.824 70.6391 152.802 70.611L152.722 70.5996C151.965 70.49 151.424 70.3425 151.096 70.1571C150.456 69.7951 149.753 67.8917 149.753 67.4724C149.753 67.0573 148.703 64.0377 148.682 63.7181L148.682 63.7093C148.682 63.4421 147.31 62.2141 147.31 61.8241C147.31 61.4342 147.034 61.4578 147.31 60.0836L147.391 59.6799C147.685 58.2167 148.261 55.7939 150.456 54.7411C152.869 53.5842 157.559 52.1797 159.818 52.1797Z" fill="#151E22"/>
<path fill-rule="evenodd" clip-rule="evenodd" d="M150.083 54.6872C151.287 53.4095 158.118 51.4332 161.574 51.8521L161.678 51.8656C161.954 51.9006 162.225 51.9535 162.494 52.0255C163.361 52.2281 164.256 52.5349 164.973 53.0473C165.571 53.4664 167.458 54.151 166.902 55.2475C167.108 55.6383 167.185 56.1212 167.046 56.5061C167.028 56.6391 166.987 56.7615 166.935 56.8885C167.375 57.5388 167.724 58.2743 168.006 58.9738C168.5 60.7343 168.807 62.5665 168.852 64.3627C169.001 67.7752 168.627 71.8515 165.656 74.0582C163.861 75.4565 161.05 75.5035 159.033 73.7697C158.919 73.6342 158.38 73.2685 158.56 73.2044C158.613 73.2609 158.668 73.3159 158.724 73.3698C158.722 73.3638 158.721 73.3578 158.722 73.3513L158.67 73.3037C158.571 73.2119 158.442 73.0789 158.588 73.1049C158.595 73.1124 158.602 73.1189 158.609 73.1264C158.64 73.145 158.663 73.1611 158.681 73.1753L158.691 73.1828L158.688 73.1798C158.604 73.0899 158.553 72.9983 158.679 73.0568L158.696 73.0649C158.752 73.1239 158.809 73.1804 158.867 73.2354C158.866 73.2289 158.867 73.2224 158.87 73.2154L158.816 73.1632C158.763 73.1114 158.772 73.1112 158.797 73.0694C158.685 72.9122 158.895 73.0056 158.909 73.0669C159.04 73.0359 159.155 73.2819 159.239 73.3119C162.937 76.1555 168.302 73.6323 168.215 65.7085L168.214 65.5535C168.189 63.0198 167.976 60.4157 166.928 58.1221C166.826 57.9012 166.712 57.6862 166.587 57.4783C166.5 57.3224 166.408 57.1704 166.309 57.0225C166.03 57 165.755 56.949 165.485 56.87C165.392 56.8465 165.3 56.8205 165.208 56.79C163.865 56.8633 162.552 56.943 161.205 57.0186L160.784 57.0448C159.643 57.1182 158.463 57.2357 157.543 57.9417C156.639 58.5844 156.635 59.8517 155.862 60.5574C154.759 61.3061 154.751 61.9812 154.539 63.0846C154.555 63.9163 155.131 65.1248 154.073 65.4748C154.252 65.7294 154.003 65.6071 153.983 65.5178C153.981 65.5183 153.979 65.5188 153.978 65.5188C154.137 65.8146 153.903 65.6283 153.882 65.5333C153.87 65.5298 153.857 65.5208 153.845 65.5083C154.005 65.7674 153.746 65.586 153.761 65.5388C153.452 65.0627 152.814 64.9888 152.365 65.1149C152.36 65.1319 152.34 65.1334 152.327 65.1244C150.417 65.5385 150.91 69.494 152.868 69.1117C152.951 69.0946 152.949 69.1348 152.966 69.1387C152.921 69.0199 153.048 69.0682 153.047 69.0932L153.055 69.0928C153.061 69.0923 153.058 69.0916 153.063 69.0932C153.019 68.8503 153.265 69.2022 153.246 69.2166C153.253 69.2121 153.262 69.2096 153.269 69.2086L153.261 69.1856C153.22 69.0768 153.223 69.122 153.224 69.0597C153.193 68.9827 153.191 69.0163 153.198 68.9662C153.306 68.8826 153.338 69.1361 153.374 69.1547C153.312 69.0687 153.361 68.9985 153.419 69.0451C153.86 69.9727 154.429 70.8443 155.165 71.5309C155.246 71.5944 155.327 71.6569 155.412 71.7159C155.725 71.9886 156.205 72.164 156.498 72.4056C156.498 72.4096 156.496 72.4146 156.493 72.4196L156.5 72.4257L156.506 72.4321L156.608 72.4811C156.638 72.5066 156.665 72.5351 156.689 72.5666C156.715 72.5961 156.737 72.6286 156.756 72.6631C156.766 72.705 156.745 72.7225 156.705 72.7045C156.687 72.6985 156.67 72.6915 156.652 72.6851C156.653 72.6866 156.654 72.6875 156.655 72.6885C156.661 72.6972 156.699 72.7872 156.655 72.7726L156.649 72.7705C156.625 72.7615 156.6 72.7515 156.576 72.742C156.605 72.7775 156.631 72.816 156.654 72.8485C156.678 72.874 156.693 72.904 156.699 72.938C156.698 72.957 156.688 72.965 156.669 72.9625C156.64 72.953 156.611 72.943 156.583 72.9325L156.591 72.948C156.611 72.9876 156.64 73.0541 156.589 73.0319C156.545 73.0184 156.503 73.003 156.461 72.986C156.458 72.993 156.451 72.9955 156.437 72.989C156.304 72.9415 156.175 72.8835 156.051 72.815C155.943 72.736 155.833 72.6586 155.724 72.5801C155.622 72.5186 155.523 72.4501 155.429 72.3731C154.797 71.9649 154.244 71.4462 153.805 70.8686C153.071 71.5045 151.603 70.897 150.696 70.3993C149.893 69.9544 149.577 69.1319 149.496 68.245C149.326 67.0511 148.351 66.6424 148.419 64.0228C148.417 64.0233 148.416 64.0233 148.414 64.0233C148.378 64.0128 148.344 63.9988 148.311 63.9808C148.278 63.9648 148.246 63.9458 148.217 63.9228L148.18 63.8723C148.161 63.8618 148.144 63.8508 148.131 63.8398L148.125 63.8485C148.103 63.8743 148.118 63.8355 148.119 63.8278L148.055 63.7416C147.905 63.5364 147.74 63.3062 147.606 63.122L147.602 63.1295C147.599 63.1352 147.597 63.1393 147.599 63.141C147.279 62.6818 146.979 62.1271 146.895 61.59C146.797 61.1764 146.835 60.7501 146.921 60.3669C147.29 59.0251 148.498 55.9886 150.083 54.6872ZM158.755 73.244L158.735 73.2261L158.753 73.2482C158.762 73.2596 158.772 73.2698 158.787 73.2803C158.786 73.2768 158.786 73.2733 158.786 73.2693C158.776 73.2615 158.766 73.253 158.755 73.244ZM161.559 52.5261C159.215 52.3245 156.91 52.8411 154.673 53.4663L154.519 53.5107C153.247 53.8737 151.903 54.2004 150.828 54.9773C149.327 56.1278 148.551 57.9581 147.875 59.6479C147.284 60.9034 147.586 62.3191 148.476 63.1958C148.569 62.3246 148.727 61.4789 148.974 60.64C149.025 60.509 148.986 60.466 149.097 60.4489C149.265 62.7096 148.439 64.3799 150.073 67.0592C150.782 68.3234 149.961 69.2484 151.964 69.9136L152.018 69.9343C152.435 70.0918 152.891 70.2161 153.3 70.1281L153.263 70.0685C153.226 70.0072 153.214 69.9774 153.269 69.9512C153.267 69.9482 153.265 69.9452 153.263 69.9417C153.219 69.8587 153.177 69.7747 153.136 69.6897C153.12 69.6952 153.103 69.6992 153.086 69.7037C153.097 69.7242 153.099 69.7447 153.068 69.7517C152.958 69.7895 152.845 69.8047 152.729 69.7976L152.704 69.7957C152.573 69.7877 152.491 69.7639 152.417 69.7417C152.393 69.7377 152.368 69.7337 152.344 69.7287C152.107 69.6761 151.856 69.5424 151.694 69.4098C149.842 68.3578 150.034 64.7764 152.316 64.4379C152.363 62.183 153.435 58.3788 155.214 56.2301C156.822 54.2537 161.213 53.397 164.268 53.6991C164.312 53.7138 164.357 53.7287 164.401 53.7438C164.872 53.7857 165.322 53.9957 165.793 54.0933C165.455 53.8394 165.07 53.6703 164.675 53.5266C163.886 53.0442 162.983 52.7832 162.11 52.5991C161.929 52.5546 161.745 52.5301 161.559 52.5261ZM152.212 66.2499C152.334 66.1832 152.32 66.2476 152.349 66.2289C153.231 66.1568 154.183 66.9299 154.676 67.5744C154.637 67.6149 154.532 67.495 154.514 67.476C154.511 67.4785 154.508 67.4805 154.505 67.4815L154.519 67.5009C154.719 67.788 154.322 67.4501 154.285 67.3805C154.279 67.384 154.272 67.386 154.265 67.3845C154.296 67.4153 154.392 67.4958 154.409 67.5529L154.434 67.5741C154.674 67.7797 154.654 67.9343 154.382 67.6424C154.388 67.6559 154.391 67.6684 154.386 67.6784L154.396 67.6847C154.529 67.7783 154.64 68.0394 154.36 67.7714C154.389 67.9671 154.082 67.5888 154.072 67.5914C153.542 67.1748 152.761 66.7696 152.095 66.7152L152.072 66.7126C151.95 66.6969 151.892 66.6606 151.935 66.5808C151.785 66.545 151.82 66.4709 151.891 66.4733C151.785 66.4035 151.881 66.3368 151.942 66.3628C151.9 66.2456 152.07 66.3237 152.085 66.3073C152.173 66.1714 152.197 66.2848 152.212 66.2499ZM150.362 58.9842C150.786 58.8288 152.038 59.2939 151.938 59.9098C151.878 60.0512 151.681 60.1322 151.543 60.0524L151.363 59.9312C151.049 59.721 150.766 59.5366 150.429 59.3533C150.246 59.2623 150.167 59.069 150.362 58.9842ZM152.774 58.069L152.61 57.9624C151.726 57.3839 150.477 56.5074 152.693 57.4143C152.945 57.5226 153.28 57.5867 153.418 57.8272C153.635 58.2705 153.065 58.3003 152.774 58.069ZM152.873 55.4737C152.802 55.2045 153.684 55.5204 153.941 55.6037L153.98 55.6184C154.23 55.7116 154.516 55.798 154.666 56.0136C154.841 56.3116 154.486 56.3734 154.267 56.2388C153.817 55.9446 153.324 55.7226 152.873 55.4737ZM155.116 54.2196C154.62 53.6771 155.949 54.1968 156.148 54.3411L156.153 54.3454C156.302 54.45 156.272 54.6753 156.132 54.7415C155.735 54.749 155.443 54.4179 155.116 54.2196ZM157.376 53.6252C156.586 53.0576 157.626 53.3276 157.988 53.55C158.234 53.7672 157.98 54.1339 157.376 53.6252Z" fill="#151E22"/>
<path fill-rule="evenodd" clip-rule="evenodd" d="M164.977 69.9948C165.293 69.9212 165.541 70.1887 165.479 70.4967C165.413 70.8228 165.063 70.9346 164.769 70.9244C164.436 70.9128 164.103 70.844 163.768 70.8301C163.424 70.8159 163.079 70.8133 162.734 70.8226C162.416 70.8312 162.089 70.8874 161.773 70.837C161.65 70.8173 161.662 70.6549 161.742 70.5972C161.98 70.4257 162.288 70.3558 162.568 70.2839C162.853 70.2105 163.145 70.1543 163.438 70.1201C163.735 70.0853 164.035 70.068 164.333 70.0646C164.47 70.063 164.636 70.0933 164.769 70.0688C164.837 70.0562 164.905 70.0116 164.977 69.9948ZM164.066 65.7588C164.443 65.9882 165.018 66.5232 164.612 67.092C164.134 67.5935 163.446 67.0185 163.107 66.7585C162.793 66.5569 162.44 67.0753 162.732 67.3106C165.181 69.1248 166.175 65.8188 164.257 65.4891C164.045 65.4527 163.967 65.6878 164.066 65.7588ZM161.33 64.0458C161.835 63.9619 161.923 64.6816 161.423 64.7319C161.318 64.7425 161.213 64.7517 161.109 64.7608C161.119 64.7934 161.126 64.8269 161.13 64.8614C161.135 64.8907 161.138 64.9218 161.141 64.9573C161.157 65.1344 161.032 65.3186 160.885 65.4044C160.733 65.4937 160.514 65.5056 160.363 65.4044C160.284 65.3523 160.207 65.2934 160.163 65.2072C160.106 65.1185 160.074 65.016 160.071 64.9107C159.841 64.9705 159.607 65.0513 159.374 65.0941C159.383 65.1025 159.391 65.1115 159.399 65.1213C159.406 65.1289 159.397 65.143 159.388 65.1361L159.272 65.1102C159.236 65.1149 159.2 65.1188 159.164 65.121L159.165 65.1179C159.105 65.1168 159.056 65.0461 159.11 64.9895C159.315 64.7724 159.635 64.6282 159.927 64.5075L160.209 64.3921C160.569 64.2458 160.948 64.1093 161.33 64.0458ZM165.39 64.2683C165.721 64.2305 166.048 64.2455 166.379 64.2657C166.936 64.2997 166.703 65.1126 166.255 64.9249C166.26 64.9547 166.261 64.9844 166.258 65.0122C166.24 65.1551 166.194 65.2759 166.063 65.3526C165.941 65.4239 165.786 65.4237 165.665 65.3526C165.534 65.2766 165.475 65.1693 165.442 65.03C165.416 64.922 165.427 64.8316 165.442 64.7247C165.447 64.6892 165.462 64.6562 165.483 64.6265C165.452 64.6187 165.421 64.6112 165.39 64.6041C165.112 64.5408 164.837 64.5535 164.56 64.5134C164.53 64.5091 164.526 64.4614 164.552 64.4492C164.801 64.3321 165.118 64.2994 165.39 64.2683ZM161.279 61.7575C161.47 61.6847 161.709 61.8058 161.807 61.9724C161.917 62.1615 161.87 62.3797 161.734 62.539C161.524 62.7834 161.126 62.9339 160.832 63.0733L160.809 63.0846C160.507 63.2302 160.197 63.3638 159.883 63.4803C159.574 63.5949 159.253 63.6847 158.933 63.7618C158.764 63.8024 158.592 63.836 158.419 63.8572C158.283 63.8739 158.178 63.8365 158.048 63.8365C158.029 63.8365 158.023 63.8113 158.038 63.8016C158.16 63.725 158.25 63.6242 158.383 63.5533C158.521 63.4794 158.66 63.4069 158.8 63.335C159.081 63.1897 159.352 63.0281 159.624 62.8654C159.911 62.6939 160.19 62.5133 160.463 62.32C160.729 62.1308 160.974 61.8737 161.279 61.7575ZM164.678 61.602C164.917 61.5557 165.153 61.6685 165.223 61.9114C165.291 62.1441 165.22 62.1939 165.4 62.3604C165.544 62.4931 165.699 62.6116 165.855 62.7282L166.086 62.8994C166.503 63.2082 166.923 63.5001 167.402 63.7085C167.443 63.7261 167.42 63.7863 167.381 63.7871C166.619 63.8018 165.888 63.6986 165.2 63.3572C164.879 63.1978 164.556 62.9961 164.37 62.6778C164.154 62.3092 164.16 61.7024 164.678 61.602Z" fill="#151E22"/>
</g>
</svg>
