<svg width="879" height="345" viewBox="0 0 879 345" fill="none" xmlns="http://www.w3.org/2000/svg">
<rect width="879" height="345" rx="15" fill="#F8F8F8" fill-opacity="0.6"/>
<path d="M39.704 42.52C39.704 40.6 41.24 39.336 43.544 39.336C45.608 39.336 46.968 40.488 47.144 42.408H45.976C45.848 41.112 44.968 40.376 43.528 40.376C41.912 40.376 40.856 41.208 40.856 42.504C40.856 43.512 41.448 44.152 42.648 44.456L44.616 44.936C46.408 45.368 47.336 46.392 47.336 47.944C47.336 49.928 45.8 51.192 43.432 51.192C41.208 51.192 39.704 50.024 39.56 48.152H40.744C40.808 49.352 41.864 50.136 43.432 50.136C45.112 50.136 46.184 49.32 46.184 48.008C46.184 46.984 45.608 46.312 44.376 46.024L42.44 45.544C40.648 45.112 39.704 44.088 39.704 42.52ZM54.2876 43.256H55.3916V51H54.4316L54.2876 49.688C53.8556 50.584 52.7836 51.192 51.5676 51.192C49.7436 51.192 48.7516 49.944 48.7516 48.056V43.24H49.8716V47.704C49.8716 49.544 50.6876 50.2 51.9196 50.2C53.4076 50.2 54.2876 49.208 54.2876 47.368V43.256ZM58.4754 51H57.3714V43.256H58.3314L58.4594 44.36C58.8434 43.544 59.7074 43.048 60.7954 43.048C62.0114 43.048 62.9234 43.688 63.2914 44.696C63.6434 43.688 64.5874 43.048 65.8354 43.048C67.5154 43.048 68.6194 44.136 68.6194 45.928V51H67.5474V46.152C67.5474 44.824 66.8114 44.04 65.6274 44.04C64.3314 44.04 63.5634 45.016 63.5634 46.216V51H62.4754V46.136C62.4754 44.824 61.7234 44.056 60.5554 44.056C59.2594 44.056 58.4754 45.016 58.4754 46.2V51ZM71.6241 51H70.5201V43.256H71.4801L71.6081 44.36C71.9921 43.544 72.8561 43.048 73.9441 43.048C75.1601 43.048 76.0721 43.688 76.4401 44.696C76.7921 43.688 77.7361 43.048 78.9841 43.048C80.6641 43.048 81.7681 44.136 81.7681 45.928V51H80.6961V46.152C80.6961 44.824 79.9601 44.04 78.7761 44.04C77.4801 44.04 76.7121 45.016 76.7121 46.216V51H75.6241V46.136C75.6241 44.824 74.8721 44.056 73.7041 44.056C72.4081 44.056 71.6241 45.016 71.6241 46.2V51ZM85.8929 51.192C84.2449 51.192 83.2689 50.264 83.2689 48.904C83.2689 47.48 84.3569 46.584 86.1649 46.44L88.7249 46.232V45.976C88.7249 44.456 87.8129 43.976 86.6769 43.976C85.3329 43.976 84.5329 44.584 84.5329 45.624H83.5249C83.5249 44.056 84.8049 43.048 86.7089 43.048C88.5009 43.048 89.8129 43.944 89.8129 45.992V51H88.8849L88.7409 49.64C88.2609 50.616 87.2049 51.192 85.8929 51.192ZM86.1489 50.296C87.7809 50.296 88.7249 49.16 88.7249 47.48V47.064L86.4369 47.24C84.9809 47.368 84.3889 48.008 84.3889 48.872C84.3889 49.816 85.0929 50.296 86.1489 50.296ZM95.7563 43.16V44.152H95.1483C93.7243 44.152 92.8123 45.112 92.8123 46.584V51H91.7083V43.256H92.7483L92.8283 44.456C93.1323 43.624 93.9483 43.08 95.0363 43.08C95.2763 43.08 95.4843 43.096 95.7563 43.16ZM96.3543 54.376V53.464H97.2023C97.8743 53.464 98.5463 53.416 98.9303 52.376L99.2663 51.464L96.1303 43.256H97.2983L99.7943 50.008L102.242 43.256H103.378L99.8263 52.776C99.3783 53.992 98.6263 54.488 97.5223 54.488C97.0583 54.488 96.7063 54.456 96.3543 54.376Z" fill="black"/>
<path d="M49.4 104.8V101.48C43.84 101.08 40.28 97.84 40.16 92.96H45.28C45.32 95.24 46.8 96.68 49.4 97V88.48L48.12 88.2C43.08 87.12 40.56 84.32 40.56 79.92C40.56 75.24 44.08 71.88 49.4 71.32V67.92H52.48V71.32C57.52 71.84 60.64 75 60.8 79.8H55.84C55.76 77.64 54.56 76.24 52.48 75.8V84.4L53.84 84.72C58.96 85.84 61.28 88.32 61.28 92.56C61.28 97.44 57.84 100.8 52.48 101.4V104.8H49.4ZM49.24 83.68L49.4 83.72V75.76C47 76.16 45.56 77.6 45.56 79.76C45.56 81.88 46.68 83.12 49.24 83.68ZM52.76 89.2L52.48 89.12V96.92C54.88 96.44 56.32 95.04 56.32 93C56.32 90.96 55.16 89.72 52.76 89.2ZM69.6319 76.36H63.2319V71.76H74.5519V101H69.6319V76.36ZM86.0494 99.24C86.0494 102.56 83.6494 105.2 80.4094 105.6V103.64C82.2094 103.32 83.5694 102.24 83.5694 100.84C83.2494 101 82.8894 101.08 82.4094 101.08C80.8494 101.08 79.5694 99.92 79.5694 98.32C79.5694 96.4 80.8094 95.12 82.6094 95.12C84.6094 95.12 86.0494 96.76 86.0494 99.24ZM88.1247 86.44C88.1247 77.36 93.0047 71.2 100.485 71.2C107.965 71.2 112.885 77.36 112.885 86.44C112.885 95.48 108.245 101.52 100.485 101.52C92.7247 101.52 88.1247 95.48 88.1247 86.44ZM93.1647 86.44C93.1647 93.2 95.8847 97 100.485 97C105.125 97 107.845 93.2 107.845 86.44C107.845 79.52 105.125 75.72 100.485 75.72C95.8847 75.72 93.1647 79.52 93.1647 86.44ZM115.528 86.44C115.528 77.36 120.408 71.2 127.888 71.2C135.368 71.2 140.288 77.36 140.288 86.44C140.288 95.48 135.648 101.52 127.888 101.52C120.128 101.52 115.528 95.48 115.528 86.44ZM120.568 86.44C120.568 93.2 123.288 97 127.888 97C132.528 97 135.248 93.2 135.248 86.44C135.248 79.52 132.528 75.72 127.888 75.72C123.288 75.72 120.568 79.52 120.568 86.44ZM142.931 86.44C142.931 77.36 147.811 71.2 155.291 71.2C162.771 71.2 167.691 77.36 167.691 86.44C167.691 95.48 163.051 101.52 155.291 101.52C147.531 101.52 142.931 95.48 142.931 86.44ZM147.971 86.44C147.971 93.2 150.691 97 155.291 97C159.931 97 162.651 93.2 162.651 86.44C162.651 79.52 159.931 75.72 155.291 75.72C150.691 75.72 147.971 79.52 147.971 86.44ZM176.209 99.24C176.209 102.56 173.809 105.2 170.569 105.6V103.64C172.369 103.32 173.729 102.24 173.729 100.84C173.409 101 173.049 101.08 172.569 101.08C171.009 101.08 169.729 99.92 169.729 98.32C169.729 96.4 170.969 95.12 172.769 95.12C174.769 95.12 176.209 96.76 176.209 99.24ZM178.284 86.44C178.284 77.36 183.164 71.2 190.644 71.2C198.124 71.2 203.044 77.36 203.044 86.44C203.044 95.48 198.404 101.52 190.644 101.52C182.884 101.52 178.284 95.48 178.284 86.44ZM183.324 86.44C183.324 93.2 186.044 97 190.644 97C195.284 97 198.004 93.2 198.004 86.44C198.004 79.52 195.284 75.72 190.644 75.72C186.044 75.72 183.324 79.52 183.324 86.44ZM205.687 86.44C205.687 77.36 210.567 71.2 218.047 71.2C225.527 71.2 230.447 77.36 230.447 86.44C230.447 95.48 225.807 101.52 218.047 101.52C210.287 101.52 205.687 95.48 205.687 86.44ZM210.727 86.44C210.727 93.2 213.447 97 218.047 97C222.687 97 225.407 93.2 225.407 86.44C225.407 79.52 222.687 75.72 218.047 75.72C213.447 75.72 210.727 79.52 210.727 86.44ZM233.09 86.44C233.09 77.36 237.97 71.2 245.45 71.2C252.93 71.2 257.85 77.36 257.85 86.44C257.85 95.48 253.21 101.52 245.45 101.52C237.69 101.52 233.09 95.48 233.09 86.44ZM238.13 86.44C238.13 93.2 240.85 97 245.45 97C250.09 97 252.81 93.2 252.81 86.44C252.81 79.52 250.09 75.72 245.45 75.72C240.85 75.72 238.13 79.52 238.13 86.44Z" fill="#1C2529"/>
<path d="M39 276V225.619L125.855 208.16L301.09 162.767H456.008L601.275 130.344L683.051 120.367L840 64V276H39Z" fill="url(#paint0_linear_214_513)"/>
<path d="M39 226L125.855 208.5L301.09 163H456.008L601.275 130.5L683.051 120.5L840 64" stroke="#05F29A" stroke-width="2"/>
<rect width="801" height="1" transform="translate(39 276)" fill="#E0E0E0"/>
<path d="M47.544 308.984L39.736 309V307.8L43.464 304.584C45.336 302.968 45.864 302.184 45.864 300.952C45.864 299.496 45.032 298.632 43.64 298.632C42.216 298.632 41.288 299.672 41.256 301.32H39.688C39.736 298.84 41.304 297.224 43.656 297.224C45.976 297.224 47.464 298.632 47.464 300.856C47.464 302.504 46.648 303.672 44.6 305.448L42.2 307.528H47.544V308.984ZM48.6671 303.224C48.6671 299.64 50.5231 297.208 53.4351 297.208C56.3311 297.208 58.1871 299.64 58.1871 303.224C58.1871 306.824 56.4111 309.208 53.4351 309.208C50.4431 309.208 48.6671 306.824 48.6671 303.224ZM50.2191 303.224C50.2191 306.072 51.4031 307.8 53.4351 307.8C55.4671 307.8 56.6351 306.072 56.6351 303.224C56.6351 300.344 55.4671 298.616 53.4351 298.616C51.4031 298.616 50.2191 300.344 50.2191 303.224ZM67.2009 308.984L59.3929 309V307.8L63.1209 304.584C64.9929 302.968 65.5209 302.184 65.5209 300.952C65.5209 299.496 64.6889 298.632 63.2969 298.632C61.8729 298.632 60.9449 299.672 60.9129 301.32H59.3449C59.3929 298.84 60.9609 297.224 63.3129 297.224C65.6329 297.224 67.1209 298.632 67.1209 300.856C67.1209 302.504 66.3049 303.672 64.2569 305.448L61.8569 307.528H67.2009V308.984ZM76.1465 308.984L68.3385 309V307.8L72.0665 304.584C73.9385 302.968 74.4665 302.184 74.4665 300.952C74.4665 299.496 73.6345 298.632 72.2425 298.632C70.8185 298.632 69.8905 299.672 69.8585 301.32H68.2905C68.3385 298.84 69.9065 297.224 72.2585 297.224C74.5785 297.224 76.0665 298.632 76.0665 300.856C76.0665 302.504 75.2505 303.672 73.2025 305.448L70.8025 307.528H76.1465V308.984Z" fill="#7D7D7D"/>
<path d="M428.544 308.984L420.736 309V307.8L424.464 304.584C426.336 302.968 426.864 302.184 426.864 300.952C426.864 299.496 426.032 298.632 424.64 298.632C423.216 298.632 422.288 299.672 422.256 301.32H420.688C420.736 298.84 422.304 297.224 424.656 297.224C426.976 297.224 428.464 298.632 428.464 300.856C428.464 302.504 427.648 303.672 425.6 305.448L423.2 307.528H428.544V308.984ZM429.667 303.224C429.667 299.64 431.523 297.208 434.435 297.208C437.331 297.208 439.187 299.64 439.187 303.224C439.187 306.824 437.411 309.208 434.435 309.208C431.443 309.208 429.667 306.824 429.667 303.224ZM431.219 303.224C431.219 306.072 432.403 307.8 434.435 307.8C436.467 307.8 437.635 306.072 437.635 303.224C437.635 300.344 436.467 298.616 434.435 298.616C432.403 298.616 431.219 300.344 431.219 303.224ZM448.201 308.984L440.393 309V307.8L444.121 304.584C445.993 302.968 446.521 302.184 446.521 300.952C446.521 299.496 445.689 298.632 444.297 298.632C442.873 298.632 441.945 299.672 441.913 301.32H440.345C440.393 298.84 441.961 297.224 444.313 297.224C446.633 297.224 448.121 298.632 448.121 300.856C448.121 302.504 447.305 303.672 445.257 305.448L442.857 307.528H448.201V308.984ZM452.699 303.016H451.547V301.976L454.827 298.824H449.627V297.432H456.811V298.696L453.643 301.72C455.611 301.96 457.099 303.288 457.099 305.368C457.099 307.704 455.339 309.192 452.987 309.192C450.715 309.192 449.083 307.8 449.083 305.4H450.635C450.635 306.904 451.563 307.784 453.019 307.784C454.523 307.784 455.499 306.824 455.499 305.336C455.499 303.944 454.539 303.016 452.699 303.016Z" fill="#7D7D7D"/>
<path d="M809.544 308.984L801.736 309V307.8L805.464 304.584C807.336 302.968 807.864 302.184 807.864 300.952C807.864 299.496 807.032 298.632 805.64 298.632C804.216 298.632 803.288 299.672 803.256 301.32H801.688C801.736 298.84 803.304 297.224 805.656 297.224C807.976 297.224 809.464 298.632 809.464 300.856C809.464 302.504 808.648 303.672 806.6 305.448L804.2 307.528H809.544V308.984ZM810.667 303.224C810.667 299.64 812.523 297.208 815.435 297.208C818.331 297.208 820.187 299.64 820.187 303.224C820.187 306.824 818.411 309.208 815.435 309.208C812.443 309.208 810.667 306.824 810.667 303.224ZM812.219 303.224C812.219 306.072 813.403 307.8 815.435 307.8C817.467 307.8 818.635 306.072 818.635 303.224C818.635 300.344 817.467 298.616 815.435 298.616C813.403 298.616 812.219 300.344 812.219 303.224ZM829.201 308.984L821.393 309V307.8L825.121 304.584C826.993 302.968 827.521 302.184 827.521 300.952C827.521 299.496 826.689 298.632 825.297 298.632C823.873 298.632 822.945 299.672 822.913 301.32H821.345C821.393 298.84 822.961 297.224 825.313 297.224C827.633 297.224 829.121 298.632 829.121 300.856C829.121 302.504 828.305 303.672 826.257 305.448L823.857 307.528H829.201V308.984ZM838.636 306.664H837.26V309H835.756V306.664H829.772V305.272L835.228 297.432H837.26V305.272H838.636V306.664ZM831.468 305.272H835.756V299.096L831.468 305.272Z" fill="#7D7D7D"/>
<defs>
<linearGradient id="paint0_linear_214_513" x1="609.909" y1="170.249" x2="611.869" y2="246.571" gradientUnits="userSpaceOnUse">
<stop stop-color="#05F29A" stop-opacity="0.2"/>
<stop offset="1" stop-color="#038C59" stop-opacity="0"/>
</linearGradient>
</defs>
</svg>
