<svg width="191" height="95" viewBox="0 0 191 95" fill="none" xmlns="http://www.w3.org/2000/svg">
<g opacity="0.2">
<path fill-rule="evenodd" clip-rule="evenodd" d="M79.731 108.331C79.5969 105.837 79.432 103.346 79.2347 100.856C78.8414 95.8972 78.3265 90.9344 77.4697 86.0325C76.6245 81.196 75.4415 76.493 73.7371 71.8842C72.9464 69.746 72.0901 67.9219 70.8479 65.9998C69.6733 64.1824 68.1744 62.951 66.3071 61.854C64.6246 60.8655 62.67 59.1506 61.0563 58.0437C60.3826 57.5816 58.9966 57.6124 58.5346 56.9289C57.9296 56.0338 58.3219 54.6638 57.712 53.7716C57.015 52.7516 56.0384 51.9592 54.9371 51.3835C53.7352 50.5693 52.3195 50.2007 50.9001 50.2514C48.8069 50.1245 46.6988 50.7911 45.355 52.4954C44.6844 53.346 44.2929 54.3274 44.2387 55.414C44.2246 55.6966 44.3153 55.9194 44.4647 56.0803C44.3761 56.1988 44.288 56.3174 44.2004 56.4366C43.9255 56.0293 43.2831 55.8129 42.8549 56.1203C41.4542 57.1261 39.9404 57.9259 38.3426 58.5122C37.9688 58.3352 37.5162 58.4172 37.196 58.706C37.0661 58.8232 36.9282 58.9234 36.7841 59.0085C36.1917 59.1691 35.5901 59.3033 34.9796 59.4071C34.7885 59.4395 34.6265 59.548 34.5037 59.6944C34.3218 59.5242 34.0717 59.4425 33.7924 59.549C30.5679 60.7787 27.5227 62.689 25.2081 65.277C22.6437 68.1442 21.2969 71.7109 20.2715 75.365C19.1615 79.3205 18.4522 83.3746 17.8564 87.4354C17.2527 91.55 16.658 95.6807 16.2427 99.8192C16.0089 102.148 15.9198 104.498 16.0256 106.837C16.0783 108.006 16.1851 109.172 16.3551 110.329C16.3947 110.6 16.4361 110.912 16.5029 111.224C16.3 111.184 16.0582 111.356 16.0993 111.631C16.3858 113.544 18.6985 114.102 20.2935 114.322C22.9026 114.682 25.5251 114.882 28.1592 114.898C30.7477 114.913 33.3358 114.747 35.9189 114.598C38.5672 114.445 41.2154 114.292 43.8636 114.136C54.4739 113.514 65.0848 112.899 75.6951 112.276C76.6645 112.219 77.7714 112.142 78.6017 111.58C79.7399 110.809 79.7984 109.583 79.731 108.331Z" fill="#05F29A"/>
<path fill-rule="evenodd" clip-rule="evenodd" d="M28.0072 86.9274C27.9703 86.8584 28.0558 86.7963 28.1125 86.8461C29.4006 87.9769 30.0749 89.7929 30.2163 91.4715C30.3661 93.2515 30.1537 95.0944 30.0726 96.8737C29.9822 98.8555 29.901 100.838 29.7908 102.819C29.6788 104.829 29.5582 106.838 29.4548 108.848L29.2222 113.37C29.1975 113.852 29.2511 114.445 29.0662 114.895C28.7797 115.592 27.9287 115.484 27.7498 114.901L27.7442 114.882L27.7279 114.895C27.5701 114.369 27.6882 113.746 27.715 113.203L27.9586 108.262C28.1308 104.77 28.2843 101.278 28.4693 97.7862L28.5321 96.6224C28.6186 95.0557 28.6849 93.4929 28.7381 91.9267L28.7554 91.4045C28.8059 89.8319 28.7658 88.3473 28.0072 86.9274ZM59.232 57.9369C59.9496 57.8687 60.4915 58.1067 61.143 58.3575C61.4268 58.4667 61.6955 58.5928 61.9678 58.7234C62.3087 58.8869 62.5279 59.176 62.7378 59.4816L62.85 59.6463C63.7241 60.9274 64.312 62.4054 64.9755 63.8002C65.7515 65.4317 66.5353 67.0597 67.2948 68.6991L67.6696 69.5067C67.8569 69.9105 68.0438 70.3146 68.2278 70.72L68.5458 71.4255C68.8652 72.141 69.1516 72.8979 68.6963 73.6361C68.273 74.3225 67.5224 74.8537 66.9281 75.3843C66.4323 75.8271 65.9365 76.2698 65.4404 76.7125C66.4657 77.7396 67.1541 79.0329 67.5587 80.4198C68.1335 80.1802 68.8351 80.1343 69.4295 80.0306C70.2615 79.8855 70.3634 81.1456 69.5782 81.1302C68.9983 81.1188 68.318 81.1781 67.7231 81.0559C67.8265 81.5116 67.9015 81.9743 67.9492 82.4382C68.1992 84.8697 67.6529 87.3153 67.0832 89.6679L67.0364 89.861C66.4177 92.4074 65.8311 94.9604 65.3063 97.5278C64.7803 100.101 64.3072 102.685 63.8872 105.277C63.4597 107.916 63.1572 110.569 62.8321 113.221C62.7829 113.623 62.5304 113.967 62.0869 113.967C61.7175 113.967 61.2952 113.622 61.3417 113.221C61.6771 110.333 62.1529 107.459 62.6255 104.59C63.4396 99.6497 64.4642 94.7521 65.643 89.8866L65.8489 89.0393C66.3792 86.8418 66.8603 84.5775 66.5943 82.3108C66.3777 80.465 65.6062 78.497 64.0816 77.3506L64.0351 77.3161C63.679 77.0549 63.542 76.5552 63.8927 76.2111C64.1159 75.9921 64.3394 75.7734 64.563 75.5548L65.9052 74.2439L66.1758 73.9792C66.4014 73.7588 66.6281 73.5398 66.8616 73.3275C67.0029 73.1991 67.386 72.9542 67.4141 72.743C67.4323 72.6051 67.2691 72.363 67.203 72.236L66.9 71.6243C66.728 71.2755 66.5613 70.9242 66.3933 70.5734C66.0452 69.8467 65.6921 69.1222 65.3516 68.3918L63.3058 64.0067C62.7287 62.7695 62.2146 61.4634 61.4601 60.3197L61.3113 60.0968C61.1871 59.909 61.0775 59.7283 60.999 59.4987C60.9235 59.2778 60.8288 59.0353 60.6893 58.8468C60.3625 58.4045 59.7379 58.1535 59.2153 58.0609C59.1398 58.0474 59.1672 57.9431 59.232 57.9369ZM43.4975 56.7857C43.5429 56.7857 43.5498 56.8506 43.5079 56.8632C42.8773 57.0529 42.2748 57.3589 41.7833 57.8007C41.5481 58.0121 41.3113 58.252 41.1661 58.5366C41.1105 58.6455 41.0798 58.7605 41.0572 58.8798L41.05 58.9197C41.0126 59.1352 40.959 59.2551 40.8495 59.4277L40.8307 59.4569C40.206 60.422 39.7682 61.494 39.3679 62.5673L38.4961 64.9076L37.6249 67.2482C37.3442 68.0023 37.0633 68.7565 36.7826 69.5107C36.6275 69.927 36.468 70.3416 36.3086 70.7563C36.2396 70.936 36.1654 71.1143 36.1023 71.2961C36.0937 71.321 36.0661 71.4707 36.0454 71.507L36.0524 71.5194C36.2282 71.8151 36.6968 72.0621 36.9624 72.277L37.8771 73.0167C38.5292 73.5443 39.1981 74.057 39.8307 74.6081C40.228 74.9541 39.9808 75.5738 39.5377 75.7182C38.7951 75.9602 38.0676 76.2499 37.3361 76.5237C37.0407 76.6343 36.733 76.7305 36.441 76.8525L36.2632 76.9293C36.1938 76.9606 36.2271 76.9603 36.2299 77.0884C36.2327 77.2229 36.2708 77.363 36.2927 77.4951C36.5391 78.9854 36.8002 80.4731 37.0759 81.9583C38.051 87.2101 39.2159 92.4235 40.5445 97.5969C41.2156 100.209 41.9353 102.809 42.621 105.418C43.3052 108.02 44.2053 110.584 45.0648 113.132C45.3073 113.851 44.1683 114.16 43.9317 113.445C42.9412 110.448 42.035 107.425 41.0992 104.411C39.4366 99.0555 38.1264 93.584 36.9676 88.0993C36.3933 85.381 35.868 82.6522 35.3922 79.9148C35.3021 79.3966 35.2138 78.8781 35.1273 78.3592L35.0012 77.5961C34.9147 77.0521 34.8655 76.4855 35.2882 76.055C35.7009 75.6348 36.4094 75.4859 36.9524 75.2889L36.9918 75.2744C37.3374 75.1454 37.6855 75.0211 38.0322 74.8929C37.5214 74.4907 37.017 74.0795 36.5075 73.6775C36.0965 73.3532 35.6791 73.0355 35.274 72.7038C34.9399 72.4301 34.6676 72.0788 34.6327 71.6338C34.5972 71.179 34.792 70.757 34.9492 70.3399L34.9642 70.2996C35.1185 69.8831 35.2732 69.4669 35.4318 69.0521L36.4135 66.4839C37.0373 64.852 37.6347 63.2069 38.2908 61.5877C38.5504 60.9469 38.8333 60.3162 39.1676 59.7105C39.3288 59.4185 39.5016 59.1326 39.6894 58.8569C39.8999 58.5478 40.0909 58.3971 40.417 58.2265C40.9385 57.9538 41.3477 57.4965 41.8713 57.2154C42.3853 56.9394 42.914 56.7921 43.4975 56.7857ZM45.1903 53.874C45.2103 53.8398 45.2631 53.855 45.2638 53.8939C45.2774 54.705 45.0848 55.5337 44.9663 56.3357C44.8472 57.1405 44.809 57.99 44.6369 58.7862C44.6333 58.8233 44.6261 58.8598 44.616 58.8957L44.6078 58.923C44.5351 59.1461 44.3461 59.3352 44.1142 59.3942C44.1871 59.7985 44.2558 60.2034 44.3136 60.6105C44.4129 61.3103 44.5035 62.0111 44.5925 62.7121L44.6992 63.5534C44.7999 64.3462 44.8978 65.1394 44.9946 65.9327C45.2408 66.0357 45.4921 66.1207 45.7494 66.1943C46.342 66.3639 46.949 66.4329 47.5605 66.4929C48.8059 66.6152 50.0607 66.6718 51.3105 66.7412L51.5783 66.7562C52.9833 66.8368 54.3961 66.8511 55.7976 66.7069C56.4926 66.6353 57.1821 66.5153 57.8598 66.3453C58.2042 66.2588 58.5389 66.1298 58.8825 66.0453C58.9965 66.0173 59.0984 65.9526 59.2126 65.8836C59.2633 65.8195 59.3345 65.7709 59.4272 65.7522L59.4523 65.7478L59.4772 65.7442L59.4857 65.7403L59.4851 65.743C59.5554 65.7335 59.6222 65.7336 59.6852 65.7422C59.7102 65.1237 59.7374 64.5052 59.7715 63.8869C59.8629 62.2261 60.1153 60.4936 59.7784 58.8474C59.7671 58.792 59.8424 58.7725 59.862 58.8243C60.5232 60.5671 60.449 62.4728 60.4823 64.3071C60.5148 66.1009 60.4951 67.896 60.4862 69.6902C60.6147 69.7449 60.7292 69.819 60.82 69.923C61.0013 70.1309 61.0534 70.4922 60.82 70.6928C60.7165 70.7818 60.602 70.8435 60.4806 70.8864C60.4741 72.445 60.4631 74.0039 60.4474 75.5627C60.7438 75.7916 60.7715 76.3353 60.4363 76.5613C60.3805 81.6092 60.2888 86.6573 60.2128 91.7044L60.0534 102.294C60.0322 103.704 59.9971 105.115 59.9845 106.526L59.9945 106.53L60.0297 106.546C60.0891 106.574 60.1774 106.619 60.1958 106.665C60.2006 106.677 60.2018 106.686 60.2012 106.692C60.2985 106.705 60.3948 106.751 60.4781 106.83C60.6839 107.026 60.6421 107.321 60.4781 107.52L60.4343 107.573C60.3321 107.697 60.1381 107.745 59.9796 107.72C59.9812 108.6 59.9868 109.481 59.984 110.361C59.9831 110.63 59.9791 110.899 59.9744 111.168L59.9633 111.813C59.956 112.181 59.9234 112.649 59.5466 112.814C59.1216 113.001 58.7405 112.848 58.5684 112.416C58.5218 112.299 58.5318 112.19 58.5488 112.074C58.5435 111.901 58.5163 111.699 58.5197 111.538L58.5337 110.866C58.5359 110.762 58.5401 110.658 58.5431 110.555L58.5308 110.556C57.0205 110.629 55.4997 110.594 53.987 110.593L53.3142 110.594C52.7528 110.594 52.1903 110.591 51.6297 110.57L51.4196 110.561C51 110.541 50.5586 110.535 50.1236 110.497C50.179 110.944 50.2308 111.391 50.277 111.839C50.3207 112.263 49.8829 112.623 49.4924 112.623C49.0285 112.623 48.7632 112.259 48.7077 111.839C48.4456 109.856 48.3384 107.856 48.088 105.872C47.8637 104.096 47.6692 102.315 47.4715 100.535L47.4055 99.9417C46.682 93.4643 45.9797 86.9844 45.3079 80.5014L44.9951 77.4708C44.6791 74.4162 44.3614 71.3614 44.0934 68.3023C43.9401 66.5534 43.7989 64.8041 43.666 63.0534C43.5685 61.7673 43.5073 60.4883 43.4674 59.2047C43.3102 59.0429 43.2314 58.8066 43.301 58.5626C43.3417 58.4202 43.3891 58.2786 43.4391 58.1372C43.4359 57.9983 43.4327 57.8595 43.43 57.7204C43.4274 57.5887 43.561 57.521 43.6679 57.5428C43.8622 57.0722 44.0762 56.6056 44.2548 56.1395C44.5438 55.385 44.782 54.572 45.1903 53.874ZM29.0489 62.0279C32.0702 60.1337 35.6667 58.7707 39.2688 58.9175C39.3507 58.9208 39.3738 59.0457 39.2887 59.0646C37.3674 59.4938 35.4249 60.0165 33.6059 60.7773C31.7816 61.5404 30.0469 62.5678 28.502 63.8025C25.6514 66.0806 23.4358 69.0437 21.9769 72.3839C21.1224 74.3405 20.5234 76.4062 20.0004 78.4726C19.4469 80.6595 18.9907 82.8701 18.6115 85.0938C17.8623 89.4865 17.4262 93.9275 17.1941 98.3762C16.958 102.902 17.0553 107.43 16.8869 111.956C16.8578 112.74 15.7374 112.725 15.6804 111.956C15.2989 106.81 15.5103 101.582 15.8631 96.4403C16.1804 91.8177 16.7345 87.2047 17.6267 82.6565L17.7044 82.2623C18.5385 78.0543 19.5446 73.7444 21.561 69.9335C23.2825 66.6801 25.9402 63.977 29.0489 62.0279ZM71.0049 82.1391C71.0206 82.094 71.0802 82.0946 71.0961 82.1391C71.4405 83.1036 71.4529 84.192 71.5444 85.2087L71.5516 85.2868C71.6394 86.2141 71.7055 87.1426 71.767 88.0719L71.7899 88.4204C72.0366 92.2113 72.3449 95.998 72.8097 99.7689C73.2727 103.526 73.8988 107.256 74.5759 110.979C74.6513 111.394 74.4678 111.816 74.0332 111.936C73.6502 112.041 73.1584 111.805 73.0774 111.393C72.6571 109.256 72.3172 107.116 72.014 104.96C71.4801 101.165 71.0818 97.3513 70.8256 93.5268C70.6971 91.6059 70.618 89.6858 70.5865 87.7608C70.572 86.8677 70.5952 85.9724 70.6427 85.0802L70.6541 84.8743C70.7066 83.9624 70.7012 83.0088 71.0049 82.1391ZM38.3573 106.285C38.3977 106.263 38.4476 106.308 38.4221 106.35C37.837 107.301 37.0456 108.121 36.2806 108.929C35.4809 109.774 34.701 110.645 33.8852 111.473C33.2957 112.072 32.3475 111.106 32.9696 110.557C33.8443 109.785 34.7586 109.052 35.6488 108.297L36.0382 107.967C36.7681 107.35 37.5197 106.739 38.3573 106.285ZM66.1439 105.809C66.1003 105.726 66.2 105.658 66.2678 105.713C66.7397 106.097 67.1626 106.555 67.6183 106.96C68.0696 107.362 68.5377 107.736 69.0186 108.101C69.5015 108.467 69.9949 108.819 70.5016 109.152C70.9219 109.429 71.3551 109.65 71.7953 109.879C71.9991 109.905 72.1879 110.005 72.339 110.195C72.5778 110.495 72.6032 111.061 72.2719 111.322L72.2124 111.368C71.8258 111.672 71.3667 111.709 70.9861 111.368C70.5611 110.987 70.1594 110.569 69.7512 110.166L69.6286 110.046C69.19 109.62 68.7621 109.179 68.3587 108.719L67.9935 108.304C67.316 107.531 66.6107 106.698 66.1439 105.809ZM63.9708 61.2492C63.8923 61.1972 63.9407 61.0572 64.0376 61.0906L64.2153 61.1521C64.9579 61.4102 65.7222 61.6965 66.3964 62.0939C67.1209 62.521 67.7898 63.0297 68.4289 63.5755C69.7518 64.7052 70.8773 66.0944 71.8338 67.5424C73.753 70.448 74.9398 73.7755 75.8981 77.105C76.9198 80.6551 77.7065 84.2816 78.3488 87.9183C79.0015 91.6142 79.505 95.3434 79.8359 99.0821C79.9989 100.924 80.1083 102.767 80.1633 104.615C80.1917 105.565 80.1908 106.515 80.1829 107.466C80.1808 107.711 80.1825 107.955 80.1852 108.2L80.1945 108.933C80.1995 109.397 80.255 109.884 80.1448 110.337C79.9675 111.067 78.7621 110.931 78.8018 110.185C78.7654 109.937 78.764 109.681 78.7734 109.424C78.7677 109.391 78.7615 109.357 78.7546 109.323C78.7348 109.224 78.7516 109.133 78.7903 109.055C78.7965 108.932 78.8022 108.809 78.8042 108.689C78.8121 108.199 78.8116 107.711 78.7981 107.222C78.7695 106.19 78.7285 105.158 78.687 104.126C78.6042 102.064 78.4889 100.002 78.3219 97.9452C77.7406 90.7866 76.5133 83.5873 74.4517 76.7003C73.4942 73.5021 72.1742 70.3626 70.2812 67.599C69.4409 66.3721 68.4928 65.2389 67.4418 64.1871C66.3841 63.1288 65.2186 62.0759 63.9708 61.2492ZM49.7059 107.397L49.8487 108.43C49.9201 108.947 49.9909 109.464 50.058 109.982C50.514 109.919 50.9805 109.893 51.4199 109.854C52.1891 109.786 52.9637 109.753 53.7352 109.721C55.3306 109.655 56.934 109.541 58.5311 109.549C58.5475 109.549 58.5629 109.55 58.5784 109.552L58.6576 107.512L57.5355 107.51C56.5849 107.509 55.6344 107.501 54.6837 107.492C53.8275 107.485 52.971 107.484 52.1149 107.466L51.748 107.457C51.0988 107.44 50.382 107.476 49.7059 107.397ZM58.7516 104.436C58.7058 104.441 58.6592 104.446 58.6097 104.448C58.3875 104.457 58.1635 104.451 57.941 104.453C57.4675 104.457 56.994 104.46 56.5203 104.46C55.5732 104.46 54.6261 104.466 53.6792 104.477C52.7043 104.489 51.73 104.506 50.755 104.508C50.2826 104.509 49.8118 104.496 49.3395 104.483C49.4159 105.154 49.4957 105.825 49.5839 106.494C50.3172 106.395 51.1059 106.445 51.8226 106.438L51.9157 106.437C52.8938 106.42 53.8729 106.433 54.8513 106.434C55.8578 106.435 56.8643 106.438 57.8709 106.447L58.6978 106.453L58.6994 106.412C58.7237 105.754 58.7393 105.095 58.7516 104.436ZM48.9757 101.225C49.0674 102.017 49.1535 102.811 49.2412 103.604C49.2995 103.595 49.3585 103.588 49.4187 103.581C49.8917 103.532 50.3638 103.489 50.8385 103.46C51.7849 103.401 52.7312 103.37 53.6791 103.345C54.6539 103.319 55.6288 103.299 56.6038 103.285C57.0776 103.278 57.5509 103.279 58.0246 103.282C58.2469 103.284 58.4714 103.277 58.6932 103.292C58.7196 103.293 58.7449 103.296 58.77 103.299L58.7866 102.108C58.7895 101.909 58.7925 101.711 58.7957 101.512C58.0635 101.557 57.3192 101.54 56.5876 101.54L56.419 101.541C55.4997 101.545 54.58 101.532 53.6609 101.513C52.7126 101.493 51.7663 101.462 50.8198 101.402C50.4363 101.377 50.0556 101.345 49.6742 101.302L49.4834 101.281C49.3175 101.261 49.1466 101.245 48.9757 101.225ZM58.8712 97.8621C57.1078 98.0021 55.3539 98.0606 53.5859 98.078L53.3206 98.0803C51.7582 98.0922 50.183 98.1566 48.6169 98.1152C48.7106 98.9274 48.8039 99.7395 48.898 100.551C49.1223 100.541 49.3476 100.541 49.5669 100.533C50.0128 100.517 50.4571 100.513 50.9033 100.512C51.8224 100.51 52.7416 100.518 53.6608 100.516C54.6081 100.514 55.5552 100.498 56.5024 100.48C57.2703 100.466 58.0463 100.408 58.8163 100.41L58.8712 97.8621ZM58.9454 94.3978C58.7411 94.4656 58.4998 94.47 58.2354 94.4821L57.5527 94.5162C57.2364 94.5317 56.92 94.5463 56.6034 94.5578C55.5485 94.5964 54.4936 94.6325 53.4385 94.6661C52.3574 94.7004 51.271 94.7204 50.1897 94.6863C49.66 94.6696 49.1348 94.6418 48.6067 94.5976C48.4762 94.5867 48.3431 94.5795 48.2098 94.5701C48.3327 95.6461 48.4561 96.722 48.5799 97.7978C50.1385 97.6064 51.7091 97.4873 53.2657 97.2894L54.6733 97.1096C56.0801 96.93 57.4859 96.7537 58.8979 96.6052L58.9454 94.3978ZM59.0208 90.8946C58.721 90.9687 58.3793 90.965 58.0914 90.9831L58.0381 90.9868C57.4926 91.0282 56.9457 91.0489 56.3989 91.0624C55.3273 91.0888 54.255 91.102 53.183 91.1086L52.5384 91.1126C51.679 91.1176 50.8202 91.1198 49.9606 91.0998C49.4092 91.087 48.8591 91.06 48.3082 91.0324C48.1431 91.024 47.9744 91.0186 47.8051 91.0101C47.9203 92.0288 48.0366 93.0472 48.1527 94.0658C48.3337 94.037 48.5156 94.0151 48.6889 93.9858C49.133 93.9108 49.5762 93.8508 50.0234 93.7972C50.9921 93.6811 51.9658 93.5975 52.9391 93.527C53.9382 93.4546 54.9382 93.3933 55.9375 93.3232L56.6452 93.2733C56.8811 93.2569 57.117 93.2411 57.353 93.2266C57.7561 93.2019 58.2247 93.2298 58.6245 93.1421C58.7327 93.0969 58.8529 93.0866 58.9733 93.1123L59.0208 90.8946ZM59.1112 86.7938C59.0075 86.9256 58.8526 86.9947 58.6679 87.0186C57.7057 87.1434 56.7187 87.1635 55.7483 87.2223L55.5773 87.2332C54.5754 87.2992 53.5729 87.3511 52.5702 87.4043C51.5402 87.459 50.5104 87.5036 49.4796 87.5395C49.0419 87.5548 48.6021 87.5566 48.1638 87.551L47.9761 87.5481C47.7961 87.5451 47.6076 87.5455 47.4186 87.5394C47.5232 88.4919 47.6288 89.4444 47.7358 90.3966C47.9285 90.3757 48.121 90.3597 48.3078 90.3399C48.8585 90.2817 49.4084 90.2241 49.9603 90.1806C51.006 90.0982 52.0525 90.0486 53.1002 89.9968C54.1721 89.9437 55.2445 89.9083 56.3166 89.8583C56.8363 89.8339 57.3559 89.8037 57.8742 89.7559C58.2374 89.7225 58.6688 89.5988 59.0477 89.6443C59.0684 88.6941 59.09 87.7439 59.1112 86.7938ZM59.1959 83.1214C59.1795 83.1468 59.1603 83.1713 59.137 83.1942C58.7134 83.6129 58.1913 83.5806 57.6299 83.6245L57.5955 83.6273C57.0453 83.6736 56.4949 83.7176 55.9441 83.7573C54.8431 83.8369 53.7399 83.8925 52.6373 83.9421C51.5089 83.9928 50.3732 84.0277 49.2437 84.0047C48.5204 83.9899 47.7629 83.9925 47.0251 83.9219C47.1384 84.971 47.2524 86.02 47.3672 87.0689C47.5746 87.0298 47.7834 86.9999 47.9812 86.9687C48.4795 86.8903 48.9784 86.8114 49.4797 86.7537C50.4813 86.6383 51.4832 86.5305 52.4868 86.4331C53.3451 86.3499 54.203 86.2654 55.0619 86.1893L55.5774 86.1447C56.6022 86.0585 57.6399 85.9163 58.668 85.8952C58.8374 85.8918 59.029 85.984 59.1261 86.1296C59.1488 85.1268 59.1723 84.1241 59.1959 83.1214ZM59.267 80.1473C59.0053 80.1791 58.7234 80.161 58.4819 80.1689C57.8713 80.1889 57.2606 80.2074 56.6499 80.2254L52.9857 80.3336C51.7382 80.3704 50.4863 80.398 49.2383 80.3803C48.6893 80.3726 48.1379 80.3717 47.5891 80.3418L47.4062 80.3307C47.1804 80.3157 46.9032 80.3136 46.6326 80.2861L46.9521 83.247C47.6863 83.1409 48.4429 83.1012 49.1709 83.039L49.3264 83.0253C50.4001 82.9274 51.4789 82.8627 52.5545 82.7898C53.6578 82.7151 54.7596 82.6244 55.8614 82.5316C56.4121 82.4853 56.9627 82.4391 57.513 82.3884L57.581 82.3817C58.1008 82.3274 58.5896 82.2119 59.05 82.5185C59.1174 82.5633 59.1701 82.6232 59.2062 82.6903C59.2263 81.8426 59.246 80.9949 59.267 80.1473ZM59.3527 76.6915C57.1212 76.7814 54.8894 76.8495 52.6562 76.8795C51.3992 76.8963 50.1437 76.8845 48.8869 76.8582C48.3419 76.8468 47.7924 76.8207 47.2478 76.7789L47.0438 76.7625C46.7849 76.7407 46.5129 76.7249 46.242 76.6988C46.354 77.7169 46.465 78.7351 46.5752 79.7534C46.8416 79.7039 47.1201 79.681 47.3536 79.6512L47.4066 79.6441C47.9868 79.5643 48.5724 79.5177 49.1554 79.4664C50.2906 79.3663 51.4315 79.3019 52.5697 79.2471C53.7353 79.191 54.9015 79.1434 56.0673 79.0916L57.2331 79.0394C57.4274 79.0308 57.6217 79.0223 57.816 79.0141C58.0937 79.0024 58.3713 78.9912 58.6489 78.9797C58.7858 78.974 58.9281 78.9554 59.0652 78.9625L59.1042 78.9573C59.1222 78.955 59.1381 78.9531 59.1527 78.9516C59.19 78.9232 59.2302 78.8996 59.2727 78.8818L59.2985 78.8717L59.3527 76.6915ZM45.8757 73.4171C45.9793 74.3336 46.0818 75.2503 46.1829 76.1671C46.5012 76.1308 46.8232 76.1106 47.1272 76.0833C47.7399 76.0283 48.3556 75.9802 48.9702 75.9519L50.1986 75.8949C51.0175 75.857 51.8363 75.8204 52.6558 75.7905C54.8984 75.7086 57.1411 75.6148 59.3824 75.5002C59.3982 74.8785 59.4145 74.2567 59.4312 73.6349C59.3236 73.7502 59.1682 73.826 58.9639 73.8255C56.6109 73.8192 54.256 73.8328 51.9032 73.7941C50.7255 73.7747 49.5491 73.7461 48.3727 73.6857C47.7971 73.6562 47.2183 73.5959 46.6471 73.5168C46.4035 73.483 46.1369 73.4589 45.8757 73.4171ZM45.4998 70.1513C45.6104 71.0901 45.7189 72.0292 45.8256 72.9684C46.1179 72.9163 46.4197 72.8885 46.6924 72.8514C47.2781 72.7717 47.8675 72.7083 48.4575 72.6749C49.6055 72.61 50.7542 72.5772 51.9038 72.5528C54.2565 72.5028 56.6115 72.5032 58.9646 72.4846C59.1857 72.4828 59.3498 72.5703 59.4575 72.7009C59.4738 72.1147 59.4911 71.5284 59.5088 70.9421C59.2816 70.9181 59.0562 70.8841 58.8477 70.8695C58.2068 70.8248 57.5657 70.7839 56.9243 70.7471C55.5858 70.6703 54.2461 70.6047 52.9068 70.5464C51.567 70.4881 50.2269 70.4311 48.8868 70.3815L48.3007 70.36C47.3687 70.3254 46.421 70.2816 45.4998 70.1513ZM45.078 66.6159C45.1932 67.5667 45.3065 68.5177 45.4197 69.4688L45.4541 69.7631C46.5749 69.5452 47.7562 69.4813 48.8864 69.4333C50.2268 69.3762 51.5648 69.3469 52.9064 69.351C54.2466 69.355 55.5848 69.3868 56.9239 69.4421C57.5931 69.4697 58.2621 69.5017 58.9309 69.5381C59.1147 69.548 59.3303 69.5427 59.5522 69.5459C59.557 69.3964 59.5611 69.247 59.5663 69.0976C59.5866 68.4923 59.6066 67.8869 59.6273 67.2816C59.175 67.514 58.5869 67.6077 58.1324 67.7068L58.0805 67.7183C57.33 67.8869 56.5636 67.9962 55.7975 68.063C54.293 68.1943 52.7728 68.1452 51.2698 68.0181L51.0065 67.9955C49.6866 67.881 48.3182 67.7359 47.0387 67.4092C46.4292 67.2536 45.799 67.0358 45.2529 66.7202C45.1961 66.6873 45.1375 66.6526 45.078 66.6159ZM57.7872 55.3165C57.8002 55.265 57.8772 55.2533 57.9025 55.3014C58.0802 55.6392 58.1464 56.0446 58.2698 56.4065C58.4026 56.7956 58.5265 57.1876 58.673 57.572C58.9791 58.3751 59.3402 59.1468 59.7707 59.8908C60.1971 60.6274 59.0032 61.1533 58.6895 60.3468C58.3656 59.5146 58.0993 58.654 57.9383 57.7746C57.8596 57.3455 57.7895 56.9106 57.7668 56.4746C57.7472 56.1001 57.6946 55.6817 57.7872 55.3165Z" fill="#05F29A"/>
<path fill-rule="evenodd" clip-rule="evenodd" d="M66.5001 38.9771C66.4666 37.092 66.4296 35.1692 66.1495 33.3025C65.8756 31.4774 65.1222 29.8278 63.8275 28.5025C61.0775 25.6875 57.0912 24.9999 53.3807 24.3698L47.0368 23.2925C45.1014 22.9639 43.0366 22.4386 41.0811 22.9046C40.1176 23.1343 39.2993 23.6678 38.5514 24.299C37.8306 24.9074 37.0555 25.5607 36.5671 26.3792C36.0778 27.1989 35.9094 28.1571 35.7504 29.0842C35.571 30.1294 35.4316 31.1827 35.3326 32.2386C35.1341 34.3541 35.1071 36.4855 35.251 38.6054C35.3207 39.6336 35.4317 40.6589 35.5733 41.6796C35.6435 42.1858 35.723 42.6907 35.8126 43.1938C35.839 43.3422 35.8591 43.5064 35.8862 43.6724C35.6861 44.2417 35.5724 44.8313 35.5816 45.4184C35.6086 47.1479 37.0677 48.2367 38.5387 48.8212C39.3917 49.1602 40.2834 49.3905 41.1214 49.7692C42.003 50.1675 42.6031 50.8131 43.2059 51.5497C44.3555 52.9545 45.6528 54.217 47.1342 55.2704C50.2749 57.5038 54.2529 58.5601 58.0637 57.7583C58.978 57.566 59.9004 57.2673 60.7223 56.8171C61.5901 56.342 62.2426 55.6534 62.7905 54.8392C63.8079 53.3278 64.5375 51.6259 65.0895 49.8941C65.6524 48.1274 66.0521 46.3576 66.27 44.5155C66.4872 42.6794 66.533 40.8246 66.5001 38.9771Z" fill="#05F29A"/>
<path fill-rule="evenodd" clip-rule="evenodd" d="M46.2555 16.7259C48.8808 16.3647 52.5042 17.5388 53.8116 19.9063C60.0535 18.4342 67.9262 18.3859 73.0708 23.2865C78.439 29.0997 71.6963 36.7644 67.2253 38.4924C67.5508 40.075 67.0432 50.2137 63.4519 54.7361C60.6017 58.5679 53.9644 60.3363 50.8931 55.7595L50.8691 55.7217C50.5401 55.1932 50.8235 55.2101 51.1612 55.6033C54.1687 58.2491 58.2578 58.2943 61.4089 55.5021C67.3145 50.3985 66.7056 37.8847 63.8955 30.6453C55.8935 29.7661 47.326 32.1924 41.7992 38.2182L42.1729 40.469C42.2366 40.8525 42.3089 41.2356 42.3641 41.6204C42.3994 41.867 42.4034 42.1122 42.2326 42.3118C41.6688 42.9707 40.7185 41.9806 39.9367 41.5868C39.7058 41.5543 39.4746 41.5417 39.2478 41.5577C35.4914 42.0417 36.2315 49.3315 40.3601 48.0537C40.707 47.8376 41.005 47.9035 41.1396 48.2172C42.1237 49.119 42.7725 50.7272 44.4075 52.2762C44.9844 52.8573 45.5093 53.3434 46.1582 53.8095C46.5393 54.1951 47.6894 54.5882 47.3248 55.248C46.6354 56.7494 42.57 52.0333 41.8512 50.7291C39.5992 51.6187 37.1035 51.3165 34.7697 51.0991C22.4577 50.4587 24.1013 37.4754 34.1932 29.2784C36.0928 27.8793 38.1887 26.738 40.3674 25.8598C40.6649 25.7399 40.5349 25.2513 40.2333 25.3729C38.7917 25.9541 37.3864 26.6459 36.0467 27.4466L36.0447 26.9679C36.0427 26.1616 36.0554 25.3222 36.1954 24.5856C36.2653 24.0751 36.383 23.5299 36.5642 23.1198C36.7882 21.8624 40.2971 17.5462 46.2555 16.7259ZM39.0839 43.2309C39.274 43.0502 39.6289 43.2656 39.7981 43.2603C40.2309 43.3195 40.642 43.5023 40.9627 43.728C41.1744 43.8467 41.3228 43.9581 41.4468 44.0606L41.4501 44.0597C41.4492 44.0597 41.448 44.0606 41.447 44.0608L41.4587 44.0687C41.6392 44.197 42.3001 44.9198 41.8826 44.7254C41.8515 44.685 41.8196 44.6461 41.7874 44.608C41.784 44.6132 41.7792 44.6183 41.7735 44.6233L41.7969 44.6581C42.1518 45.1922 41.5391 44.6295 41.4448 44.4801C41.4404 44.4837 41.4353 44.4861 41.4304 44.4887L41.5531 44.6382C41.5703 44.6594 41.5838 44.6764 41.595 44.6907L41.6209 44.7157C42.0312 45.1192 42.044 45.4823 41.5673 44.8857C41.5861 44.9139 41.6011 44.9436 41.6032 44.9701L41.6315 45.0061C42.0058 45.4886 41.7013 45.3172 41.5153 45.1112L41.4998 45.0934L41.503 45.0982C41.676 45.3649 41.3327 45.1778 41.272 45.0352L41.2695 45.0287C41.2034 44.9748 41.1627 44.9142 41.1487 44.8989L41.1461 44.8964C40.8243 44.5665 40.3578 44.2874 39.9615 44.1606C39.9041 44.1496 39.846 44.1409 39.7873 44.1346C39.549 44.0815 39.308 44.045 39.0646 44.0253C39.0348 44.0218 39.0046 43.9999 38.9821 43.9716C38.614 43.9592 38.7276 43.8083 38.8803 43.7803L38.883 43.7798L38.8527 43.7772C38.6165 43.7542 38.4551 43.6694 38.694 43.6173L38.7243 43.6113C38.7206 43.6055 38.7173 43.5997 38.7141 43.5939C38.5095 43.5714 38.643 43.3725 38.7566 43.4206C38.7088 43.2644 38.9272 43.3424 38.9544 43.3192C38.9752 43.2961 39.001 43.2757 39.0159 43.2746C39.0817 43.2282 39.0498 43.2324 39.0839 43.2309ZM40.3353 40.7015L40.2874 40.7295C40.2486 40.7522 40.2087 40.7672 40.1687 40.7761C40.2252 40.8001 40.281 40.8261 40.3363 40.8539C40.3354 40.82 40.3348 40.7861 40.3348 40.7522L40.3353 40.7015Z" fill="#05F29A"/>
<path fill-rule="evenodd" clip-rule="evenodd" d="M59.0521 51.0077C58.4324 51.1872 57.7673 51.2033 57.1357 51.0178C56.5628 50.8496 55.9745 50.4795 55.5529 49.9897C55.1783 49.5546 54.9358 49.0259 54.9453 48.4615C54.9464 48.397 54.9694 48.3432 55.0048 48.3015C55.043 48.2565 55.0963 48.2256 55.1534 48.2122C55.2121 48.1985 55.2742 48.2034 55.327 48.2274C55.3748 48.2491 55.4158 48.286 55.4415 48.34C55.5063 48.4252 55.5708 48.5091 55.6356 48.5906C56.1566 49.2342 56.6612 49.7152 57.4446 49.8877C57.8697 49.9813 58.2942 49.9398 58.6838 49.797C59.1007 49.6441 59.4777 49.3752 59.7731 49.0312C59.9065 48.8758 60.0641 48.8123 60.2182 48.8112C60.3929 48.81 60.5655 48.8912 60.6955 49.0209C60.8233 49.1485 60.9089 49.3218 60.9167 49.5031C60.9235 49.6622 60.8716 49.8284 60.7335 49.9767C60.2789 50.4651 59.6896 50.8229 59.0521 51.0077ZM59.033 42.9468C59.6682 43.3331 60.636 44.2337 59.9527 45.1913C59.1484 46.0356 57.9903 45.0675 57.4197 44.6297C56.8905 44.2904 56.296 45.1631 56.7869 45.5593C60.9106 48.6135 62.5841 43.0478 59.3543 42.4927C58.9987 42.4315 58.8666 42.8273 59.033 42.9468ZM53.0916 41.2473C52.8874 41.1167 52.6473 41.0719 52.3811 41.193C52.1731 41.2876 51.8083 41.6031 51.5545 42.0177C51.3808 42.3014 51.2576 42.6342 51.2833 42.9809C51.2892 43.0614 51.2595 43.1207 51.2126 43.1646C51.1755 43.1993 51.122 43.2248 51.0592 43.2327C51.0058 43.2395 50.9461 43.2334 50.8975 43.2182C50.8052 43.1894 50.7563 43.1294 50.7379 43.0805C50.5601 42.6082 50.6367 42.0812 50.8359 41.6058C51.1048 40.9641 51.593 40.4267 51.9129 40.2534C52.4603 39.9568 53.1061 39.9431 53.6542 40.2453C54.1209 40.5025 54.4126 40.9178 54.7028 41.341C54.7645 41.431 54.8258 41.5203 54.889 41.6081C55.0159 41.7839 55.0285 41.9583 54.9794 42.1078C54.925 42.2734 54.7862 42.4133 54.6128 42.4864C54.4524 42.554 54.2663 42.5636 54.1017 42.4941C53.9626 42.4354 53.8349 42.321 53.7541 42.1268C53.6181 41.7999 53.3914 41.4392 53.0916 41.2473ZM63.4597 41.9749C63.3199 42.0478 63.2105 42.0698 63.0554 42.0233C62.9697 41.9975 62.8849 41.9481 62.8185 41.8817C62.7527 41.8159 62.7053 41.7341 62.6868 41.6433C62.6415 41.4193 62.519 41.2096 62.3443 41.0729C62.1951 40.956 62.0067 40.8941 61.7978 40.929C61.5723 40.9667 61.3575 41.1113 61.2096 41.2819C61.1601 41.3389 61.1214 41.4038 61.0824 41.4681C61.0095 41.5885 60.9386 41.7004 60.8381 41.7888C60.8 41.8225 60.7426 41.8458 60.687 41.8458C60.6643 41.8458 60.6414 41.8421 60.6195 41.8353C60.3951 41.61 60.352 41.439 60.3592 41.2695C60.3668 41.0917 60.4369 40.9117 60.5501 40.7437C60.8157 40.3498 61.32 40.0267 61.6603 39.9536C62.1263 39.8534 62.5892 39.9736 62.9603 40.234C63.3421 40.502 63.625 40.918 63.7132 41.3868C63.7344 41.4997 63.7254 41.6215 63.6824 41.7272C63.6404 41.8305 63.5672 41.9189 63.4597 41.9749ZM54.1189 37.0472C53.8392 37.3198 53.5082 37.362 53.1733 37.3996C52.9872 37.4207 52.8387 37.4376 52.6925 37.4706C52.2908 37.5614 51.8936 37.698 51.5313 37.8948C51.1526 38.1005 50.7398 38.3486 50.4429 38.6665C50.3723 38.7421 50.3057 38.8215 50.2391 38.901C50.1783 38.9735 50.1197 39.0433 50.058 39.1107C49.9872 39.188 49.9199 39.269 49.8529 39.3499C49.8115 39.4181 49.8034 39.4349 49.795 39.4523C49.7825 39.4786 49.7679 39.5079 49.7512 39.5394C49.7284 39.5826 49.7017 39.6298 49.6737 39.6726C49.6271 39.7509 49.6021 39.7725 49.5805 39.7821C49.5447 39.7981 49.5107 39.8059 49.4777 39.8017C49.4468 39.7977 49.4177 39.7828 49.3889 39.7585C49.2453 39.6371 49.203 39.438 49.2073 39.2265C49.2139 38.9057 49.3322 38.5505 49.4413 38.3321C49.6948 37.8247 50.0465 37.2973 50.4693 36.9186C50.9518 36.4863 51.4796 36.159 52.0859 35.9335C52.4627 35.7934 52.899 35.6647 53.3095 35.6809C53.6049 35.6926 53.887 35.7805 54.12 35.9999C54.263 36.1346 54.3317 36.3262 54.3317 36.5177C54.3317 36.7129 54.2603 36.9094 54.1189 37.0472ZM64.0286 39.5435C64.0108 39.5727 63.9862 39.5928 63.9588 39.6048C63.9301 39.6175 63.8981 39.6211 63.8673 39.6159C63.8367 39.6108 63.8075 39.5969 63.7845 39.5757C63.7623 39.5553 63.7455 39.5283 63.7379 39.4953C63.5522 38.6794 63.1917 38.0724 62.4221 37.681C62.0436 37.4884 61.6083 37.366 61.1962 37.2685C61.0764 37.2401 60.9499 37.2218 60.8224 37.2032C60.4231 37.1448 60.0208 37.078 59.7605 36.7551C59.6036 36.5606 59.5378 36.3118 59.575 36.0842C59.61 35.87 59.7352 35.6736 59.9626 35.5559C60.5289 35.263 61.2327 35.5504 61.8046 35.7952C61.847 35.8134 61.8886 35.8312 61.9294 35.8484C62.4886 36.0846 62.9987 36.3963 63.418 36.8421C63.7507 37.1958 64.0589 37.7186 64.1831 38.2565C64.2863 38.7039 64.262 39.1607 64.0286 39.5435Z" fill="#05F29A"/>
<path fill-rule="evenodd" clip-rule="evenodd" d="M59.1267 46.2252C58.1912 45.8037 56.5114 46.1715 55.9016 46.3178C54.4838 46.6579 53.0576 47.393 52.6168 48.5445C52.1201 49.8424 53.1111 50.2509 53.2569 50.1842C54.2384 50.2533 55.4072 49.6361 56.4357 49.4768C57.2706 49.3464 58.1514 49.2325 58.9336 48.7887C59.5048 49.103 60.7948 49.2729 61.8359 49.5478C62.7226 49.7817 63.1067 50.289 63.9287 50.1811C64.9138 50.0519 64.5106 47.9791 63.4126 47.1393C62.211 46.2203 60.1786 45.8477 59.1267 46.2252ZM60.9788 55.0881C60.1604 55.2878 60.1055 53.4933 60.0138 52.8593C59.9421 52.364 59.5382 51.0867 58.514 51.1418C57.4898 51.1969 57.1048 52.2671 57.1568 52.9327C57.1905 53.3643 57.5881 55.5506 56.319 55.8272C55.5099 55.8244 54.5738 55.7698 53.7231 55.6128C52.7218 55.3859 51.4197 54.5917 51.0758 56.1559C50.952 56.7189 55.3628 58.3915 57.3201 58.5428C59.3051 58.9452 61.6276 58.3264 63.0408 56.8073C63.3624 56.4617 64.2679 55.0273 64.3324 54.6758C64.468 53.9374 64.1541 53.4622 63.2408 53.7225C62.5956 54.0672 61.5052 54.9598 60.9788 55.0881Z" fill="#05F29A"/>
<path fill-rule="evenodd" clip-rule="evenodd" d="M64.9356 44.3797C63.6732 44.9879 61.912 44.0908 61.0632 43.1511C60.7542 42.809 60.5159 41.8301 60.6347 41.2092C60.9566 39.5278 62.1662 38.5187 63.4432 38.1741C65.2133 37.6963 66.9947 38.9067 66.787 40.3351C66.5901 41.6888 66.2917 43.6524 64.9356 44.3797ZM56.3428 41.1497C56.2416 42.9821 54.7707 44.5859 53.0126 45.061C50.1801 45.8517 48.7803 43.8598 48.1462 41.7139C48.0832 41.5007 47.9351 40.8499 48.3325 40.2917C49.8956 38.0958 53.6988 38.4701 55.5983 39.0729C56.1543 39.6048 56.3816 40.3725 56.3428 41.1497ZM66.3075 37.9899C66.3066 37.991 66.3056 37.9919 66.3048 37.993C66.2982 37.989 66.2918 37.985 66.2851 37.9811C66.2925 37.9841 66.3003 37.9868 66.3075 37.9899ZM68.6771 38.2009C68.5126 36.3353 62.6612 37.0497 61.9771 37.2026C60.1101 37.7519 58.4975 39.2464 56.4101 38.5894C54.2472 36.1775 46.9637 36.8692 45.4368 38.0978C45.1478 37.9844 44.7964 38.0452 44.424 38.1523C42.5117 38.0832 33.7818 38.7427 35.5674 41.1842C35.8385 41.3723 36.1092 41.181 36.1167 40.7935C45.4252 37.432 44.5229 40.5806 45.6269 40.2129C45.7954 40.2615 45.9713 40.2922 46.1252 40.3245C46.9796 40.5995 47.2697 40.5145 47.3823 41.474C48.1555 48.8834 58.0185 46.3261 57.2096 40.2486C58.0105 40.2045 58.7111 39.8581 59.5581 40.1963C60.1462 45.9216 64.7516 46.1526 66.1376 44.168C67.1827 42.7905 66.7683 40.7117 68.2049 39.628C68.772 40.1028 68.8085 38.5004 68.6771 38.2009Z" fill="#05F29A"/>
</g>
<g opacity="0.2">
<path fill-rule="evenodd" clip-rule="evenodd" d="M78.2784 106.724C78.0742 108.597 77.6117 110.659 78.4934 112.426C77.9381 112.451 78.3885 112.612 78.6882 112.667C78.8593 112.799 79.0893 112.852 79.3056 112.834C80.4284 113.071 81.5876 113.157 82.7277 113.291C96.9625 114.474 111.293 114.16 125.554 113.65C126.018 113.63 126.329 113.293 126.365 112.839C126.887 106.158 127.147 99.4565 127.134 92.7551C126.902 90.4001 128.681 91.3191 127.732 88.2158C126.969 84.9426 125.84 81.7565 124.4 78.7207C123.404 76.7451 122.466 74.6664 120.949 73.0282C120.469 72.962 120.061 72.4855 119.656 72.2194C119.246 72.1395 118.942 71.7909 118.526 71.6837C117.733 71.4775 115.959 71.0388 115.284 71.5664C115.258 71.5591 115.231 71.5529 115.204 71.5453C115.072 71.6918 114.891 71.5819 114.792 71.4502C114.455 71.1883 112.981 71.1614 112.813 70.7594C111.941 69.9679 111.708 68.3023 111.708 67.3278C111.382 66.9612 111.359 67.0293 110.916 66.8355C110.482 66.2879 109.958 65.8108 109.373 65.4347C106.079 63.2714 101.3 65.551 100.529 69.3112C99.3101 70.2767 98.0555 71.2574 96.5627 71.7604C95.8342 71.3855 95.0042 71.2658 94.231 71.2651C93.6547 71.2441 92.8582 70.9107 92.4837 71.5175C86.1821 73.5812 82.3789 79.5833 79.6746 85.2703C79.2955 86.08 78.8421 86.9278 78.9581 87.8503C79.0378 88.9551 80.2364 89.6127 80.0099 90.7835C79.6807 94.0043 79.3062 97.2218 78.9635 100.442C78.7351 102.536 78.5067 104.63 78.2784 106.724Z" fill="#05F29A"/>
<path fill-rule="evenodd" clip-rule="evenodd" d="M124.378 91.3592C123.971 91.5067 123.4 91.6506 123.108 91.984C123.075 91.6733 123.041 91.3627 123.007 91.0519C123.861 91.0317 124.716 91.0243 125.57 91.0004C125.167 91.0991 124.769 91.2179 124.378 91.3592ZM122.503 110.904C122.209 110.906 121.914 110.927 121.621 110.938C121.055 110.96 120.49 110.982 119.924 111.003C118.77 111.046 117.617 111.088 116.463 111.128C114.178 111.208 111.892 111.281 109.607 111.348C105.036 111.483 100.463 111.564 95.8924 111.718C94.6245 111.761 93.3567 111.794 92.0899 111.863C91.4334 111.899 90.7739 111.929 90.1206 112.006C89.5695 112.07 89.0262 112.178 88.4782 112.258C88.5149 111.544 88.5494 110.83 88.5852 110.115C88.6191 109.439 88.6507 108.763 88.6821 108.087C90.8215 108.199 92.9635 108.245 95.1057 108.264C97.3718 108.284 99.6372 108.34 101.903 108.345C106.39 108.353 110.876 108.297 115.363 108.252C116.631 108.239 117.9 108.226 119.169 108.214C119.804 108.207 120.438 108.201 121.073 108.195C121.389 108.191 121.708 108.198 122.024 108.185C122.362 108.171 122.567 108.075 122.812 107.848C122.943 107.726 122.948 107.479 122.812 107.359C122.615 107.185 122.433 107.052 122.16 107.033C121.892 107.013 121.613 107.04 121.344 107.043C120.755 107.051 120.166 107.059 119.577 107.066C118.444 107.081 117.311 107.096 116.178 107.111C113.912 107.141 111.646 107.172 109.381 107.206C107.16 107.24 104.939 107.265 102.719 107.321C100.452 107.378 98.1878 107.481 95.9214 107.554C93.509 107.632 91.0978 107.724 88.6909 107.905C88.7487 106.652 88.802 105.399 88.8521 104.146C93.6313 104.406 98.4138 104.591 103.201 104.599C108.188 104.608 113.175 104.522 118.161 104.392C118.864 104.374 119.566 104.355 120.269 104.333C120.631 104.322 120.994 104.311 121.356 104.298C121.623 104.288 121.897 104.277 122.138 104.15C122.613 103.898 122.695 103.163 122.131 102.962C121.823 102.852 121.495 102.96 121.42 103.238C121.397 103.24 121.375 103.242 121.356 103.243C121.084 103.253 120.812 103.261 120.54 103.269C119.951 103.288 119.362 103.307 118.773 103.326C117.685 103.36 116.597 103.391 115.51 103.42C113.288 103.479 111.067 103.527 108.846 103.564C104.447 103.637 100.049 103.705 95.6517 103.805C93.387 103.857 91.123 103.924 88.8586 103.982C88.9127 102.619 88.9638 101.257 89.0098 99.8943C89.0152 99.7347 89.021 99.5749 89.0268 99.4152C89.3513 99.4865 89.6836 99.526 90.0142 99.5728C90.5878 99.654 91.1632 99.7141 91.7393 99.7749C92.8248 99.8895 93.9139 99.9598 95.0034 100.02C97.2246 100.142 99.4465 100.229 101.67 100.297C106.069 100.431 110.472 100.46 114.873 100.445C117.262 100.437 119.666 100.468 122.054 100.364C122.202 100.404 122.353 100.4 122.5 100.352C122.62 102.482 122.748 104.612 122.873 106.742C122.957 108.178 123.031 109.62 123.135 111.058C122.933 110.958 122.746 110.902 122.503 110.904ZM81.0956 89.2633C80.6765 89.0582 80.2144 88.8711 79.8445 88.5805C79.4401 88.2629 79.3408 87.8899 79.4651 87.3915C79.4744 87.3542 79.4853 87.3172 79.4949 87.2801C82.4747 87.2874 85.4469 87.1562 88.4254 87.0854C91.4515 87.0136 94.4765 86.9532 97.5034 86.9361C103.54 86.9021 109.576 87.0383 115.609 87.2079C117.782 87.2689 119.955 87.329 122.128 87.3884C122.079 87.9184 122.098 88.4614 122.087 88.9877C122.077 89.4499 122.079 89.9128 122.086 90.3757C120.949 90.3729 119.813 90.3483 118.676 90.3355C115.861 90.3038 113.048 90.3846 110.234 90.449C104.607 90.5778 98.9776 90.6792 93.3511 90.8487C91.8229 90.8947 90.2849 90.9189 88.7497 90.9843C88.6969 90.7346 88.6383 90.4861 88.5722 90.2393C88.4672 89.8471 88.3487 89.444 88.0346 89.1716C88.0195 89.1584 87.9987 89.1642 87.9919 89.1829C87.8726 89.5136 87.9028 89.8503 87.9377 90.1968C87.9653 90.4705 87.984 90.745 87.9978 91.0198C87.0432 91.07 86.0906 91.1407 85.143 91.2465C84.872 91.1125 84.6009 90.9789 84.3294 90.8459C83.2516 90.318 82.1735 89.7908 81.0956 89.2633ZM115.69 99.1102C113.466 99.1282 111.243 99.1301 109.02 99.1158C104.619 99.0876 100.22 98.9793 95.8197 98.8918C94.5952 98.8676 93.3722 98.8435 92.1475 98.8435C91.5134 98.8435 90.8772 98.8477 90.2439 98.8752C89.8452 98.8925 89.4411 98.895 89.0443 98.9429C89.0921 97.6606 89.142 96.377 89.1404 95.094C93.3379 95.73 97.5805 95.9046 101.819 96.0298C106.114 96.1565 110.41 96.2222 114.706 96.2285C115.927 96.2303 117.148 96.2276 118.369 96.2204C118.957 96.217 119.545 96.2125 120.133 96.2069C120.448 96.2039 120.766 96.2104 121.082 96.197C121.416 96.183 121.618 96.1038 121.851 95.8663C121.97 95.7448 121.976 95.535 121.851 95.414C121.435 95.0123 120.945 95.0995 120.404 95.1062C119.861 95.113 119.319 95.1188 118.776 95.1237C117.691 95.1336 116.605 95.1399 115.52 95.1427C113.395 95.148 111.269 95.1399 109.144 95.1182C104.849 95.0742 100.554 94.9787 96.26 94.8781C93.8859 94.8225 91.5123 94.8377 89.1402 94.9529C89.1393 94.7399 89.1373 94.5268 89.1331 94.3138C89.1175 93.5071 89.039 92.7004 88.9161 91.9026C90.0786 91.8986 91.2411 91.8737 92.3984 91.8589C95.2126 91.8228 98.0262 91.7661 100.84 91.7096C103.631 91.6536 106.422 91.5976 109.214 91.5416C112.003 91.4856 114.801 91.4816 117.587 91.331C119.091 91.2496 120.595 91.1391 122.1 91.0811C122.102 91.2192 122.105 91.3574 122.108 91.4955C122.145 93.1907 122.211 94.8841 122.296 96.5775C122.337 97.3911 122.381 98.2047 122.425 99.0182C122.404 99.0161 122.382 99.0148 122.359 99.0146C120.137 98.9998 117.912 99.0922 115.69 99.1102ZM80.5088 84.3887C80.7633 83.7335 81.0398 83.0828 81.3386 82.441C82.6074 82.7992 83.9609 82.9841 85.2704 83.1071C86.6644 83.2381 88.0611 83.3118 89.4609 83.3403C92.2205 83.3967 94.98 83.2658 97.7366 83.1518C103.407 82.9176 109.076 82.7466 114.751 82.7356C116.336 82.7324 117.921 82.7398 119.506 82.7577C120.298 82.7666 121.091 82.7773 121.883 82.7909C122.29 82.7979 122.698 82.8056 123.105 82.814C123.286 82.8177 123.468 82.8311 123.649 82.8256C123.89 82.8183 124.066 82.7458 124.289 82.6585C124.546 82.5584 124.698 82.1287 124.377 81.9864C124.057 81.844 123.8 81.7607 123.445 81.7529C123.06 81.7447 122.675 81.7371 122.29 81.73C121.589 81.7171 120.887 81.7064 120.185 81.6976C118.759 81.6798 117.332 81.6723 115.906 81.6725C113.099 81.6729 110.291 81.7061 107.484 81.7721C101.85 81.9047 96.2274 82.2976 90.5947 82.4662C89.0421 82.5127 87.4867 82.5218 85.9341 82.4752C84.4303 82.4301 82.9296 82.3035 81.4276 82.2502C81.9464 81.1561 82.5334 80.0906 83.1958 79.0775C85.6997 79.1655 88.1982 79.1004 90.7026 79.0241C92.0167 78.9841 93.3309 78.9435 94.6449 78.8984C95.302 78.8759 95.959 78.8533 96.6161 78.8308C96.9333 78.8199 97.2505 78.8091 97.5677 78.7982C97.9094 78.7865 98.269 78.8086 98.6009 78.7187C98.661 78.7024 98.7087 78.6676 98.7446 78.6233C99.628 79.0779 100.562 79.4365 101.523 79.7022C103.608 80.2791 105.851 80.4955 108.008 80.318C109.739 80.1755 111.464 79.7469 112.986 78.9077C116.423 79.2242 119.908 79.0755 123.352 79.053C123.681 79.0509 123.818 78.7493 123.763 78.5005C124.868 80.8835 125.601 83.467 126.286 85.9798C126.712 87.5415 127.091 89.1129 127.451 90.69C127.436 90.6913 127.421 90.6926 127.406 90.6941C127.448 90.5213 127.354 90.3177 127.118 90.3122C125.724 90.2802 124.325 90.3603 122.931 90.3732C122.892 90.0243 122.852 89.6753 122.811 89.3265C122.755 88.8514 122.687 88.3774 122.63 87.9023C122.609 87.73 122.59 87.5637 122.566 87.4001C123.67 87.4301 124.774 87.4605 125.878 87.4896C126.595 87.5086 126.593 86.3985 125.878 86.3767C119.811 86.1908 113.744 86.0031 107.675 85.9C101.603 85.7969 95.509 85.7333 89.441 86.0448C86.1343 86.2144 82.8357 86.4412 79.5701 87.0008C79.8237 86.1154 80.1776 85.2411 80.5088 84.3887ZM85.673 75.9542C85.7829 76.0366 85.8181 76.0886 85.9823 76.1175C86.1604 76.1486 86.3435 76.1586 86.5233 76.1762C86.9079 76.2139 87.2935 76.2279 87.6795 76.2462C88.4502 76.2828 89.2208 76.3216 89.992 76.3451C91.5229 76.3915 93.0866 76.4574 94.6168 76.3893C94.9912 76.3726 95.1615 76.0638 95.1275 75.7825C95.4145 76.138 95.7283 76.4718 96.0624 76.7761C96.5997 77.2652 97.1797 77.6988 97.7911 78.0814C97.3945 78.0959 96.9906 78.1457 96.6162 78.1618C95.9818 78.1889 95.3474 78.2161 94.713 78.2434C93.3761 78.3009 92.0394 78.3626 90.7027 78.4251C88.2289 78.5407 85.7635 78.6847 83.299 78.9207C84.0028 77.8626 84.7913 76.8645 85.673 75.9542ZM125.937 81.0932C124.892 78.223 123.544 75.2415 121.119 73.2702C119.873 72.2568 118.484 71.5559 116.911 71.2238C116.863 71.2136 116.844 71.2823 116.891 71.2978C119.611 72.1905 121.623 74.5524 122.985 76.9729C123.231 77.4116 123.46 77.8607 123.676 78.3166C123.606 78.2308 123.498 78.1737 123.352 78.1761C120.136 78.2302 116.882 78.1757 113.674 78.49C113.755 78.4354 113.837 78.3809 113.918 78.3235C114.794 77.6986 115.583 76.9339 116.235 76.0678C116.628 76.1674 117.041 76.1917 117.442 76.2298C117.977 76.2806 118.515 76.3039 119.052 76.3328C119.587 76.3615 120.125 76.3642 120.661 76.3772C121.03 76.3861 121.75 76.4473 121.751 75.8834C121.751 75.3188 121.03 75.3785 120.661 75.3859C120.125 75.3965 119.587 75.398 119.052 75.4232C118.538 75.4472 118.021 75.4667 117.509 75.5127C117.196 75.5407 116.875 75.5591 116.561 75.6088C117.072 74.8458 117.479 74.0147 117.751 73.1381C117.778 73.0499 117.787 72.9675 117.783 72.8912C117.898 72.7695 117.971 72.6028 117.971 72.4501C117.971 72.087 117.688 71.8743 117.358 71.8364C116.05 71.6868 114.608 71.4736 113.554 70.613C113.078 70.2247 112.695 69.7656 112.335 69.2715C111.93 68.7162 111.778 68.0166 111.777 67.3369C111.777 67.2987 111.713 67.2872 111.708 67.3275C111.51 68.7057 111.795 70.2788 112.784 71.3114C113.755 72.3252 115.073 72.705 116.412 72.9268C115.86 74.5033 114.949 75.8881 113.671 76.9771C112.246 78.1905 110.442 78.8395 108.604 79.0845C106.62 79.3487 104.541 79.2202 102.59 78.7889C100.711 78.3733 98.8726 77.63 97.3431 76.4438C96.5715 75.8453 95.8617 75.1399 95.2432 74.3849C94.7327 73.7617 94.3413 73.0668 93.9031 72.3993C95.5379 72.8477 97.5145 72.2351 98.8839 71.3699C99.6906 70.8604 100.397 70.2242 100.978 69.4674C101.264 69.0941 101.519 68.7001 101.729 68.2788C101.838 68.0597 101.936 67.8342 102.027 67.6067C102.083 67.4662 102.137 67.3218 102.137 67.1673C102.137 67.0534 102.108 66.9474 102.051 66.8492C101.934 66.7248 101.911 66.6888 101.981 66.7409C101.866 66.5052 101.534 66.4454 101.321 66.5677C101.242 66.6133 101.055 66.7017 100.963 66.8492C100.901 66.9489 100.868 67.0682 100.828 67.1776C100.766 67.3504 100.702 67.5211 100.624 67.6875C100.441 68.0739 100.222 68.4428 99.9717 68.7894C99.5147 69.4231 98.9273 69.9962 98.2874 70.4434C97.6157 70.9129 96.8917 71.2967 96.1065 71.5364C95.2772 71.7894 94.4563 71.865 93.6007 71.9577C93.5915 71.945 93.5827 71.9323 93.5735 71.9197C93.557 71.8969 93.5214 71.9042 93.5199 71.9342C93.5192 71.9485 93.5196 71.9628 93.5192 71.9771C93.3972 72.0343 93.3871 72.2064 93.523 72.2724C93.5734 73.0642 93.9149 73.844 94.2871 74.5292C94.4421 74.8146 94.6173 75.0911 94.807 75.3582C94.7509 75.3368 94.6878 75.3232 94.617 75.3205C93.0862 75.2618 91.5229 75.3374 89.9922 75.3934C89.2435 75.4208 88.4957 75.4628 87.7477 75.5029C87.3621 75.5235 86.9756 75.5367 86.5914 75.5766C86.3993 75.5966 86.206 75.6123 86.0149 75.6411C86.0011 75.6432 85.9882 75.6454 85.9761 75.6476C86.4488 75.1818 86.9472 74.7405 87.4733 74.3288C89.1992 72.9782 91.1814 71.8778 93.2963 71.2793C93.3163 71.2736 93.3134 71.2393 93.2913 71.2416C89.0847 71.6719 85.5808 74.3237 83.1296 77.6533C81.7696 79.5009 80.738 81.5461 79.8504 83.6551C79.403 84.7182 78.9797 85.8001 78.6252 86.8981C78.445 87.4561 78.3637 88.048 78.6218 88.5954C78.8197 89.0154 79.1849 89.3276 79.5678 89.5755C79.5932 89.5921 79.6194 89.6074 79.6451 89.6235C79.2538 90.9874 78.9916 92.3869 78.7401 93.7822C78.4669 95.2979 78.2285 96.8199 78.0238 98.3464C77.6145 101.398 77.3011 104.455 77.1642 107.532C77.1264 108.382 77.1011 109.234 77.09 110.086C77.0845 110.512 77.0869 110.938 77.0927 111.364C77.0994 111.84 77.0348 112.378 77.2774 112.804C77.6016 113.372 78.2312 113.177 78.508 112.788C78.5121 112.793 78.5162 112.798 78.5203 112.804C78.5454 112.754 78.5664 112.705 78.5844 112.656C78.6142 112.59 78.6336 112.522 78.6407 112.452C78.6929 112.188 78.6732 111.92 78.6711 111.633C78.668 111.229 78.6704 110.825 78.6715 110.422C78.6738 109.66 78.6824 108.898 78.7041 108.136C78.7476 106.613 78.8324 105.091 78.9484 103.571C79.1789 100.553 79.519 97.5485 79.81 94.536C79.9581 93.0022 80.1368 91.4644 80.1677 89.9224C80.5269 90.1116 80.8975 90.283 81.2561 90.4656C81.9213 90.8044 82.5865 91.1431 83.2516 91.4819C83.8968 91.8104 84.5428 92.1368 85.1892 92.4631C85.8409 92.792 86.4883 93.2269 87.2215 93.3078C87.6134 93.351 87.7553 92.8227 87.5244 92.5762C87.2228 92.254 86.8223 92.0538 86.4197 91.8663C86.9546 91.8859 87.4902 91.8964 88.0261 91.9005C88.0334 92.575 88.0096 93.2509 87.9758 93.9239C87.8926 95.5746 87.7769 97.2224 87.6674 98.8715C87.4397 102.3 87.2194 105.729 87.0474 109.16C87.0054 110.001 86.9632 110.841 86.9211 111.682C86.9006 112.09 86.8722 112.499 86.8606 112.908C86.8476 113.367 86.8589 113.942 87.2833 114.225C87.5831 114.425 87.9058 114.331 88.1308 114.056C88.4318 113.688 88.4313 113.155 88.4555 112.704C88.4611 112.599 88.4661 112.495 88.4715 112.391C88.9312 112.45 89.3875 112.533 89.8491 112.578C90.413 112.633 90.9805 112.665 91.5468 112.68C92.7017 112.709 93.8547 112.72 95.0099 112.72C97.296 112.72 99.5818 112.681 101.868 112.644C106.439 112.57 111.01 112.442 115.58 112.3C116.847 112.261 118.114 112.22 119.381 112.177C120.037 112.154 120.693 112.131 121.349 112.108C121.97 112.086 122.649 112.166 123.195 111.844C123.211 112.04 123.227 112.237 123.244 112.433C123.277 112.804 123.538 113.124 123.935 113.124C124.308 113.124 124.628 112.807 124.626 112.433C124.486 109.043 124.185 105.653 123.946 102.269C123.727 99.1605 123.522 96.0479 123.209 92.947C123.297 93.0045 123.406 93.0401 123.534 93.0407C123.944 93.0424 124.352 92.7884 124.735 92.6533C125.122 92.5171 125.515 92.3993 125.913 92.3026C126.149 92.2453 126.385 92.1974 126.623 92.1565C126.594 92.6417 126.601 93.1311 126.592 93.6145C126.578 94.3576 126.555 95.1004 126.537 95.8433C126.502 97.3071 126.489 98.771 126.461 100.235C126.405 103.186 126.312 106.136 126.154 109.083C126.111 109.893 126.062 110.703 126.008 111.512C125.98 111.939 125.95 112.366 125.918 112.793C125.887 113.213 125.815 113.658 125.973 114.061C125.978 114.058 125.983 114.055 125.988 114.052C126.098 114.398 126.582 114.564 126.811 114.17C127.167 113.556 127.085 112.675 127.126 111.984C127.17 111.242 127.21 110.5 127.245 109.758C127.314 108.273 127.363 106.788 127.391 105.302C127.447 102.329 127.438 99.3522 127.256 96.3838C127.206 95.5722 127.137 94.762 127.065 93.9522C127.012 93.3451 126.982 92.7214 126.887 92.114C127.35 92.0457 127.817 92.0061 128.288 91.9944C128.744 91.983 129.038 91.5716 128.941 91.1363C128.185 87.7261 127.132 84.3736 125.937 81.0932Z" fill="#05F29A"/>
<path fill-rule="evenodd" clip-rule="evenodd" d="M106.894 40.1196C110.767 40.1196 114.772 43.1225 116.192 45.0387C117.385 46.6497 118.028 53.9348 118.028 58.8581C118.028 59.8878 118.596 61.8288 118.43 62.8137C117.823 66.4229 115.176 69.4498 109.938 69.4498C104.701 69.4498 100.945 67.3729 97.0523 61.7965C95.1633 61.7965 94.2479 60.3473 94.2346 58.0604C94.2213 55.7735 96.0579 54.9415 96.0579 54.9415C96.0579 54.9415 95.403 45.9163 97.0523 43.5666C98.7015 41.2169 103.022 40.1196 106.894 40.1196Z" fill="#05F29A"/>
<path fill-rule="evenodd" clip-rule="evenodd" d="M105.265 38.844C107.71 38.5963 110.106 38.8044 112.515 39.235C112.699 39.2684 112.804 39.3892 112.842 39.5344C113.977 39.5863 115.114 39.6696 116.247 39.7317C116.658 39.7542 116.891 40.1608 116.704 40.5279C116.666 40.6008 116.628 40.6718 116.588 40.7428L116.638 40.7264C116.979 40.6169 117.347 40.563 117.679 40.7367C118.102 40.9577 118.268 41.4455 118.174 41.8944C118.15 42.0091 118.11 42.1189 118.065 42.2261C118.157 42.22 118.251 42.222 118.344 42.2343C118.837 42.2998 119.204 42.6784 119.23 43.1827C119.268 43.944 118.778 44.7164 118.2 45.2615C118.284 45.4342 118.316 45.6375 118.281 45.8435C118.212 46.2509 117.912 46.4948 117.564 46.6539C117.709 47.1145 117.778 47.596 117.737 48.0882C117.724 48.2525 117.58 48.3882 117.429 48.4215C117.994 49.978 118.28 51.6492 118.485 53.2776C118.632 54.4361 118.704 55.6015 118.713 56.7688C118.717 57.2958 118.709 57.8234 118.687 58.3505L118.678 58.5482C118.65 59.1179 118.649 59.7162 118.547 60.2799C118.896 60.874 119.036 61.6117 119.096 62.2775C119.169 63.1017 119.053 63.9518 118.793 64.7358C117.812 67.6982 114.852 69.5676 111.879 70.0535C109.128 70.5031 105.943 69.8979 104.335 67.3973C104.31 67.3577 104.364 67.3251 104.395 67.351C105.546 68.287 106.88 68.7045 108.33 68.9079C110.837 69.2586 113.655 68.6636 115.667 67.0863C116.633 66.3289 117.329 65.2264 117.636 64.0398C117.792 63.4333 117.846 62.8008 117.784 62.1766C117.721 61.5434 117.441 61.0031 117.265 60.4047C117.205 60.2027 117.268 60.0151 117.391 59.8814C117.426 59.3956 117.508 58.9057 117.539 58.4213C117.574 57.8707 117.595 57.3201 117.603 56.7688C117.617 55.6253 117.569 54.4797 117.473 53.3411C117.297 51.256 116.83 49.2215 116.556 47.1541C116.454 47.2452 116.309 47.2826 116.156 47.203L116.141 47.1944L116.057 47.1467C116.053 47.1467 116.047 47.1474 116.042 47.148C115.473 47.2033 114.882 47.1242 114.337 46.9542C113.766 46.7769 113.236 46.504 112.763 46.1403C112.673 46.5967 112.635 47.0579 112.634 47.5232C112.634 47.8139 112.326 47.9647 112.082 47.8406C111 47.2906 109.966 46.6568 108.984 45.9445C108.87 46.532 108.755 47.1193 108.64 47.7075C108.596 47.934 108.307 48.0255 108.122 47.9177C107.387 47.4898 106.752 46.9297 106.235 46.2638C106.132 46.4612 106.028 46.6586 105.924 46.8556L105.767 47.1507C105.612 47.4407 105.405 47.7614 105.066 47.8541C104.707 47.9524 104.408 47.7198 104.287 47.395C104.25 47.2941 104.216 47.1903 104.185 47.0859C103.879 47.7839 103.534 48.4662 103.144 49.1171C102.559 50.0934 101.857 50.9633 101.156 51.8557C100.943 52.1266 100.579 51.868 100.55 51.6047C100.533 51.4498 100.519 51.2943 100.506 51.1393C100.098 51.9632 99.6722 52.7794 99.2082 53.572L99.2747 53.8324C99.4661 54.6019 99.6251 55.3768 99.7979 56.1504C99.8537 56.3999 99.7211 56.7568 99.4296 56.7993C99.0814 56.85 98.7519 57.028 98.3952 56.9056C98.0063 56.772 97.9294 56.4357 97.7458 56.1169C97.7092 56.0534 97.6666 55.9951 97.6207 55.9397L97.6091 55.9548C97.5804 55.9924 97.5122 55.9515 97.5293 55.9085L97.5492 55.8588C97.3915 55.6913 97.2027 55.5516 97.0291 55.4013C96.6167 55.3318 96.1527 55.4079 95.8685 55.5755C95.2213 55.9576 94.924 56.7449 94.9178 57.4689C94.9103 58.3163 95.1729 59.2687 95.6162 59.9933C95.8113 60.3119 96.0786 60.5998 96.4318 60.7411C96.7825 60.8816 97.1623 60.838 97.519 60.9702C97.755 61.0583 97.9003 61.3203 97.7577 61.5577C97.7482 61.5741 97.7373 61.5891 97.727 61.6048L97.8331 61.7457C97.906 61.8433 97.9821 61.9477 98.0531 62.0564C98.2345 62.2653 98.4254 62.4666 98.6103 62.6719C98.9519 63.0505 99.2834 63.4395 99.6196 63.8235C99.9368 64.1859 100.272 64.5263 100.618 64.8613C100.945 65.1786 101.353 65.4453 101.653 65.7838C101.945 66.114 102.024 66.6905 101.544 66.8816C101.012 67.0935 100.542 66.5968 100.184 66.2657L100.169 66.2518C99.5138 65.6483 98.9218 64.9586 98.4517 64.1993C97.986 64.5165 97.3125 64.5467 96.8488 64.2297C96.6047 64.0629 96.4175 63.7825 96.3265 63.4776C96.2407 63.4968 96.155 63.508 96.0714 63.5068C96.0284 63.5317 95.9852 63.556 95.9415 63.5787C95.5957 63.7587 95.1709 63.6783 95.0126 63.2955C94.8686 62.9479 95.017 62.5532 95.1468 62.2184L95.1736 62.1492C95.2473 61.9583 95.3284 61.7502 95.4294 61.5543C95.1484 61.3428 94.9082 61.0801 94.7051 60.7813C94.0224 59.775 93.6814 58.3032 93.8321 57.1025C93.9228 56.3779 94.263 55.6274 94.8203 55.1388L94.7999 55.0856C94.6437 54.6893 94.5018 54.2914 94.4097 53.8726C94.302 53.3827 94.2494 52.8751 94.2017 52.3763C94.1008 51.3229 94.1281 50.2456 94.2624 49.1962C94.5148 47.2211 95.1545 45.282 96.2901 43.6384C95.9681 43.2529 95.7131 42.7991 95.846 42.2773C95.9068 42.0377 96.0451 41.8106 96.2539 41.6734C96.3691 41.5977 96.5062 41.5861 96.6215 41.5234L96.6562 41.5043C96.7068 41.4747 96.6681 41.4778 96.6379 41.3405C96.5185 40.7919 96.6174 40.2618 97.221 40.0797C97.7891 39.9084 98.3265 40.2721 98.6628 40.7053C99.5426 40.081 100.702 39.7542 101.722 39.4765C102.881 39.1619 104.07 38.9655 105.265 38.844ZM95.7611 57.2453C95.757 56.7984 96.1805 56.5228 96.5973 56.5958C96.8771 56.6446 97.1106 56.8116 97.3298 56.9843L97.4367 57.0689C97.7036 57.2786 98.0101 57.5046 98.1692 57.8014C98.4025 58.2394 97.9095 58.8289 97.4491 58.5218C97.1333 58.3101 96.9309 57.9709 96.7237 57.6558L96.7023 57.6233C96.6082 57.482 96.5257 57.3319 96.3967 57.2187L96.3688 57.1943C96.3264 57.1581 96.2809 57.1252 96.2262 57.1095C96.1206 57.0791 95.925 57.1217 95.8784 57.2474L95.8743 57.2603C95.8572 57.3238 95.7618 57.3101 95.7611 57.2453Z" fill="#05F29A"/>
<path fill-rule="evenodd" clip-rule="evenodd" d="M111.228 64.1136C110.77 63.9265 110.361 63.6144 110.062 63.2157C109.958 63.0771 109.931 62.9308 109.953 62.7969C109.977 62.6464 110.066 62.5099 110.188 62.4184C110.309 62.3266 110.462 62.2814 110.609 62.3045C110.737 62.3245 110.864 62.3946 110.965 62.54L110.986 62.569C111.164 62.8097 111.396 63.0071 111.66 63.1344C111.914 63.257 112.199 63.3143 112.493 63.281C113.054 63.2176 113.441 62.9142 113.852 62.5021C113.903 62.4501 113.954 62.3964 114.005 62.3419C114.037 62.2925 114.082 62.2607 114.132 62.244C114.187 62.2255 114.25 62.2266 114.307 62.2466C114.362 62.2659 114.412 62.3025 114.445 62.3512C114.476 62.3974 114.494 62.4546 114.488 62.5203C114.451 62.9474 114.228 63.3285 113.911 63.6278C113.559 63.9601 113.092 64.1901 112.652 64.2707C112.168 64.3595 111.675 64.2959 111.228 64.1136ZM112.881 57.5257C113.396 57.8388 114.18 58.5691 113.626 59.3455C112.974 60.03 112.035 59.2451 111.573 58.8901C111.144 58.615 110.662 59.3226 111.06 59.6438C114.403 62.1202 115.76 57.6075 113.141 57.1574C112.853 57.1078 112.746 57.4288 112.881 57.5257ZM106.889 54.6449C106.946 53.9383 108.022 53.7779 108.129 54.4771C108.225 55.1034 108.112 55.6788 107.83 56.2427C107.56 56.7814 106.883 56.5301 106.832 56.0395C106.763 55.3819 106.854 55.0845 106.889 54.6449ZM115.078 54.3322C115.228 54.1357 115.444 54.0016 115.704 54.0774C116.514 54.3143 116.275 55.4655 115.991 56.0259C115.836 56.3302 115.336 56.4073 115.11 56.1394C114.742 55.7025 114.565 54.8299 115.034 54.3995C115.046 54.3773 115.06 54.3548 115.078 54.3322ZM107.818 51.5532L107.946 51.5308C108.343 51.4622 108.835 51.3964 109.115 51.7149C109.264 51.8839 109.315 52.1979 109.115 52.3596C108.764 52.6441 108.375 52.5338 107.954 52.5579C107.607 52.5778 107.274 52.6353 106.94 52.7309C106.206 52.9405 105.609 53.3233 104.983 53.7436C104.9 53.7987 104.816 53.6935 104.856 53.6167C105.217 52.9082 105.918 52.3263 106.62 51.9716C106.994 51.7823 107.404 51.6252 107.818 51.5532ZM114.339 51.2359L114.437 51.2559C115.503 51.4789 116.889 51.9244 117.394 52.9724C117.413 53.1205 117.393 53.1523 117.376 53.173L117.371 53.1799C117.357 53.1977 117.346 53.2221 117.282 53.2423C117.264 53.238 117.246 53.2335 117.228 53.2287C116.997 53.1681 116.814 53.0844 116.636 52.9977L116.444 52.9029C116.221 52.7935 115.996 52.6881 115.757 52.6103C115.248 52.4442 114.725 52.3272 114.193 52.2648C114.078 52.2512 113.967 52.2123 113.88 52.1457C113.797 52.0824 113.733 51.9948 113.704 51.8783C113.667 51.7276 113.677 51.6135 113.758 51.4775C113.819 51.3754 113.906 51.3046 114.006 51.264C114.108 51.2225 114.224 51.2128 114.339 51.2359Z" fill="#05F29A"/>
<path fill-rule="evenodd" clip-rule="evenodd" d="M116.466 47.3609C116.86 47.2257 117.175 47.6358 117.099 47.9933C117.01 48.4142 116.57 48.7521 116.279 49.0488C115.974 49.3613 115.662 49.6677 115.339 49.9624C114.721 50.526 114.082 51.0568 113.407 51.5514L113.201 51.7026C112.583 52.1552 111.966 52.5972 111.304 52.989C110.945 53.2005 110.583 53.4052 110.216 53.6024C110.085 53.6726 109.926 53.781 109.761 53.8616C110.362 54.3256 110.824 55.0338 110.925 55.6935C111.173 57.3324 110.117 58.8511 108.628 59.4549C107.885 59.7558 107.058 59.8431 106.265 59.7524C105.457 59.6602 104.639 59.4214 104.114 58.7597C103.648 58.1722 103.481 57.4225 103.447 56.6862C103.431 56.3369 103.435 55.993 103.509 55.684C103.187 55.6867 102.866 55.6853 102.548 55.6888C101.761 55.6963 100.972 55.6997 100.184 55.6778C99.3721 55.6546 98.5639 55.6185 97.7544 55.5462C97.3991 55.5141 97.0458 55.4616 96.6924 55.4111C96.3495 55.3626 95.9709 55.3442 95.6504 55.2037C95.6286 55.1948 95.6376 55.1634 95.6565 55.1572C95.9982 55.0467 96.3863 55.0665 96.7423 55.0447L97.0893 55.0236C97.3783 55.0064 97.6671 54.9905 97.957 54.9812C98.6265 54.9591 99.2956 54.9537 99.965 54.9422L100.252 54.9369C101.04 54.9212 101.827 54.9123 102.615 54.8871C102.942 54.8768 103.269 54.8577 103.597 54.84C103.635 54.7533 103.691 54.6741 103.745 54.5971C103.906 54.3665 104.111 54.1632 104.323 53.979C104.757 53.5996 105.246 53.3178 105.792 53.1289C106.333 52.9422 107.123 52.8496 107.695 52.8617C108.267 52.8737 109.083 52.9544 109.344 53.4222C109.372 53.4707 109.87 53.3772 110.018 53.2639C110.364 52.9999 110.704 52.7284 111.037 52.45C111.657 51.9321 112.293 51.4225 112.88 50.8685C113.485 50.2967 114.085 49.7154 114.661 49.115C114.95 48.8141 115.238 48.5126 115.519 48.2042C115.805 47.8896 116.051 47.5021 116.466 47.3609Z" fill="#05F29A"/>
</g>
<g opacity="0.2">
<path fill-rule="evenodd" clip-rule="evenodd" d="M187.159 86.3514C187.67 86.0842 188.17 85.7938 188.662 85.4916C189.008 85.2843 188.702 84.7622 188.346 84.9509C188.165 85.0474 187.984 85.1448 187.802 85.2407C187.945 85.1176 188.078 84.9835 188.196 84.8374L188.188 84.8293C188.646 84.4189 188.058 83.6445 187.537 83.9816C187.078 84.3147 186.615 84.6544 186.087 84.8737C184.996 85.3369 183.791 85.4135 182.619 85.4269C182.191 85.3946 181.781 85.469 181.365 85.5518C181.528 84.8971 181.936 84.4027 182.153 83.7686C182.313 83.1284 181.389 82.6923 181.062 83.3077C180.981 83.4588 180.905 83.6117 180.83 83.7653C180.122 84.4092 178.941 84.3524 178.227 85.0438C177.82 85.4047 177.621 85.8944 177.543 86.3859C177.489 86.7197 177.572 87.0543 177.371 87.3499C176.395 88.7299 174.854 90.9111 174.072 92.4297C173.518 88.821 172.038 84.3573 170.51 81.0576C170.004 80.0023 169.426 78.9711 168.667 78.0765C168.753 77.7782 168.449 77.2487 168.256 77.4117C167.662 76.6853 166.611 76.4972 165.766 76.1361C164.626 75.6482 163.679 74.6341 163.214 73.4814C162.616 71.2865 161.145 71.0077 159.105 71.1047C157.152 71.1023 155.707 71.9378 155.281 73.9265C154.415 75.4359 152.371 75.1863 150.901 75.5859C149.823 75.8322 148.778 76.2129 147.784 76.6963C146.678 75.6471 142.718 80.0505 142.358 81.1837C142.57 81.2248 142.781 81.2743 142.989 81.3345C143.175 81.3883 143.097 81.6691 142.91 81.6242C142.676 81.5681 142.442 81.5295 142.206 81.5028C142.198 81.5253 142.192 81.5478 142.187 81.5699C142.161 81.5681 142.135 81.5659 142.108 81.5641C142.167 81.5947 142.223 81.6301 142.278 81.6759C142.411 81.7865 142.238 81.9999 142.097 81.9118C141.963 81.812 141.789 81.8278 141.629 81.7943C141.62 82.1231 140.447 81.7552 140.265 81.6463C139.455 81.545 138.622 81.6537 137.866 81.263C136.86 81.0512 135.847 80.8169 134.853 80.547C134.589 80.6497 134.342 81.0171 134.551 81.2867C134.669 81.4094 134.517 81.6097 134.369 81.5225C133.873 81.23 133.489 80.7735 133.163 80.2816C133.01 80.1269 132.737 80.1602 132.532 80.096C132.504 80.1455 132.488 80.2006 132.488 80.2572C131.614 80.401 132.238 81.3556 132.677 81.653C132.444 81.8048 132.435 82.102 132.455 82.3501C132.406 82.4385 132.389 82.5481 132.432 82.6472C132.597 83.0259 132.952 83.3448 133.222 83.6517C133.52 83.9905 133.786 84.3313 134.149 84.606C135.533 85.6609 137.202 86.2507 138.915 86.4814C139.523 86.5748 140.398 86.7178 140.774 87.2323C140.682 87.8428 140.512 88.4283 140.358 89.0236C140.143 89.8138 140.158 90.6412 140.155 91.4468C140.125 91.4226 140.067 91.4276 140.059 91.4737C140.009 91.8076 139.971 92.1491 139.768 92.4297C139.591 92.9515 139.472 93.5081 139.406 94.0563C139.139 96.6553 139.076 99.3309 139.676 101.889C139.908 102.838 140.285 103.741 140.799 104.571C140.952 104.819 141.198 104.891 141.419 104.843C142.159 105.227 143.091 105.351 143.889 105.253C146.608 104.483 145.661 106.337 149.473 105.769C156.054 104.931 162.704 106.579 169.271 105.611C169.433 106.861 171.55 106.502 172.285 105.974C174.491 104.334 175.586 99.142 176.692 96.508C177.453 94.432 178.727 90.7549 180.395 89.3619C180.895 88.9705 181.5 88.7644 182.105 88.5981C184.362 88.0161 186.629 87.4657 188.891 86.8998C189.275 86.8053 189.206 86.1508 188.796 86.1928C188.251 86.2485 187.705 86.2989 187.159 86.3514Z" fill="#05F29A"/>
<path fill-rule="evenodd" clip-rule="evenodd" d="M136.896 85.9623C136.743 85.9434 136.594 85.8889 136.445 85.8459C136.217 85.7794 135.995 85.7019 135.775 85.6135C135.322 85.4321 134.883 85.2176 134.472 84.9552C133.807 84.5308 133.219 83.987 132.776 83.3322L132.745 83.2865C132.492 82.901 132.026 82.0449 132.549 81.7522C132.212 81.4703 131.893 80.9639 131.911 80.573C131.936 80.0202 132.614 80.0278 132.964 80.2621C133.193 80.4156 133.365 80.6305 133.538 80.842C133.729 81.0769 133.932 81.3008 134.144 81.5162C134.201 81.5732 134.257 81.6291 134.315 81.684L134.373 81.7387C134.364 81.7172 134.356 81.6952 134.349 81.6727C134.232 81.3083 134.372 80.834 134.736 80.667C134.959 80.5648 135.19 80.6272 135.406 80.714L135.439 80.7275C135.73 80.8479 136.024 80.9544 136.327 81.0399C137.561 81.3883 138.849 81.4463 140.114 81.6202C140.601 81.6877 141.097 81.7726 141.582 81.8976C141.767 81.1124 142.22 80.3596 142.712 79.7403C145.066 76.7777 148.949 75.7986 152.501 75.1648C152.825 75.1073 153.093 75.5361 153.281 75.4347C153.639 75.2427 153.953 74.9708 154.229 74.6754C154.817 74.0451 155.234 73.3038 155.724 72.6015C155.966 72.2547 156.524 72.5651 156.299 72.9374L156.189 73.1194C155.736 73.8649 155.233 74.6331 154.583 75.2112C154.237 75.5181 153.853 75.7606 153.415 75.912C153.082 76.0265 152.616 76.1229 152.253 76.0119L152.209 75.9483C152.223 75.9696 152.238 75.9908 152.253 76.012C153.202 77.388 154.393 78.5527 155.648 79.6518C156.915 80.7607 158.282 81.7536 159.657 82.7245L159.771 82.8053C162.011 81.1709 163.903 79.039 165.231 76.6033C164.953 76.5698 164.677 76.3914 164.439 76.2584C164.153 76.0975 163.884 75.9055 163.674 75.6496C163.217 75.0923 163.276 74.374 163.194 73.6977C163.189 73.6557 163.244 73.6452 163.27 73.6662C163.518 73.8721 163.605 74.2095 163.708 74.5009C163.822 74.8213 163.951 75.0853 164.212 75.3107C164.455 75.5207 164.752 75.6751 165.041 75.8125C165.189 75.8831 165.927 76.0643 166.011 76.2144C167.286 75.915 168.529 76.4324 169.473 77.3051C170.386 78.1483 171.056 79.2445 171.648 80.3266C172.279 81.4813 172.796 82.6848 173.242 83.922C173.693 85.1776 174.04 86.4607 174.23 87.7823C174.391 88.8965 174.489 90.0282 174.553 91.1549L174.561 91.2957C175.504 89.8146 176.471 88.3491 177.458 86.8966C177.233 86.2973 177.482 85.6854 177.902 85.2226C178.368 84.7102 179.012 84.4723 179.628 84.1954L179.709 84.1588C180.006 84.0233 180.302 83.8741 180.558 83.6711C180.805 83.4751 180.986 83.2052 181.246 83.0248C181.624 82.7619 182.309 82.8178 182.327 83.3922C182.336 83.7076 182.2 84.0535 182.077 84.3369C181.936 84.6573 181.747 84.9477 181.522 85.2146C181.512 85.227 181.5 85.2368 181.489 85.2446L181.48 85.2501C181.791 85.3016 182.104 85.3431 182.423 85.3575C183.067 85.387 183.718 85.3396 184.349 85.2036C184.994 85.0646 185.62 84.8388 186.201 84.5238C186.697 84.2549 187.156 83.907 187.72 83.825C187.772 83.817 187.824 83.812 187.878 83.809C187.968 83.804 188.058 83.91 188.023 83.9989C188.003 84.048 187.983 84.0965 187.96 84.1454C187.766 84.5748 187.467 84.9913 187.094 85.3074L187.065 85.3315C187.196 85.2861 187.326 85.2351 187.453 85.1776C188.202 84.8402 188.882 84.3304 189.685 84.1254C189.723 84.1154 189.761 84.1064 189.8 84.0979C190.048 84.0445 190.179 84.3144 190.033 84.4993C190.009 84.5293 189.986 84.5588 189.961 84.5883C189.603 85.0331 189.208 85.446 188.772 85.8169C188.623 85.9438 188.469 86.0668 188.312 86.1843C188.246 86.2341 188.18 86.2828 188.112 86.3307L188.079 86.3542C188.158 86.2988 188.235 86.2423 188.312 86.1843C188.804 86.0353 189.288 85.8589 189.763 85.6635C189.951 85.586 190.097 85.7769 190.117 85.9339C190.184 86.4597 189.601 86.8401 189.221 87.093C188.84 87.347 188.421 87.5399 187.992 87.6948C187.167 87.9931 186.3 88.1286 185.435 88.25L185.014 88.3086C183.351 88.5413 181.613 88.8196 180.419 90.1146C179.75 90.8403 179.297 91.742 178.883 92.6293C178.47 93.5155 178.106 94.4252 177.762 95.34C177.404 96.2866 177.093 97.2508 176.762 98.207C176.458 99.085 176.096 99.9518 175.736 100.81L175.68 100.945C174.917 102.769 174.005 104.486 172.735 106.009C172.526 106.26 172.187 105.903 172.381 105.654C173.709 103.941 174.634 101.919 175.397 99.902C175.744 98.9843 176.035 98.0446 176.369 97.1218L176.567 96.5737C176.832 95.843 177.1 95.1132 177.379 94.3883C177.732 93.471 178.12 92.5648 178.565 91.688L178.612 91.5957C179.047 90.7499 179.563 89.9164 180.274 89.2763C181.554 88.1237 183.257 87.8472 184.904 87.6282L185.422 87.5599C186.118 87.4674 186.817 87.3652 187.494 87.179C187.884 87.072 188.266 86.935 188.625 86.7461C188.768 86.6711 188.907 86.5887 189.042 86.4987C188.657 86.6117 188.267 86.7041 187.87 86.7766C187.676 86.8121 187.483 86.8386 187.291 86.8571C186.797 86.906 186.307 86.904 185.801 86.8776C185.758 86.875 185.744 86.8076 185.79 86.7991C186.142 86.7364 186.495 86.658 186.847 86.5729L186.952 86.5472C186.954 86.4887 186.977 86.4267 187.025 86.3678C187.2 86.1548 187.532 86.0458 187.763 85.8954C188.004 85.7379 188.238 85.568 188.461 85.386C188.664 85.2196 188.86 85.0436 189.049 84.8597L189.105 84.8042C189.086 84.8228 189.068 84.8413 189.049 84.8597C188.54 85.0947 188.058 85.396 187.527 85.582C187.104 85.7304 186.662 85.8304 186.215 85.8659L186.187 85.8681L186.16 85.8699C185.693 85.9034 185.224 85.8899 184.765 85.9909C184.714 86.0024 184.698 85.9334 184.744 85.9139C185.145 85.7469 185.562 85.6825 185.984 85.6045C185.993 85.5715 186.016 85.542 186.056 85.523L186.164 85.4715C186.485 85.3171 186.784 85.1613 187.052 84.9107C187.287 84.6893 187.484 84.4304 187.631 84.1434C187.041 84.2729 186.523 84.7202 185.986 84.9717C185.402 85.2461 184.783 85.443 184.148 85.555L184.075 85.5674C182.887 85.7656 181.459 85.7404 180.395 85.1226C180.361 85.1026 180.386 85.0572 180.421 85.0626C180.722 85.1121 181.021 85.1706 181.32 85.2226C181.262 85.1691 181.236 85.0731 181.303 84.9962C181.571 84.6885 181.784 84.3369 181.919 83.9521L181.945 83.8768C182.008 83.6984 182.113 83.4212 182.006 83.2602C181.903 83.1068 181.66 83.1277 181.515 83.1927C181.214 83.3287 181.014 83.6681 180.76 83.873C180.483 84.0969 180.168 84.2629 179.846 84.4113L179.778 84.4423C179.221 84.6931 178.625 84.9043 178.187 85.3471C177.951 85.585 177.748 85.8824 177.68 86.2158C177.649 86.3687 177.649 86.5262 177.69 86.6776C177.723 86.7961 177.791 86.8691 177.752 86.9895C177.701 87.145 177.52 87.3309 177.427 87.4694C177.319 87.6294 177.212 87.7898 177.105 87.9502C176.89 88.2711 176.677 88.593 176.463 88.9144C176.037 89.5582 175.615 90.205 175.196 90.8538C175.06 91.0651 174.924 91.2766 174.788 91.4883L174.586 91.806L174.479 91.9735L174.296 92.2608C174.303 92.2874 174.302 92.3154 174.294 92.3398C174.262 92.4286 174.204 92.4892 174.132 92.5332L174.119 92.5408C173.052 94.2268 172.003 95.9237 170.943 97.6138C170.887 98.1295 170.834 98.6459 170.788 99.1622C170.684 100.331 170.612 101.503 170.589 102.676C170.578 103.243 170.624 103.815 170.648 104.382C170.66 104.653 170.676 104.923 170.698 105.194L170.714 105.385C170.735 105.649 170.747 105.91 170.652 106.161C170.568 106.381 170.312 106.431 170.161 106.263C168.186 106.184 166.209 106.123 164.233 106.086C160.695 106.018 157.155 106.028 153.617 106.097C151.839 106.131 150.062 106.18 148.285 106.24C147.409 106.268 146.534 106.309 145.658 106.321C145.186 106.328 144.443 106.156 144.405 105.625L144.404 105.609C144.345 105.625 144.284 105.638 144.222 105.647C144.194 105.651 144.167 105.65 144.143 105.644L144.13 105.641C143.427 105.856 142.537 105.55 141.869 105.371L141.813 105.357C141.175 105.19 140.663 104.952 140.245 104.424C139.513 103.497 139.263 102.254 139.133 101.108C139.011 100.029 139.004 98.9303 139.152 97.8537C139.065 96.9764 139.15 96.0712 139.25 95.1989C139.299 94.7676 139.356 94.3367 139.425 93.9079C139.464 93.6684 139.514 93.4315 139.565 93.1951C139.586 93.1006 139.603 92.9989 139.629 92.9006L139.641 92.8587C139.561 92.8692 139.474 92.8517 139.389 92.8052C139.188 92.6948 139.13 92.4713 139.126 92.2574C139.115 91.6126 139.192 90.9493 139.26 90.3085C139.329 89.6687 139.423 89.0264 139.546 88.3946L139.577 88.2317C139.67 87.7591 139.777 87.2712 139.965 86.8271C139.26 86.7072 138.557 86.5797 137.873 86.3627C137.539 86.2562 137.21 86.1238 136.896 85.9623ZM173.693 92.6723C173.682 92.6748 173.672 92.6778 173.661 92.6808C173.379 92.7598 173.095 92.8268 172.811 92.8988C172.32 93.0222 171.84 93.1602 171.384 93.3746C171.289 94.5813 171.147 95.784 171.012 96.9873L170.986 97.228C171.192 96.844 171.404 96.4631 171.626 96.0868C172.3 94.9396 172.989 93.8015 173.693 92.6723ZM139.813 92.7923C139.814 92.9357 139.784 93.0847 139.768 93.2226C139.742 93.4466 139.721 93.6715 139.695 93.8954C139.641 94.3452 139.595 94.7956 139.562 95.2474C139.54 95.5359 139.526 95.8253 139.514 96.1147C139.797 95.0555 140.172 94.0194 140.529 92.9816C140.469 92.9754 140.408 92.9608 140.345 92.9441L140.24 92.9156C140.177 92.8995 139.975 92.8497 139.813 92.7923ZM174.586 91.8056L174.588 91.8531C174.595 92.0215 174.494 92.1165 174.372 92.141C174.443 92.029 174.514 91.9171 174.586 91.8056ZM142.168 83.8224C142.467 83.8489 142.759 83.9124 143.038 84.0223L143.065 84.0329C143.271 84.1125 143.573 84.2125 143.64 84.4327C143.659 84.4952 143.608 84.5466 143.55 84.5517C143.326 84.5697 143.062 84.3297 142.855 84.2487C142.624 84.1588 142.382 84.0918 142.137 84.0563C141.587 83.9758 141.013 84.0368 140.496 84.2373C140.465 84.2493 140.446 84.2007 140.474 84.1862C140.995 83.9023 141.575 83.7699 142.168 83.8224ZM135.848 85.2518C135.813 85.2213 135.779 85.1893 135.745 85.1574C135.477 84.9039 135.239 84.608 135.064 84.2829L135.018 84.1949C134.875 83.9178 134.699 83.5231 135.035 83.3234C135.236 83.204 135.478 83.234 135.702 83.3064C135.716 83.3109 135.731 83.316 135.745 83.3209C135.845 83.356 135.941 83.3979 136.027 83.4379C136.401 83.6093 136.73 83.8588 137.075 84.0787C137.448 84.3172 137.817 84.4696 138.248 84.5589L138.289 84.567C138.694 84.6471 139.132 84.6985 139.414 85.0314C139.485 85.1154 139.42 85.2728 139.298 85.2313C138.518 84.968 137.692 84.9099 136.975 84.4776C136.678 84.2986 136.398 84.0932 136.094 83.9237C135.933 83.8337 135.767 83.755 135.59 83.701L135.494 83.6725C135.437 83.6559 135.369 83.6396 135.324 83.6559C135.237 83.6859 135.265 83.7322 135.292 83.8131L135.294 83.8213C135.505 84.4721 136.104 85.0169 136.66 85.3773C136.787 85.4603 136.918 85.5363 137.051 85.6068C137.95 86.0865 138.957 86.3097 139.946 86.5748C139.946 86.5748 140.517 86.7344 140.707 86.7944C140.917 86.7768 141.158 86.8514 141.317 86.9403C141.471 87.0267 141.595 87.1428 141.689 87.2792C141.689 87.2792 141.78 87.3547 141.796 87.4717C141.844 87.5801 141.876 87.697 141.892 87.8191C141.901 87.8905 141.883 87.9455 141.849 87.9844C141.951 89.5536 141.527 91.1139 141.05 92.6052L141.002 92.7522L140.972 92.8454C140.457 94.4264 139.866 95.996 139.602 97.6444C139.426 98.7456 139.431 99.8852 139.56 100.991L139.57 101.068C139.697 102.114 139.942 103.287 140.607 104.128C140.946 104.558 141.348 104.749 141.862 104.887L141.89 104.895C142.354 105.017 142.834 105.191 143.313 105.243C143.758 105.292 144.131 105.126 144.531 104.971L144.531 104.971C145.374 104.224 145.757 103.138 146.04 102.041C146.773 99.203 146.682 96.2569 146.266 93.3773C146.049 91.8728 145.755 90.3812 145.461 88.8902C145.314 88.1449 145.155 87.4012 145.024 86.6534L144.946 86.2133C144.903 85.9688 144.861 85.7241 144.826 85.4783C144.778 85.1479 144.763 84.823 144.747 84.4906C144.343 83.8213 143.757 83.27 143.078 82.8746C142.592 82.5912 142.077 82.3947 141.546 82.2523C140.028 81.8429 138.372 81.8719 136.844 81.557C136.331 81.4513 135.844 81.2945 135.357 81.1065L135.29 81.0807C135.067 80.9937 134.839 80.9452 134.728 81.2086C134.649 81.3961 134.696 81.591 134.815 81.7484C135.105 82.1343 135.689 82.3133 136.128 82.4522C136.392 82.5362 136.662 82.6027 136.935 82.6522C137.208 82.7016 137.481 82.7141 137.743 82.8106C137.844 82.8476 137.864 83.008 137.743 83.0365C137.411 83.114 137.078 83.0475 136.748 82.9831C136.386 82.9115 136.029 82.8101 135.682 82.6817C135.618 82.6581 135.552 82.6332 135.485 82.6068L135.434 82.5867C135.486 82.6247 135.539 82.6622 135.592 82.6997C135.606 82.7096 135.597 82.7361 135.579 82.7296C134.763 82.4253 134.022 81.8763 133.447 81.2267L133.418 81.1941C133.216 80.9622 132.755 80.2604 132.366 80.4558C132.001 80.6391 132.623 81.3457 132.86 81.6346L132.887 81.6685C133.156 81.6755 133.416 81.8429 133.634 81.9778C134.012 82.2123 134.408 82.4143 134.81 82.6031C135.611 82.9795 136.461 83.245 137.253 83.6403C137.263 83.6459 137.255 83.6593 137.245 83.6579C136.741 83.5773 136.242 83.4489 135.755 83.2895L135.733 83.2827L135.712 83.2754C135.407 83.1755 135.107 83.0626 134.812 82.942C134.483 82.8081 134.163 82.6577 133.851 82.4872C133.57 82.3333 133.257 82.0559 132.93 82.0149C132.895 82.0104 132.864 82.0098 132.837 82.0124C132.462 82.0438 132.772 82.6656 132.877 82.8516C133.049 83.157 133.255 83.4389 133.493 83.6963C133.974 84.2192 134.557 84.6335 135.188 84.9559C135.403 85.0659 135.624 85.1629 135.848 85.2518Z" fill="#05F29A"/>
<path fill-rule="evenodd" clip-rule="evenodd" d="M159.818 52.1797C162.055 52.1797 164.739 53.2646 164.967 53.2863L164.974 53.2866C165.094 53.2866 165.563 53.6442 166.381 54.3593L165.495 56.0884L165.567 56.1569C165.91 56.4861 166.203 56.7861 166.434 57.0226C168.322 58.9537 168.662 66.5358 168.217 69.18C167.772 71.8241 166.947 74.4114 163.11 74.4114C159.273 74.4114 155.004 72.1033 154.346 71.3845C153.908 70.9053 153.415 70.6757 152.869 70.6958C152.847 70.6674 152.824 70.6391 152.802 70.611L152.722 70.5996C151.965 70.49 151.424 70.3425 151.096 70.1571C150.456 69.7951 149.753 67.8917 149.753 67.4724C149.753 67.0573 148.703 64.0377 148.682 63.7181L148.682 63.7093C148.682 63.4421 147.31 62.2141 147.31 61.8241C147.31 61.4342 147.034 61.4578 147.31 60.0836L147.391 59.6799C147.685 58.2167 148.261 55.7939 150.456 54.7411C152.869 53.5842 157.559 52.1797 159.818 52.1797Z" fill="#05F29A"/>
<path fill-rule="evenodd" clip-rule="evenodd" d="M150.083 54.6867C151.287 53.409 158.118 51.4327 161.574 51.8517L161.678 51.8651C161.954 51.9001 162.225 51.9531 162.494 52.025C163.361 52.2276 164.256 52.5344 164.973 53.0468C165.571 53.4659 167.458 54.1505 166.902 55.247C167.108 55.6379 167.185 56.1207 167.046 56.5056C167.028 56.6386 166.987 56.7611 166.935 56.888C167.375 57.5384 167.724 58.2738 168.006 58.9734C168.5 60.7339 168.807 62.566 168.852 64.3622C169.001 67.7747 168.627 71.851 165.656 74.0577C163.861 75.456 161.05 75.503 159.033 73.7692C158.919 73.6337 158.38 73.268 158.56 73.2039C158.613 73.2604 158.668 73.3154 158.724 73.3693C158.722 73.3633 158.721 73.3574 158.722 73.3509L158.67 73.3032C158.571 73.2114 158.442 73.0784 158.588 73.1044C158.595 73.1119 158.602 73.1184 158.609 73.1259C158.64 73.1445 158.663 73.1606 158.681 73.1748L158.691 73.1823L158.688 73.1793C158.604 73.0895 158.553 72.9978 158.679 73.0563L158.696 73.0644C158.752 73.1234 158.809 73.1799 158.867 73.2349C158.866 73.2284 158.867 73.2219 158.87 73.2149L158.816 73.1627C158.763 73.111 158.772 73.1107 158.797 73.0689C158.685 72.9117 158.895 73.0051 158.909 73.0664C159.04 73.0355 159.155 73.2814 159.239 73.3114C162.937 76.155 168.302 73.6318 168.215 65.708L168.214 65.553C168.189 63.0193 167.976 60.4152 166.928 58.1216C166.826 57.9007 166.712 57.6858 166.587 57.4778C166.5 57.3219 166.408 57.1699 166.309 57.022C166.03 56.9995 165.755 56.9485 165.485 56.8695C165.392 56.846 165.3 56.82 165.208 56.7895C163.865 56.8628 162.552 56.9425 161.205 57.0181L160.784 57.0443C159.643 57.1177 158.463 57.2352 157.543 57.9412C156.639 58.5839 156.635 59.8512 155.862 60.5569C154.759 61.3056 154.751 61.9807 154.539 63.0841C154.555 63.9158 155.131 65.1243 154.073 65.4743C154.252 65.7289 154.003 65.6066 153.983 65.5173C153.981 65.5178 153.979 65.5183 153.978 65.5183C154.137 65.8141 153.903 65.6278 153.882 65.5328C153.87 65.5293 153.857 65.5203 153.845 65.5078C154.005 65.7669 153.746 65.5855 153.761 65.5383C153.452 65.0622 152.814 64.9883 152.365 65.1144C152.36 65.1314 152.34 65.1329 152.327 65.1239C150.417 65.538 150.91 69.4936 152.868 69.1112C152.951 69.0941 152.949 69.1343 152.966 69.1382C152.921 69.0194 153.048 69.0677 153.047 69.0927L153.055 69.0923C153.061 69.0918 153.058 69.0911 153.063 69.0927C153.019 68.8498 153.265 69.2017 153.246 69.2161C153.253 69.2116 153.262 69.2092 153.269 69.2082L153.261 69.1851C153.22 69.0763 153.223 69.1215 153.224 69.0592C153.193 68.9822 153.191 69.0159 153.198 68.9657C153.306 68.8821 153.338 69.1356 153.374 69.1542C153.312 69.0682 153.361 68.998 153.419 69.0447C153.86 69.9723 154.429 70.8438 155.165 71.5304C155.246 71.5939 155.327 71.6564 155.412 71.7154C155.725 71.9881 156.205 72.1635 156.498 72.4051C156.498 72.4091 156.496 72.4141 156.493 72.4191L156.5 72.4252L156.506 72.4316L156.608 72.4806C156.638 72.5061 156.665 72.5346 156.689 72.5661C156.715 72.5956 156.737 72.6281 156.756 72.6626C156.766 72.7046 156.745 72.722 156.705 72.7041C156.687 72.6981 156.67 72.6911 156.652 72.6846C156.653 72.6861 156.654 72.6871 156.655 72.6881C156.661 72.6967 156.699 72.7867 156.655 72.7721L156.649 72.77C156.625 72.761 156.6 72.751 156.576 72.7415C156.605 72.777 156.631 72.8155 156.654 72.848C156.678 72.8735 156.693 72.9035 156.699 72.9375C156.698 72.9565 156.688 72.9645 156.669 72.962C156.64 72.9525 156.611 72.9425 156.583 72.932L156.591 72.9475C156.611 72.9871 156.64 73.0537 156.589 73.0315C156.545 73.018 156.503 73.0025 156.461 72.9855C156.458 72.9925 156.451 72.995 156.437 72.9885C156.304 72.941 156.175 72.883 156.051 72.8145C155.943 72.7355 155.833 72.6581 155.724 72.5796C155.622 72.5181 155.523 72.4496 155.429 72.3727C154.797 71.9644 154.244 71.4458 153.805 70.8681C153.071 71.504 151.603 70.8965 150.696 70.3988C149.893 69.9539 149.577 69.1314 149.496 68.2446C149.326 67.0506 148.351 66.642 148.419 64.0223C148.417 64.0228 148.416 64.0228 148.414 64.0228C148.378 64.0123 148.344 63.9983 148.311 63.9803C148.278 63.9643 148.246 63.9453 148.217 63.9223L148.18 63.8718C148.161 63.8613 148.144 63.8503 148.131 63.8393L148.125 63.848C148.103 63.8738 148.118 63.835 148.119 63.8273L148.055 63.7411C147.905 63.5359 147.74 63.3057 147.606 63.1216L147.602 63.129C147.599 63.1347 147.597 63.1388 147.599 63.1406C147.279 62.6813 146.979 62.1266 146.895 61.5895C146.797 61.1759 146.835 60.7496 146.921 60.3664C147.29 59.0246 148.498 55.9881 150.083 54.6867ZM158.755 73.2435L158.735 73.2256L158.753 73.2477C158.762 73.2591 158.772 73.2694 158.787 73.2798C158.786 73.2763 158.786 73.2728 158.786 73.2688C158.776 73.261 158.766 73.2525 158.755 73.2435ZM161.559 52.5256C159.215 52.324 156.91 52.8406 154.673 53.4658L154.519 53.5102C153.247 53.8732 151.903 54.1999 150.828 54.9769C149.327 56.1274 148.551 57.9576 147.875 59.6474C147.284 60.9029 147.586 62.3186 148.476 63.1953C148.569 62.3241 148.727 61.4784 148.974 60.6395C149.025 60.5085 148.986 60.4655 149.097 60.4484C149.265 62.7091 148.439 64.3794 150.073 67.0587C150.782 68.3229 149.961 69.2479 151.964 69.9131L152.018 69.9338C152.435 70.0913 152.891 70.2157 153.3 70.1276L153.263 70.068C153.226 70.0067 153.214 69.9769 153.269 69.9507C153.267 69.9477 153.265 69.9447 153.263 69.9412C153.219 69.8582 153.177 69.7742 153.136 69.6893C153.12 69.6948 153.103 69.6988 153.086 69.7032C153.097 69.7237 153.099 69.7442 153.068 69.7512C152.958 69.789 152.845 69.8042 152.729 69.7971L152.704 69.7952C152.573 69.7872 152.491 69.7634 152.417 69.7412C152.393 69.7372 152.368 69.7332 152.344 69.7282C152.107 69.6757 151.856 69.5419 151.694 69.4093C149.842 68.3573 150.034 64.7759 152.316 64.4374C152.363 62.1825 153.435 58.3783 155.214 56.2296C156.822 54.2532 161.213 53.3966 164.268 53.6986C164.312 53.7134 164.357 53.7283 164.401 53.7433C164.872 53.7852 165.322 53.9952 165.793 54.0928C165.455 53.8389 165.07 53.6698 164.675 53.5261C163.886 53.0437 162.983 52.7827 162.11 52.5986C161.929 52.5541 161.745 52.5296 161.559 52.5256ZM152.212 66.2494C152.334 66.1827 152.32 66.2471 152.349 66.2284C153.231 66.1563 154.183 66.9295 154.676 67.574C154.637 67.6144 154.532 67.4945 154.514 67.4755C154.511 67.478 154.508 67.48 154.505 67.481L154.519 67.5004C154.719 67.7875 154.322 67.4496 154.285 67.38C154.279 67.3835 154.272 67.3855 154.265 67.384C154.296 67.4149 154.392 67.4953 154.409 67.5525L154.434 67.5736C154.674 67.7792 154.654 67.9338 154.382 67.6419C154.388 67.6554 154.391 67.6679 154.386 67.6779L154.396 67.6842C154.529 67.7778 154.64 68.0389 154.36 67.7709C154.389 67.9666 154.082 67.5883 154.072 67.5909C153.542 67.1743 152.761 66.7692 152.095 66.7147L152.072 66.7121C151.95 66.6964 151.892 66.6601 151.935 66.5803C151.785 66.5445 151.82 66.4704 151.891 66.4728C151.785 66.403 151.881 66.3363 151.942 66.3623C151.9 66.2451 152.07 66.3232 152.085 66.3069C152.173 66.1709 152.197 66.2843 152.212 66.2494ZM150.362 58.9837C150.786 58.8283 152.038 59.2934 151.938 59.9093C151.878 60.0507 151.681 60.1317 151.543 60.0519L151.363 59.9307C151.049 59.7205 150.766 59.5362 150.429 59.3528C150.246 59.2618 150.167 59.0685 150.362 58.9837ZM152.774 58.0685L152.61 57.962C151.726 57.3835 150.477 56.5069 152.693 57.4138C152.945 57.5221 153.28 57.5862 153.418 57.8267C153.635 58.27 153.065 58.2998 152.774 58.0685ZM152.873 55.4732C152.802 55.2041 153.684 55.5199 153.941 55.6032L153.98 55.618C154.23 55.7111 154.516 55.7975 154.666 56.0131C154.841 56.3112 154.486 56.3729 154.267 56.2383C153.817 55.9441 153.324 55.7221 152.873 55.4732ZM155.116 54.2192C154.62 53.6767 155.949 54.1964 156.148 54.3406L156.153 54.3449C156.302 54.4495 156.272 54.6748 156.132 54.741C155.735 54.7485 155.443 54.4174 155.116 54.2192ZM157.376 53.6247C156.586 53.0572 157.626 53.3271 157.988 53.5496C158.234 53.7667 157.98 54.1334 157.376 53.6247Z" fill="#05F29A"/>
<path fill-rule="evenodd" clip-rule="evenodd" d="M164.977 69.9947C165.293 69.9211 165.541 70.1886 165.479 70.4966C165.413 70.8227 165.063 70.9345 164.769 70.9242C164.436 70.9127 164.103 70.8439 163.768 70.83C163.424 70.8158 163.079 70.8132 162.734 70.8225C162.416 70.8311 162.089 70.8872 161.773 70.8369C161.65 70.8172 161.662 70.6548 161.742 70.597C161.98 70.4256 162.288 70.3557 162.568 70.2838C162.853 70.2104 163.145 70.1542 163.438 70.1199C163.735 70.0852 164.035 70.0679 164.333 70.0645C164.47 70.0629 164.636 70.0931 164.769 70.0687C164.837 70.0561 164.905 70.0115 164.977 69.9947ZM164.066 65.7588C164.443 65.9882 165.018 66.5232 164.612 67.092C164.134 67.5935 163.446 67.0185 163.107 66.7585C162.793 66.5569 162.44 67.0753 162.732 67.3106C165.181 69.1248 166.175 65.8188 164.257 65.4891C164.045 65.4527 163.967 65.6878 164.066 65.7588ZM161.33 64.0456C161.835 63.9616 161.923 64.6814 161.423 64.7317C161.318 64.7422 161.213 64.7514 161.109 64.7606C161.119 64.7932 161.126 64.8267 161.13 64.8612C161.134 64.8905 161.138 64.9216 161.141 64.9571C161.157 65.1342 161.032 65.3183 160.885 65.4042C160.732 65.4934 160.514 65.5053 160.362 65.4042C160.284 65.352 160.206 65.2932 160.163 65.2069C160.106 65.1183 160.074 65.0157 160.071 64.9105C159.841 64.9703 159.607 65.0511 159.374 65.0939C159.383 65.1023 159.391 65.1113 159.399 65.1211C159.406 65.1287 159.397 65.1428 159.388 65.1359L159.271 65.11C159.236 65.1147 159.2 65.1186 159.164 65.1208L159.165 65.1177C159.105 65.1166 159.056 65.0459 159.109 64.9893C159.315 64.7722 159.635 64.6279 159.927 64.5073L160.209 64.3919C160.568 64.2456 160.948 64.1091 161.33 64.0456ZM165.39 64.2683C165.721 64.2305 166.048 64.2455 166.379 64.2657C166.936 64.2997 166.703 65.1126 166.255 64.9249C166.26 64.9547 166.261 64.9844 166.258 65.0122C166.24 65.1551 166.194 65.2759 166.063 65.3526C165.941 65.4239 165.786 65.4237 165.665 65.3526C165.534 65.2766 165.475 65.1693 165.442 65.03C165.416 64.922 165.427 64.8316 165.442 64.7247C165.447 64.6892 165.462 64.6562 165.483 64.6265C165.452 64.6187 165.421 64.6112 165.39 64.6041C165.112 64.5408 164.837 64.5535 164.56 64.5134C164.53 64.5091 164.526 64.4614 164.552 64.4492C164.801 64.3321 165.118 64.2994 165.39 64.2683ZM161.279 61.7575C161.47 61.6847 161.709 61.8058 161.807 61.9724C161.917 62.1615 161.87 62.3797 161.734 62.539C161.524 62.7834 161.126 62.9339 160.832 63.0733L160.809 63.0846C160.507 63.2302 160.197 63.3638 159.883 63.4803C159.574 63.5949 159.253 63.6847 158.933 63.7618C158.764 63.8024 158.592 63.836 158.419 63.8572C158.283 63.8739 158.178 63.8365 158.048 63.8365C158.029 63.8365 158.023 63.8113 158.038 63.8016C158.16 63.725 158.25 63.6242 158.383 63.5533C158.521 63.4794 158.66 63.4069 158.8 63.335C159.081 63.1897 159.352 63.0281 159.624 62.8654C159.911 62.6939 160.19 62.5133 160.463 62.32C160.729 62.1308 160.974 61.8737 161.279 61.7575ZM164.678 61.602C164.917 61.5557 165.153 61.6685 165.223 61.9114C165.291 62.1441 165.22 62.1939 165.4 62.3604C165.544 62.4931 165.699 62.6116 165.856 62.7282L166.086 62.8994C166.503 63.2082 166.923 63.5001 167.403 63.7085C167.443 63.7261 167.42 63.7863 167.381 63.7871C166.619 63.8018 165.888 63.6986 165.2 63.3572C164.879 63.1978 164.556 62.9961 164.37 62.6778C164.154 62.3092 164.16 61.7024 164.678 61.602Z" fill="#05F29A"/>
</g>
</svg>
