<svg width="1440" height="975" viewBox="0 0 1440 975" fill="none" xmlns="http://www.w3.org/2000/svg">
<g clip-path="url(#clip0_88_436)">
<mask id="mask0_88_436" style="mask-type:alpha" maskUnits="userSpaceOnUse" x="-330" y="-258" width="1956" height="1440">
<path d="M758.16 283.828C758.16 431.088 660.795 550.465 540.69 550.465C420.584 550.465 -329.822 33.9679 -329.822 -113.292C-329.822 -260.552 748.365 -57.8213 868.471 -57.8213C988.577 -57.8213 758.16 136.568 758.16 283.828Z" fill="url(#paint0_linear_88_436)"/>
<path d="M842.625 914.853C842.625 1062.11 745.26 1181.49 625.155 1181.49C505.049 1181.49 -164.042 1147.17 -164.042 999.905C-164.042 852.645 -114.584 503.821 5.52185 503.821C125.627 503.821 842.625 767.593 842.625 914.853Z" fill="url(#paint1_radial_88_436)"/>
<path d="M1089.32 284.232C1413.39 576.92 1263.69 429.832 1542.03 422.422C1585.7 430.833 1659.82 431.233 1607.01 365.542C1541 283.427 1562.27 225.429 1479.77 135.965C1397.27 46.5012 1347.02 -44.3926 1222.47 -186.683C1097.91 -328.973 1088.33 -211.679 947.908 -222.798C807.488 -233.917 871.534 -216.26 677.79 -9.80265C484.046 196.654 765.255 -8.45678 1089.32 284.232Z" fill="#D9D9D9"/>
<path d="M783.375 744.614C349.695 795.672 558.971 779.913 381.212 994.232C346.123 1021.55 296.998 1077.06 381.212 1080.59C486.48 1085 516.107 1139.21 637.764 1136.06C759.421 1132.91 860.908 1154.97 1050.01 1154.97C1239.12 1154.97 1157.17 1070.5 1258.03 972.169C1358.88 873.835 1303.41 910.395 1275.68 628.629C1247.94 346.864 1217.05 693.555 783.375 744.614Z" fill="#D9D9D9"/>
</mask>
<g mask="url(#mask0_88_436)">
<line x1="-32.2949" y1="589.548" x2="1479.28" y2="589.548" stroke="#F3F3F3" stroke-opacity="0.6" stroke-width="1.2607"/>
<line x1="-32.2949" y1="912.286" x2="1479.28" y2="912.286" stroke="#F3F3F3" stroke-opacity="0.6" stroke-width="1.2607"/>
<line x1="-32.2949" y1="266.81" x2="1479.28" y2="266.81" stroke="#F3F3F3" stroke-opacity="0.6" stroke-width="1.2607"/>
<line x1="-32.2949" y1="428.178" x2="1479.28" y2="428.178" stroke="#F3F3F3" stroke-opacity="0.6" stroke-width="1.2607"/>
<line x1="-32.2949" y1="750.916" x2="1479.28" y2="750.916" stroke="#F3F3F3" stroke-opacity="0.6" stroke-width="1.2607"/>
<line x1="-32.2949" y1="105.439" x2="1479.28" y2="105.439" stroke="#F3F3F3" stroke-opacity="0.6" stroke-width="1.2607"/>
<line x1="-32.2949" y1="508.863" x2="1479.28" y2="508.863" stroke="#F3F3F3" stroke-opacity="0.6" stroke-width="1.2607"/>
<line x1="-32.2949" y1="831.601" x2="1479.28" y2="831.601" stroke="#F3F3F3" stroke-opacity="0.6" stroke-width="1.2607"/>
<line x1="-32.2949" y1="186.125" x2="1479.28" y2="186.125" stroke="#F3F3F3" stroke-opacity="0.6" stroke-width="1.2607"/>
<line x1="-32.2949" y1="347.492" x2="1479.28" y2="347.492" stroke="#F3F3F3" stroke-opacity="0.6" stroke-width="1.2607"/>
<line x1="-32.2949" y1="670.233" x2="1479.28" y2="670.233" stroke="#F3F3F3" stroke-opacity="0.6" stroke-width="1.2607"/>
<line x1="-32.2949" y1="24.7544" x2="1479.28" y2="24.7544" stroke="#F3F3F3" stroke-opacity="0.6" stroke-width="1.2607"/>
<line x1="14.98" y1="-84.2949" x2="14.9799" y2="1083.11" stroke="#F3F3F3" stroke-opacity="0.6" stroke-width="1.2607"/>
<line x1="660.46" y1="-84.2949" x2="660.46" y2="1083.11" stroke="#F3F3F3" stroke-opacity="0.6" stroke-width="1.2607"/>
<line x1="337.72" y1="-84.2952" x2="337.72" y2="1083.11" stroke="#F3F3F3" stroke-opacity="0.6" stroke-width="1.2607"/>
<line x1="983.197" y1="-84.2949" x2="983.197" y2="1083.11" stroke="#F3F3F3" stroke-opacity="0.6" stroke-width="1.2607"/>
<line x1="1305.94" y1="-84.2949" x2="1305.94" y2="1083.11" stroke="#F3F3F3" stroke-opacity="0.6" stroke-width="1.2607"/>
<line x1="176.35" y1="-84.2949" x2="176.35" y2="1083.11" stroke="#F3F3F3" stroke-opacity="0.6" stroke-width="1.2607"/>
<line x1="821.827" y1="-84.2949" x2="821.827" y2="1083.11" stroke="#F3F3F3" stroke-opacity="0.6" stroke-width="1.2607"/>
<line x1="499.09" y1="-84.2949" x2="499.09" y2="1083.11" stroke="#F3F3F3" stroke-opacity="0.6" stroke-width="1.2607"/>
<line x1="1144.57" y1="-84.2952" x2="1144.57" y2="1083.11" stroke="#F3F3F3" stroke-opacity="0.6" stroke-width="1.2607"/>
<line x1="95.6675" y1="-84.2949" x2="95.6674" y2="1083.11" stroke="#F3F3F3" stroke-opacity="0.6" stroke-width="1.2607"/>
<line x1="741.144" y1="-84.2952" x2="741.144" y2="1083.11" stroke="#F3F3F3" stroke-opacity="0.6" stroke-width="1.2607"/>
<line x1="418.403" y1="-84.2949" x2="418.403" y2="1083.11" stroke="#F3F3F3" stroke-opacity="0.6" stroke-width="1.2607"/>
<line x1="1063.88" y1="-84.2949" x2="1063.88" y2="1083.11" stroke="#F3F3F3" stroke-opacity="0.6" stroke-width="1.2607"/>
<line x1="1386.62" y1="-84.2949" x2="1386.62" y2="1083.11" stroke="#F3F3F3" stroke-opacity="0.6" stroke-width="1.2607"/>
<line x1="257.038" y1="-84.2949" x2="257.038" y2="1083.11" stroke="#F3F3F3" stroke-opacity="0.6" stroke-width="1.2607"/>
<line x1="902.514" y1="-84.2949" x2="902.514" y2="1083.11" stroke="#F3F3F3" stroke-opacity="0.6" stroke-width="1.2607"/>
<line x1="579.773" y1="-84.2949" x2="579.773" y2="1083.11" stroke="#F3F3F3" stroke-opacity="0.6" stroke-width="1.2607"/>
<line x1="1225.25" y1="-84.2949" x2="1225.25" y2="1083.11" stroke="#F3F3F3" stroke-opacity="0.6" stroke-width="1.2607"/>
<rect x="1144.73" y="186.983" width="80.2262" height="79.0801" fill="#05F29A" fill-opacity="0.05"/>
<rect x="1063.36" y="267.209" width="80.2262" height="79.0801" fill="#05F29A" fill-opacity="0.05"/>
<rect x="1063.36" y="186.983" width="80.2262" height="79.0801" fill="#05F29A" fill-opacity="0.05"/>
<rect x="178" y="671" width="80.2262" height="80.2262" fill="#05F29A" fill-opacity="0.05"/>
<rect x="177" y="104" width="81.3723" height="82.5184" fill="#F8F8F8"/>
<rect x="96" y="24" width="81.3723" height="80.2262" fill="#F8F8F8"/>
<rect x="15" y="24" width="81.3723" height="80.2262" fill="#F8F8F8"/>
<rect x="96" y="104" width="81.3723" height="82.5184" fill="#F8F8F8"/>
<rect x="177" y="266" width="80.2262" height="81.3723" fill="#F8F8F8"/>
<rect x="1146" y="673" width="80.2262" height="80.2262" fill="white"/>
<rect x="1226.23" y="753.226" width="80.2262" height="80.2262" fill="#05F29A" fill-opacity="0.05"/>
</g>
</g>
<defs>
<linearGradient id="paint0_linear_88_436" x1="189.585" y1="-39.5411" x2="644.067" y2="202.513" gradientUnits="userSpaceOnUse">
<stop stop-color="white"/>
<stop offset="1" stop-color="white" stop-opacity="0"/>
</linearGradient>
<radialGradient id="paint1_radial_88_436" cx="0" cy="0" r="1" gradientUnits="userSpaceOnUse" gradientTransform="translate(154.914 921.112) rotate(-29.3932) scale(777.019 1335.47)">
<stop stop-color="white"/>
<stop offset="1" stop-color="white" stop-opacity="0"/>
</radialGradient>
<clipPath id="clip0_88_436">
<rect width="1440" height="975" fill="white"/>
</clipPath>
</defs>
</svg>
