<svg width="1440" height="975" viewBox="0 0 1440 975" fill="none" xmlns="http://www.w3.org/2000/svg">
<g clip-path="url(#clip0_729_14804)">
<mask id="mask0_729_14804" style="mask-type:luminance" maskUnits="userSpaceOnUse" x="-330" y="-258" width="1956" height="1440">
<path d="M758.16 283.828C758.16 431.088 660.795 550.466 540.69 550.466C420.584 550.466 -329.822 33.9684 -329.822 -113.291C-329.822 -260.551 748.365 -57.8208 868.471 -57.8208C988.577 -57.8208 758.16 136.568 758.16 283.828Z" fill="url(#paint0_linear_729_14804)"/>
<path d="M842.625 914.852C842.625 1062.11 745.26 1181.49 625.155 1181.49C505.049 1181.49 -164.042 1147.16 -164.042 999.905C-164.042 852.645 -114.584 503.82 5.52185 503.82C125.627 503.82 842.625 767.593 842.625 914.852Z" fill="url(#paint1_radial_729_14804)"/>
<path d="M1089.32 284.232C1413.39 576.921 1263.69 429.833 1542.03 422.422C1585.7 430.834 1659.82 431.234 1607.01 365.542C1541 283.428 1562.27 225.429 1479.77 135.965C1397.27 46.5014 1347.02 -44.3924 1222.47 -186.682C1097.91 -328.973 1088.33 -211.679 947.908 -222.798C807.488 -233.917 871.534 -216.259 677.79 -9.80241C484.046 196.655 765.255 -8.45654 1089.32 284.232Z" fill="#D9D9D9"/>
<path d="M783.375 744.613C349.695 795.672 558.971 779.913 381.212 994.232C346.123 1021.55 296.998 1077.06 381.212 1080.59C486.48 1085 516.107 1139.21 637.764 1136.06C759.421 1132.91 860.908 1154.97 1050.01 1154.97C1239.12 1154.97 1157.17 1070.5 1258.03 972.169C1358.88 873.835 1303.41 910.395 1275.68 628.629C1247.94 346.863 1217.05 693.555 783.375 744.613Z" fill="#D9D9D9"/>
</mask>
<g mask="url(#mask0_729_14804)">
<line x1="-32.2949" y1="589.547" x2="1479.28" y2="589.547" stroke="#F3F3F3" stroke-opacity="0.03" stroke-width="1.2607"/>
<line x1="-32.2949" y1="912.286" x2="1479.28" y2="912.286" stroke="#F3F3F3" stroke-opacity="0.03" stroke-width="1.2607"/>
<line x1="-32.2949" y1="266.811" x2="1479.28" y2="266.811" stroke="#F3F3F3" stroke-opacity="0.03" stroke-width="1.2607"/>
<line x1="-32.2949" y1="428.178" x2="1479.28" y2="428.178" stroke="#F3F3F3" stroke-opacity="0.03" stroke-width="1.2607"/>
<line x1="-32.2949" y1="750.917" x2="1479.28" y2="750.917" stroke="#F3F3F3" stroke-opacity="0.03" stroke-width="1.2607"/>
<line x1="-32.2949" y1="105.44" x2="1479.28" y2="105.44" stroke="#F3F3F3" stroke-opacity="0.03" stroke-width="1.2607"/>
<line x1="-32.2949" y1="508.864" x2="1479.28" y2="508.864" stroke="#F3F3F3" stroke-opacity="0.03" stroke-width="1.2607"/>
<line x1="-32.2949" y1="831.602" x2="1479.28" y2="831.602" stroke="#F3F3F3" stroke-opacity="0.03" stroke-width="1.2607"/>
<line x1="-32.2949" y1="186.126" x2="1479.28" y2="186.126" stroke="#F3F3F3" stroke-opacity="0.03" stroke-width="1.2607"/>
<line x1="-32.2949" y1="347.493" x2="1479.28" y2="347.493" stroke="#F3F3F3" stroke-opacity="0.03" stroke-width="1.2607"/>
<line x1="-32.2949" y1="670.233" x2="1479.28" y2="670.233" stroke="#F3F3F3" stroke-opacity="0.03" stroke-width="1.2607"/>
<line x1="-32.2949" y1="24.7544" x2="1479.28" y2="24.7544" stroke="#F3F3F3" stroke-opacity="0.03" stroke-width="1.2607"/>
<line x1="14.98" y1="-84.2949" x2="14.9799" y2="1083.11" stroke="url(#paint2_linear_729_14804)" stroke-opacity="0.03" stroke-width="1.2607"/>
<line x1="660.46" y1="-84.2949" x2="660.46" y2="1083.11" stroke="url(#paint3_linear_729_14804)" stroke-opacity="0.03" stroke-width="1.2607"/>
<line x1="337.72" y1="-84.2949" x2="337.72" y2="1083.11" stroke="url(#paint4_linear_729_14804)" stroke-opacity="0.03" stroke-width="1.2607"/>
<line x1="983.197" y1="-84.2949" x2="983.197" y2="1083.11" stroke="url(#paint5_linear_729_14804)" stroke-opacity="0.03" stroke-width="1.2607"/>
<line x1="1305.94" y1="-84.2949" x2="1305.94" y2="1083.11" stroke="url(#paint6_linear_729_14804)" stroke-opacity="0.03" stroke-width="1.2607"/>
<line x1="176.35" y1="-84.2949" x2="176.35" y2="1083.11" stroke="url(#paint7_linear_729_14804)" stroke-opacity="0.03" stroke-width="1.2607"/>
<line x1="821.827" y1="-84.2949" x2="821.827" y2="1083.11" stroke="url(#paint8_linear_729_14804)" stroke-opacity="0.03" stroke-width="1.2607"/>
<line x1="499.09" y1="-84.2949" x2="499.09" y2="1083.11" stroke="url(#paint9_linear_729_14804)" stroke-opacity="0.03" stroke-width="1.2607"/>
<line x1="1144.57" y1="-84.2949" x2="1144.57" y2="1083.11" stroke="url(#paint10_linear_729_14804)" stroke-opacity="0.03" stroke-width="1.2607"/>
<line x1="95.6675" y1="-84.2949" x2="95.6674" y2="1083.11" stroke="url(#paint11_linear_729_14804)" stroke-opacity="0.03" stroke-width="1.2607"/>
<line x1="741.144" y1="-84.2949" x2="741.144" y2="1083.11" stroke="url(#paint12_linear_729_14804)" stroke-opacity="0.03" stroke-width="1.2607"/>
<line x1="418.403" y1="-84.2949" x2="418.403" y2="1083.11" stroke="url(#paint13_linear_729_14804)" stroke-opacity="0.03" stroke-width="1.2607"/>
<line x1="1063.88" y1="-84.2949" x2="1063.88" y2="1083.11" stroke="url(#paint14_linear_729_14804)" stroke-opacity="0.03" stroke-width="1.2607"/>
<line x1="1386.62" y1="-84.2949" x2="1386.62" y2="1083.11" stroke="url(#paint15_linear_729_14804)" stroke-opacity="0.03" stroke-width="1.2607"/>
<line x1="257.038" y1="-84.2949" x2="257.038" y2="1083.11" stroke="url(#paint16_linear_729_14804)" stroke-opacity="0.03" stroke-width="1.2607"/>
<line x1="902.514" y1="-84.2949" x2="902.514" y2="1083.11" stroke="url(#paint17_linear_729_14804)" stroke-opacity="0.03" stroke-width="1.2607"/>
<line x1="579.773" y1="-84.2949" x2="579.773" y2="1083.11" stroke="url(#paint18_linear_729_14804)" stroke-opacity="0.03" stroke-width="1.2607"/>
<line x1="1225.25" y1="-84.2949" x2="1225.25" y2="1083.11" stroke="url(#paint19_linear_729_14804)" stroke-opacity="0.03" stroke-width="1.2607"/>
<g opacity="0.7">
<rect x="1144.73" y="186.982" width="80.2262" height="79.0801" fill="#05F29A" fill-opacity="0.05"/>
<rect x="1063.36" y="267.209" width="80.2262" height="79.0801" fill="#05F29A" fill-opacity="0.05"/>
<rect x="1063.36" y="186.982" width="80.2262" height="79.0801" fill="#05F29A" fill-opacity="0.05"/>
<rect x="178" y="671" width="80.2262" height="80.2262" fill="#05F29A" fill-opacity="0.05"/>
<rect x="177" y="104" width="81.3723" height="82.5184" fill="#05F29A" fill-opacity="0.05"/>
<rect x="96" y="24" width="81.3723" height="80.2262" fill="#05F29A" fill-opacity="0.05"/>
<rect x="15" y="24" width="81.3723" height="80.2262" fill="#05F29A" fill-opacity="0.05"/>
<rect x="96" y="104" width="81.3723" height="82.5184" fill="#05F29A" fill-opacity="0.05"/>
<rect x="177" y="266" width="80.2262" height="81.3723" fill="#05F29A" fill-opacity="0.05"/>
<rect x="1146.23" y="673.227" width="80.2262" height="80.2262" fill="#05F29A" fill-opacity="0.05"/>
<rect x="1226.23" y="753.227" width="80.2262" height="80.2262" fill="#05F29A" fill-opacity="0.05"/>
</g>
</g>
</g>
<defs>
<linearGradient id="paint0_linear_729_14804" x1="189.585" y1="-39.5406" x2="644.067" y2="202.513" gradientUnits="userSpaceOnUse">
<stop stop-color="white"/>
<stop offset="1" stop-color="white" stop-opacity="0"/>
</linearGradient>
<radialGradient id="paint1_radial_729_14804" cx="0" cy="0" r="1" gradientUnits="userSpaceOnUse" gradientTransform="translate(154.914 921.111) rotate(-29.3932) scale(777.019 1335.47)">
<stop stop-color="white"/>
<stop offset="1" stop-color="white" stop-opacity="0"/>
</radialGradient>
<linearGradient id="paint2_linear_729_14804" x1="14.3496" y1="499.408" x2="13.3496" y2="499.408" gradientUnits="userSpaceOnUse">
<stop stop-color="#F3F3F3" stop-opacity="0.5"/>
<stop offset="1" stop-color="#8D8D8D" stop-opacity="0.2"/>
</linearGradient>
<linearGradient id="paint3_linear_729_14804" x1="659.83" y1="499.408" x2="658.83" y2="499.408" gradientUnits="userSpaceOnUse">
<stop stop-color="#F3F3F3" stop-opacity="0.5"/>
<stop offset="1" stop-color="#8D8D8D" stop-opacity="0.2"/>
</linearGradient>
<linearGradient id="paint4_linear_729_14804" x1="337.09" y1="499.408" x2="336.09" y2="499.408" gradientUnits="userSpaceOnUse">
<stop stop-color="#F3F3F3" stop-opacity="0.5"/>
<stop offset="1" stop-color="#8D8D8D" stop-opacity="0.2"/>
</linearGradient>
<linearGradient id="paint5_linear_729_14804" x1="982.566" y1="499.408" x2="981.566" y2="499.408" gradientUnits="userSpaceOnUse">
<stop stop-color="#F3F3F3" stop-opacity="0.5"/>
<stop offset="1" stop-color="#8D8D8D" stop-opacity="0.2"/>
</linearGradient>
<linearGradient id="paint6_linear_729_14804" x1="1305.31" y1="499.408" x2="1304.31" y2="499.408" gradientUnits="userSpaceOnUse">
<stop stop-color="#F3F3F3" stop-opacity="0.5"/>
<stop offset="1" stop-color="#8D8D8D" stop-opacity="0.2"/>
</linearGradient>
<linearGradient id="paint7_linear_729_14804" x1="175.72" y1="499.408" x2="174.72" y2="499.408" gradientUnits="userSpaceOnUse">
<stop stop-color="#F3F3F3" stop-opacity="0.5"/>
<stop offset="1" stop-color="#8D8D8D" stop-opacity="0.2"/>
</linearGradient>
<linearGradient id="paint8_linear_729_14804" x1="821.196" y1="499.408" x2="820.196" y2="499.408" gradientUnits="userSpaceOnUse">
<stop stop-color="#F3F3F3" stop-opacity="0.5"/>
<stop offset="1" stop-color="#8D8D8D" stop-opacity="0.2"/>
</linearGradient>
<linearGradient id="paint9_linear_729_14804" x1="498.46" y1="499.408" x2="497.46" y2="499.408" gradientUnits="userSpaceOnUse">
<stop stop-color="#F3F3F3" stop-opacity="0.5"/>
<stop offset="1" stop-color="#8D8D8D" stop-opacity="0.2"/>
</linearGradient>
<linearGradient id="paint10_linear_729_14804" x1="1143.94" y1="499.408" x2="1142.94" y2="499.408" gradientUnits="userSpaceOnUse">
<stop stop-color="#F3F3F3" stop-opacity="0.5"/>
<stop offset="1" stop-color="#8D8D8D" stop-opacity="0.2"/>
</linearGradient>
<linearGradient id="paint11_linear_729_14804" x1="95.0371" y1="499.408" x2="94.0371" y2="499.408" gradientUnits="userSpaceOnUse">
<stop stop-color="#F3F3F3" stop-opacity="0.5"/>
<stop offset="1" stop-color="#8D8D8D" stop-opacity="0.2"/>
</linearGradient>
<linearGradient id="paint12_linear_729_14804" x1="740.514" y1="499.408" x2="739.514" y2="499.408" gradientUnits="userSpaceOnUse">
<stop stop-color="#F3F3F3" stop-opacity="0.5"/>
<stop offset="1" stop-color="#8D8D8D" stop-opacity="0.2"/>
</linearGradient>
<linearGradient id="paint13_linear_729_14804" x1="417.772" y1="499.408" x2="416.772" y2="499.408" gradientUnits="userSpaceOnUse">
<stop stop-color="#F3F3F3" stop-opacity="0.5"/>
<stop offset="1" stop-color="#8D8D8D" stop-opacity="0.2"/>
</linearGradient>
<linearGradient id="paint14_linear_729_14804" x1="1063.25" y1="499.408" x2="1062.25" y2="499.408" gradientUnits="userSpaceOnUse">
<stop stop-color="#F3F3F3" stop-opacity="0.5"/>
<stop offset="1" stop-color="#8D8D8D" stop-opacity="0.2"/>
</linearGradient>
<linearGradient id="paint15_linear_729_14804" x1="1385.99" y1="499.408" x2="1384.99" y2="499.408" gradientUnits="userSpaceOnUse">
<stop stop-color="#F3F3F3" stop-opacity="0.5"/>
<stop offset="1" stop-color="#8D8D8D" stop-opacity="0.2"/>
</linearGradient>
<linearGradient id="paint16_linear_729_14804" x1="256.407" y1="499.408" x2="255.407" y2="499.408" gradientUnits="userSpaceOnUse">
<stop stop-color="#F3F3F3" stop-opacity="0.5"/>
<stop offset="1" stop-color="#8D8D8D" stop-opacity="0.2"/>
</linearGradient>
<linearGradient id="paint17_linear_729_14804" x1="901.884" y1="499.408" x2="900.884" y2="499.408" gradientUnits="userSpaceOnUse">
<stop stop-color="#F3F3F3" stop-opacity="0.5"/>
<stop offset="1" stop-color="#8D8D8D" stop-opacity="0.2"/>
</linearGradient>
<linearGradient id="paint18_linear_729_14804" x1="579.143" y1="499.408" x2="578.143" y2="499.408" gradientUnits="userSpaceOnUse">
<stop stop-color="#F3F3F3" stop-opacity="0.5"/>
<stop offset="1" stop-color="#8D8D8D" stop-opacity="0.2"/>
</linearGradient>
<linearGradient id="paint19_linear_729_14804" x1="1224.62" y1="499.408" x2="1223.62" y2="499.408" gradientUnits="userSpaceOnUse">
<stop stop-color="#F3F3F3" stop-opacity="0.5"/>
<stop offset="1" stop-color="#8D8D8D" stop-opacity="0.2"/>
</linearGradient>
<clipPath id="clip0_729_14804">
<rect width="1440" height="975" fill="white"/>
</clipPath>
</defs>
</svg>
