<svg width="102" height="112" viewBox="0 0 102 112" fill="none" xmlns="http://www.w3.org/2000/svg">
<g opacity="0.3">
<path fill-rule="evenodd" clip-rule="evenodd" d="M23.3384 120.797C24.5256 120.581 24.953 121.959 25.0041 122.83C25.4827 122.617 25.9811 122.374 26.4139 122.095C27.1256 121.641 27.8943 120.856 28.7349 120.877L28.7733 120.663C28.8162 120.29 29.5782 120.539 29.7838 120.67C30.1133 120.609 30.4751 120.278 30.6959 119.976C29.8067 119.647 29.4168 119.634 29.5574 118.494C29.5576 118.318 29.6014 118.154 29.5529 117.997C30.6148 113.274 30.8223 108.548 30.9558 103.734L30.4104 103.625C28.6833 108.448 27.0421 113.509 25.5697 118.666C25.5331 118.897 25.4006 118.9 25.2717 118.775C24.8248 118.799 24.393 118.779 23.9378 118.714L23.944 118.693C23.8072 118.694 23.671 118.686 23.5456 118.678C23.4383 119.37 23.3142 120.083 23.3384 120.797ZM24.0546 118.165C24.0245 118.151 23.6816 118 23.6428 117.982L23.6345 118.067C23.7819 118.124 23.9303 118.18 24.0801 118.23L24.0939 118.183L24.0546 118.165ZM38.7052 128.495C39.284 128.634 39.8972 128.81 40.4662 128.976L40.2429 128.437C41.5264 125.023 42.5072 121.417 43.2209 117.893C43.7265 115.598 44.251 113.225 44.952 110.951C45.8371 107.38 47.7472 103.706 51.7833 103.4C51.7833 103.4 51.8513 103.284 51.8512 103.284L51.9307 103.21C52.1277 100.705 52.3942 98.2099 52.6524 95.8132C50.4923 96.4056 48.6323 96.2129 46.5677 96.1968C45.8988 96.1043 45.0084 96.2983 44.4747 95.9937C44.4747 95.9936 44.122 95.6361 44.122 95.6361C41.778 104.891 41.168 114.429 40.3309 123.8C40.3024 124.013 40.1403 124.085 39.9699 123.997C39.773 124.213 39.3632 124.13 39.0828 124.161C39.3182 125.566 39.0411 127.24 38.3578 128.41L38.7052 128.495ZM44.2066 127.705C45.6508 126.491 47.3619 125.889 49.1488 125.957C49.7759 125.029 50.6621 123.915 51.6576 123.496C52.1242 121.938 52.0669 120.23 51.9682 118.762C51.7376 117.263 52.2541 117.089 53.4774 117.198C52.9515 116.564 52.9985 116.411 53.1052 115.578C52.756 115.632 51.6992 116.322 51.5543 115.834C51.3789 114.885 51.2597 114.059 51.1899 113.311C51.1528 112.672 51.6057 112 51.5498 111.349C51.7162 109.677 51.5456 107.805 52.3168 106.264C49.192 106.681 48.4307 110.087 47.622 112.596C45.9582 117.764 44.7955 123.041 43.5571 128.251L44.2066 127.705ZM53.8322 115.874C53.9062 116.04 53.917 116.199 53.943 116.361C55.4128 116.091 55.1514 118.248 55.2887 119.428C55.565 119.336 55.7596 119.308 56.0486 119.365C56.0909 118.976 55.8374 118.803 56.7258 118.76C60.8665 118.837 62.441 123.162 63.8654 126.472C64.5267 128.063 65.4657 128.311 66.8614 128.283C67.7975 128.301 68.7549 128.555 69.7114 128.524C66.2338 121.679 64.9685 111.846 66.3807 103.318H66.3798C66.4657 102.778 66.5677 102.216 66.6731 101.672C63.6921 101.703 60.2242 101.775 57.3538 101.651C56.9754 101.998 56.5093 102.153 56.0337 102.156C56.0315 102.535 55.9908 102.951 55.9549 103.329C58.6377 103.262 61.6145 103.303 64.3321 103.343C61.6146 103.382 58.6238 103.43 55.9511 103.353C55.9556 104.076 55.8827 104.734 55.239 105.084C54.9931 106.913 55.3108 108.825 55.0887 110.953C54.9102 112.401 55.057 115.172 53.7338 115.632L53.8322 115.874ZM72.7208 127L72.8243 127.182C73.0433 127.107 73.1778 127.123 73.3912 127.289C74.9436 128.127 77.1748 127.349 78.8721 127.294C78.5494 126.235 78.5369 124.547 80.0072 124.525C79.5196 119.885 79.8481 115.282 79.7728 110.645C77.0955 110.136 77.1855 109.86 79.7859 109.384C79.8022 106.79 79.8218 104.166 79.8201 101.549C79.8205 100.289 79.8321 99.0602 79.9474 97.8418C79.7052 97.3417 79.7591 96.8292 79.6341 96.3009C79.1064 96.006 78.1922 96.3492 77.864 95.8407C76.4434 95.8197 74.9966 95.8065 73.5619 95.7303C73.4317 95.7343 73.3834 95.6135 73.3269 95.5255C73.0771 95.4599 72.6559 95.61 72.448 95.5036C72.448 95.5035 72.1674 95.142 72.1674 95.142C70.9988 97.5243 70.0922 100.332 69.5567 103.174C71.2451 103.193 73.1781 103.188 74.92 103.179C73.2238 103.304 71.393 103.38 69.517 103.406C68.0615 110.634 69.1039 120.776 72.7208 127ZM75.0564 130.429C78.5737 134.853 84.3177 136.328 89.0346 132.771C101.621 123.212 101.056 90.8102 84.5257 86.3282C84.9743 88.0222 86.5311 95.0533 83.717 95.2537L83.7257 95.231L83.5824 95.1519C82.9915 95.356 82.1602 95.0725 81.9667 95.8919C81.9591 95.8935 81.6489 95.9205 81.6307 95.9223C81.8318 96.9404 81.7734 97.9961 81.8335 99.0303C82.0711 98.9398 82.3669 98.8862 82.6244 98.9075C83.5947 98.8623 83.5703 97.8035 83.5325 97.067C83.4965 96.7066 83.6056 96.294 83.5876 95.9558C83.578 95.7209 83.5937 95.5377 83.6829 95.3433C83.9814 96.2963 84.2636 97.5459 84.0863 98.5161C83.8256 99.4221 82.6704 99.8547 81.8342 99.4109C81.8706 102.672 81.8809 105.908 81.899 109.141C82.4483 108.853 82.9494 109.035 83.5175 109.189C84.2344 109.34 85.0849 109.126 85.8037 109.299C85.8866 108.945 86.2213 108.511 86.5737 108.797C87.0222 108.801 87.2687 109.217 87.4913 110.125C87.6301 110.844 87.549 111.805 86.8643 112.151C86.4775 112.359 86.0904 112.211 85.8998 111.785C85.7916 111.828 85.6193 111.96 85.4963 111.918C84.3525 111.64 83.1192 111.36 81.9093 111.099C81.8462 115.665 82.049 120.199 81.6712 124.777C83.3976 124.923 86.6868 124.461 87.4387 125.978C88.1297 126.276 88.6261 126.96 88.6242 127.649C88.6468 128.765 87.4056 129.14 86.4357 129.153C82.5105 129.45 78.6225 129.979 74.6674 129.972L75.0564 130.429ZM67.9428 95.6137C65.4462 95.9541 62.939 95.9516 60.4371 96.0627C61.2535 101.599 60.1122 98.3823 57.5741 101.494C60.4742 101.491 63.976 101.456 66.7029 101.524C67.1268 99.4375 67.6988 97.4457 68.4099 95.5436L67.9428 95.6137ZM48.615 67.5216C47.5144 69.0566 46.068 70.3971 44.4452 71.3138C45.847 71.4171 47.2741 71.5116 48.656 71.705C48.8105 70.3758 48.9666 69.0461 49.1231 67.7173L48.615 67.5216ZM0.937103 125.613C1.06744 124.306 2.54837 123.824 3.6315 124.184C4.23952 122.571 6.31836 122.767 7.65608 122.056C10.3416 120.757 13.0899 118.217 16.1984 119.217C16.4769 118.452 16.789 117.718 17.1248 117.078C16.9934 117.144 16.8248 117.137 16.7062 117.019L16.7053 117.02C16.5897 116.888 16.4776 116.74 16.4626 116.577C16.0592 116.125 15.8902 115.41 15.7863 114.878C16.2787 113.196 16.8767 111.585 17.4093 109.921C19.4762 103.575 20.9304 97.6803 22.49 91.6122C24.2243 87.0998 24.6897 75.2597 30.9715 75.237C30.9919 74.9216 31.0028 74.5581 31.1033 74.2711C31.2829 74.517 31.3574 74.8801 31.3819 75.1922C34.0706 75.1495 36.3946 75.6484 38.1681 76.417C41.5644 76.2665 44.5409 76.4688 48.4479 76.9296C47.9746 76.1143 48.2908 75.1956 48.3355 74.2965C42.6708 74.5642 36.9133 74.0425 31.2753 73.7306C30.3656 73.6513 29.4001 73.7012 28.522 73.4729C27.5693 73.2506 26.6648 72.0593 27.6364 71.1523C28.2937 70.7447 29.1107 70.9655 29.8312 70.9294C33.4825 70.9292 37.219 71.0007 40.734 71.1294C36.4061 68.9308 34.2226 64.3393 31.6344 60.4231C30.3199 58.2836 29.3383 56.4834 28.5441 54.7555C28.4081 54.4681 28.37 54.1568 28.4517 53.9986C28.4822 53.8403 28.9729 53.8228 29.1057 53.7837C25.5065 48.1667 19.9787 50.6398 17.023 47.3852C17.5831 47.4105 18.1427 47.4367 18.7023 47.4635L18.8311 46.9273C17.7748 46.4522 16.7743 45.7145 15.681 44.6041C15.6815 44.6018 15.6824 44.5993 15.6835 44.5968C17.496 45.1629 19.1856 45.575 20.848 45.8567L21.0484 45.3448C19.5546 44.3734 18.2257 43.0523 17.205 41.5236C19.109 42.3638 20.9002 43.5573 22.8762 44.322L23.1735 43.857C22.047 42.7814 19.5221 41.169 20.2404 39.6633C23.0472 41.0121 25.6082 42.758 28.3116 44.282C28.314 43.0455 27.4429 41.1009 27.9717 40.0699C28.53 39.3821 28.7935 39.9673 29.0754 40.5176C29.0754 40.5176 30.2495 42.4882 30.5369 42.9704C31.6147 44.886 33.129 46.7794 33.0942 49.0441C34.0312 48.5947 34.768 50.2262 35.3768 51.1171C37.0881 54.021 42.8792 58.5797 44.1579 59.2008C49.3645 54.4898 48.5886 46.5121 54.1231 42.0626C55.8979 40.2543 57.2098 40.0449 59.3023 39.3803C59.7997 39.261 60.3623 38.84 60.8075 39.2439C61.4679 38.697 62.1107 36.9312 62.3832 36.1768C62.5518 35.447 62.8329 33.6507 63.2265 33.3139C63.6201 32.9771 70.0298 32.6964 70.5921 32.8648C71.1544 33.0332 70.9294 34.3804 70.9294 34.3804L71.5214 36.8232L71.5723 36.8089C71.5816 36.8125 71.6607 36.8735 71.6706 36.8804C72.092 36.8773 72.4969 36.6784 72.9015 36.6786C73.328 36.6876 73.6732 36.9781 74.0003 37.2269C74.5846 37.6679 75.1887 38.124 75.899 38.3993C84.1366 41.0268 85.225 44.9815 87.6896 52.5799C89.7177 52.6373 91.4253 52.3843 93.1906 52.286C93.8119 52.3649 93.6099 53.5699 93.591 54.2586C93.6496 55.9528 92.3812 55.7782 91.1232 55.763C90.2911 55.773 89.4538 55.8557 88.6307 55.7583C89.5172 59.8445 91.3004 66.2329 89.349 70.0454C87.7689 73.0325 86.428 73.5998 85.1493 73.687C84.8218 76.5465 85.1479 79.1073 85.0886 81.8726C103.94 86.9451 104.808 116.389 96.3814 130.725C89.6152 142.44 76.89 141.798 70.5826 130.139C69.0574 130.969 66.0332 130.912 64.0192 130.73C62.4344 130.637 61.9143 129.966 61.3482 128.497C60.7156 127.068 60.1143 125.658 59.4704 124.23C58.8558 122.719 57.6278 120.983 55.4119 121.051C55.4222 121.941 55.5877 122.944 54.9845 123.651C57.2322 124.414 55.8812 127.968 55.2281 129.629C58.3148 133.833 57.2748 141.202 52.957 144.251C45.8256 149.031 38.9419 139.991 41.0251 133.066C40.6837 133.227 40.0498 133.45 39.7771 133.098C39.666 133.016 39.8195 132.652 39.8468 132.534C35.064 132.253 30.3718 131.692 25.6294 131.247C25.7905 135.646 21.4216 139.981 17.0377 139.883C11.3169 140.148 7.8892 132.621 9.61971 127.747C7.43186 127.686 5.21123 127.503 2.93021 127.194C1.68295 127.07 0.88813 126.775 0.937103 125.613Z" fill="#151E22"/>
<path fill-rule="evenodd" clip-rule="evenodd" d="M71.133 34.6054C71.2686 34.6498 71.2534 34.3595 71.0639 34.3888C70.9068 34.4133 70.8485 34.6241 70.8199 34.7579L70.8154 34.7795C70.5527 36.008 70.8554 37.3057 71.4726 38.3839C71.6275 38.6361 71.7881 38.9822 72.0951 39.0497C71.9495 40.0887 71.7498 41.1193 71.5025 42.1387C70.6203 42.4475 69.7898 42.905 68.9093 43.2217C67.2148 43.8233 65.4015 43.9842 63.6185 44.1119C62.3919 44.1787 61.1301 44.1247 59.9649 43.7049C59.4721 43.5706 59.0544 43.131 58.5374 43.1324C58.8843 42.1865 59.2683 41.2546 59.6945 40.3397C61.0198 40.3393 62.0211 39.0552 62.4147 37.9141C62.5581 37.4594 62.5997 36.9828 62.6908 36.5169L62.7246 36.3429C62.7542 36.1879 62.7812 36.0319 62.7931 35.8747C62.797 35.8163 62.7104 35.3038 62.7307 35.2308C62.7329 35.2521 62.7606 35.2352 62.7734 35.2341C62.8083 35.191 62.7779 35.1045 62.7087 35.1078C62.5969 35.1045 62.5412 35.3476 62.5159 35.4138C61.9783 36.5155 61.7734 37.8696 60.8138 38.6968C60.3346 38.3949 59.7446 38.7902 59.2576 38.9114L59.1166 38.9559C56.8397 39.6722 55.7859 39.8458 53.9573 41.6651C50.8334 44.0985 49.9128 47.2042 48.6832 50.7819L48.6106 50.9763C47.4285 54.1261 46.4741 56.0799 44.1216 58.6603C43.2679 58.2626 37.9641 54.0271 36.1433 51.5387L36.0892 51.4639C35.5648 50.7506 34.371 48.2544 33.3937 48.4915C33.3059 46.2969 31.8441 44.4802 30.813 42.6317L29.3494 40.1752C29.2083 39.9382 29.0734 39.6116 28.8732 39.419C28.533 39.0918 27.9679 39.3927 27.7644 39.7244C27.2044 40.6664 27.9092 42.4669 28.013 43.5674C25.5036 42.1162 23.0609 40.5288 20.4675 39.2288C20.2493 39.1238 19.9772 39.2041 19.9079 39.4561C19.4697 41.2656 21.8595 42.7801 23.0134 43.8626C21.1256 43.1052 19.3549 42.027 17.5279 41.1243L17.406 41.0644C17.158 40.9358 16.8223 41.2092 16.9978 41.4719C18.0318 43.0229 19.3682 44.3674 20.9274 45.3812C19.1878 45.0864 17.4762 44.6542 15.7867 44.126C15.5117 44.0401 15.3155 44.4044 15.5106 44.5997L15.6026 44.6926C16.5263 45.6184 17.5455 46.4436 18.7481 46.9844C18.1864 46.9574 17.6246 46.931 17.0624 46.9057C16.7835 46.8934 16.6908 47.2347 16.8493 47.4194C17.474 48.1452 18.3146 48.6162 19.2118 48.9257C22.9663 49.9338 26.1183 49.8474 28.6511 53.3871C28.0173 53.501 28.1098 54.2072 28.3098 54.6498L28.3222 54.6765C29.2266 56.6442 30.2969 58.5317 31.4302 60.376C33.8575 63.9766 35.8512 68.304 39.6933 70.6132C37.2125 70.5289 34.7305 70.4803 32.2479 70.46C31.5601 70.4542 30.8723 70.4509 30.1846 70.4501L29.6688 70.4499C28.9868 70.4499 28.0866 70.3068 27.4985 70.73C26.3685 71.6376 27.2501 73.3107 28.5016 73.5497C29.29 73.7612 30.1419 73.7293 30.9508 73.7911C30.7966 74.0884 30.7586 74.4548 30.7388 74.7734C27.8969 74.9503 26.238 77.1768 25.4631 79.7223C23.9092 84.5966 22.719 89.5797 21.4306 94.529L21.2846 95.103C20.0413 99.9817 18.7341 104.846 17.1743 109.635C16.6436 111.293 16.0374 112.929 15.5488 114.6C15.5053 114.749 15.5375 114.885 15.612 114.993C15.7042 115.645 16.1215 116.741 16.824 116.914C16.5359 117.479 16.2768 118.092 16.0566 118.681C12.8876 117.839 10.2263 120.325 7.56252 121.606C6.22109 122.307 4.26534 122.111 3.5109 123.658C2.29457 123.354 0.81279 124.03 0.689491 125.389C0.5821 126.787 1.77358 127.192 2.94246 127.275C5.04452 127.561 7.15877 127.748 9.2791 127.817C8.08155 131.849 10.0664 137.719 14.1594 139.377C19.5433 141.646 25.7976 137.002 25.9354 131.356C30.4571 131.784 34.9794 132.317 39.5111 132.594C39.3236 133.238 40.1791 133.506 40.6705 133.317C39.4727 138.75 43.0094 145.647 48.8972 145.625C56.4842 145.574 59.5509 135.033 55.5771 129.392L55.615 129.294C56.2472 127.662 57.4363 124.305 55.4275 123.338C55.8515 122.691 55.7452 121.877 55.7311 121.146C57.5921 121.23 58.5538 122.566 59.2452 124.144C59.8826 125.556 60.4899 126.982 61.1182 128.399C61.71 129.934 62.294 130.709 64.0351 130.811L64.2135 130.824C66.1565 130.965 68.7392 131.081 70.4926 130.302C74.6537 137.904 83.3846 142.413 90.9415 136.963C106.454 126.27 105.883 86.1965 85.3998 81.4501C85.3915 80.6862 85.3805 79.9227 85.3672 79.1587C85.411 78.672 85.4015 78.1864 85.3576 77.693L85.3481 77.4912C85.2919 76.2459 85.2788 74.9873 85.4326 73.7495C87.9181 73.548 89.4236 70.3717 89.6743 69.891C91.5905 66.2177 89.8181 59.4207 89.0207 55.8694C89.7942 55.9308 90.5013 55.8367 91.2574 55.8455L91.5197 55.8499C92.925 55.8718 93.8689 55.8129 93.9045 54.0624C93.9027 53.3516 94.2192 52.0338 93.2832 51.813C92.8604 51.7283 92.3611 51.8782 91.9377 51.9198C90.6011 52.0279 89.2628 52.1099 87.9221 52.1016C86.7589 48.7722 85.8484 45.2095 83.6332 42.3908C81.7515 40.006 78.7417 39.0669 76.0359 37.9399C75.3016 37.6559 74.6815 37.164 74.0489 36.6885L74.0052 36.6547C73.6911 36.4136 73.3495 36.2101 72.9414 36.1992C72.5448 36.1886 72.1758 36.3682 71.7876 36.3944C71.7193 36.3435 71.6301 36.3116 71.5528 36.3332C71.3461 35.762 71.1932 35.1685 71.1179 34.5667L71.1243 34.539C71.1359 34.4932 71.1404 34.5048 71.137 34.5745C71.1189 34.5745 71.1162 34.5999 71.133 34.6054ZM48.8973 126.596C49.7519 126.596 50.5722 126.777 51.3352 127.108C51.5124 128.091 50.7029 129.47 50.4309 130.46C50.4199 130.869 50.3455 131.286 50.2497 131.69C50.1818 132.871 49.6818 133.953 49.4498 135.07C49.4068 135.282 49.0815 135.192 49.1246 134.981C49.3279 133.979 49.5996 132.993 49.8335 131.998C49.7237 132.065 49.5376 131.975 49.578 131.812C49.6647 131.46 49.6646 131.104 49.6507 130.747C43.864 131.477 44.2024 141.086 50.1059 141.219C53.937 141.315 56.072 136.068 53.9064 132.927C54.2619 132.163 54.647 131.413 55.0112 130.648C58.1134 135.832 54.8646 144.665 48.8973 144.503C39.2743 144.231 39.27 126.87 48.8973 126.596ZM14.1541 127.726C13.0119 129.853 13.1338 132.711 14.5825 134.672C16.2211 136.9 19.7972 136.639 21.4027 134.5C22.0373 133.738 22.5262 132.804 22.5548 131.796C22.557 131.574 22.413 131.18 22.6071 131.005L23.8478 131.138C24.4682 131.204 25.0887 131.27 25.709 131.333C23.9112 136.133 19.4928 140.479 14.0983 138.075C10.7551 136.233 9.51642 131.833 10.0041 128.243C10.0316 128.071 9.96921 127.93 9.868 127.835C11.2967 127.868 12.7314 127.875 14.1541 127.726ZM72.7591 91.3026C82.2943 76.2382 94.8547 85.9914 98.0699 99.8177C100.484 109.338 99.6275 120.96 94.5861 129.387C88.6656 139.422 78.6738 139.41 72.7593 129.387C68.283 121.906 67.1056 111.903 68.5879 103.092C68.5874 103.171 68.6151 103.25 68.6722 103.313C66.9299 113.891 68.8904 126.979 77.2876 133.406C83.4865 137.976 90.7348 134.239 94.2147 127.979C100.95 116.628 100.431 95.8152 89.383 87.2833C86.2292 85.0378 82.5253 84.6114 79.1094 86.2167C79.0745 86.0047 78.943 86.2385 78.8918 86.3223C73.0147 89.4392 70.1098 96.1337 68.7667 102.797C68.6856 102.842 68.6315 102.911 68.6056 102.987C68.7895 101.911 69.0132 100.852 69.2755 99.8177C70.0969 96.6203 71.2693 93.7557 72.7591 91.3026ZM51.1566 135.639C51.665 135.315 51.4231 136.288 51.2464 136.468C51.1194 136.647 50.8676 136.496 50.9551 136.298C51.0636 136.14 50.8706 135.658 51.1566 135.639ZM84.952 86.5313C99.2164 90.5341 100.15 116.842 93.2497 127.402C90.073 133.091 83.6193 136.672 77.9367 132.49C77.0056 131.832 76.1256 131.016 75.3031 130.048C78.9565 130.018 82.6028 129.529 86.2485 129.254L86.3312 129.247C86.8833 129.199 87.4496 129.173 87.9583 128.935C89.5003 128.18 89.0801 126.244 87.6789 125.568C86.9114 124.057 83.5222 124.394 82.0063 124.313C82.3466 119.97 82.1696 115.601 82.2188 111.248C83.3029 111.483 84.3835 111.73 85.4625 111.991C85.5907 112.023 85.7206 112.004 85.8302 111.95C86.0935 112.365 86.6099 112.412 87.0239 112.202C87.8611 111.779 87.9567 110.679 87.7987 109.867L87.7821 109.797C87.6441 109.223 87.3682 108.367 86.695 108.323C86.2704 108.059 85.8086 108.371 85.6537 108.785C84.9429 108.667 84.2984 108.854 83.6054 108.715C83.146 108.622 82.6827 108.387 82.2104 108.549C82.194 105.567 82.1837 102.585 82.1519 99.6035C83.0428 99.9016 84.13 99.2853 84.3886 98.3954C84.5634 97.8032 84.4088 97.124 84.3267 96.5295L84.3112 96.4182C84.2585 96.0455 84.1926 95.6558 84.0658 95.2945C86.072 95.0178 85.6616 90.8187 85.5092 89.3352C85.3224 88.3622 85.2059 87.5171 84.952 86.5313ZM51.8247 103.461C52.7157 103.453 53.3523 104.416 52.838 105.183C51.8029 106.351 50.3069 105.298 48.7029 108.445C46.0416 114.743 44.8138 121.555 43.1576 128.164C42.3247 129.029 41.8187 130.129 41.2071 131.156C40.9814 131.542 40.9125 132.087 40.5026 132.332C40.4233 132.369 40.3598 132.375 40.2974 132.366C41.1478 131.895 40.9697 129.569 40.7944 128.724L40.802 128.724C40.8792 128.729 41.1617 128.791 41.0322 128.657L40.8945 128.613L40.7567 128.569L40.7472 128.535C43.1401 122.986 43.6602 116.791 45.3751 111.012L45.528 110.499C46.1205 108.524 46.8045 106.458 48.3037 104.992C48.3609 104.988 48.4193 104.967 48.473 104.922L48.5269 104.875C49.4118 104.111 50.4993 103.493 51.7101 103.605C51.7584 103.608 51.7663 103.534 51.7213 103.522C51.693 103.515 51.6645 103.509 51.636 103.503C51.6992 103.49 51.7621 103.476 51.8247 103.461ZM56.0808 119.144C56.336 119.245 56.5958 119.174 56.8842 119.181C57.1862 119.188 57.4797 119.238 57.7697 119.321C62.5358 120.698 61.8331 127.852 65.3035 128.682C66.1709 128.85 67.0441 128.721 67.914 128.604C68.469 128.624 68.979 128.607 69.5103 128.492C69.7599 128.993 70.0214 129.481 70.2935 129.959C69.6611 129.86 69.0169 129.885 68.3778 129.874C66.8749 129.898 65.3721 129.836 63.8798 129.649C63.3485 129.589 62.8582 129.441 62.5438 128.981C61.8342 127.783 61.3486 126.452 60.7103 125.214L60.6264 125.024C59.713 122.972 58.5046 120.51 55.9346 120.504C55.92 120.356 55.8041 120.237 55.6726 120.2C55.658 119.987 55.6433 119.773 55.6276 119.56C55.7761 119.417 55.8855 119.234 56.0808 119.144ZM87.8025 126.127C88.0807 126.594 88.0519 127.414 87.5534 127.738C87.2155 127.93 86.7336 127.908 86.3592 127.935L85.7142 127.983C85.4992 127.998 85.2843 128.014 85.0694 128.031L84.7472 128.057C81.6728 128.302 78.6015 128.569 75.5312 128.848L75.5173 128.843C75.4746 128.827 75.4075 128.806 75.4075 128.806L75.3598 128.784C75.2916 128.751 75.3742 128.781 75.3823 128.785L75.3828 128.785C75.0404 128.565 74.6715 128.817 74.5906 129.151C74.2836 128.74 73.9861 128.307 73.6983 127.852C74.1029 127.97 74.5326 127.988 74.951 127.961C75.2386 128.288 75.7552 128.168 76.1396 128.16C78.8557 127.944 81.5645 127.631 84.2721 127.327C84.9597 127.247 85.6479 127.166 86.3356 127.085L86.4908 127.071C87.0988 127.014 87.83 126.897 87.8025 126.127ZM28.6769 120.81C28.962 121.12 29.508 121.204 29.8717 121.385C30.2917 121.594 30.6926 121.848 31.0525 122.149C32.6823 123.657 34.3412 126.056 36.8927 124.996C37.4287 124.789 37.9284 124.459 38.2635 123.986C38.4126 124.06 38.5854 123.919 38.7365 123.9C38.6058 124.603 38.5508 125.271 38.3523 125.958C38.2663 126.259 38.169 126.557 38.0492 126.846C37.9259 127.142 37.7035 127.442 37.7119 127.773C35.7788 127.361 33.8245 127.096 31.8649 126.856C31.1292 126.829 29.8865 126.434 29.2774 126.809C28.5558 127.258 28.8795 128.088 28.4948 128.396C27.9074 128.683 27.1486 128.467 26.5128 128.45C23.7432 128.214 20.948 128.059 18.183 127.827C16.5223 127.523 17.6088 127.014 16.8937 126.607C16.8964 124.057 19.9657 124.325 21.7662 124.1C22.3091 124.317 22.858 124.516 23.4135 124.698C23.6876 124.788 23.8768 124.422 23.6871 124.229L23.3012 123.838C23.5645 123.778 23.8261 123.712 24.0849 123.635C24.4492 123.8 24.8321 123.923 25.1889 124.106L25.2555 124.14C25.4989 124.272 25.7858 124.005 25.6401 123.756C25.5273 123.564 25.4379 123.367 25.3683 123.162C25.7091 123.008 26.04 122.832 26.3547 122.632L26.4174 122.591L27.4397 123.161C27.6398 123.273 27.9409 123.085 27.8527 122.845C27.7479 122.513 27.4382 122.373 27.2027 122.151C27.2291 122.094 27.2446 122.019 27.2319 121.961C27.692 121.559 28.0936 121.045 28.6769 120.81ZM15.0529 128.495L15.0859 128.5C15.0837 128.504 15.082 128.508 15.0797 128.511L15.0655 128.509L15.0791 128.512C15.07 128.525 15.0575 128.536 15.0415 128.539C15.0448 128.53 15.0476 128.52 15.0499 128.51L15.0529 128.495ZM52.3617 95.9844L52.2795 96.7518C52.0612 98.7969 51.8535 100.832 51.691 102.88C51.6694 102.9 51.6518 102.923 51.6371 102.949L51.1533 103.036C50.3089 103.19 49.6093 103.349 48.8436 103.929C46.2925 105.291 45.4377 108.292 44.6554 110.867C42.9404 116.512 42.3503 122.474 40.032 127.933C39.9639 128.091 39.9679 128.232 40.0151 128.346C39.6137 128.23 39.21 128.123 38.804 128.023C39.3495 126.974 39.585 125.404 39.433 124.231L39.4924 124.229C39.6818 124.224 39.9106 124.224 40.0619 124.107C40.3605 124.191 40.6135 123.906 40.6419 123.636L40.643 123.624C41.4692 114.375 42.069 105.033 44.3063 95.9917C44.5973 96.2867 45.1228 96.2189 45.514 96.236L45.5348 96.237C45.8873 96.2539 46.2404 96.2673 46.5935 96.2786L46.7467 96.2806C48.6119 96.3074 50.5332 96.442 52.3617 95.9844ZM66.0827 103.403C64.7942 111.496 65.9339 121.211 69.2876 128.035C68.4766 128.018 67.6876 127.801 66.8783 127.804C65.4381 127.827 64.7354 127.533 64.1563 126.163C62.7653 122.996 61.3758 118.928 57.4526 118.327L57.2689 118.309C56.721 118.258 55.7999 118.202 55.7996 118.851C55.7286 118.843 55.6474 118.85 55.5747 118.87C55.5629 118.718 55.5511 118.567 55.5387 118.416L55.5284 118.117C55.4942 117.174 55.3931 115.868 54.2163 115.879C54.2005 115.775 54.1662 115.672 54.1246 115.57C55.3095 114.986 55.268 111.987 55.4009 110.778C55.5093 109.06 55.5008 107.335 55.4617 105.614C55.4572 105.443 55.4246 105.216 55.4909 105.076C56.1019 104.677 56.2358 104.155 56.2561 103.442C59.5275 103.524 62.809 103.436 66.0827 103.403ZM51.8604 106.474C51.5747 107.118 51.5551 107.861 51.4725 108.555C51.4039 109.381 51.3555 110.207 51.3072 111.034L51.2965 111.223C51.2799 111.512 51.2562 111.792 51.1509 112.068L51.1265 112.133C51.0026 112.464 50.9079 112.772 50.9423 113.138C51.0221 113.994 51.157 114.859 51.3133 115.703C51.5319 116.419 52.3459 115.963 52.809 115.796L52.804 115.844C52.773 116.153 52.7741 116.462 52.9467 116.7C51.6682 116.659 51.577 117.578 51.7221 118.603L51.7306 118.738C51.8197 120.182 51.8494 121.696 51.4556 123.093C50.7912 123.379 50.3088 123.917 49.8464 124.45C49.5743 124.766 49.2341 125.102 49.0199 125.475C47.2162 125.443 45.4966 126.083 44.058 127.291L44.228 126.571C45.3407 121.847 46.4302 117.111 47.9201 112.489C48.6741 110.302 49.2622 107.11 51.8604 106.474ZM79.5699 102.773C79.566 104.829 79.5514 106.885 79.5384 108.941C78.9205 109.028 78.324 109.206 77.7488 109.463C77.3839 109.626 77.5514 110.12 77.8494 110.233C78.3926 110.438 78.9604 110.557 79.5278 110.675C79.5862 115.144 79.2896 119.636 79.733 124.089C78.3998 124.288 78.3028 125.79 78.5551 126.844C77.0789 126.974 75.5908 127.346 74.1105 127.086C73.6743 127.062 73.3966 126.571 72.9971 126.663C69.5099 120.552 68.3721 111.032 69.7833 103.485C73.0519 103.432 76.3326 103.231 79.5699 102.773ZM80.4642 110.872C80.7735 110.938 81.0821 111.003 81.3914 111.069C81.4372 115.486 81.2509 119.922 81.6 124.328C81.4693 124.321 81.4965 124.407 81.6079 124.415C81.6146 124.49 81.6219 124.565 81.6292 124.641C81.65 124.864 81.9559 124.864 81.9767 124.641C81.9812 124.595 81.9851 124.55 81.9891 124.505C82.5783 124.634 83.1766 124.725 83.7704 124.825C84.6452 125.041 86.7476 124.9 86.9049 126.037L86.2246 126.096C83.9292 126.297 81.9126 126.485 79.6366 126.726C79.523 126.027 78.9819 124.996 79.8351 124.552C79.9582 124.669 80.1955 124.617 80.2158 124.395C80.6862 119.906 80.3988 115.379 80.4642 110.872ZM12.8268 119.97C15.5457 118.884 16.9595 120.15 19.1378 121.54C20.2629 122.176 21.7977 122.452 22.9302 121.713C23.4503 121.743 23.6934 121.172 23.6504 120.717C23.651 120.686 23.6516 120.655 23.6516 120.624C24.285 121.005 23.8928 122.062 24.0277 122.686C22.7352 123.092 21.39 123.191 20.0475 123.288C18.308 123.326 16.2102 124.18 16.006 126.121L16.0004 126.18L15.8671 126.176C15.8671 125.98 15.7431 125.778 15.4968 125.758L15.4809 125.757C11.8871 125.531 8.25563 125.543 4.67989 125.178C4.25027 125.056 4.09683 124.774 4.2121 124.354C4.48923 123.343 5.90843 123.293 6.74451 123.058C7.75173 122.775 8.6559 122.278 9.54258 121.746C9.92059 121.851 10.3027 121.94 10.6881 122.015C10.8751 122.051 11.1199 121.886 11.034 121.67L10.9715 121.512C10.9085 121.354 10.8313 121.175 10.7332 121.023C11.022 120.851 11.313 120.683 11.6092 120.526C12.1111 120.704 12.5866 120.936 13.0381 121.223C13.311 121.397 13.5899 121.014 13.386 120.79L13.3788 120.783C13.1432 120.541 12.9603 120.269 12.8268 119.97ZM30.8823 120.302C33.3057 121.485 35.8766 122.367 38.3554 123.436L38.3054 123.455C38.2186 123.487 38.1196 123.532 38.0876 123.61C37.1553 124.348 35.8443 124.648 34.7376 124.124C33.1413 123.269 32.3493 121.427 30.7164 120.595C30.7833 120.502 30.8396 120.404 30.8823 120.302ZM53.9203 117.038C54.0002 117.024 54.2357 116.921 54.2987 116.948C54.4594 117.349 54.4643 117.823 54.5085 118.251C54.658 119.919 54.9652 121.569 55.1354 123.232C54.2934 123.001 53.4277 122.863 52.5613 122.844C52.6318 122.329 52.6888 121.816 52.7188 121.297C52.7744 120.288 52.7336 119.27 52.5821 118.27L52.5717 118.216C52.4077 117.346 52.5381 117.307 53.3592 117C53.5357 117.06 53.7325 117.07 53.9203 117.038ZM35.4209 77.6856C36.8241 76.347 38.9162 76.5096 40.7168 76.5023C44.5559 76.5015 48.3866 76.8503 52.1728 77.4689C52.28 77.6572 52.5811 77.6997 52.7266 77.5599C53.769 77.7339 54.8081 77.9248 55.8449 78.1285C55.5581 79.9394 55.3293 81.7604 55.0735 83.5759L55.057 83.6878C54.9443 84.4756 54.8889 85.3575 55.4255 86.0076C55.4406 88.0192 55.5174 90.0379 55.525 92.0523C55.2296 91.7714 54.7529 91.8036 54.3729 91.734C53.5945 91.5554 52.8535 91.4263 52.0643 91.3826C51.2698 91.2613 50.4753 91.1401 49.6803 91.0194C49.5577 91.0002 49.4593 91.0531 49.3981 91.1322C48.3809 91.0125 47.368 90.8082 46.3469 90.7421L46.4074 90.561C46.7092 89.65 46.985 88.6615 46.5511 87.756C46.4481 87.5438 46.1115 87.5562 46.0049 87.756C45.6308 88.4567 45.6148 89.2555 45.4711 90.0214C45.3886 90.4607 45.2179 90.9278 45.1384 91.391C44.7166 92.0878 44.506 92.9048 44.2314 93.6684C41.231 103.124 40.87 113.136 39.7402 122.925C37.9876 122.199 36.2131 121.519 34.4543 120.809C33.1907 120.192 30.3236 119.708 30.4648 117.927C30.4582 117.78 30.4668 117.636 30.4835 117.491C30.4491 117.434 30.4008 117.387 30.3443 117.35C30.9246 115.071 31.1703 112.717 31.3187 110.374C31.7044 103.935 31.895 97.484 32.0917 91.0367L32.1009 90.7637C32.2495 86.2919 32.2973 81.2069 35.4209 77.6856ZM30.7075 103.52C30.4776 107.817 30.5794 112.173 29.5512 116.38L29.5197 116.507C29.4203 116.911 29.1561 117.479 29.3239 117.901C29.33 118.417 29.148 119.221 29.592 119.586C29.7817 119.724 30.026 119.81 30.2549 119.897C30.1438 120.026 29.9884 120.115 29.8351 120.168L29.8094 120.156C29.3837 119.956 28.6359 119.821 28.529 120.415C27.7238 120.478 26.9451 121.248 26.2957 121.659C25.9634 121.87 25.6193 122.055 25.2656 122.217C25.1534 121.364 24.6534 120.283 23.652 120.31C23.652 119.794 23.74 119.284 23.8173 118.775C24.2829 118.85 24.7479 118.881 25.2186 118.86C25.5311 119.086 25.8405 118.838 25.8812 118.5C27.3242 113.487 28.937 108.454 30.7075 103.52ZM17.618 116.574C19.5401 117.177 21.6499 117.19 23.4953 118.02C22.9414 118.813 22.7282 119.772 22.5929 120.714C22.4664 120.812 22.3815 120.969 22.3747 121.137C22.3713 121.197 22.3768 121.256 22.3944 121.313C20.3411 121.742 18.8351 120.004 17.1834 119.125C17.4086 118.303 17.5167 117.424 17.618 116.574ZM22.5869 120.79L22.5863 120.802C22.5892 120.897 22.5144 120.867 22.5869 120.79ZM23.917 118.198C23.9484 118.212 23.9795 118.227 24.0108 118.241C23.9784 118.236 23.9459 118.231 23.9136 118.226C23.9147 118.216 23.916 118.207 23.917 118.198ZM28.6921 76.5776C30.9331 75.0641 35.4027 75.7712 38.0582 75.9494C32.8119 76.3464 31.9436 83.542 31.527 87.6834C31.1919 92.1321 31.0674 96.5965 30.8224 101.051C28.7332 106.624 27.0378 112.339 25.2511 118.014C23.7999 117.201 22.2132 116.685 20.5703 116.417L20.3334 116.383C18.9573 116.182 17.5583 115.93 16.4248 115.073C20.4833 105.176 22.1821 94.4925 25.2678 84.2798C26.174 81.7243 26.4732 78.3714 28.6921 76.5776ZM16.702 116.166C16.7791 116.212 16.8584 116.255 16.9392 116.295C16.8966 116.286 16.8513 116.284 16.8057 116.291C16.7705 116.251 16.7328 116.205 16.702 116.166ZM53.5519 94.792C53.9224 94.1724 54.7412 93.6109 55.4675 93.88C54.3735 94.5471 54.6112 96.4754 54.5307 97.6033L54.5325 97.6669C54.5593 98.731 54.4688 100.977 55.0549 101.736C55.0139 102.225 55.0132 102.732 54.9632 103.225C54.948 103.405 54.9835 103.742 54.8772 103.901C53.7041 104.557 54.273 106.132 54.203 107.224C54.2562 109.316 54.1097 111.404 54.0489 113.493C54.0528 114.034 54.1054 114.61 53.9253 115.127C53.6948 114.635 53.0381 114.668 52.8952 115.166C52.7802 115.015 52.5489 115.003 52.351 115.03C52.2813 114.367 52.1739 113.705 52.1508 113.042C52.1396 112.711 52.3341 112.44 52.4056 112.124C52.5492 110.927 52.3857 109.704 52.3712 108.5L52.3677 108.464C52.3216 107.966 52.2856 106.734 52.0041 106.432C53.8259 106.105 54.4023 103.815 52.6242 102.969C52.6486 102.857 52.6252 102.739 52.5483 102.654C52.6997 100.842 52.8955 99.0321 53.0673 97.221C53.141 96.4053 53.1381 95.524 53.5519 94.792ZM86.5907 110.233C86.453 110.047 86.7501 109.846 86.871 110.044C86.9958 110.255 87.0684 110.513 87.0176 110.755C86.9894 110.89 86.7686 110.928 86.7093 110.796C86.6582 110.687 86.6402 110.571 86.6148 110.455C86.5467 110.403 86.5459 110.303 86.5907 110.233ZM85.5536 109.139C85.548 109.171 85.5429 109.203 85.5384 109.236C85.4878 109.217 85.4356 109.202 85.3816 109.189C85.4389 109.173 85.4963 109.156 85.5536 109.139ZM81.1354 95.8002C81.2737 95.8866 81.4373 95.9411 81.6088 95.9664C81.2959 100.247 81.4732 104.558 81.398 108.85C81.0896 108.921 80.7679 108.862 80.455 108.886C80.3785 105.14 80.5217 101.398 80.2813 97.6548C80.4912 97.1192 80.6253 96.4689 80.4697 95.8984C80.6946 95.8765 80.9172 95.8445 81.1354 95.8002ZM57.482 101.737C60.2559 101.846 63.0487 101.798 65.8265 101.764C66.0019 101.759 66.1824 101.757 66.3651 101.756C66.2937 102.131 66.2268 102.508 66.165 102.887C62.8769 102.849 59.5817 102.772 56.2957 102.842L56.3096 102.689C56.3234 102.534 56.3359 102.376 56.3401 102.218C56.7483 102.187 57.1475 102.013 57.482 101.737ZM72.2578 95.4767C72.4597 95.7369 72.9021 95.5699 73.1951 95.5946C73.2699 95.7142 73.3981 95.8022 73.5791 95.8118C74.973 95.8859 76.3696 95.9005 77.7657 95.9207C78.173 96.3922 78.8968 96.1202 79.421 96.3114C79.4852 96.6375 79.4886 96.9759 79.5627 97.3033C79.5942 97.437 79.6408 97.5633 79.6931 97.6873C79.5795 98.9262 79.5711 100.182 79.5711 101.424C78.8812 101.223 78.1349 101.257 77.4222 101.211C75.8766 101.172 74.3306 101.188 72.7847 101.185C72.1017 101.172 71.3295 101.213 70.6633 101.205C70.4927 101.143 70.2513 101.241 70.2163 101.438C70.0885 101.939 70.657 101.976 70.9967 101.951C71.4066 101.942 71.8164 101.933 72.2258 101.925C73.9025 101.883 75.5795 101.853 77.2546 101.777C78.0229 101.714 78.8299 101.735 79.5711 101.504L79.5707 102.44C79.5706 102.533 79.5703 102.619 79.57 102.691C76.3575 102.678 73.1433 102.727 69.9301 102.698C70.4228 100.199 71.2291 97.6493 72.2578 95.4767ZM30.769 102.178C30.782 102.343 30.7236 102.481 30.6464 102.622C30.6876 102.474 30.729 102.327 30.769 102.178ZM68.0169 95.6925C67.4007 97.3889 66.8964 99.1795 66.5079 101.039C63.7421 100.979 60.9812 101.009 58.2157 101.013C59.2347 99.8178 60.316 100.146 60.8235 99.3862C61.1911 98.7969 60.8841 96.8666 60.788 96.1315C62.9412 96.0402 65.1043 96.0295 67.2478 95.7856C67.4907 95.7537 67.7549 95.7317 68.0169 95.6925ZM83.2427 95.0467C83.2939 95.0894 83.3495 95.1276 83.4086 95.1601C83.2606 95.5481 83.4122 95.9388 83.2815 96.3341C83.276 96.8008 83.2998 97.2707 83.2764 97.7143C83.2783 98.1367 83.0155 98.4016 82.6366 98.4288C82.4994 98.4367 82.3178 98.4047 82.1305 98.4603C82.0933 97.6336 82.1257 96.7936 81.99 95.9763C82.0767 95.9686 82.162 95.9539 82.2437 95.933C82.2562 95.5439 82.6369 95.1689 83.0275 95.3678C83.1056 95.264 83.1767 95.1546 83.2427 95.0467ZM58.0634 94.7527C58.1812 94.7667 58.2954 94.7929 58.4052 94.8377C58.3795 95.8929 56.8537 95.1519 56.645 96.4468C56.6103 96.7519 56.648 97.0586 56.6581 97.3644C56.663 97.5207 56.7861 97.7663 56.6155 97.8578C56.5277 97.9851 56.2872 97.9602 56.3085 97.7771C56.3124 97.7434 56.3151 97.709 56.3174 97.6745C56.2423 97.5416 56.1966 97.4021 56.1721 97.2582C56.0815 97.2114 56.1086 97.0914 56.1488 97.0068C56.1723 96.8234 56.0957 96.5004 56.2966 96.4028C56.3172 95.185 56.7699 94.9916 57.9021 94.8926C57.979 94.8845 58.0278 94.9225 58.0497 94.9753C58.0796 94.9101 58.0787 94.8319 58.0634 94.7527ZM59.0668 78.728C59.8771 78.9857 60.782 79.0394 61.6234 79.2001C67.0574 79.9599 72.2785 82.1984 77.8198 82.1382C78.0093 82.1293 78.1869 82.1012 78.3534 82.0557C78.3528 82.1422 78.341 82.2309 78.3224 82.3168C78.2184 82.4055 78.1538 82.5452 78.1335 82.6867C73.9742 84.7925 70.8345 89.0719 68.8653 93.5769C66.4254 93.2452 63.9876 92.8689 61.5424 92.5642L61.0987 92.5068L60.211 92.393C59.7786 92.3384 59.2969 92.2014 58.8672 92.2931C58.6712 90.3343 58.6707 88.4241 58.5231 86.4533C58.9549 86.1081 58.8532 85.3711 58.8705 84.8619C58.9691 82.8182 58.9777 80.7713 59.0668 78.728ZM56.2629 86.5634C56.4102 86.6022 56.562 86.6162 56.7043 86.5954C57.084 86.7806 57.6461 86.6847 58.0666 86.6415C58.0177 87.0962 57.9756 87.552 57.9576 88.0089C57.8867 89.7906 57.9148 91.6094 58.0751 93.39C57.499 93.4305 56.9228 93.501 56.3478 93.5477C56.3424 91.2239 56.234 88.8902 56.2629 86.5634ZM78.2136 88.0108C77.7554 89.9182 75.6787 92.8364 73.5913 93.0108C74.862 90.9574 76.3227 89.339 77.937 88.2C78.0292 88.1349 78.1208 88.0726 78.2136 88.0108ZM59.5693 73.6111C59.6356 73.6128 59.702 73.6134 59.7683 73.6122C59.3689 74.192 59.44 75.0951 59.9229 75.6056C58.2374 76.6487 58.2904 78.9821 58.2339 80.733C58.1668 82.4272 58.0766 84.1177 58.0056 85.8098C58.0056 85.779 57.9044 85.8222 57.8684 85.8284C57.6403 85.858 57.4094 85.8681 57.1791 85.8581C56.8312 85.7197 56.3726 85.7169 56.1327 85.3815C55.8482 85.0009 55.9135 84.4317 55.9624 83.9911C56.081 82.9245 56.2413 81.8618 56.3761 80.7974C56.7478 78.5234 56.7011 74.0996 59.5693 73.6111ZM60.1974 75.8504C61.551 76.6988 63.3318 76.3683 64.8608 76.4622C65.978 76.4785 67.0957 76.4836 68.2135 76.4796C71.9781 76.4583 75.7405 76.3084 79.502 76.1535L79.4936 76.3096C79.4244 77.5582 79.2964 78.808 78.9323 80.0077C78.7255 80.8295 78.4166 81.1341 77.5509 81.0614C72.9251 80.9929 68.5362 79.3452 64.0275 78.5172C62.4157 78.2491 60.7774 78.0203 59.1595 77.8302L59.1773 77.7295C59.3069 77.0111 59.5163 76.1993 60.1974 75.8504ZM59.2134 39.595C59.1493 39.7153 59.1123 39.8236 59.1408 39.9357C53.7228 51.5239 55.1536 64.7048 52.2931 76.9264C52.237 76.9595 52.2051 77.0118 52.1756 77.0667C51.2507 76.8816 50.319 76.721 49.384 76.5818C49.491 76.3063 49.3261 76.0569 49.1377 75.8779C49.1349 75.8504 49.0972 75.7639 49.095 75.7639C49.4475 71.4292 49.9607 67.0949 50.4023 62.7647C50.6781 59.747 51.1811 56.7012 51.0449 53.668C51.0398 53.6326 50.9937 53.6434 50.9835 53.668C50.2543 56.2894 49.8323 60.268 49.1034 65.5591C43.8406 71.7256 40.74 72.8044 35.6789 65.6579L35.4191 65.2762C33.0536 61.7956 30.7457 58.2483 28.9504 54.4365C31.1961 54.3645 32.4084 52.0069 33.3681 50.2775C33.5304 50.1899 33.6386 50.0574 33.7274 49.8795C34.4877 50.8266 35.0896 51.9949 35.8595 52.9567C37.7708 55.4663 42.1613 58.5781 42.2574 58.6778L42.2758 58.6943C42.5645 58.9581 43.4337 59.9549 43.7024 59.9281C44.8733 61.0124 47.4768 55.9618 47.79 55.0102C48.5535 53.1567 49.1692 52.5869 49.8316 50.6963L49.9457 50.3557C50.8581 47.624 51.7751 44.7463 54.0586 42.8369L54.1481 42.7418C55.6097 41.1963 57.031 39.9905 59.2134 39.595ZM31.2902 73.8122C31.939 73.852 32.5884 73.8907 33.2373 73.9295L33.8376 73.965C38.574 74.2484 43.3204 74.5985 48.0662 74.392C48.0216 75.0588 47.7884 75.7497 48.0454 76.3977C44.7712 76.0152 41.4752 75.7796 38.1868 75.938C36.2326 75.0154 33.8607 74.7261 31.6635 74.7142C31.6264 74.4076 31.4991 74.061 31.2902 73.8122ZM64.5981 68.5745C67.7852 67.1525 70.9022 68.6 72.0238 72.0391C71.9452 72.1037 71.8911 72.2174 71.8776 72.3321C71.5824 72.7258 71.0413 72.7135 70.5979 72.7694C69.7062 72.8872 68.8414 73.1747 68.0531 73.6097C67.6179 73.8472 67.2439 74.1908 66.7946 74.3981L66.5528 74.6249C66.1494 75.0022 65.7356 75.3654 65.2009 75.5646C64.6471 75.5935 65.3625 74.5151 65.4789 74.3056L65.5222 74.236C65.7555 73.8661 66.0554 73.4448 65.7361 73.0246C65.1544 73.3032 64.6857 73.7052 64.2178 74.1538L64.1332 74.2358C63.6779 74.6808 63.1544 75.2392 62.5005 75.312C62.3902 75.3243 62.31 75.1947 62.3377 75.0988C62.6313 74.1266 63.4893 73.4469 64.2879 72.8632C64.2811 72.5861 64.0883 72.3741 63.8361 72.3137C62.7152 72.9589 61.9327 73.9806 60.8367 74.6423C60.7185 74.7122 60.5945 74.6198 60.5829 74.4968C60.5897 73.6363 61.4674 72.9769 62.0724 72.4672C62.1982 72.3701 62.327 72.276 62.4581 72.1851C62.4283 72.0127 62.2705 71.8618 62.0734 71.8339C61.7139 71.936 59.5586 73.6084 59.5526 72.8354L59.5566 72.8144C59.6141 72.5424 59.9265 71.9526 60.2283 72.0253C61.3453 70.6465 62.9494 69.2131 64.5981 68.5745ZM72.9782 36.9673C74.1044 37.6135 75.1848 38.3131 76.3124 38.9528C77.7495 39.7757 79.2935 40.4146 80.6746 41.3356C84.8801 44.4328 86.0991 50.9609 87.6285 55.722L87.845 56.6463C88.7217 60.3954 90.0379 66.3674 88.4498 69.4229L88.4386 69.447C88.2403 69.8674 87.2972 71.572 86.8114 71.8748C85.3878 72.7624 82.4105 73.064 79.823 72.8903C77.3596 72.7759 74.9344 72.3049 72.5301 71.8097C72.4751 70.9822 72.07 70.2907 71.6436 69.6166L71.5995 69.5469L71.5501 69.4738C70.947 68.5888 70.2669 67.8713 69.2707 67.4806C72.5989 66.4849 78.0784 67.7663 81.7886 65.16C82.085 64.9518 81.8264 64.511 81.5049 64.6753C81.3115 64.7741 81.115 64.8646 80.9161 64.9486C81.0914 64.3175 80.6348 63.9416 80.362 63.3935L80.3512 63.3715C78.0082 58.6473 76.1649 53.3371 74.5305 48.5238C75.0061 51.8911 75.7734 55.2261 76.8617 58.4474C75.8644 59.2124 75.0321 60.1767 74.133 61.0514C73.17 62.0723 72.0017 62.9402 71.2667 64.1529C71.1064 64.4353 71.4219 64.7205 71.6957 64.5812C72.3411 64.2534 72.877 63.7336 73.3723 63.2166L73.5736 62.9974C74.8029 61.6561 76.0153 60.2752 76.9533 58.7118C77.5791 60.5232 78.3513 62.0252 79.1771 63.7333L79.2828 63.9525C79.4655 64.3303 79.6359 64.7519 79.9366 65.0308C79.7376 65.4294 79.2284 65.5219 78.8357 65.6383C75.6451 66.5329 72.2575 65.7853 69.0539 66.5999L68.8426 66.6546C68.6316 66.7094 68.4182 66.7758 68.2925 66.9684C65.4984 67.0704 62.7774 68.2141 60.5995 69.9769L60.5434 70.0216C59.6258 70.7557 58.6856 71.7245 58.5209 72.9392C58.4899 73.1682 58.5748 73.4921 58.8486 73.5438C58.3184 73.6094 57.84 73.8822 57.4469 74.2595C61.1947 61.2665 72.1736 50.9211 72.9782 36.9673ZM61.1128 73.9038C61.0608 73.9824 61.0137 74.0646 60.9792 74.1501C60.9961 74.1384 61.0124 74.1257 61.0291 74.1138C61.0244 74.0714 61.056 74.0241 61.0864 73.9898L61.0861 73.9895C61.1006 73.9723 61.1141 73.9542 61.1282 73.9366C61.1219 73.9262 61.1169 73.9152 61.1128 73.9038ZM48.8761 67.4855C48.7307 68.7206 48.5857 69.9552 48.4419 71.1904C47.4171 71.0552 46.3849 70.9739 45.3532 70.8979L45.4104 70.8622C45.932 70.5365 46.4131 70.1554 46.8644 69.7386C47.3603 69.2805 47.833 68.7853 48.2684 68.2693C48.4818 68.0164 48.684 67.7546 48.8761 67.4855ZM73.2971 54.2547C73.1381 55.6697 72.2556 56.8693 71.4356 57.983C71.2209 58.2746 71.709 58.5543 71.9211 58.2663L72.0064 58.1501C72.8682 56.9737 73.6926 55.7384 73.8593 54.2547C73.8996 53.8956 73.3369 53.8997 73.2971 54.2547ZM20.5432 40.1927C23.085 41.7871 25.7447 43.185 28.3445 44.6818C28.6627 44.862 28.9849 44.5656 28.9253 44.2361C28.7926 43.505 28.661 42.7739 28.5316 42.0425L28.4317 41.4756C28.3941 41.271 28.2386 40.5327 28.3872 40.2556C29.0317 41.3457 29.6979 42.4237 30.3673 43.4991L31.0978 44.6717C31.88 45.928 32.7554 47.2028 33.0663 48.6657C32.8766 48.8457 32.7788 49.107 32.7554 49.3635C32.5369 49.451 32.3874 49.6943 32.4472 49.9512C31.5111 51.0699 30.8718 52.6773 29.374 53.1476C27.6752 50.7041 24.8833 49.2745 21.964 48.9189L21.4459 48.8283C20.1802 48.6049 18.8611 48.3319 17.8528 47.5453C18.8536 47.5935 19.8544 47.6396 20.8558 47.6828C21.1909 47.6974 21.2617 47.1698 20.935 47.0996C19.4805 46.7869 18.0029 46.1217 16.8401 45.1382C18.7805 45.8219 20.8164 46.2277 22.8687 46.3872C23.2909 46.3921 23.3644 45.7826 22.9665 45.6636C21.1578 44.9194 19.5364 43.7354 18.2927 42.2325L18.2531 42.1844L20.8592 43.5569C21.946 44.1294 23.1088 44.8368 24.3778 44.8351C24.7466 44.8345 24.8287 44.3737 24.5548 44.1823L24.1979 43.9172C22.9945 43.021 20.7152 41.2751 20.5432 40.1927Z" fill="#151E22"/>
<path fill-rule="evenodd" clip-rule="evenodd" d="M70.3556 14.155C62.0236 13.7459 56.3703 20.3073 56.1271 22.9239C55.9583 24.7401 56.0729 27.1624 56.0729 28.7854C56.0729 29.6138 55.6542 32.1319 56.1271 33.3394C57.1796 36.0269 58.3687 38.132 61.6636 38.132C64.9584 38.132 69.9812 36.4267 71.706 34.2273C72.0209 33.8257 75.934 30.8862 75.934 28.5756C75.934 23.646 76.3009 14.447 70.3556 14.155Z" fill="#151E22"/>
<path fill-rule="evenodd" clip-rule="evenodd" d="M76.0397 8.83113C75.5648 8.68291 75.2618 8.89628 75.0456 9.22685C74.9979 9.21757 74.9518 9.21817 74.9004 9.23053C74.8877 9.2336 74.857 9.24518 74.8338 9.25429C74.8158 9.26181 74.7996 9.27093 74.7839 9.28059L74.7747 9.2757C74.739 9.23689 74.7016 9.20149 74.6612 9.17294C74.5704 9.10883 74.4768 9.09016 74.388 9.10334L74.3469 9.08824C73.9954 8.96594 73.6144 9.0227 73.3761 9.32505C73.33 9.38346 73.2927 9.4485 73.2609 9.51712C73.1894 9.54051 73.1223 9.57432 73.0646 9.61593C73.024 9.59688 72.9811 9.58085 72.9352 9.56905C72.6759 9.50263 72.4035 9.56532 72.1922 9.72407C72.0892 9.8013 72.0136 9.89802 71.9562 10.0085C71.8908 10.0238 71.8262 10.0513 71.7657 10.0883C71.7137 10.0625 71.6609 10.0382 71.6067 10.0216C71.4088 9.96087 71.1964 9.93853 70.9904 9.95385C70.5464 9.98673 70.117 10.4931 70.4137 10.9279L70.4229 10.9411C70.4606 10.9935 70.4934 11.0477 70.5237 11.1028C70.4175 11.1489 70.3151 11.2107 70.2205 11.2881C69.7581 11.6666 69.7164 12.2501 69.8029 12.8005L69.8066 12.8234H69.8055C69.5598 12.8467 69.3476 13.103 69.4928 13.344L69.4999 13.3553C69.6964 13.6585 69.8648 13.9934 70.0526 14.3124C70.5721 14.4995 71.073 14.7298 71.5448 15.0089C71.8386 15.2659 72.1183 15.5376 72.3644 15.8399C72.4873 15.9909 72.6002 16.1506 72.7039 16.3163C72.6209 16.3561 72.5184 16.3541 72.4317 16.2739C71.6611 15.5608 70.73 15.0604 69.7387 14.725C69.6673 14.7008 69.6204 14.6552 69.5941 14.6013C69.154 14.4761 68.7062 14.379 68.2539 14.3103C68.1292 14.1916 67.9986 14.0782 67.8745 13.9601C67.716 13.8094 67.5175 13.8116 67.3692 13.9062C67.2955 13.8727 67.2202 13.8431 67.1437 13.8165L67.0962 13.8004C67.0765 13.7939 67.0575 13.7864 67.0381 13.7804C66.5073 13.6184 66.022 13.6786 65.4999 13.8117L65.4331 13.8291C65.1897 13.8935 65.0366 13.8832 64.8009 13.8239L64.7744 13.8171C64.524 13.7519 64.2561 13.7036 64.0002 13.7722C63.7324 13.8441 63.5547 14.004 63.3723 14.1971L63.3541 14.2165C63.2689 14.3074 63.2198 14.3173 63.1083 14.3151L62.989 14.3116C62.5385 14.2993 62.0974 14.3182 61.76 14.6661C61.6353 14.7948 61.5015 14.9769 61.4212 15.143L61.4095 15.1678C61.4058 15.1759 61.4025 15.1827 61.3994 15.1887C61.3511 15.1809 61.2757 15.1503 61.2399 15.1434C60.749 15.0483 60.3394 15.1948 60.0242 15.5811C59.9552 15.6656 59.851 15.8316 59.7789 15.9228C59.7536 15.9442 59.7297 15.9672 59.7071 15.9913C59.5888 16.0668 59.4211 16.062 59.2884 16.0884C58.9267 16.1604 58.5401 16.2977 58.3563 16.6414C58.2794 16.7848 58.251 16.9418 58.2186 17.0985C58.097 17.1783 58.0017 17.2932 57.9277 17.4177C57.8378 17.5687 57.7995 17.7538 57.6959 17.8965C57.6207 18.0001 57.5058 18.0554 57.3965 18.1188L57.3547 18.1433C57.0307 18.3359 56.777 18.5497 56.6703 18.9272L56.6611 18.9608C56.6438 19.0186 56.583 19.1837 56.6359 19.1589C56.5904 19.184 56.513 19.1928 56.4714 19.2065C56.2466 19.2808 56.0512 19.4008 55.9315 19.6115C55.8404 19.7719 55.8238 19.9391 55.7977 20.1159L55.7866 20.1873C55.7838 20.2046 55.7804 20.2246 55.7769 20.2441L55.7734 20.2632L55.7727 20.2637C55.732 20.2812 55.692 20.3003 55.6527 20.3208C55.4664 20.4303 55.339 20.6204 55.339 20.8405C55.339 20.9473 55.3725 21.0305 55.4211 21.1048C55.3818 21.1643 55.3513 21.2277 55.3283 21.2983C55.2831 21.4363 55.2799 21.5871 55.2951 21.7298C55.3134 21.9011 55.3574 22.0571 55.4092 22.2206C55.4292 22.2838 55.4373 22.372 55.4673 22.4322C55.4119 22.5029 55.3788 22.5892 55.3891 22.6744C55.4037 22.7963 55.4594 22.9387 55.57 23.0071C55.624 23.2733 55.7403 23.5454 55.8548 23.763C55.868 23.7883 55.884 23.8108 55.9016 23.8294C55.8856 24.6984 55.9494 25.5734 55.9538 26.4412C55.9587 27.3859 55.9389 28.3312 55.906 29.2748C55.8504 30.8387 55.652 32.4558 56.1143 33.9808C56.4925 35.229 57.2501 36.3005 58.2659 37.1129C59.306 37.944 60.5598 38.4249 61.8913 38.5001C62.5685 38.538 63.2573 38.4611 63.9126 38.286L63.9826 38.2671C64.6165 38.0931 65.3509 37.8274 65.8173 37.3622C66.0636 37.1162 65.8146 36.5954 65.4534 36.7386C65.0956 36.8808 64.7745 37.091 64.4194 37.2392C64.1022 37.3715 63.7712 37.473 63.436 37.5477C62.7637 37.6987 62.0507 37.7316 61.3674 37.6377C58.9003 37.3007 56.9779 35.2549 56.5986 32.8291C56.4936 32.1573 56.4956 31.4745 56.5027 30.7957L56.5105 30.052C56.5165 29.4298 56.5187 28.8072 56.4958 28.1852C56.4667 27.3849 56.4101 26.5851 56.3342 25.7881L56.2947 25.3734C56.2478 24.8881 56.1949 24.3992 56.1039 23.9206C56.1785 23.9245 56.767 22.919 57.0937 22.3572C57.2129 22.2628 57.3136 22.1455 57.3524 21.9937C57.3605 21.962 57.3647 21.9301 57.3672 21.8981C57.4381 21.7868 57.5129 21.6784 57.5919 21.5732L57.6091 21.5655C57.6224 21.5595 57.6327 21.5545 57.6387 21.5511C57.811 21.4535 57.9549 21.3057 58.0533 21.1345C58.0865 21.0767 58.1137 21.0165 58.1358 20.9548C58.2763 20.8172 58.4232 20.6859 58.5776 20.5628C58.5928 20.5507 58.6084 20.5394 58.6237 20.5275C58.8202 20.4542 58.9927 20.3439 59.1185 20.185C59.1711 20.1525 59.224 20.1207 59.2774 20.0895C59.4376 20.088 59.5994 20.0507 59.7568 19.9861C60.0449 19.868 60.2749 19.6345 60.5643 19.5263C60.8703 19.412 61.1927 19.6719 61.5179 19.625C61.6009 19.613 61.6832 19.5878 61.7597 19.5513C61.9428 19.7449 62.1371 19.9275 62.3514 20.0873C62.6623 20.3193 62.9803 20.4253 63.3407 20.53C63.5194 20.6993 63.7193 20.8634 63.9605 20.8875C64.5186 21.333 65.1156 21.7088 65.7437 22.0577C65.8447 22.1138 65.9451 22.1391 66.0405 22.1397C66.2375 22.2632 66.4525 22.3583 66.6797 22.424C66.7509 22.4446 66.8243 22.4489 66.8965 22.4401L67.0936 22.6004C67.2308 22.712 67.3771 22.7653 67.5172 22.7687C67.6024 22.8339 67.6906 22.8955 67.7815 22.9548C67.8789 23.0184 68.0051 23.0448 68.132 23.0371C68.3258 23.2264 68.5771 23.2463 68.7875 23.1591C68.8164 23.176 68.8461 23.192 68.8796 23.2078C68.925 23.2292 68.9724 23.2474 69.0207 23.262C69.2401 23.4982 69.5613 23.622 69.8832 23.5896C70.1235 23.7366 70.4033 23.8131 70.6768 23.7959C70.7185 24.0051 70.753 24.2152 70.7822 24.4259L70.7852 24.5803C70.7855 24.6053 70.7855 24.6248 70.7852 24.6376L70.785 24.6427C70.7583 25.3195 70.7437 25.9966 70.7172 26.6735L70.7148 26.7269C70.6847 27.3183 70.539 28.3965 71.4095 28.373C71.7339 28.3642 72.0557 28.1257 72.3083 27.9296L72.3439 27.9019C72.3632 27.8868 72.3831 27.8714 72.403 27.8557C72.5918 27.8312 72.7779 27.7854 72.9686 27.7784C73.2038 27.7702 73.4512 27.7943 73.6805 27.8476C74.085 27.9415 74.4764 28.1254 74.7403 28.4585C74.7634 28.4876 74.7848 28.5184 74.8052 28.5491C74.8239 28.6122 74.8557 28.6704 74.8981 28.7209C75.1476 29.2814 75.0036 30.0219 74.7277 30.5346C74.3989 31.1453 73.8787 31.5674 73.2246 31.7801L73.1918 31.7905C72.7448 31.93 72.5739 32.2 72.3309 32.5755C72.1033 32.9279 71.8422 33.2562 71.5618 33.568C71.0193 34.1712 70.2579 34.6692 69.9424 35.4327C69.8786 35.5864 70.0611 35.7313 70.2024 35.6918C70.756 35.5365 71.1441 35.1429 71.5465 34.7515C71.8249 34.4805 72.0928 34.1985 72.344 33.9024C72.3968 33.9267 72.4548 33.9431 72.5152 33.9504C72.7818 33.9829 73.0567 33.9694 73.2902 33.8259C73.3977 33.8357 73.5098 33.7984 73.593 33.7223C73.6694 33.6522 73.7353 33.5765 73.7909 33.4958C73.8754 33.5033 73.9584 33.5055 74.0377 33.4924C74.0759 33.4888 74.1129 33.4788 74.1468 33.4623C74.2098 33.4374 74.2695 33.3991 74.3244 33.3403C74.4355 33.2212 74.4781 33.0529 74.4576 32.893C74.4796 32.8883 74.5015 32.8827 74.523 32.8754C74.671 32.8254 74.7849 32.7261 74.8577 32.5909C74.9879 32.518 75.1051 32.4191 75.1939 32.314C75.3021 32.1862 75.3836 32.0421 75.4316 31.8829C75.4811 31.8599 75.5292 31.8333 75.5753 31.8021C75.9054 31.5791 76.0944 31.1604 75.9647 30.7732L75.9603 30.7611C75.9538 30.7436 75.9418 30.7139 75.9272 30.6804C75.9293 30.6531 75.9315 30.6258 75.933 30.5985L75.9376 30.516L76.0037 30.488C76.3335 30.357 76.5565 30.1802 76.5961 29.8096C76.6044 29.733 76.5746 29.6548 76.5276 29.5895L76.5278 29.569C76.5492 29.5579 76.5696 29.5465 76.5876 29.5351C76.7674 29.4204 76.8779 29.2149 76.8656 29.0024C76.8542 28.8086 76.7467 28.6542 76.6259 28.5114L76.5914 28.4713C76.5885 28.468 76.5853 28.4644 76.5818 28.4605L76.6617 28.4354C76.7136 28.419 76.761 28.4026 76.7952 28.3835C76.9273 28.3095 77.0394 28.2096 77.1085 28.0825C77.1185 28.0668 77.1288 28.0513 77.138 28.0345C77.2272 27.872 77.2389 27.6637 77.1813 27.4892C77.1745 27.4686 77.1657 27.4492 77.1567 27.43C77.3997 27.3444 77.5867 27.1677 77.6093 26.842C77.6181 26.7138 77.59 26.5862 77.529 26.4769C77.5425 26.4033 77.5453 26.327 77.5365 26.2515C77.622 26.1709 77.6884 26.0737 77.7181 25.9552C77.7742 25.7313 77.6715 25.5183 77.5188 25.3229C77.5753 25.1684 77.5782 24.9942 77.5137 24.8386C77.5385 24.761 77.5526 24.679 77.5534 24.5947C77.5551 24.4081 77.4976 24.2523 77.4046 24.1197C77.5353 23.9602 77.5973 23.7482 77.5202 23.5495C77.4652 23.4084 77.4025 23.2792 77.3301 23.1595C77.3681 23.0685 77.3902 22.9666 77.3902 22.8525C77.3902 22.6472 77.3131 22.4845 77.1952 22.3514C77.2464 22.1083 77.1423 21.8122 76.9155 21.7051C76.83 21.6647 76.7156 21.6226 76.5895 21.5898C76.5422 21.4421 76.4927 21.295 76.4406 21.149C76.3584 20.9192 76.27 20.6925 76.1763 20.4685C76.2303 20.5157 76.2868 20.5596 76.3453 20.5995C76.5303 20.8343 76.7755 21.0378 76.9816 21.1594C77.3901 21.4008 77.8574 21.2576 78.0591 20.8539C78.2486 20.9952 78.4761 21.0788 78.7188 21.0502C78.994 21.0178 79.2456 20.8398 79.3143 20.5622C79.3243 20.522 79.3303 20.4786 79.3309 20.4349C79.4887 20.5471 79.6538 20.6504 79.835 20.7095C80.0657 20.7848 80.3012 20.6042 80.3316 20.3791C80.3437 20.2899 80.3269 20.2111 80.2914 20.1445L80.3139 20.1356C80.3177 20.1341 80.3214 20.1324 80.3251 20.1307C80.4461 20.0741 80.54 19.9704 80.5847 19.8507C80.8466 19.9519 81.1466 19.8333 81.2297 19.5456C81.3286 19.2036 81.3346 18.8572 81.2572 18.5241C81.5348 18.3226 81.7156 17.984 81.7464 17.6299C81.7689 17.3757 81.7082 17.1411 81.6011 16.9242C81.8637 16.8262 81.9539 16.4825 81.8292 16.235C81.9949 16.1402 82.103 15.9394 82.1054 15.7438C82.1794 15.6319 82.2031 15.4876 82.1417 15.326C82.0607 15.1131 81.8958 14.935 81.707 14.7953C81.7894 14.6521 81.8505 14.496 81.8885 14.3347C82.045 14.289 82.1712 14.1626 82.197 13.9728C82.2292 13.7349 82.0723 13.5332 81.8613 13.48C81.8378 13.4075 81.8093 13.3367 81.7739 13.2686C81.8784 13.0216 81.863 12.7092 81.7283 12.4392C81.609 12.2004 81.4149 12.0544 81.1813 11.9534C81.2407 11.7503 81.1621 11.5477 80.9642 11.3968C80.7226 11.2123 80.4576 11.0712 80.1792 10.9716C80.2039 10.641 80.0655 10.3024 79.7384 10.1871C79.6509 10.1563 79.5599 10.145 79.4674 10.1454C79.4002 9.99952 79.2881 9.88095 79.1418 9.776C78.9205 9.61725 78.5068 9.71423 78.384 9.96318L78.378 9.97597C78.3718 9.99008 78.365 10.003 78.3586 10.0166C78.3338 9.89577 78.276 9.78159 78.1831 9.688C77.9507 9.45399 77.7054 9.4496 77.4693 9.54967C77.4259 9.44241 77.3735 9.34042 77.3097 9.24716C77.0782 8.9088 76.6958 8.86571 76.4158 9.04894C76.3035 8.95041 76.1782 8.87444 76.0397 8.83113ZM74.3846 29.1782C73.9185 28.996 73.3528 29.0498 72.8922 29.2249L72.8584 29.238C72.4515 29.3986 71.7905 29.7559 71.7108 30.213C71.6696 30.4496 71.8949 30.6543 72.1237 30.5297C72.3227 30.4215 72.4342 30.2036 72.5926 30.0455C72.7492 29.8891 72.9246 29.7634 73.1158 29.653C73.5149 29.423 73.9344 29.3336 74.3846 29.2672C74.4352 29.2601 74.4214 29.1925 74.3846 29.1782Z" fill="#151E22"/>
<path fill-rule="evenodd" clip-rule="evenodd" d="M61.7744 34.0834C62.144 33.9329 62.4737 33.6818 62.7147 33.361C62.7985 33.2495 62.8203 33.1318 62.8027 33.024C62.7829 32.9029 62.7112 32.7932 62.6133 32.7196C62.5152 32.6457 62.3924 32.6093 62.2737 32.6279C62.1705 32.644 62.0679 32.7004 61.9866 32.8173L61.9696 32.8407C61.8263 33.0343 61.6396 33.1932 61.4268 33.2956C61.2217 33.3943 60.9923 33.4403 60.755 33.4135C60.3029 33.3625 59.9913 33.1184 59.6601 32.7869C59.619 32.745 59.578 32.7018 59.5367 32.658C59.5106 32.6182 59.4744 32.5927 59.4343 32.5792C59.3897 32.5644 59.3392 32.5652 59.293 32.5813C59.2485 32.5968 59.2086 32.6263 59.1819 32.6654C59.1565 32.7027 59.1421 32.7486 59.1468 32.8015C59.1771 33.1451 59.357 33.4518 59.6125 33.6925C59.8963 33.9599 60.2725 34.1449 60.6266 34.2098C61.0168 34.2813 61.4144 34.2301 61.7744 34.0834ZM60.4425 28.7831C60.0273 29.035 59.3948 29.6225 59.8414 30.2472C60.3671 30.7979 61.1239 30.1665 61.4968 29.8809C61.8426 29.6595 62.2312 30.2288 61.9103 30.4872C59.2154 32.4796 58.1218 28.8489 60.2325 28.4868C60.4649 28.4469 60.5512 28.7051 60.4425 28.7831ZM65.2718 26.4654C65.2259 25.8969 64.3589 25.7678 64.2726 26.3304C64.1954 26.8343 64.2863 27.2972 64.5136 27.7509C64.7308 28.1843 65.2767 27.9821 65.318 27.5874C65.3733 27.0584 65.3003 26.8191 65.2718 26.4654ZM58.6717 26.2139C58.5509 26.0558 58.3763 25.9479 58.1672 26.0089C57.5139 26.1995 57.7064 27.1257 57.9359 27.5766C58.0606 27.8214 58.4636 27.8835 58.6457 27.6679C58.9425 27.3164 59.0847 26.6143 58.7073 26.2681C58.6971 26.2502 58.6857 26.2321 58.6717 26.2139ZM64.5229 23.9782L64.4197 23.9601C64.1004 23.905 63.7034 23.852 63.4776 24.1083C63.3578 24.2442 63.3166 24.4969 63.4776 24.627C63.7608 24.8559 64.0739 24.7671 64.4133 24.7865C64.693 24.8026 64.9618 24.8488 65.2312 24.9257C65.8223 25.0944 66.3039 25.4023 66.8087 25.7405C66.8749 25.7848 66.9425 25.7002 66.9109 25.6384C66.6195 25.0684 66.0548 24.6002 65.4891 24.3148C65.1872 24.1625 64.8569 24.0361 64.5229 23.9782ZM59.2673 23.7227L59.1883 23.7389C58.3287 23.9183 57.2119 24.2767 56.8048 25.1198C56.7893 25.239 56.8057 25.2646 56.819 25.2813L56.8235 25.2868C56.8345 25.3011 56.8432 25.3208 56.895 25.337C56.9093 25.3336 56.9238 25.3299 56.9385 25.3261C57.1251 25.2773 57.2727 25.21 57.4156 25.1402L57.5706 25.064C57.7504 24.976 57.9318 24.8911 58.124 24.8285C58.5342 24.6949 58.9561 24.6008 59.3846 24.5505C59.4774 24.5396 59.5669 24.5083 59.6374 24.4547C59.7044 24.4038 59.7555 24.3333 59.7789 24.2396C59.8091 24.1183 59.8004 24.0265 59.7353 23.9171C59.6863 23.835 59.6162 23.778 59.5357 23.7453C59.4536 23.712 59.3602 23.7041 59.2673 23.7227Z" fill="#151E22"/>
</g>
</svg>
