<svg width="102" height="112" viewBox="0 0 102 112" fill="none" xmlns="http://www.w3.org/2000/svg">
<g opacity="0.3">
<path fill-rule="evenodd" clip-rule="evenodd" d="M23.3384 120.798C24.5256 120.582 24.953 121.96 25.0041 122.831C25.4827 122.618 25.9811 122.375 26.4139 122.096C27.1256 121.642 27.8943 120.857 28.7349 120.877L28.7733 120.664C28.8162 120.291 29.5782 120.54 29.7838 120.671C30.1133 120.61 30.4751 120.279 30.6959 119.977C29.8067 119.648 29.4168 119.635 29.5574 118.495C29.5576 118.319 29.6014 118.155 29.5529 117.998C30.6148 113.275 30.8223 108.549 30.9558 103.735L30.4104 103.626C28.6833 108.449 27.0421 113.51 25.5697 118.667C25.5331 118.898 25.4006 118.901 25.2717 118.776C24.8248 118.799 24.393 118.78 23.9378 118.715L23.944 118.694C23.8072 118.695 23.671 118.687 23.5456 118.679C23.4383 119.371 23.3142 120.084 23.3384 120.798ZM24.0546 118.166C24.0245 118.152 23.6816 118.001 23.6428 117.983L23.6345 118.068C23.7819 118.125 23.9303 118.181 24.0801 118.231L24.0939 118.184L24.0546 118.166ZM38.7052 128.496C39.284 128.635 39.8972 128.811 40.4662 128.977L40.2429 128.438C41.5264 125.024 42.5072 121.418 43.2209 117.894C43.7265 115.599 44.251 113.226 44.952 110.952C45.8371 107.381 47.7472 103.707 51.7833 103.401C51.7833 103.401 51.8513 103.285 51.8512 103.285L51.9307 103.211C52.1277 100.706 52.3942 98.2109 52.6524 95.8142C50.4923 96.4066 48.6323 96.2139 46.5677 96.1978C45.8988 96.1053 45.0084 96.2992 44.4747 95.9947C44.4747 95.9946 44.122 95.6371 44.122 95.6371C41.778 104.892 41.168 114.429 40.3309 123.801C40.3024 124.014 40.1403 124.086 39.9699 123.998C39.773 124.214 39.3632 124.131 39.0828 124.162C39.3182 125.567 39.0411 127.241 38.3578 128.411L38.7052 128.496ZM44.2066 127.706C45.6508 126.492 47.3619 125.89 49.1488 125.958C49.7759 125.03 50.6621 123.916 51.6576 123.497C52.1242 121.939 52.0669 120.23 51.9682 118.763C51.7376 117.264 52.2541 117.09 53.4774 117.199C52.9515 116.565 52.9985 116.412 53.1052 115.579C52.756 115.633 51.6992 116.323 51.5543 115.835C51.3789 114.885 51.2597 114.06 51.1899 113.312C51.1528 112.673 51.6057 112.001 51.5498 111.35C51.7162 109.678 51.5456 107.806 52.3168 106.265C49.192 106.682 48.4307 110.088 47.622 112.597C45.9582 117.765 44.7955 123.042 43.5571 128.252L44.2066 127.706ZM53.8322 115.875C53.9062 116.041 53.917 116.2 53.943 116.362C55.4128 116.092 55.1514 118.249 55.2887 119.429C55.565 119.337 55.7596 119.309 56.0486 119.366C56.0909 118.977 55.8374 118.804 56.7258 118.761C60.8665 118.838 62.441 123.163 63.8654 126.473C64.5267 128.064 65.4657 128.312 66.8614 128.284C67.7975 128.302 68.7549 128.556 69.7114 128.525C66.2338 121.68 64.9685 111.847 66.3807 103.319H66.3798C66.4657 102.779 66.5677 102.217 66.6731 101.673C63.6921 101.704 60.2242 101.776 57.3538 101.652C56.9754 101.999 56.5093 102.154 56.0337 102.157C56.0315 102.536 55.9908 102.952 55.9549 103.33C58.6377 103.263 61.6145 103.304 64.3321 103.344C61.6146 103.383 58.6238 103.431 55.9511 103.354C55.9556 104.077 55.8827 104.735 55.239 105.085C54.9931 106.914 55.3108 108.826 55.0887 110.954C54.9102 112.402 55.057 115.173 53.7338 115.633L53.8322 115.875ZM72.7208 127.001L72.8243 127.183C73.0433 127.108 73.1778 127.124 73.3912 127.29C74.9436 128.128 77.1748 127.35 78.8721 127.294C78.5494 126.236 78.5369 124.548 80.0072 124.526C79.5196 119.886 79.8481 115.283 79.7728 110.646C77.0955 110.136 77.1855 109.861 79.7859 109.385C79.8022 106.791 79.8218 104.167 79.8201 101.55C79.8205 100.29 79.8321 99.0612 79.9474 97.8428C79.7052 97.3426 79.7591 96.8302 79.6341 96.3018C79.1064 96.007 78.1922 96.3502 77.864 95.8416C76.4434 95.8207 74.9966 95.8075 73.5619 95.7313C73.4317 95.7353 73.3834 95.6145 73.3269 95.5265C73.0771 95.4608 72.6559 95.6109 72.448 95.5046C72.448 95.5045 72.1674 95.1429 72.1674 95.1429C70.9988 97.5253 70.0922 100.333 69.5567 103.175C71.2451 103.193 73.1781 103.188 74.92 103.18C73.2238 103.305 71.393 103.381 69.517 103.407C68.0615 110.635 69.1039 120.777 72.7208 127.001ZM75.0564 130.43C78.5737 134.854 84.3177 136.329 89.0346 132.772C101.621 123.213 101.056 90.8112 84.5257 86.3291C84.9743 88.0232 86.5311 95.0543 83.717 95.2547L83.7257 95.2319L83.5824 95.1528C82.9915 95.3569 82.1602 95.0735 81.9667 95.8929C81.9591 95.8944 81.6489 95.9215 81.6307 95.9233C81.8318 96.9414 81.7734 97.997 81.8335 99.0313C82.0711 98.9408 82.3669 98.8872 82.6244 98.9084C83.5947 98.8633 83.5703 97.8045 83.5325 97.068C83.4965 96.7076 83.6056 96.295 83.5876 95.9568C83.578 95.7219 83.5937 95.5387 83.6829 95.3443C83.9814 96.2973 84.2636 97.5468 84.0863 98.5171C83.8256 99.4231 82.6704 99.8557 81.8342 99.4119C81.8706 102.673 81.8809 105.909 81.899 109.142C82.4483 108.854 82.9494 109.036 83.5175 109.19C84.2344 109.341 85.0849 109.127 85.8037 109.3C85.8866 108.946 86.2213 108.512 86.5737 108.798C87.0222 108.802 87.2687 109.218 87.4913 110.126C87.6301 110.845 87.549 111.806 86.8643 112.152C86.4775 112.36 86.0904 112.212 85.8998 111.786C85.7916 111.829 85.6193 111.961 85.4963 111.919C84.3525 111.641 83.1192 111.361 81.9093 111.1C81.8462 115.666 82.049 120.2 81.6712 124.778C83.3976 124.924 86.6868 124.462 87.4387 125.979C88.1297 126.277 88.6261 126.961 88.6242 127.65C88.6468 128.766 87.4056 129.141 86.4357 129.154C82.5105 129.451 78.6225 129.98 74.6674 129.972L75.0564 130.43ZM67.9428 95.6147C65.4462 95.9551 62.939 95.9526 60.4371 96.0637C61.2535 101.6 60.1122 98.3833 57.5741 101.495C60.4742 101.492 63.976 101.457 66.7029 101.525C67.1268 99.4385 67.6988 97.4466 68.4099 95.5446L67.9428 95.6147ZM48.615 67.5226C47.5144 69.0576 46.068 70.3981 44.4452 71.3148C45.847 71.4181 47.2741 71.5126 48.656 71.706C48.8105 70.3767 48.9666 69.0471 49.1231 67.7182L48.615 67.5226ZM0.937103 125.614C1.06744 124.307 2.54837 123.825 3.6315 124.185C4.23952 122.572 6.31836 122.768 7.65608 122.057C10.3416 120.758 13.0899 118.218 16.1984 119.218C16.4769 118.453 16.789 117.719 17.1248 117.079C16.9934 117.145 16.8248 117.138 16.7062 117.02L16.7053 117.021C16.5897 116.889 16.4776 116.741 16.4626 116.578C16.0592 116.126 15.8902 115.411 15.7863 114.879C16.2787 113.197 16.8767 111.586 17.4093 109.922C19.4762 103.576 20.9304 97.6813 22.49 91.6132C24.2243 87.1008 24.6897 75.2607 30.9715 75.238C30.9919 74.9226 31.0028 74.5591 31.1033 74.2721C31.2829 74.518 31.3574 74.8811 31.3819 75.1931C34.0706 75.1505 36.3946 75.6494 38.1681 76.4179C41.5644 76.2675 44.5409 76.4698 48.4479 76.9306C47.9746 76.1153 48.2908 75.1966 48.3355 74.2975C42.6708 74.5652 36.9133 74.0434 31.2753 73.7315C30.3656 73.6522 29.4001 73.7022 28.522 73.4738C27.5693 73.2516 26.6648 72.0602 27.6364 71.1533C28.2937 70.7457 29.1107 70.9665 29.8312 70.9304C33.4825 70.9301 37.219 71.0017 40.734 71.1304C36.4061 68.9318 34.2226 64.3403 31.6344 60.4241C30.3199 58.2846 29.3383 56.4843 28.5441 54.7565C28.4081 54.469 28.37 54.1578 28.4517 53.9996C28.4822 53.8413 28.9729 53.8238 29.1057 53.7847C25.5065 48.1677 19.9787 50.6408 17.023 47.3862C17.5831 47.4115 18.1427 47.4377 18.7023 47.4645L18.8311 46.9283C17.7748 46.4532 16.7743 45.7155 15.681 44.6051C15.6815 44.6028 15.6824 44.6003 15.6835 44.5978C17.496 45.1639 19.1856 45.576 20.848 45.8577L21.0484 45.3458C19.5546 44.3744 18.2257 43.0533 17.205 41.5246C19.109 42.3648 20.9002 43.5583 22.8762 44.323L23.1735 43.858C22.047 42.7824 19.5221 41.1699 20.2404 39.6643C23.0472 41.0131 25.6082 42.759 28.3116 44.283C28.314 43.0465 27.4429 41.1018 27.9717 40.0709C28.53 39.383 28.7935 39.9682 29.0754 40.5185C29.0754 40.5185 30.2495 42.4892 30.5369 42.9714C31.6147 44.887 33.129 46.7803 33.0942 49.0451C34.0312 48.5957 34.768 50.2272 35.3768 51.1181C37.0881 54.0219 42.8792 58.5807 44.1579 59.2018C49.3645 54.4908 48.5886 46.513 54.1231 42.0635C55.8979 40.2553 57.2098 40.0458 59.3023 39.3812C59.7997 39.262 60.3623 38.841 60.8075 39.2449C61.4679 38.698 62.1107 36.9322 62.3832 36.1778C62.5518 35.448 62.8329 33.6517 63.2265 33.3148C63.6201 32.978 70.0298 32.6974 70.5921 32.8658C71.1544 33.0342 70.9294 34.3814 70.9294 34.3814L71.5214 36.8242L71.5723 36.8099C71.5816 36.8135 71.6607 36.8745 71.6706 36.8813C72.092 36.8782 72.4969 36.6794 72.9015 36.6796C73.328 36.6886 73.6732 36.9791 74.0003 37.2279C74.5846 37.6689 75.1887 38.125 75.899 38.4003C84.1366 41.0277 85.225 44.9825 87.6896 52.5809C89.7177 52.6383 91.4253 52.3853 93.1906 52.287C93.8119 52.3658 93.6099 53.5709 93.591 54.2595C93.6496 55.9538 92.3812 55.7792 91.1232 55.764C90.2911 55.774 89.4538 55.8567 88.6307 55.7593C89.5172 59.8455 91.3004 66.2339 89.349 70.0463C87.7689 73.0335 86.428 73.6008 85.1493 73.688C84.8218 76.5475 85.1479 79.1083 85.0886 81.8735C103.94 86.9461 104.808 116.39 96.3814 130.726C89.6152 142.441 76.89 141.799 70.5826 130.14C69.0574 130.97 66.0332 130.913 64.0192 130.731C62.4344 130.638 61.9143 129.967 61.3482 128.498C60.7156 127.069 60.1143 125.659 59.4704 124.231C58.8558 122.72 57.6278 120.984 55.4119 121.052C55.4222 121.942 55.5877 122.945 54.9845 123.652C57.2322 124.415 55.8812 127.969 55.2281 129.63C58.3148 133.834 57.2748 141.203 52.957 144.252C45.8256 149.032 38.9419 139.992 41.0251 133.067C40.6837 133.228 40.0498 133.451 39.7771 133.099C39.666 133.017 39.8195 132.653 39.8468 132.535C35.064 132.254 30.3718 131.693 25.6294 131.248C25.7905 135.647 21.4216 139.982 17.0377 139.884C11.3169 140.149 7.8892 132.622 9.61971 127.748C7.43186 127.687 5.21123 127.504 2.93021 127.195C1.68295 127.071 0.88813 126.776 0.937103 125.614Z" fill="#05F29A"/>
<path fill-rule="evenodd" clip-rule="evenodd" d="M71.133 34.6059C71.2686 34.6503 71.2534 34.36 71.0639 34.3893C70.9068 34.4137 70.8485 34.6246 70.8199 34.7584L70.8154 34.78C70.5527 36.0084 70.8554 37.3062 71.4726 38.3844C71.6275 38.6366 71.7881 38.9826 72.0951 39.0502C71.9495 40.0892 71.7498 41.1198 71.5025 42.1392C70.6203 42.448 69.7898 42.9055 68.9093 43.2222C67.2148 43.8238 65.4015 43.9847 63.6185 44.1124C62.3919 44.1792 61.1301 44.1252 59.9649 43.7054C59.4721 43.5711 59.0544 43.1315 58.5374 43.1329C58.8843 42.187 59.2683 41.2551 59.6945 40.3402C61.0198 40.3398 62.0211 39.0557 62.4147 37.9146C62.5581 37.4599 62.5997 36.9833 62.6908 36.5174L62.7246 36.3434C62.7542 36.1883 62.7812 36.0324 62.7931 35.8752C62.797 35.8168 62.7104 35.3043 62.7307 35.2313C62.7329 35.2526 62.7606 35.2357 62.7734 35.2346C62.8083 35.1915 62.7779 35.105 62.7087 35.1083C62.5969 35.105 62.5412 35.3481 62.5159 35.4143C61.9783 36.516 61.7734 37.8701 60.8138 38.6973C60.3346 38.3954 59.7446 38.7907 59.2576 38.9119L59.1166 38.9564C56.8397 39.6727 55.7859 39.8462 53.9573 41.6656C50.8334 44.099 49.9128 47.2047 48.6832 50.7824L48.6106 50.9767C47.4285 54.1266 46.4741 56.0804 44.1216 58.6608C43.2679 58.2631 37.9641 54.0276 36.1433 51.5392L36.0892 51.4644C35.5648 50.7511 34.371 48.2549 33.3937 48.492C33.3059 46.2974 31.8441 44.4807 30.813 42.6321L29.3494 40.1757C29.2083 39.9387 29.0734 39.6121 28.8732 39.4195C28.533 39.0923 27.9679 39.3932 27.7644 39.7249C27.2044 40.6669 27.9092 42.4674 28.013 43.5679C25.5036 42.1167 23.0609 40.5293 20.4675 39.2292C20.2493 39.1243 19.9772 39.2045 19.9079 39.4566C19.4697 41.266 21.8595 42.7806 23.0134 43.8631C21.1256 43.1057 19.3549 42.0275 17.5279 41.1248L17.406 41.0649C17.158 40.9363 16.8223 41.2097 16.9978 41.4724C18.0318 43.0234 19.3682 44.3678 20.9274 45.3816C19.1878 45.0869 17.4762 44.6547 15.7867 44.1265C15.5117 44.0406 15.3155 44.4049 15.5106 44.6002L15.6026 44.6931C16.5263 45.6188 17.5455 46.4441 18.7481 46.9849C18.1864 46.9579 17.6246 46.9315 17.0624 46.9062C16.7835 46.8939 16.6908 47.2352 16.8493 47.4199C17.474 48.1457 18.3146 48.6167 19.2118 48.9262C22.9663 49.9343 26.1183 49.8479 28.6511 53.3876C28.0173 53.5015 28.1098 54.2076 28.3098 54.6503L28.3222 54.677C29.2266 56.6447 30.2969 58.5322 31.4302 60.3765C33.8575 63.9771 35.8512 68.3045 39.6933 70.6137C37.2125 70.5294 34.7305 70.4808 32.2479 70.4605C31.5601 70.4547 30.8723 70.4514 30.1846 70.4505L29.6688 70.4504C28.9868 70.4504 28.0866 70.3073 27.4985 70.7305C26.3685 71.6381 27.2501 73.3112 28.5016 73.5502C29.29 73.7617 30.1419 73.7298 30.9508 73.7916C30.7966 74.0889 30.7586 74.4553 30.7388 74.7739C27.8969 74.9508 26.238 77.1773 25.4631 79.7228C23.9092 84.5971 22.719 89.5802 21.4306 94.5295L21.2846 95.1035C20.0413 99.9822 18.7341 104.847 17.1743 109.635C16.6436 111.294 16.0374 112.929 15.5488 114.601C15.5053 114.749 15.5375 114.885 15.612 114.993C15.7042 115.646 16.1215 116.741 16.824 116.914C16.5359 117.48 16.2768 118.093 16.0566 118.682C12.8876 117.84 10.2263 120.326 7.56252 121.606C6.22109 122.307 4.26534 122.111 3.5109 123.659C2.29457 123.355 0.81279 124.031 0.689491 125.389C0.5821 126.788 1.77358 127.192 2.94246 127.276C5.04452 127.561 7.15877 127.748 9.2791 127.818C8.08155 131.85 10.0664 137.72 14.1594 139.378C19.5433 141.647 25.7976 137.003 25.9354 131.357C30.4571 131.785 34.9794 132.318 39.5111 132.594C39.3236 133.239 40.1791 133.506 40.6705 133.317C39.4727 138.75 43.0094 145.648 48.8972 145.626C56.4842 145.575 59.5509 135.033 55.5771 129.392L55.615 129.294C56.2472 127.663 57.4363 124.305 55.4275 123.339C55.8515 122.692 55.7452 121.878 55.7311 121.146C57.5921 121.231 58.5538 122.567 59.2452 124.144C59.8826 125.556 60.4899 126.982 61.1182 128.399C61.71 129.935 62.294 130.71 64.0351 130.812L64.2135 130.825C66.1565 130.966 68.7392 131.082 70.4926 130.302C74.6537 137.904 83.3846 142.414 90.9415 136.964C106.454 126.271 105.883 86.197 85.3998 81.4506C85.3915 80.6867 85.3805 79.9232 85.3672 79.1592C85.411 78.6725 85.4015 78.1869 85.3576 77.6935L85.3481 77.4917C85.2919 76.2464 85.2788 74.9878 85.4326 73.75C87.9181 73.5485 89.4236 70.3722 89.6743 69.8915C91.5905 66.2182 89.8181 59.4212 89.0207 55.8699C89.7942 55.9313 90.5013 55.8372 91.2574 55.846L91.5197 55.8504C92.925 55.8723 93.8689 55.8134 93.9045 54.0629C93.9027 53.3521 94.2192 52.0343 93.2832 51.8135C92.8604 51.7288 92.3611 51.8786 91.9377 51.9203C90.6011 52.0284 89.2628 52.1104 87.9221 52.1021C86.7589 48.7727 85.8484 45.21 83.6332 42.3913C81.7515 40.0065 78.7417 39.0673 76.0359 37.9404C75.3016 37.6564 74.6815 37.1645 74.0489 36.689L74.0052 36.6552C73.6911 36.4141 73.3495 36.2106 72.9414 36.1997C72.5448 36.1891 72.1758 36.3687 71.7876 36.3949C71.7193 36.344 71.6301 36.3121 71.5528 36.3337C71.3461 35.7625 71.1932 35.1689 71.1179 34.5672L71.1243 34.5395C71.1359 34.4937 71.1404 34.5053 71.137 34.575C71.1189 34.575 71.1162 34.6004 71.133 34.6059ZM48.8973 126.596C49.7519 126.596 50.5722 126.778 51.3352 127.109C51.5124 128.092 50.7029 129.47 50.4309 130.46C50.4199 130.869 50.3455 131.286 50.2497 131.691C50.1818 132.871 49.6818 133.953 49.4498 135.071C49.4068 135.283 49.0815 135.193 49.1246 134.981C49.3279 133.979 49.5996 132.994 49.8335 131.999C49.7237 132.065 49.5376 131.976 49.578 131.812C49.6647 131.46 49.6646 131.105 49.6507 130.748C43.864 131.478 44.2024 141.087 50.1059 141.219C53.937 141.315 56.072 136.069 53.9064 132.927C54.2619 132.164 54.647 131.414 55.0112 130.649C58.1134 135.832 54.8646 144.665 48.8973 144.503C39.2743 144.232 39.27 126.87 48.8973 126.596ZM14.1541 127.726C13.0119 129.853 13.1338 132.711 14.5825 134.672C16.2211 136.901 19.7972 136.64 21.4027 134.501C22.0373 133.739 22.5262 132.805 22.5548 131.796C22.557 131.574 22.413 131.181 22.6071 131.006L23.8478 131.139C24.4682 131.205 25.0887 131.27 25.709 131.334C23.9112 136.133 19.4928 140.479 14.0983 138.076C10.7551 136.233 9.51642 131.833 10.0041 128.243C10.0316 128.071 9.96921 127.93 9.868 127.835C11.2967 127.868 12.7314 127.876 14.1541 127.726ZM72.7591 91.3031C82.2943 76.2387 94.8547 85.9919 98.0699 99.8182C100.484 109.338 99.6275 120.96 94.5861 129.387C88.6656 139.423 78.6738 139.411 72.7593 129.387C68.283 121.906 67.1056 111.904 68.5879 103.092C68.5874 103.171 68.6151 103.25 68.6722 103.314C66.9299 113.891 68.8904 126.98 77.2876 133.406C83.4865 137.976 90.7348 134.24 94.2147 127.979C100.95 116.629 100.431 95.8157 89.383 87.2838C86.2292 85.0382 82.5253 84.6119 79.1094 86.2172C79.0745 86.0052 78.943 86.239 78.8918 86.3228C73.0147 89.4397 70.1098 96.1342 68.7667 102.798C68.6856 102.843 68.6315 102.912 68.6056 102.988C68.7895 101.911 69.0132 100.852 69.2755 99.8182C70.0969 96.6207 71.2693 93.7562 72.7591 91.3031ZM51.1566 135.64C51.665 135.316 51.4231 136.288 51.2464 136.469C51.1194 136.648 50.8676 136.496 50.9551 136.299C51.0636 136.14 50.8706 135.658 51.1566 135.64ZM84.952 86.5318C99.2164 90.5346 100.15 116.842 93.2497 127.403C90.073 133.091 83.6193 136.673 77.9367 132.49C77.0056 131.833 76.1256 131.016 75.3031 130.049C78.9565 130.019 82.6028 129.53 86.2485 129.255L86.3312 129.248C86.8833 129.2 87.4496 129.174 87.9583 128.936C89.5003 128.181 89.0801 126.244 87.6789 125.568C86.9114 124.057 83.5222 124.394 82.0063 124.314C82.3466 119.97 82.1696 115.601 82.2188 111.248C83.3029 111.484 84.3835 111.731 85.4625 111.992C85.5907 112.023 85.7206 112.005 85.8302 111.95C86.0935 112.366 86.6099 112.412 87.0239 112.202C87.8611 111.78 87.9567 110.68 87.7987 109.868L87.7821 109.797C87.6441 109.223 87.3682 108.368 86.695 108.323C86.2704 108.059 85.8086 108.371 85.6537 108.786C84.9429 108.667 84.2984 108.854 83.6054 108.715C83.146 108.622 82.6827 108.388 82.2104 108.55C82.194 105.568 82.1837 102.586 82.1519 99.604C83.0428 99.9021 84.13 99.2858 84.3886 98.3959C84.5634 97.8037 84.4088 97.1245 84.3267 96.53L84.3112 96.4187C84.2585 96.0459 84.1926 95.6563 84.0658 95.295C86.072 95.0183 85.6616 90.8192 85.5092 89.3357C85.3224 88.3627 85.2059 87.5175 84.952 86.5318ZM51.8247 103.462C52.7157 103.454 53.3523 104.417 52.838 105.184C51.8029 106.351 50.3069 105.299 48.7029 108.446C46.0416 114.743 44.8138 121.556 43.1576 128.164C42.3247 129.029 41.8187 130.129 41.2071 131.156C40.9814 131.543 40.9125 132.088 40.5026 132.332C40.4233 132.369 40.3598 132.376 40.2974 132.366C41.1478 131.895 40.9697 129.57 40.7944 128.724L40.802 128.724C40.8792 128.73 41.1617 128.791 41.0322 128.658L40.8945 128.614L40.7567 128.57L40.7472 128.535C43.1401 122.986 43.6602 116.791 45.3751 111.012L45.528 110.5C46.1205 108.524 46.8045 106.459 48.3037 104.992C48.3609 104.989 48.4193 104.968 48.473 104.923L48.5269 104.876C49.4118 104.111 50.4993 103.494 51.7101 103.605C51.7584 103.609 51.7663 103.535 51.7213 103.523C51.693 103.515 51.6645 103.51 51.636 103.503C51.6992 103.491 51.7621 103.477 51.8247 103.462ZM56.0808 119.144C56.336 119.246 56.5958 119.174 56.8842 119.181C57.1862 119.188 57.4797 119.238 57.7697 119.321C62.5358 120.698 61.8331 127.853 65.3035 128.683C66.1709 128.851 67.0441 128.721 67.914 128.605C68.469 128.624 68.979 128.607 69.5103 128.493C69.7599 128.994 70.0214 129.482 70.2935 129.959C69.6611 129.86 69.0169 129.886 68.3778 129.875C66.8749 129.898 65.3721 129.837 63.8798 129.65C63.3485 129.59 62.8582 129.442 62.5438 128.982C61.8342 127.784 61.3486 126.452 60.7103 125.214L60.6264 125.025C59.713 122.973 58.5046 120.51 55.9346 120.504C55.92 120.356 55.8041 120.237 55.6726 120.201C55.658 119.987 55.6433 119.774 55.6276 119.56C55.7761 119.418 55.8855 119.234 56.0808 119.144ZM87.8025 126.128C88.0807 126.595 88.0519 127.414 87.5534 127.738C87.2155 127.93 86.7336 127.909 86.3592 127.936L85.7142 127.983C85.4992 127.999 85.2843 128.015 85.0694 128.032L84.7472 128.058C81.6728 128.302 78.6015 128.57 75.5312 128.849L75.5173 128.843C75.4746 128.828 75.4075 128.806 75.4075 128.806L75.3598 128.784C75.2916 128.752 75.3742 128.782 75.3823 128.785L75.3828 128.786C75.0404 128.566 74.6715 128.818 74.5906 129.152C74.2836 128.741 73.9861 128.308 73.6983 127.852C74.1029 127.97 74.5326 127.988 74.951 127.962C75.2386 128.288 75.7552 128.168 76.1396 128.161C78.8557 127.944 81.5645 127.631 84.2721 127.328C84.9597 127.248 85.6479 127.167 86.3356 127.086L86.4908 127.072C87.0988 127.014 87.83 126.898 87.8025 126.128ZM28.6769 120.811C28.962 121.121 29.508 121.205 29.8717 121.386C30.2917 121.595 30.6926 121.849 31.0525 122.15C32.6823 123.658 34.3412 126.056 36.8927 124.997C37.4287 124.789 37.9284 124.46 38.2635 123.987C38.4126 124.06 38.5854 123.919 38.7365 123.9C38.6058 124.604 38.5508 125.272 38.3523 125.959C38.2663 126.26 38.169 126.558 38.0492 126.847C37.9259 127.143 37.7035 127.442 37.7119 127.774C35.7788 127.361 33.8245 127.096 31.8649 126.856C31.1292 126.829 29.8865 126.435 29.2774 126.81C28.5558 127.259 28.8795 128.089 28.4948 128.397C27.9074 128.683 27.1486 128.467 26.5128 128.45C23.7432 128.215 20.948 128.059 18.183 127.828C16.5223 127.523 17.6088 127.014 16.8937 126.607C16.8964 124.057 19.9657 124.326 21.7662 124.101C22.3091 124.317 22.858 124.517 23.4135 124.699C23.6876 124.789 23.8768 124.422 23.6871 124.23L23.3012 123.838C23.5645 123.779 23.8261 123.712 24.0849 123.635C24.4492 123.801 24.8321 123.924 25.1889 124.106L25.2555 124.141C25.4989 124.272 25.7858 124.005 25.6401 123.757C25.5273 123.565 25.4379 123.368 25.3683 123.162C25.7091 123.008 26.04 122.833 26.3547 122.632L26.4174 122.592L27.4397 123.162C27.6398 123.274 27.9409 123.085 27.8527 122.845C27.7479 122.514 27.4382 122.373 27.2027 122.151C27.2291 122.094 27.2446 122.019 27.2319 121.961C27.692 121.559 28.0936 121.046 28.6769 120.811ZM15.0529 128.496L15.0859 128.501C15.0837 128.505 15.082 128.508 15.0797 128.512L15.0655 128.51L15.0791 128.512C15.07 128.526 15.0575 128.536 15.0415 128.54C15.0448 128.53 15.0476 128.52 15.0499 128.511L15.0529 128.496ZM52.3617 95.9849L52.2795 96.7523C52.0612 98.7974 51.8535 100.833 51.691 102.88C51.6694 102.901 51.6518 102.924 51.6371 102.949L51.1533 103.036C50.3089 103.19 49.6093 103.35 48.8436 103.929C46.2925 105.292 45.4377 108.293 44.6554 110.867C42.9404 116.513 42.3503 122.474 40.032 127.934C39.9639 128.091 39.9679 128.232 40.0151 128.346C39.6137 128.23 39.21 128.123 38.804 128.024C39.3495 126.975 39.585 125.404 39.433 124.231L39.4924 124.23C39.6818 124.225 39.9106 124.224 40.0619 124.107C40.3605 124.191 40.6135 123.907 40.6419 123.637L40.643 123.624C41.4692 114.376 42.069 105.033 44.3063 95.9922C44.5973 96.2872 45.1228 96.2193 45.514 96.2365L45.5348 96.2375C45.8873 96.2544 46.2404 96.2678 46.5935 96.2791L46.7467 96.2811C48.6119 96.3079 50.5332 96.4424 52.3617 95.9849ZM66.0827 103.403C64.7942 111.497 65.9339 121.212 69.2876 128.035C68.4766 128.019 67.6876 127.801 66.8783 127.804C65.4381 127.828 64.7354 127.534 64.1563 126.164C62.7653 122.997 61.3758 118.929 57.4526 118.327L57.2689 118.31C56.721 118.258 55.7999 118.203 55.7996 118.851C55.7286 118.843 55.6474 118.851 55.5747 118.87C55.5629 118.719 55.5511 118.567 55.5387 118.416L55.5284 118.117C55.4942 117.174 55.3931 115.869 54.2163 115.879C54.2005 115.776 54.1662 115.672 54.1246 115.57C55.3095 114.986 55.268 111.987 55.4009 110.779C55.5093 109.06 55.5008 107.335 55.4617 105.614C55.4572 105.443 55.4246 105.216 55.4909 105.077C56.1019 104.677 56.2358 104.156 56.2561 103.442C59.5275 103.525 62.809 103.437 66.0827 103.403ZM51.8604 106.474C51.5747 107.118 51.5551 107.862 51.4725 108.556C51.4039 109.381 51.3555 110.207 51.3072 111.034L51.2965 111.223C51.2799 111.512 51.2562 111.792 51.1509 112.069L51.1265 112.133C51.0026 112.465 50.9079 112.773 50.9423 113.139C51.0221 113.994 51.157 114.86 51.3133 115.704C51.5319 116.42 52.3459 115.963 52.809 115.797L52.804 115.844C52.773 116.153 52.7741 116.462 52.9467 116.701C51.6682 116.66 51.577 117.578 51.7221 118.603L51.7306 118.738C51.8197 120.183 51.8494 121.696 51.4556 123.093C50.7912 123.379 50.3088 123.917 49.8464 124.45C49.5743 124.766 49.2341 125.102 49.0199 125.475C47.2162 125.443 45.4966 126.083 44.058 127.292L44.228 126.571C45.3407 121.848 46.4302 117.112 47.9201 112.489C48.6741 110.302 49.2622 107.11 51.8604 106.474ZM79.5699 102.773C79.566 104.829 79.5514 106.885 79.5384 108.941C78.9205 109.028 78.324 109.207 77.7488 109.464C77.3839 109.627 77.5514 110.121 77.8494 110.233C78.3926 110.439 78.9604 110.557 79.5278 110.676C79.5862 115.145 79.2896 119.636 79.733 124.089C78.3998 124.289 78.3028 125.79 78.5551 126.844C77.0789 126.975 75.5908 127.347 74.1105 127.086C73.6743 127.063 73.3966 126.571 72.9971 126.663C69.5099 120.553 68.3721 111.032 69.7833 103.485C73.0519 103.432 76.3326 103.231 79.5699 102.773ZM80.4642 110.873C80.7735 110.938 81.0821 111.004 81.3914 111.069C81.4372 115.486 81.2509 119.922 81.6 124.328C81.4693 124.322 81.4965 124.408 81.6079 124.415C81.6146 124.491 81.6219 124.566 81.6292 124.641C81.65 124.865 81.9559 124.864 81.9767 124.641C81.9812 124.596 81.9851 124.551 81.9891 124.505C82.5783 124.634 83.1766 124.726 83.7704 124.825C84.6452 125.041 86.7476 124.901 86.9049 126.038L86.2246 126.097C83.9292 126.297 81.9126 126.486 79.6366 126.726C79.523 126.028 78.9819 124.996 79.8351 124.553C79.9582 124.67 80.1955 124.618 80.2158 124.396C80.6862 119.907 80.3988 115.379 80.4642 110.873ZM12.8268 119.971C15.5457 118.885 16.9595 120.15 19.1378 121.541C20.2629 122.176 21.7977 122.452 22.9302 121.714C23.4503 121.744 23.6934 121.173 23.6504 120.718C23.651 120.686 23.6516 120.655 23.6516 120.625C24.285 121.005 23.8928 122.063 24.0277 122.687C22.7352 123.092 21.39 123.191 20.0475 123.288C18.308 123.327 16.2102 124.181 16.006 126.122L16.0004 126.181L15.8671 126.177C15.8671 125.981 15.7431 125.778 15.4968 125.759L15.4809 125.758C11.8871 125.531 8.25563 125.543 4.67989 125.179C4.25027 125.057 4.09683 124.774 4.2121 124.354C4.48923 123.343 5.90843 123.294 6.74451 123.059C7.75173 122.775 8.6559 122.279 9.54258 121.746C9.92059 121.852 10.3027 121.941 10.6881 122.016C10.8751 122.052 11.1199 121.887 11.034 121.67L10.9715 121.512C10.9085 121.355 10.8313 121.176 10.7332 121.024C11.022 120.851 11.313 120.684 11.6092 120.527C12.1111 120.704 12.5866 120.937 13.0381 121.224C13.311 121.398 13.5899 121.015 13.386 120.791L13.3788 120.783C13.1432 120.541 12.9603 120.27 12.8268 119.971ZM30.8823 120.303C33.3057 121.485 35.8766 122.367 38.3554 123.436L38.3054 123.455C38.2186 123.488 38.1196 123.532 38.0876 123.611C37.1553 124.348 35.8443 124.649 34.7376 124.125C33.1413 123.27 32.3493 121.428 30.7164 120.595C30.7833 120.503 30.8396 120.404 30.8823 120.303ZM53.9203 117.038C54.0002 117.025 54.2357 116.922 54.2987 116.949C54.4594 117.35 54.4643 117.824 54.5085 118.251C54.658 119.92 54.9652 121.569 55.1354 123.232C54.2934 123.001 53.4277 122.864 52.5613 122.845C52.6318 122.329 52.6888 121.817 52.7188 121.298C52.7744 120.288 52.7336 119.271 52.5821 118.27L52.5717 118.216C52.4077 117.346 52.5381 117.307 53.3592 117.001C53.5357 117.061 53.7325 117.071 53.9203 117.038ZM35.4209 77.6861C36.8241 76.3475 38.9162 76.5101 40.7168 76.5028C44.5559 76.5019 48.3866 76.8508 52.1728 77.4694C52.28 77.6577 52.5811 77.7002 52.7266 77.5604C53.769 77.7344 54.8081 77.9252 55.8449 78.129C55.5581 79.9399 55.3293 81.7609 55.0735 83.5764L55.057 83.6882C54.9443 84.4761 54.8889 85.3579 55.4255 86.0081C55.4406 88.0197 55.5174 90.0384 55.525 92.0527C55.2296 91.7719 54.7529 91.8041 54.3729 91.7345C53.5945 91.5558 52.8535 91.4268 52.0643 91.3831C51.2698 91.2618 50.4753 91.1405 49.6803 91.0199C49.5577 91.0007 49.4593 91.0535 49.3981 91.1327C48.3809 91.013 47.368 90.8087 46.3469 90.7426L46.4074 90.5615C46.7092 89.6505 46.985 88.662 46.5511 87.7565C46.4481 87.5443 46.1115 87.5567 46.0049 87.7565C45.6308 88.4572 45.6148 89.256 45.4711 90.0219C45.3886 90.4612 45.2179 90.9283 45.1384 91.3915C44.7166 92.0883 44.506 92.9053 44.2314 93.6689C41.231 103.125 40.87 113.137 39.7402 122.926C37.9876 122.199 36.2131 121.519 34.4543 120.809C33.1907 120.192 30.3236 119.709 30.4648 117.927C30.4582 117.781 30.4668 117.636 30.4835 117.492C30.4491 117.435 30.4008 117.387 30.3443 117.351C30.9246 115.071 31.1703 112.717 31.3187 110.375C31.7044 103.936 31.895 97.4845 32.0917 91.0372L32.1009 90.7642C32.2495 86.2923 32.2973 81.2074 35.4209 77.6861ZM30.7075 103.521C30.4776 107.817 30.5794 112.174 29.5512 116.38L29.5197 116.508C29.4203 116.911 29.1561 117.48 29.3239 117.902C29.33 118.418 29.148 119.222 29.592 119.586C29.7817 119.724 30.026 119.81 30.2549 119.897C30.1438 120.027 29.9884 120.116 29.8351 120.168L29.8094 120.156C29.3837 119.957 28.6359 119.821 28.529 120.415C27.7238 120.479 26.9451 121.248 26.2957 121.66C25.9634 121.87 25.6193 122.056 25.2656 122.218C25.1534 121.364 24.6534 120.283 23.652 120.31C23.652 119.794 23.74 119.285 23.8173 118.776C24.2829 118.85 24.7479 118.881 25.2186 118.861C25.5311 119.086 25.8405 118.838 25.8812 118.501C27.3242 113.488 28.937 108.454 30.7075 103.521ZM17.618 116.575C19.5401 117.177 21.6499 117.19 23.4953 118.02C22.9414 118.813 22.7282 119.772 22.5929 120.714C22.4664 120.813 22.3815 120.969 22.3747 121.138C22.3713 121.197 22.3768 121.257 22.3944 121.313C20.3411 121.742 18.8351 120.004 17.1834 119.126C17.4086 118.304 17.5167 117.424 17.618 116.575ZM22.5869 120.79L22.5863 120.802C22.5892 120.898 22.5144 120.867 22.5869 120.79ZM23.917 118.198C23.9484 118.212 23.9795 118.227 24.0108 118.241C23.9784 118.236 23.9459 118.232 23.9136 118.226C23.9147 118.217 23.916 118.207 23.917 118.198ZM28.6921 76.5781C30.9331 75.0646 35.4027 75.7717 38.0582 75.9499C32.8119 76.3469 31.9436 83.5425 31.527 87.6839C31.1919 92.1326 31.0674 96.597 30.8224 101.052C28.7332 106.624 27.0378 112.339 25.2511 118.014C23.7999 117.202 22.2132 116.685 20.5703 116.418L20.3334 116.383C18.9573 116.182 17.5583 115.931 16.4248 115.073C20.4833 105.177 22.1821 94.493 25.2678 84.2803C26.174 81.7248 26.4732 78.3719 28.6921 76.5781ZM16.702 116.167C16.7791 116.213 16.8584 116.256 16.9392 116.296C16.8966 116.286 16.8513 116.285 16.8057 116.291C16.7705 116.251 16.7328 116.205 16.702 116.167ZM53.5519 94.7924C53.9224 94.1729 54.7412 93.6114 55.4675 93.8805C54.3735 94.5476 54.6112 96.4759 54.5307 97.6037L54.5325 97.6674C54.5593 98.7314 54.4688 100.978 55.0549 101.736C55.0139 102.226 55.0132 102.733 54.9632 103.225C54.948 103.405 54.9835 103.742 54.8772 103.902C53.7041 104.558 54.273 106.132 54.203 107.225C54.2562 109.316 54.1097 111.404 54.0489 113.494C54.0528 114.034 54.1054 114.61 53.9253 115.127C53.6948 114.636 53.0381 114.669 52.8952 115.167C52.7802 115.016 52.5489 115.004 52.351 115.031C52.2813 114.368 52.1739 113.706 52.1508 113.042C52.1396 112.712 52.3341 112.44 52.4056 112.125C52.5492 110.928 52.3857 109.704 52.3712 108.501L52.3677 108.465C52.3216 107.967 52.2856 106.735 52.0041 106.433C53.8259 106.106 54.4023 103.815 52.6242 102.969C52.6486 102.857 52.6252 102.739 52.5483 102.655C52.6997 100.843 52.8955 99.0326 53.0673 97.2215C53.141 96.4058 53.1381 95.5245 53.5519 94.7924ZM86.5907 110.234C86.453 110.048 86.7501 109.847 86.871 110.044C86.9958 110.255 87.0684 110.513 87.0176 110.756C86.9894 110.891 86.7686 110.928 86.7093 110.796C86.6582 110.688 86.6402 110.572 86.6148 110.456C86.5467 110.403 86.5459 110.304 86.5907 110.234ZM85.5536 109.139C85.548 109.171 85.5429 109.204 85.5384 109.237C85.4878 109.218 85.4356 109.203 85.3816 109.189C85.4389 109.174 85.4963 109.157 85.5536 109.139ZM81.1354 95.8007C81.2737 95.8871 81.4373 95.9416 81.6088 95.9668C81.2959 100.248 81.4732 104.559 81.398 108.85C81.0896 108.921 80.7679 108.862 80.455 108.886C80.3785 105.141 80.5217 101.398 80.2813 97.6553C80.4912 97.1197 80.6253 96.4694 80.4697 95.8989C80.6946 95.877 80.9172 95.845 81.1354 95.8007ZM57.482 101.738C60.2559 101.846 63.0487 101.798 65.8265 101.764C66.0019 101.759 66.1824 101.758 66.3651 101.757C66.2937 102.131 66.2268 102.508 66.165 102.887C62.8769 102.849 59.5817 102.772 56.2957 102.843L56.3096 102.689C56.3234 102.535 56.3359 102.376 56.3401 102.219C56.7483 102.188 57.1475 102.013 57.482 101.738ZM72.2578 95.4772C72.4597 95.7374 72.9021 95.5704 73.1951 95.5951C73.2699 95.7147 73.3981 95.8027 73.5791 95.8123C74.973 95.8864 76.3696 95.901 77.7657 95.9212C78.173 96.3927 78.8968 96.1207 79.421 96.3119C79.4852 96.638 79.4886 96.9764 79.5627 97.3038C79.5942 97.4374 79.6408 97.5637 79.6931 97.6878C79.5795 98.9267 79.5711 100.182 79.5711 101.425C78.8812 101.224 78.1349 101.258 77.4222 101.212C75.8766 101.173 74.3306 101.188 72.7847 101.185C72.1017 101.173 71.3295 101.214 70.6633 101.205C70.4927 101.144 70.2513 101.241 70.2163 101.438C70.0885 101.94 70.657 101.977 70.9967 101.952C71.4066 101.943 71.8164 101.934 72.2258 101.925C73.9025 101.884 75.5795 101.853 77.2546 101.778C78.0229 101.715 78.8299 101.735 79.5711 101.505L79.5707 102.44C79.5706 102.534 79.5703 102.619 79.57 102.691C76.3575 102.678 73.1433 102.728 69.9301 102.698C70.4228 100.199 71.2291 97.6497 72.2578 95.4772ZM30.769 102.179C30.782 102.343 30.7236 102.481 30.6464 102.623C30.6876 102.475 30.729 102.327 30.769 102.179ZM68.0169 95.693C67.4007 97.3894 66.8964 99.18 66.5079 101.04C63.7421 100.98 60.9812 101.009 58.2157 101.014C59.2347 99.8183 60.316 100.147 60.8235 99.3867C61.1911 98.7974 60.8841 96.867 60.788 96.132C62.9412 96.0407 65.1043 96.03 67.2478 95.7861C67.4907 95.7542 67.7549 95.7322 68.0169 95.693ZM83.2427 95.0472C83.2939 95.0899 83.3495 95.128 83.4086 95.1606C83.2606 95.5485 83.4122 95.9393 83.2815 96.3346C83.276 96.8013 83.2998 97.2712 83.2764 97.7147C83.2783 98.1372 83.0155 98.4021 82.6366 98.4293C82.4994 98.4372 82.3178 98.4052 82.1305 98.4608C82.0933 97.6341 82.1257 96.7941 81.99 95.9768C82.0767 95.9691 82.162 95.9544 82.2437 95.9335C82.2562 95.5443 82.6369 95.1694 83.0275 95.3682C83.1056 95.2645 83.1767 95.1551 83.2427 95.0472ZM58.0634 94.7532C58.1812 94.7671 58.2954 94.7934 58.4052 94.8382C58.3795 95.8934 56.8537 95.1524 56.645 96.4473C56.6103 96.7524 56.648 97.0591 56.6581 97.3648C56.663 97.5212 56.7861 97.7668 56.6155 97.8583C56.5277 97.9856 56.2872 97.9607 56.3085 97.7775C56.3124 97.7439 56.3151 97.7095 56.3174 97.675C56.2423 97.5421 56.1966 97.4026 56.1721 97.2587C56.0815 97.2119 56.1086 97.0919 56.1488 97.0073C56.1723 96.8239 56.0957 96.5009 56.2966 96.4033C56.3172 95.1855 56.7699 94.9921 57.9021 94.8931C57.979 94.885 58.0278 94.923 58.0497 94.9757C58.0796 94.9106 58.0787 94.8324 58.0634 94.7532ZM59.0668 78.7285C59.8771 78.9862 60.782 79.0399 61.6234 79.2006C67.0574 79.9604 72.2785 82.1989 77.8198 82.1387C78.0093 82.1298 78.1869 82.1017 78.3534 82.0562C78.3528 82.1427 78.341 82.2314 78.3224 82.3173C78.2184 82.4059 78.1538 82.5457 78.1335 82.6872C73.9742 84.793 70.8345 89.0724 68.8653 93.5774C66.4254 93.2457 63.9876 92.8693 61.5424 92.5647L61.0987 92.5073L60.211 92.3935C59.7786 92.3389 59.2969 92.2019 58.8672 92.2936C58.6712 90.3348 58.6707 88.4246 58.5231 86.4538C58.9549 86.1086 58.8532 85.3716 58.8705 84.8624C58.9691 82.8187 58.9777 80.7718 59.0668 78.7285ZM56.2629 86.5639C56.4102 86.6027 56.562 86.6167 56.7043 86.5959C57.084 86.7811 57.6461 86.6852 58.0666 86.642C58.0177 87.0967 57.9756 87.5525 57.9576 88.0094C57.8867 89.7911 57.9148 91.6099 58.0751 93.3905C57.499 93.431 56.9228 93.5015 56.3478 93.5482C56.3424 91.2244 56.234 88.8907 56.2629 86.5639ZM78.2136 88.0113C77.7554 89.9187 75.6787 92.8369 73.5913 93.0113C74.862 90.9579 76.3227 89.3395 77.937 88.2005C78.0292 88.1354 78.1208 88.0731 78.2136 88.0113ZM59.5693 73.6116C59.6356 73.6133 59.702 73.6139 59.7683 73.6127C59.3689 74.1925 59.44 75.0956 59.9229 75.6061C58.2374 76.6492 58.2904 78.9826 58.2339 80.7335C58.1668 82.4276 58.0766 84.1181 58.0056 85.8103C58.0056 85.7795 57.9044 85.8227 57.8684 85.8289C57.6403 85.8584 57.4094 85.8685 57.1791 85.8586C56.8312 85.7202 56.3726 85.7174 56.1327 85.382C55.8482 85.0014 55.9135 84.4322 55.9624 83.9916C56.081 82.925 56.2413 81.8623 56.3761 80.7979C56.7478 78.5239 56.7011 74.1001 59.5693 73.6116ZM60.1974 75.8508C61.551 76.6993 63.3318 76.3688 64.8608 76.4627C65.978 76.479 67.0957 76.484 68.2135 76.4801C71.9781 76.4588 75.7405 76.3089 79.502 76.154L79.4936 76.31C79.4244 77.5587 79.2964 78.8085 78.9323 80.0081C78.7255 80.83 78.4166 81.1346 77.5509 81.0619C72.9251 80.9934 68.5362 79.3456 64.0275 78.5177C62.4157 78.2495 60.7774 78.0207 59.1595 77.8307L59.1773 77.73C59.3069 77.0116 59.5163 76.1998 60.1974 75.8508ZM59.2134 39.5955C59.1493 39.7158 59.1123 39.8241 59.1408 39.9362C53.7228 51.5244 55.1536 64.7053 52.2931 76.9269C52.237 76.96 52.2051 77.0123 52.1756 77.0672C51.2507 76.882 50.319 76.7214 49.384 76.5823C49.491 76.3068 49.3261 76.0574 49.1377 75.8784C49.1349 75.8508 49.0972 75.7643 49.095 75.7643C49.4475 71.4297 49.9607 67.0954 50.4023 62.7652C50.6781 59.7475 51.1811 56.7017 51.0449 53.6685C51.0398 53.6331 50.9937 53.6438 50.9835 53.6685C50.2543 56.2899 49.8323 60.2685 49.1034 65.5596C43.8406 71.7261 40.74 72.8049 35.6789 65.6584L35.4191 65.2767C33.0536 61.7961 30.7457 58.2488 28.9504 54.437C31.1961 54.365 32.4084 52.0074 33.3681 50.278C33.5304 50.1904 33.6386 50.0579 33.7274 49.88C34.4877 50.8271 35.0896 51.9954 35.8595 52.9572C37.7708 55.4668 42.1613 58.5786 42.2574 58.6783L42.2758 58.6948C42.5645 58.9586 43.4337 59.9554 43.7024 59.9286C44.8733 61.0129 47.4768 55.9623 47.79 55.0107C48.5535 53.1571 49.1692 52.5874 49.8316 50.6968L49.9457 50.3562C50.8581 47.6245 51.7751 44.7468 54.0586 42.8373L54.1481 42.7423C55.6097 41.1968 57.031 39.991 59.2134 39.5955ZM31.2902 73.8127C31.939 73.8525 32.5884 73.8912 33.2373 73.93L33.8376 73.9655C38.574 74.2489 43.3204 74.599 48.0662 74.3925C48.0216 75.0593 47.7884 75.7502 48.0454 76.3982C44.7712 76.0157 41.4752 75.7801 38.1868 75.9385C36.2326 75.0159 33.8607 74.7266 31.6635 74.7147C31.6264 74.4081 31.4991 74.0615 31.2902 73.8127ZM64.5981 68.575C67.7852 67.153 70.9022 68.6005 72.0238 72.0396C71.9452 72.1042 71.8911 72.2179 71.8776 72.3326C71.5824 72.7263 71.0413 72.714 70.5979 72.7699C69.7062 72.8877 68.8414 73.1752 68.0531 73.6102C67.6179 73.8477 67.2439 74.1913 66.7946 74.3986L66.5528 74.6254C66.1494 75.0027 65.7356 75.3659 65.2009 75.5651C64.6471 75.594 65.3625 74.5156 65.4789 74.3061L65.5222 74.2365C65.7555 73.8665 66.0554 73.4453 65.7361 73.0251C65.1544 73.3037 64.6857 73.7057 64.2178 74.1543L64.1332 74.2362C63.6779 74.6812 63.1544 75.2397 62.5005 75.3125C62.3902 75.3248 62.31 75.1951 62.3377 75.0993C62.6313 74.1271 63.4893 73.4474 64.2879 72.8637C64.2811 72.5866 64.0883 72.3746 63.8361 72.3142C62.7152 72.9594 61.9327 73.9811 60.8367 74.6428C60.7185 74.7127 60.5945 74.6203 60.5829 74.4973C60.5897 73.6368 61.4674 72.9774 62.0724 72.4677C62.1982 72.3705 62.327 72.2765 62.4581 72.1856C62.4283 72.0132 62.2705 71.8623 62.0734 71.8344C61.7139 71.9364 59.5586 73.6089 59.5526 72.8359L59.5566 72.8148C59.6141 72.5429 59.9265 71.953 60.2283 72.0258C61.3453 70.647 62.9494 69.2136 64.5981 68.575ZM72.9782 36.9678C74.1044 37.614 75.1848 38.3136 76.3124 38.9533C77.7495 39.7762 79.2935 40.4151 80.6746 41.3361C84.8801 44.4333 86.0991 50.9614 87.6285 55.7225L87.845 56.6467C88.7217 60.3959 90.0379 66.3679 88.4498 69.4234L88.4386 69.4475C88.2403 69.8678 87.2972 71.5724 86.8114 71.8753C85.3878 72.7628 82.4105 73.0645 79.823 72.8908C77.3596 72.7764 74.9344 72.3054 72.5301 71.8102C72.4751 70.9827 72.07 70.2912 71.6436 69.6171L71.5995 69.5474L71.5501 69.4743C70.947 68.5893 70.2669 67.8718 69.2707 67.4811C72.5989 66.4854 78.0784 67.7668 81.7886 65.1605C82.085 64.9523 81.8264 64.5115 81.5049 64.6758C81.3115 64.7746 81.115 64.865 80.9161 64.9491C81.0914 64.3179 80.6348 63.9421 80.362 63.394L80.3512 63.372C78.0082 58.6478 76.1649 53.3376 74.5305 48.5243C75.0061 51.8916 75.7734 55.2266 76.8617 58.4479C75.8644 59.2129 75.0321 60.1772 74.133 61.0519C73.17 62.0728 72.0017 62.9407 71.2667 64.1534C71.1064 64.4358 71.4219 64.7209 71.6957 64.5817C72.3411 64.2539 72.877 63.7341 73.3723 63.2171L73.5736 62.9979C74.8029 61.6565 76.0153 60.2757 76.9533 58.7123C77.5791 60.5237 78.3513 62.0257 79.1771 63.7338L79.2828 63.953C79.4655 64.3308 79.6359 64.7524 79.9366 65.0313C79.7376 65.4299 79.2284 65.5224 78.8357 65.6388C75.6451 66.5334 72.2575 65.7858 69.0539 66.6004L68.8426 66.6551C68.6316 66.7099 68.4182 66.7763 68.2925 66.9689C65.4984 67.0709 62.7774 68.2146 60.5995 69.9774L60.5434 70.0221C59.6258 70.7562 58.6856 71.725 58.5209 72.9397C58.4899 73.1687 58.5748 73.4926 58.8486 73.5442C58.3184 73.6099 57.84 73.8827 57.4469 74.26C61.1947 61.267 72.1736 50.9216 72.9782 36.9678ZM61.1128 73.9043C61.0608 73.9829 61.0137 74.0651 60.9792 74.1506C60.9961 74.1389 61.0124 74.1262 61.0291 74.1143C61.0244 74.0719 61.056 74.0246 61.0864 73.9903L61.0861 73.99C61.1006 73.9728 61.1141 73.9547 61.1282 73.9371C61.1219 73.9267 61.1169 73.9157 61.1128 73.9043ZM48.8761 67.486C48.7307 68.7211 48.5857 69.9557 48.4419 71.1909C47.4171 71.0556 46.3849 70.9744 45.3532 70.8984L45.4104 70.8627C45.932 70.537 46.4131 70.1559 46.8644 69.7391C47.3603 69.281 47.833 68.7858 48.2684 68.2698C48.4818 68.0169 48.684 67.7551 48.8761 67.486ZM73.2971 54.2551C73.1381 55.6701 72.2556 56.8697 71.4356 57.9835C71.2209 58.2751 71.709 58.5548 71.9211 58.2668L72.0064 58.1506C72.8682 56.9742 73.6926 55.7389 73.8593 54.2551C73.8996 53.8961 73.3369 53.9001 73.2971 54.2551ZM20.5432 40.1932C23.085 41.7876 25.7447 43.1854 28.3445 44.6823C28.6627 44.8625 28.9849 44.5661 28.9253 44.2366C28.7926 43.5055 28.661 42.7744 28.5316 42.043L28.4317 41.4761C28.3941 41.2715 28.2386 40.5332 28.3872 40.2561C29.0317 41.3462 29.6979 42.4242 30.3673 43.4996L31.0978 44.6722C31.88 45.9285 32.7554 47.2033 33.0663 48.6662C32.8766 48.8462 32.7788 49.1075 32.7554 49.364C32.5369 49.4515 32.3874 49.6947 32.4472 49.9517C31.5111 51.0704 30.8718 52.6778 29.374 53.1481C27.6752 50.7046 24.8833 49.275 21.964 48.9194L21.4459 48.8288C20.1802 48.6054 18.8611 48.3324 17.8528 47.5458C18.8536 47.594 19.8544 47.6401 20.8558 47.6833C21.1909 47.6979 21.2617 47.1702 20.935 47.1001C19.4805 46.7873 18.0029 46.1222 16.8401 45.1387C18.7805 45.8224 20.8164 46.2282 22.8687 46.3877C23.2909 46.3926 23.3644 45.7831 22.9665 45.6641C21.1578 44.9198 19.5364 43.7359 18.2927 42.233L18.2531 42.1849L20.8592 43.5574C21.946 44.1299 23.1088 44.8373 24.3778 44.8356C24.7466 44.835 24.8287 44.3742 24.5548 44.1828L24.1979 43.9176C22.9945 43.0215 20.7152 41.2755 20.5432 40.1932Z" fill="#05F29A"/>
<path fill-rule="evenodd" clip-rule="evenodd" d="M70.3556 14.154C62.0236 13.7449 56.3703 20.3064 56.1271 22.9229C55.9583 24.7391 56.0729 27.1614 56.0729 28.7844C56.0729 29.6128 55.6542 32.131 56.1271 33.3384C57.1796 36.0259 58.3687 38.131 61.6636 38.131C64.9584 38.131 69.9812 36.4257 71.706 34.2263C72.0209 33.8248 75.934 30.8852 75.934 28.5747C75.934 23.645 76.3009 14.446 70.3556 14.154Z" fill="#05F29A"/>
<path fill-rule="evenodd" clip-rule="evenodd" d="M76.0397 8.83015C75.5648 8.68194 75.2618 8.89531 75.0456 9.22587C74.9979 9.21659 74.9518 9.2172 74.9004 9.22955C74.8877 9.23262 74.857 9.24421 74.8338 9.25332C74.8158 9.26084 74.7996 9.26995 74.7839 9.27961L74.7747 9.27473C74.739 9.23592 74.7016 9.20051 74.6612 9.17197C74.5704 9.10785 74.4768 9.08919 74.388 9.10236L74.3469 9.08727C73.9954 8.96497 73.6144 9.02172 73.3761 9.32407C73.33 9.38248 73.2927 9.44753 73.2609 9.51614C73.1894 9.53953 73.1223 9.57334 73.0646 9.61495C73.024 9.5959 72.9811 9.57987 72.9352 9.56807C72.6759 9.50165 72.4035 9.56434 72.1922 9.72309C72.0892 9.80032 72.0136 9.89705 71.9562 10.0075C71.8908 10.0228 71.8262 10.0504 71.7657 10.0874C71.7137 10.0615 71.6609 10.0372 71.6067 10.0206C71.4088 9.9599 71.1964 9.93756 70.9904 9.95287C70.5464 9.98575 70.117 10.4921 70.4137 10.927L70.4229 10.9401C70.4606 10.9925 70.4934 11.0467 70.5237 11.1018C70.4175 11.1479 70.3151 11.2097 70.2205 11.2871C69.7581 11.6656 69.7164 12.2491 69.8029 12.7995L69.8066 12.8224H69.8055C69.5598 12.8457 69.3476 13.102 69.4928 13.3431L69.4999 13.3544C69.6964 13.6575 69.8648 13.9924 70.0526 14.3115C70.5721 14.4985 71.073 14.7288 71.5448 15.0079C71.8386 15.2649 72.1183 15.5366 72.3644 15.8389C72.4873 15.9899 72.6002 16.1497 72.7039 16.3153C72.6209 16.3551 72.5184 16.3531 72.4317 16.273C71.6611 15.5598 70.73 15.0594 69.7387 14.724C69.6673 14.6998 69.6204 14.6542 69.5941 14.6003C69.154 14.4751 68.7062 14.378 68.2539 14.3093C68.1292 14.1907 67.9986 14.0772 67.8745 13.9591C67.716 13.8084 67.5175 13.8106 67.3692 13.9053C67.2955 13.8717 67.2202 13.8421 67.1437 13.8155L67.0962 13.7994C67.0765 13.7929 67.0575 13.7854 67.0381 13.7794C66.5073 13.6174 66.022 13.6776 65.4999 13.8107L65.4331 13.8281C65.1897 13.8926 65.0366 13.8823 64.8009 13.8229L64.7744 13.8161C64.524 13.7509 64.2561 13.7026 64.0002 13.7713C63.7324 13.8431 63.5547 14.003 63.3723 14.1961L63.3541 14.2155C63.2689 14.3064 63.2198 14.3164 63.1083 14.3142L62.989 14.3106C62.5385 14.2983 62.0974 14.3173 61.76 14.6651C61.6353 14.7938 61.5015 14.9759 61.4212 15.1421L61.4095 15.1669C61.4058 15.1749 61.4025 15.1817 61.3994 15.1877C61.3511 15.1799 61.2757 15.1494 61.2399 15.1424C60.749 15.0473 60.3394 15.1938 60.0242 15.5801C59.9552 15.6646 59.851 15.8306 59.7789 15.9219C59.7536 15.9433 59.7297 15.9662 59.7071 15.9903C59.5888 16.0658 59.4211 16.061 59.2884 16.0875C58.9267 16.1594 58.5401 16.2967 58.3563 16.6404C58.2794 16.7838 58.251 16.9408 58.2186 17.0976C58.097 17.1773 58.0017 17.2923 57.9277 17.4167C57.8378 17.5678 57.7995 17.7528 57.6959 17.8955C57.6207 17.9991 57.5058 18.0544 57.3965 18.1178L57.3547 18.1423C57.0307 18.335 56.777 18.5488 56.6703 18.9263L56.6611 18.9598C56.6438 19.0177 56.583 19.1827 56.6359 19.1579C56.5904 19.183 56.513 19.1918 56.4714 19.2056C56.2466 19.2798 56.0512 19.3998 55.9315 19.6105C55.8404 19.7709 55.8238 19.9381 55.7977 20.1149L55.7866 20.1863C55.7838 20.2036 55.7804 20.2237 55.7769 20.2431L55.7734 20.2622L55.7727 20.2627C55.732 20.2802 55.692 20.2993 55.6527 20.3198C55.4664 20.4293 55.339 20.6194 55.339 20.8395C55.339 20.9463 55.3725 21.0295 55.4211 21.1038C55.3818 21.1633 55.3513 21.2267 55.3283 21.2974C55.2831 21.4353 55.2799 21.5861 55.2951 21.7289C55.3134 21.9001 55.3574 22.0561 55.4092 22.2197C55.4292 22.2828 55.4373 22.371 55.4673 22.4313C55.4119 22.5019 55.3788 22.5883 55.3891 22.6735C55.4037 22.7953 55.4594 22.9378 55.57 23.0061C55.624 23.2723 55.7403 23.5444 55.8548 23.762C55.868 23.7873 55.884 23.8098 55.9016 23.8285C55.8856 24.6974 55.9494 25.5725 55.9538 26.4403C55.9587 27.385 55.9389 28.3303 55.906 29.2738C55.8504 30.8377 55.652 32.4549 56.1143 33.9798C56.4925 35.2281 57.2501 36.2996 58.2659 37.112C59.306 37.9431 60.5598 38.424 61.8913 38.4992C62.5685 38.537 63.2573 38.4601 63.9126 38.285L63.9826 38.2661C64.6165 38.0922 65.3509 37.8265 65.8173 37.3612C66.0636 37.1153 65.8146 36.5944 65.4534 36.7376C65.0956 36.8798 64.7745 37.09 64.4194 37.2382C64.1022 37.3705 63.7712 37.4721 63.436 37.5467C62.7637 37.6977 62.0507 37.7307 61.3674 37.6367C58.9003 37.2997 56.9779 35.2539 56.5986 32.8281C56.4936 32.1564 56.4956 31.4736 56.5027 30.7948L56.5105 30.051C56.5165 29.4288 56.5187 28.8062 56.4958 28.1843C56.4667 27.3839 56.4101 26.5841 56.3342 25.7871L56.2947 25.3724C56.2478 24.8871 56.1949 24.3982 56.1039 23.9196C56.1785 23.9235 56.767 22.9181 57.0937 22.3562C57.2129 22.2618 57.3136 22.1445 57.3524 21.9927C57.3605 21.9611 57.3647 21.9291 57.3672 21.8971C57.4381 21.7858 57.5129 21.6774 57.5919 21.5723L57.6091 21.5646C57.6224 21.5585 57.6327 21.5535 57.6387 21.5501C57.811 21.4525 57.9549 21.3048 58.0533 21.1335C58.0865 21.0757 58.1137 21.0155 58.1358 20.9538C58.2763 20.8162 58.4232 20.6849 58.5776 20.5618C58.5928 20.5497 58.6084 20.5384 58.6237 20.5265C58.8202 20.4533 58.9927 20.3429 59.1185 20.184C59.1711 20.1515 59.224 20.1197 59.2774 20.0885C59.4376 20.087 59.5994 20.0497 59.7568 19.9851C60.0449 19.867 60.2749 19.6335 60.5643 19.5254C60.8703 19.411 61.1927 19.6709 61.5179 19.624C61.6009 19.612 61.6832 19.5868 61.7597 19.5503C61.9428 19.7439 62.1371 19.9265 62.3514 20.0863C62.6623 20.3183 62.9803 20.4243 63.3407 20.5291C63.5194 20.6983 63.7193 20.8624 63.9605 20.8865C64.5186 21.332 65.1156 21.7078 65.7437 22.0567C65.8447 22.1128 65.9451 22.1381 66.0405 22.1387C66.2375 22.2623 66.4525 22.3573 66.6797 22.423C66.7509 22.4436 66.8243 22.448 66.8965 22.4391L67.0936 22.5995C67.2308 22.711 67.3771 22.7643 67.5172 22.7678C67.6024 22.8329 67.6906 22.8946 67.7815 22.9539C67.8789 23.0175 68.0051 23.0438 68.132 23.0361C68.3258 23.2254 68.5771 23.2453 68.7875 23.1581C68.8164 23.175 68.8461 23.191 68.8796 23.2068C68.925 23.2283 68.9724 23.2464 69.0207 23.261C69.2401 23.4972 69.5613 23.621 69.8832 23.5886C70.1235 23.7356 70.4033 23.8121 70.6768 23.7949C70.7185 24.0042 70.753 24.2142 70.7822 24.4249L70.7852 24.5793C70.7855 24.6043 70.7855 24.6238 70.7852 24.6367L70.785 24.6418C70.7583 25.3185 70.7437 25.9956 70.7172 26.6725L70.7148 26.7259C70.6847 27.3173 70.539 28.3955 71.4095 28.372C71.7339 28.3632 72.0557 28.1247 72.3083 27.9286L72.3439 27.9009C72.3632 27.8859 72.3831 27.8704 72.403 27.8547C72.5918 27.8303 72.7779 27.7844 72.9686 27.7774C73.2038 27.7692 73.4512 27.7934 73.6805 27.8466C74.085 27.9405 74.4764 28.1244 74.7403 28.4576C74.7634 28.4867 74.7848 28.5174 74.8052 28.5481C74.8239 28.6113 74.8557 28.6695 74.8981 28.72C75.1476 29.2804 75.0036 30.021 74.7277 30.5336C74.3989 31.1443 73.8787 31.5665 73.2246 31.7791L73.1918 31.7896C72.7448 31.929 72.5739 32.1991 72.3309 32.5745C72.1033 32.9269 71.8422 33.2552 71.5618 33.567C71.0193 34.1703 70.2579 34.6682 69.9424 35.4317C69.8786 35.5855 70.0611 35.7303 70.2024 35.6909C70.756 35.5355 71.1441 35.1419 71.5465 34.7505C71.8249 34.4795 72.0928 34.1975 72.344 33.9014C72.3968 33.9257 72.4548 33.9421 72.5152 33.9494C72.7818 33.9819 73.0567 33.9684 73.2902 33.8249C73.3977 33.8347 73.5098 33.7974 73.593 33.7213C73.6694 33.6513 73.7353 33.5755 73.7909 33.4949C73.8754 33.5023 73.9584 33.5045 74.0377 33.4914C74.0759 33.4878 74.1129 33.4778 74.1468 33.4613C74.2098 33.4365 74.2695 33.3981 74.3244 33.3394C74.4355 33.2202 74.4781 33.0519 74.4576 32.892C74.4796 32.8874 74.5015 32.8817 74.523 32.8744C74.671 32.8244 74.7849 32.7251 74.8577 32.59C74.9879 32.517 75.1051 32.4181 75.1939 32.313C75.3021 32.1852 75.3836 32.0411 75.4316 31.8819C75.4811 31.8589 75.5292 31.8323 75.5753 31.8011C75.9054 31.5781 76.0944 31.1594 75.9647 30.7722L75.9603 30.7601C75.9538 30.7426 75.9418 30.7129 75.9272 30.6794C75.9293 30.6521 75.9315 30.6248 75.933 30.5975L75.9376 30.5151L76.0037 30.487C76.3335 30.356 76.5565 30.1792 76.5961 29.8086C76.6044 29.732 76.5746 29.6538 76.5276 29.5885L76.5278 29.568C76.5492 29.5569 76.5696 29.5455 76.5876 29.5341C76.7674 29.4195 76.8779 29.2139 76.8656 29.0014C76.8542 28.8076 76.7467 28.6532 76.6259 28.5104L76.5914 28.4703C76.5885 28.4671 76.5853 28.4634 76.5818 28.4595L76.6617 28.4344C76.7136 28.418 76.761 28.4016 76.7952 28.3825C76.9273 28.3085 77.0394 28.2086 77.1085 28.0816C77.1185 28.0658 77.1288 28.0503 77.138 28.0335C77.2272 27.871 77.2389 27.6627 77.1813 27.4882C77.1745 27.4676 77.1657 27.4483 77.1567 27.429C77.3997 27.3435 77.5867 27.1667 77.6093 26.841C77.6181 26.7129 77.59 26.5852 77.529 26.4759C77.5425 26.4023 77.5453 26.326 77.5365 26.2505C77.622 26.1699 77.6884 26.0728 77.7181 25.9542C77.7742 25.7303 77.6715 25.5173 77.5188 25.3219C77.5753 25.1675 77.5782 24.9932 77.5137 24.8377C77.5385 24.76 77.5526 24.678 77.5534 24.5937C77.5551 24.4071 77.4976 24.2513 77.4046 24.1187C77.5353 23.9592 77.5973 23.7472 77.5202 23.5486C77.4652 23.4074 77.4025 23.2782 77.3301 23.1585C77.3681 23.0675 77.3902 22.9656 77.3902 22.8515C77.3902 22.6462 77.3131 22.4835 77.1952 22.3504C77.2464 22.1073 77.1423 21.8112 76.9155 21.7042C76.83 21.6638 76.7156 21.6216 76.5895 21.5888C76.5422 21.4411 76.4927 21.2941 76.4406 21.148C76.3584 20.9182 76.27 20.6916 76.1763 20.4675C76.2303 20.5147 76.2868 20.5587 76.3453 20.5985C76.5303 20.8333 76.7755 21.0368 76.9816 21.1585C77.3901 21.3998 77.8574 21.2566 78.0591 20.8529C78.2486 20.9942 78.4761 21.0778 78.7188 21.0492C78.994 21.0168 79.2456 20.8388 79.3143 20.5612C79.3243 20.5211 79.3303 20.4776 79.3309 20.4339C79.4887 20.5461 79.6538 20.6494 79.835 20.7085C80.0657 20.7838 80.3012 20.6032 80.3316 20.3781C80.3437 20.2889 80.3269 20.2101 80.2914 20.1435L80.3139 20.1347C80.3177 20.1331 80.3214 20.1315 80.3251 20.1297C80.4461 20.0731 80.54 19.9694 80.5847 19.8497C80.8466 19.9509 81.1466 19.8323 81.2297 19.5446C81.3286 19.2026 81.3346 18.8563 81.2572 18.5231C81.5348 18.3217 81.7156 17.983 81.7464 17.6289C81.7689 17.3748 81.7082 17.1402 81.6011 16.9232C81.8637 16.8252 81.9539 16.4815 81.8292 16.234C81.9949 16.1392 82.103 15.9384 82.1054 15.7429C82.1794 15.6309 82.2031 15.4867 82.1417 15.3251C82.0607 15.1121 81.8958 14.934 81.707 14.7943C81.7894 14.6511 81.8505 14.495 81.8885 14.3337C82.045 14.288 82.1712 14.1616 82.197 13.9718C82.2292 13.7339 82.0723 13.5323 81.8613 13.479C81.8378 13.4066 81.8093 13.3357 81.7739 13.2676C81.8784 13.0206 81.863 12.7083 81.7283 12.4382C81.609 12.1994 81.4149 12.0534 81.1813 11.9524C81.2407 11.7493 81.1621 11.5467 80.9642 11.3958C80.7226 11.2113 80.4576 11.0703 80.1792 10.9706C80.2039 10.64 80.0655 10.3014 79.7384 10.1862C79.6509 10.1554 79.5599 10.144 79.4674 10.1444C79.4002 9.99854 79.2881 9.87997 79.1418 9.77502C78.9205 9.61627 78.5068 9.71325 78.384 9.9622L78.378 9.97499C78.3718 9.9891 78.365 10.002 78.3586 10.0157C78.3338 9.89479 78.276 9.78062 78.1831 9.68703C77.9507 9.45302 77.7054 9.44863 77.4693 9.5487C77.4259 9.44144 77.3735 9.33944 77.3097 9.24618C77.0782 8.90782 76.6958 8.86473 76.4158 9.04796C76.3035 8.94943 76.1782 8.87346 76.0397 8.83015ZM74.3847 29.1771C73.9186 28.9948 73.3529 29.0487 72.8923 29.2237L72.8585 29.2369C72.4516 29.3975 71.7906 29.7548 71.7109 30.2118C71.6697 30.4485 71.8951 30.6532 72.1238 30.5286C72.3228 30.4204 72.4344 30.2025 72.5927 30.0444C72.7493 29.888 72.9247 29.7623 73.116 29.6519C73.5151 29.4219 73.9345 29.3324 74.3847 29.2661C74.4353 29.2589 74.4215 29.1914 74.3847 29.1771Z" fill="#05F29A"/>
<path fill-rule="evenodd" clip-rule="evenodd" d="M61.7744 34.0841C62.144 33.9336 62.4737 33.6825 62.7147 33.3617C62.7985 33.2502 62.8203 33.1325 62.8027 33.0248C62.7829 32.9036 62.7112 32.7939 62.6133 32.7203C62.5152 32.6464 62.3924 32.61 62.2737 32.6286C62.1705 32.6447 62.0679 32.7011 61.9866 32.818L61.9696 32.8414C61.8263 33.035 61.6396 33.1939 61.4268 33.2963C61.2217 33.395 60.9923 33.441 60.755 33.4142C60.3029 33.3632 59.9913 33.1191 59.6601 32.7876C59.619 32.7457 59.578 32.7025 59.5367 32.6587C59.5106 32.6189 59.4744 32.5934 59.4343 32.58C59.3897 32.5651 59.3392 32.5659 59.293 32.582C59.2485 32.5975 59.2086 32.627 59.1819 32.6661C59.1565 32.7034 59.1421 32.7493 59.1468 32.8022C59.1771 33.1458 59.357 33.4525 59.6125 33.6932C59.8963 33.9606 60.2725 34.1456 60.6266 34.2105C61.0168 34.282 61.4144 34.2308 61.7744 34.0841ZM60.4425 28.7837C60.0273 29.0356 59.3948 29.6231 59.8414 30.2478C60.3671 30.7985 61.1239 30.1671 61.4968 29.8815C61.8426 29.6601 62.2312 30.2294 61.9103 30.4878C59.2154 32.4802 58.1218 28.8495 60.2325 28.4874C60.4649 28.4475 60.5512 28.7057 60.4425 28.7837ZM65.2718 26.466C65.2259 25.8975 64.3589 25.7684 64.2726 26.331C64.1954 26.8349 64.2863 27.2978 64.5136 27.7515C64.7308 28.1849 65.2767 27.9827 65.318 27.588C65.3733 27.059 65.3003 26.8196 65.2718 26.466ZM58.6717 26.2144C58.5509 26.0563 58.3763 25.9484 58.1672 26.0094C57.5139 26.2 57.7064 27.1262 57.9359 27.577C58.0606 27.8219 58.4636 27.884 58.6457 27.6684C58.9425 27.3169 59.0847 26.6148 58.7073 26.2686C58.6971 26.2507 58.6857 26.2326 58.6717 26.2144ZM64.5229 23.9786L64.4197 23.9605C64.1004 23.9054 63.7034 23.8524 63.4776 24.1087C63.3578 24.2446 63.3166 24.4972 63.4776 24.6273C63.7608 24.8562 64.0739 24.7675 64.4133 24.7869C64.693 24.8029 64.9618 24.8492 65.2312 24.9261C65.8223 25.0947 66.3039 25.4027 66.8087 25.7408C66.8749 25.7852 66.9425 25.7006 66.9109 25.6387C66.6195 25.0688 66.0548 24.6006 65.4891 24.3152C65.1872 24.1629 64.8569 24.0365 64.5229 23.9786ZM59.2673 23.7232L59.1883 23.7394C58.3287 23.9188 57.2119 24.2772 56.8048 25.1203C56.7893 25.2395 56.8057 25.2651 56.819 25.2818L56.8235 25.2873C56.8345 25.3016 56.8432 25.3212 56.895 25.3375C56.9093 25.3341 56.9238 25.3304 56.9385 25.3266C57.1251 25.2778 57.2727 25.2105 57.4156 25.1407L57.5706 25.0645C57.7504 24.9764 57.9318 24.8916 58.124 24.829C58.5342 24.6954 58.9561 24.6013 59.3846 24.551C59.4774 24.5401 59.5669 24.5088 59.6374 24.4552C59.7044 24.4043 59.7555 24.3338 59.7789 24.2401C59.8091 24.1188 59.8004 24.027 59.7353 23.9176C59.6863 23.8355 59.6162 23.7785 59.5357 23.7458C59.4536 23.7125 59.3602 23.7046 59.2673 23.7232Z" fill="#05F29A"/>
</g>
</svg>
