<svg width="267" height="89" viewBox="0 0 267 89" fill="none" xmlns="http://www.w3.org/2000/svg">
<path d="M12.0729 35.5186C11.7179 38.2552 13.9129 40.7952 13.9129 40.7952C13.9129 40.7952 16.6846 38.8986 17.0413 36.1619C17.3963 33.4219 15.1996 30.8836 15.1996 30.8836C15.1996 30.8836 12.4296 32.7819 12.0729 35.5186ZM9.47128 44.7169C10.6313 47.2219 13.8446 48.2052 13.8446 48.2052C13.8446 48.2052 15.1779 45.1269 14.018 42.6219C12.858 40.1169 9.64295 39.1319 9.64295 39.1319C9.64295 39.1319 8.30962 42.2119 9.47128 44.7169ZM10.8379 53.5252C13.0513 55.1802 16.3479 54.5236 16.3479 54.5236C16.3479 54.5236 16.0546 51.1819 13.8413 49.5269C11.628 47.8719 8.33128 48.5286 8.33128 48.5286C8.33128 48.5286 8.62462 51.8702 10.8379 53.5252ZM16.853 60.6886C19.3613 61.8519 22.4513 60.5302 22.4513 60.5302C22.4513 60.5302 21.4729 57.3219 18.9646 56.1569C16.4563 54.9936 13.3679 56.3169 13.3679 56.3169C13.3679 56.3169 14.3446 59.5252 16.853 60.6886ZM19.6329 29.4469C17.6163 31.3352 17.693 34.6869 17.693 34.6869C17.693 34.6869 21.043 34.9802 23.0596 33.0919C25.0763 31.2036 24.9996 27.8502 24.9996 27.8502C24.9996 27.8502 21.6496 27.5586 19.6329 29.4469Z" fill="#4B4A4A"/>
<path d="M19.0729 35.5186C18.7179 38.2552 20.9129 40.7952 20.9129 40.7952C20.9129 40.7952 23.6846 38.8986 24.0413 36.1619C24.3963 33.4219 22.1996 30.8836 22.1996 30.8836C22.1996 30.8836 19.4296 32.7819 19.0729 35.5186ZM16.4713 44.7169C17.6313 47.2219 20.8446 48.2052 20.8446 48.2052C20.8446 48.2052 22.1779 45.1269 21.018 42.6219C19.858 40.1169 16.6429 39.1319 16.6429 39.1319C16.6429 39.1319 15.3096 42.2119 16.4713 44.7169ZM17.8379 53.5252C20.0513 55.1802 23.3479 54.5236 23.3479 54.5236C23.3479 54.5236 23.0546 51.1819 20.8413 49.5269C18.628 47.8719 15.3313 48.5286 15.3313 48.5286C15.3313 48.5286 15.6246 51.8702 17.8379 53.5252ZM23.853 60.6886C26.3613 61.8519 29.4513 60.5302 29.4513 60.5302C29.4513 60.5302 28.4729 57.3219 25.9646 56.1569C23.4563 54.9936 20.3679 56.3169 20.3679 56.3169C20.3679 56.3169 21.3446 59.5252 23.853 60.6886ZM26.6329 29.4469C24.6163 31.3352 24.693 34.6869 24.693 34.6869C24.693 34.6869 28.043 34.9802 30.0596 33.0919C32.0763 31.2036 31.9996 27.8502 31.9996 27.8502C31.9996 27.8502 28.6496 27.5586 26.6329 29.4469Z" fill="#4B4A4A"/>
<path d="M114.599 29.36C113.139 29.36 111.689 29.17 110.249 28.79C108.809 28.39 107.589 27.83 106.589 27.11L108.479 23.39C109.279 23.97 110.209 24.43 111.269 24.77C112.329 25.11 113.399 25.28 114.479 25.28C115.699 25.28 116.659 25.04 117.359 24.56C118.059 24.08 118.409 23.42 118.409 22.58C118.409 21.78 118.099 21.15 117.479 20.69C116.859 20.23 115.859 20 114.479 20H112.259V16.79L118.109 10.16L118.649 11.9H107.639V8H122.339V11.15L116.519 17.78L114.059 16.37H115.469C118.049 16.37 119.999 16.95 121.319 18.11C122.639 19.27 123.299 20.76 123.299 22.58C123.299 23.76 122.989 24.87 122.369 25.91C121.749 26.93 120.799 27.76 119.519 28.4C118.239 29.04 116.599 29.36 114.599 29.36ZM133.343 29.36C131.623 29.36 130.083 28.94 128.723 28.1C127.363 27.24 126.293 26 125.513 24.38C124.733 22.76 124.343 20.8 124.343 18.5C124.343 16.2 124.733 14.24 125.513 12.62C126.293 11 127.363 9.77 128.723 8.93C130.083 8.07 131.623 7.64 133.343 7.64C135.083 7.64 136.623 8.07 137.963 8.93C139.323 9.77 140.393 11 141.173 12.62C141.953 14.24 142.343 16.2 142.343 18.5C142.343 20.8 141.953 22.76 141.173 24.38C140.393 26 139.323 27.24 137.963 28.1C136.623 28.94 135.083 29.36 133.343 29.36ZM133.343 25.25C134.163 25.25 134.873 25.02 135.473 24.56C136.093 24.1 136.573 23.37 136.913 22.37C137.273 21.37 137.453 20.08 137.453 18.5C137.453 16.92 137.273 15.63 136.913 14.63C136.573 13.63 136.093 12.9 135.473 12.44C134.873 11.98 134.163 11.75 133.343 11.75C132.543 11.75 131.833 11.98 131.213 12.44C130.613 12.9 130.133 13.63 129.773 14.63C129.433 15.63 129.263 16.92 129.263 18.5C129.263 20.08 129.433 21.37 129.773 22.37C130.133 23.37 130.613 24.1 131.213 24.56C131.833 25.02 132.543 25.25 133.343 25.25ZM149.472 25.43V11.57H153.342V25.43H149.472ZM144.282 20.33V16.67H158.562V20.33H144.282Z" fill="#4B4A4A"/>
<path d="M119.863 45.3H121.293V53H119.863V45.3ZM115.881 53H114.451V45.3H115.881V53ZM119.973 49.7H115.76V48.479H119.973V49.7ZM122.268 53L125.733 45.3H127.141L130.617 53H129.121L126.14 46.059H126.712L123.742 53H122.268ZM123.863 51.218L124.248 50.096H128.406L128.791 51.218H123.863ZM131.596 53V45.3H134.764C135.446 45.3 136.029 45.41 136.513 45.63C137.004 45.85 137.382 46.1653 137.646 46.576C137.91 46.9867 138.042 47.4743 138.042 48.039C138.042 48.6037 137.91 49.0913 137.646 49.502C137.382 49.9127 137.004 50.228 136.513 50.448C136.029 50.668 135.446 50.778 134.764 50.778H132.388L133.026 50.107V53H131.596ZM133.026 50.261L132.388 49.568H134.698C135.329 49.568 135.802 49.436 136.117 49.172C136.44 48.9007 136.601 48.523 136.601 48.039C136.601 47.5477 136.44 47.17 136.117 46.906C135.802 46.642 135.329 46.51 134.698 46.51H132.388L133.026 45.806V50.261ZM139.47 53V45.3H142.638C143.32 45.3 143.903 45.41 144.387 45.63C144.878 45.85 145.256 46.1653 145.52 46.576C145.784 46.9867 145.916 47.4743 145.916 48.039C145.916 48.6037 145.784 49.0913 145.52 49.502C145.256 49.9127 144.878 50.228 144.387 50.448C143.903 50.668 143.32 50.778 142.638 50.778H140.262L140.9 50.107V53H139.47ZM140.9 50.261L140.262 49.568H142.572C143.203 49.568 143.676 49.436 143.991 49.172C144.314 48.9007 144.475 48.523 144.475 48.039C144.475 47.5477 144.314 47.17 143.991 46.906C143.676 46.642 143.203 46.51 142.572 46.51H140.262L140.9 45.806V50.261ZM149.236 53V49.953L149.555 50.833L146.211 45.3H147.74L150.424 49.755H149.566L152.272 45.3H153.68L150.336 50.833L150.666 49.953V53H149.236ZM114.186 66.11C113.599 66.11 113.053 66.0147 112.547 65.824C112.048 65.626 111.612 65.351 111.238 64.999C110.871 64.6397 110.585 64.218 110.38 63.734C110.175 63.25 110.072 62.722 110.072 62.15C110.072 61.578 110.175 61.05 110.38 60.566C110.585 60.082 110.875 59.664 111.249 59.312C111.623 58.9527 112.059 58.6777 112.558 58.487C113.057 58.289 113.603 58.19 114.197 58.19C114.828 58.19 115.403 58.3 115.924 58.52C116.445 58.7327 116.885 59.0517 117.244 59.477L116.32 60.346C116.041 60.0453 115.73 59.8217 115.385 59.675C115.04 59.521 114.666 59.444 114.263 59.444C113.86 59.444 113.489 59.51 113.152 59.642C112.822 59.774 112.532 59.961 112.283 60.203C112.041 60.445 111.85 60.731 111.711 61.061C111.579 61.391 111.513 61.754 111.513 62.15C111.513 62.546 111.579 62.909 111.711 63.239C111.85 63.569 112.041 63.855 112.283 64.097C112.532 64.339 112.822 64.526 113.152 64.658C113.489 64.79 113.86 64.856 114.263 64.856C114.666 64.856 115.04 64.7827 115.385 64.636C115.73 64.482 116.041 64.251 116.32 63.943L117.244 64.823C116.885 65.241 116.445 65.56 115.924 65.78C115.403 66 114.824 66.11 114.186 66.11ZM118.614 66V58.3H120.044V64.79H124.07V66H118.614ZM125.199 66V58.3H126.629V66H125.199ZM130.032 61.501H133.86V62.678H130.032V61.501ZM130.142 64.801H134.487V66H128.712V58.3H134.333V59.499H130.142V64.801ZM136.081 66V58.3H137.258L142.087 64.229H141.504V58.3H142.923V66H141.746L136.917 60.071H137.5V66H136.081ZM146.548 66V59.51H143.996V58.3H150.53V59.51H147.978V66H146.548ZM153.915 66.11C153.314 66.11 152.738 66.0257 152.188 65.857C151.638 65.681 151.202 65.4573 150.879 65.186L151.374 64.075C151.682 64.317 152.063 64.5187 152.518 64.68C152.973 64.8413 153.438 64.922 153.915 64.922C154.318 64.922 154.645 64.878 154.894 64.79C155.143 64.702 155.327 64.5847 155.444 64.438C155.561 64.284 155.62 64.1117 155.62 63.921C155.62 63.6863 155.536 63.4993 155.367 63.36C155.198 63.2133 154.978 63.0997 154.707 63.019C154.443 62.931 154.146 62.8503 153.816 62.777C153.493 62.7037 153.167 62.6193 152.837 62.524C152.514 62.4213 152.217 62.293 151.946 62.139C151.682 61.9777 151.466 61.765 151.297 61.501C151.128 61.237 151.044 60.8997 151.044 60.489C151.044 60.071 151.154 59.6897 151.374 59.345C151.601 58.993 151.942 58.7143 152.397 58.509C152.859 58.2963 153.442 58.19 154.146 58.19C154.608 58.19 155.066 58.2487 155.521 58.366C155.976 58.4833 156.372 58.652 156.709 58.872L156.258 59.983C155.913 59.7777 155.558 59.6273 155.191 59.532C154.824 59.4293 154.472 59.378 154.135 59.378C153.739 59.378 153.416 59.4257 153.167 59.521C152.925 59.6163 152.745 59.741 152.628 59.895C152.518 60.049 152.463 60.225 152.463 60.423C152.463 60.6577 152.544 60.8483 152.705 60.995C152.874 61.1343 153.09 61.2443 153.354 61.325C153.625 61.4057 153.926 61.4863 154.256 61.567C154.586 61.6403 154.912 61.7247 155.235 61.82C155.565 61.9153 155.862 62.04 156.126 62.194C156.397 62.348 156.614 62.557 156.775 62.821C156.944 63.085 157.028 63.4187 157.028 63.822C157.028 64.2327 156.914 64.614 156.687 64.966C156.467 65.3107 156.126 65.5893 155.664 65.802C155.202 66.0073 154.619 66.11 153.915 66.11Z" fill="#101720" fill-opacity="0.6"/>
<path d="M91.0003 83.3952L87.5419 85.4785C87.3892 85.5757 87.2294 85.6174 87.0628 85.6035C86.8961 85.5896 86.7503 85.5341 86.6253 85.4368C86.5003 85.3396 86.4031 85.2182 86.3336 85.0727C86.2642 84.9271 86.2503 84.7638 86.2919 84.5827L87.2086 80.6452L84.1461 77.9993C84.0072 77.8743 83.9206 77.7318 83.8861 77.5718C83.8517 77.4118 83.8619 77.2557 83.9169 77.1035C83.9719 76.9513 84.0553 76.8263 84.1669 76.7285C84.2786 76.6307 84.4314 76.5682 84.6253 76.541L88.6669 76.1868L90.2294 72.4785C90.2989 72.3118 90.4067 72.1868 90.5528 72.1035C90.6989 72.0202 90.8481 71.9785 91.0003 71.9785C91.1525 71.9785 91.3017 72.0202 91.4478 72.1035C91.5939 72.1868 91.7017 72.3118 91.7711 72.4785L93.3336 76.1868L97.3753 76.541C97.5697 76.5688 97.7225 76.6313 97.8336 76.7285C97.9447 76.8257 98.0281 76.9507 98.0836 77.1035C98.1392 77.2563 98.1497 77.4127 98.1153 77.5727C98.0808 77.7327 97.9939 77.8749 97.8544 77.9993L94.7919 80.6452L95.7086 84.5827C95.7503 84.7632 95.7364 84.9266 95.6669 85.0727C95.5975 85.2188 95.5003 85.3402 95.3753 85.4368C95.2503 85.5335 95.1044 85.5891 94.9378 85.6035C94.7711 85.618 94.6114 85.5763 94.4586 85.4785L91.0003 83.3952Z" fill="#EAE42B"/>
<path d="M111 83.3952L107.542 85.4785C107.389 85.5757 107.229 85.6174 107.063 85.6035C106.896 85.5896 106.75 85.5341 106.625 85.4368C106.5 85.3396 106.403 85.2182 106.334 85.0727C106.264 84.9271 106.25 84.7638 106.292 84.5827L107.209 80.6452L104.146 77.9993C104.007 77.8743 103.921 77.7318 103.886 77.5718C103.852 77.4118 103.862 77.2557 103.917 77.1035C103.972 76.9513 104.055 76.8263 104.167 76.7285C104.279 76.6307 104.431 76.5682 104.625 76.541L108.667 76.1868L110.229 72.4785C110.299 72.3118 110.407 72.1868 110.553 72.1035C110.699 72.0202 110.848 71.9785 111 71.9785C111.152 71.9785 111.302 72.0202 111.448 72.1035C111.594 72.1868 111.702 72.3118 111.771 72.4785L113.334 76.1868L117.375 76.541C117.57 76.5688 117.722 76.6313 117.834 76.7285C117.945 76.8257 118.028 76.9507 118.084 77.1035C118.139 77.2563 118.15 77.4127 118.115 77.5727C118.081 77.7327 117.994 77.8749 117.854 77.9993L114.792 80.6452L115.709 84.5827C115.75 84.7632 115.736 84.9266 115.667 85.0727C115.597 85.2188 115.5 85.3402 115.375 85.4368C115.25 85.5335 115.104 85.5891 114.938 85.6035C114.771 85.618 114.611 85.5763 114.459 85.4785L111 83.3952Z" fill="#EAE42B"/>
<path d="M131 83.3952L127.542 85.4785C127.389 85.5757 127.229 85.6174 127.063 85.6035C126.896 85.5896 126.75 85.5341 126.625 85.4368C126.5 85.3396 126.403 85.2182 126.334 85.0727C126.264 84.9271 126.25 84.7638 126.292 84.5827L127.209 80.6452L124.146 77.9993C124.007 77.8743 123.921 77.7318 123.886 77.5718C123.852 77.4118 123.862 77.2557 123.917 77.1035C123.972 76.9513 124.055 76.8263 124.167 76.7285C124.279 76.6307 124.431 76.5682 124.625 76.541L128.667 76.1868L130.229 72.4785C130.299 72.3118 130.407 72.1868 130.553 72.1035C130.699 72.0202 130.848 71.9785 131 71.9785C131.152 71.9785 131.302 72.0202 131.448 72.1035C131.594 72.1868 131.702 72.3118 131.771 72.4785L133.334 76.1868L137.375 76.541C137.57 76.5688 137.722 76.6313 137.834 76.7285C137.945 76.8257 138.028 76.9507 138.084 77.1035C138.139 77.2563 138.15 77.4127 138.115 77.5727C138.081 77.7327 137.994 77.8749 137.854 77.9993L134.792 80.6452L135.709 84.5827C135.75 84.7632 135.736 84.9266 135.667 85.0727C135.597 85.2188 135.5 85.3402 135.375 85.4368C135.25 85.5335 135.104 85.5891 134.938 85.6035C134.771 85.618 134.611 85.5763 134.459 85.4785L131 83.3952Z" fill="#EAE42B"/>
<path d="M151 83.3952L147.542 85.4785C147.389 85.5757 147.229 85.6174 147.063 85.6035C146.896 85.5896 146.75 85.5341 146.625 85.4368C146.5 85.3396 146.403 85.2182 146.334 85.0727C146.264 84.9271 146.25 84.7638 146.292 84.5827L147.209 80.6452L144.146 77.9993C144.007 77.8743 143.921 77.7318 143.886 77.5718C143.852 77.4118 143.862 77.2557 143.917 77.1035C143.972 76.9513 144.055 76.8263 144.167 76.7285C144.279 76.6307 144.431 76.5682 144.625 76.541L148.667 76.1868L150.229 72.4785C150.299 72.3118 150.407 72.1868 150.553 72.1035C150.699 72.0202 150.848 71.9785 151 71.9785C151.152 71.9785 151.302 72.0202 151.448 72.1035C151.594 72.1868 151.702 72.3118 151.771 72.4785L153.334 76.1868L157.375 76.541C157.57 76.5688 157.722 76.6313 157.834 76.7285C157.945 76.8257 158.028 76.9507 158.084 77.1035C158.139 77.2563 158.15 77.4127 158.115 77.5727C158.081 77.7327 157.994 77.8749 157.854 77.9993L154.792 80.6452L155.709 84.5827C155.75 84.7632 155.736 84.9266 155.667 85.0727C155.597 85.2188 155.5 85.3402 155.375 85.4368C155.25 85.5335 155.104 85.5891 154.938 85.6035C154.771 85.618 154.611 85.5763 154.459 85.4785L151 83.3952Z" fill="#EAE42B"/>
<path d="M171 83.3952L167.542 85.4785C167.389 85.5757 167.229 85.6174 167.063 85.6035C166.896 85.5896 166.75 85.5341 166.625 85.4368C166.5 85.3396 166.403 85.2182 166.334 85.0727C166.264 84.9271 166.25 84.7638 166.292 84.5827L167.209 80.6452L164.146 77.9993C164.007 77.8743 163.921 77.7318 163.886 77.5718C163.852 77.4118 163.862 77.2557 163.917 77.1035C163.972 76.9513 164.055 76.8263 164.167 76.7285C164.279 76.6307 164.431 76.5682 164.625 76.541L168.667 76.1868L170.229 72.4785C170.299 72.3118 170.407 72.1868 170.553 72.1035C170.699 72.0202 170.848 71.9785 171 71.9785C171.152 71.9785 171.302 72.0202 171.448 72.1035C171.594 72.1868 171.702 72.3118 171.771 72.4785L173.334 76.1868L177.375 76.541C177.57 76.5688 177.722 76.6313 177.834 76.7285C177.945 76.8257 178.028 76.9507 178.084 77.1035C178.139 77.2563 178.15 77.4127 178.115 77.5727C178.081 77.7327 177.994 77.8749 177.854 77.9993L174.792 80.6452L175.709 84.5827C175.75 84.7632 175.736 84.9266 175.667 85.0727C175.597 85.2188 175.5 85.3402 175.375 85.4368C175.25 85.5335 175.104 85.5891 174.938 85.6035C174.771 85.618 174.611 85.5763 174.459 85.4785L171 83.3952Z" fill="#EAE42B"/>
<path d="M254.927 35.5186C255.282 38.2552 253.087 40.7952 253.087 40.7952C253.087 40.7952 250.315 38.8986 249.959 36.1619C249.604 33.4219 251.8 30.8836 251.8 30.8836C251.8 30.8836 254.57 32.7819 254.927 35.5186ZM257.529 44.7169C256.369 47.2219 253.155 48.2052 253.155 48.2052C253.155 48.2052 251.822 45.1269 252.982 42.6219C254.142 40.1169 257.357 39.1319 257.357 39.1319C257.357 39.1319 258.69 42.2119 257.529 44.7169ZM256.162 53.5252C253.949 55.1802 250.652 54.5236 250.652 54.5236C250.652 54.5236 250.945 51.1819 253.159 49.5269C255.372 47.8719 258.669 48.5286 258.669 48.5286C258.669 48.5286 258.375 51.8702 256.162 53.5252ZM250.147 60.6886C247.639 61.8519 244.549 60.5302 244.549 60.5302C244.549 60.5302 245.527 57.3219 248.035 56.1569C250.544 54.9936 253.632 56.3169 253.632 56.3169C253.632 56.3169 252.655 59.5252 250.147 60.6886ZM247.367 29.4469C249.384 31.3352 249.307 34.6869 249.307 34.6869C249.307 34.6869 245.957 34.9802 243.94 33.0919C241.924 31.2036 242 27.8502 242 27.8502C242 27.8502 245.35 27.5586 247.367 29.4469Z" fill="#4B4A4A"/>
<path d="M247.927 35.5186C248.282 38.2552 246.087 40.7952 246.087 40.7952C246.087 40.7952 243.315 38.8986 242.959 36.1619C242.604 33.4219 244.8 30.8836 244.8 30.8836C244.8 30.8836 247.57 32.7819 247.927 35.5186ZM250.529 44.7169C249.369 47.2219 246.155 48.2052 246.155 48.2052C246.155 48.2052 244.822 45.1269 245.982 42.6219C247.142 40.1169 250.357 39.1319 250.357 39.1319C250.357 39.1319 251.69 42.2119 250.529 44.7169ZM249.162 53.5252C246.949 55.1802 243.652 54.5236 243.652 54.5236C243.652 54.5236 243.945 51.1819 246.159 49.5269C248.372 47.8719 251.669 48.5286 251.669 48.5286C251.669 48.5286 251.375 51.8702 249.162 53.5252ZM243.147 60.6886C240.639 61.8519 237.549 60.5302 237.549 60.5302C237.549 60.5302 238.527 57.3219 241.035 56.1569C243.544 54.9936 246.632 56.3169 246.632 56.3169C246.632 56.3169 245.655 59.5252 243.147 60.6886ZM240.367 29.4469C242.384 31.3352 242.307 34.6869 242.307 34.6869C242.307 34.6869 238.957 34.9802 236.94 33.0919C234.924 31.2036 235 27.8502 235 27.8502C235 27.8502 238.35 27.5586 240.367 29.4469Z" fill="#4B4A4A"/>
</svg>
