<svg width="267" height="89" viewBox="0 0 267 89" fill="none" xmlns="http://www.w3.org/2000/svg">
<path d="M12.0729 35.5186C11.7179 38.2552 13.9129 40.7952 13.9129 40.7952C13.9129 40.7952 16.6846 38.8986 17.0413 36.1619C17.3963 33.4219 15.1996 30.8836 15.1996 30.8836C15.1996 30.8836 12.4296 32.7819 12.0729 35.5186ZM9.47128 44.7169C10.6313 47.2219 13.8446 48.2052 13.8446 48.2052C13.8446 48.2052 15.1779 45.1269 14.018 42.6219C12.858 40.1169 9.64295 39.1319 9.64295 39.1319C9.64295 39.1319 8.30962 42.2119 9.47128 44.7169ZM10.8379 53.5252C13.0513 55.1802 16.3479 54.5236 16.3479 54.5236C16.3479 54.5236 16.0546 51.1819 13.8413 49.5269C11.628 47.8719 8.33128 48.5286 8.33128 48.5286C8.33128 48.5286 8.62462 51.8702 10.8379 53.5252ZM16.853 60.6886C19.3613 61.8519 22.4513 60.5302 22.4513 60.5302C22.4513 60.5302 21.4729 57.3219 18.9646 56.1569C16.4563 54.9936 13.3679 56.3169 13.3679 56.3169C13.3679 56.3169 14.3446 59.5252 16.853 60.6886ZM19.6329 29.4469C17.6163 31.3352 17.693 34.6869 17.693 34.6869C17.693 34.6869 21.043 34.9802 23.0596 33.0919C25.0763 31.2036 24.9996 27.8502 24.9996 27.8502C24.9996 27.8502 21.6496 27.5586 19.6329 29.4469Z" fill="#4B4A4A"/>
<path d="M19.0729 35.5186C18.7179 38.2552 20.9129 40.7952 20.9129 40.7952C20.9129 40.7952 23.6846 38.8986 24.0413 36.1619C24.3963 33.4219 22.1996 30.8836 22.1996 30.8836C22.1996 30.8836 19.4296 32.7819 19.0729 35.5186ZM16.4713 44.7169C17.6313 47.2219 20.8446 48.2052 20.8446 48.2052C20.8446 48.2052 22.1779 45.1269 21.018 42.6219C19.858 40.1169 16.6429 39.1319 16.6429 39.1319C16.6429 39.1319 15.3096 42.2119 16.4713 44.7169ZM17.8379 53.5252C20.0513 55.1802 23.3479 54.5236 23.3479 54.5236C23.3479 54.5236 23.0546 51.1819 20.8413 49.5269C18.628 47.8719 15.3313 48.5286 15.3313 48.5286C15.3313 48.5286 15.6246 51.8702 17.8379 53.5252ZM23.853 60.6886C26.3613 61.8519 29.4513 60.5302 29.4513 60.5302C29.4513 60.5302 28.4729 57.3219 25.9646 56.1569C23.4563 54.9936 20.3679 56.3169 20.3679 56.3169C20.3679 56.3169 21.3446 59.5252 23.853 60.6886ZM26.6329 29.4469C24.6163 31.3352 24.693 34.6869 24.693 34.6869C24.693 34.6869 28.043 34.9802 30.0596 33.0919C32.0763 31.2036 31.9996 27.8502 31.9996 27.8502C31.9996 27.8502 28.6496 27.5586 26.6329 29.4469Z" fill="#4B4A4A"/>
<path d="M114.885 29.36C113.425 29.36 111.975 29.17 110.535 28.79C109.115 28.39 107.895 27.83 106.875 27.11L108.795 23.39C109.595 23.97 110.515 24.43 111.555 24.77C112.615 25.11 113.685 25.28 114.765 25.28C115.985 25.28 116.945 25.04 117.645 24.56C118.345 24.08 118.695 23.41 118.695 22.55C118.695 22.01 118.555 21.53 118.275 21.11C117.995 20.69 117.495 20.37 116.775 20.15C116.075 19.93 115.085 19.82 113.805 19.82H108.435L109.515 8H122.325V11.9H111.255L113.775 9.68L113.025 18.11L110.505 15.89H114.945C117.025 15.89 118.695 16.18 119.955 16.76C121.235 17.32 122.165 18.09 122.745 19.07C123.325 20.05 123.615 21.16 123.615 22.4C123.615 23.64 123.305 24.79 122.685 25.85C122.065 26.89 121.105 27.74 119.805 28.4C118.525 29.04 116.885 29.36 114.885 29.36ZM133.387 29.36C131.667 29.36 130.127 28.94 128.767 28.1C127.407 27.24 126.337 26 125.557 24.38C124.777 22.76 124.387 20.8 124.387 18.5C124.387 16.2 124.777 14.24 125.557 12.62C126.337 11 127.407 9.77 128.767 8.93C130.127 8.07 131.667 7.64 133.387 7.64C135.127 7.64 136.667 8.07 138.007 8.93C139.367 9.77 140.437 11 141.217 12.62C141.997 14.24 142.387 16.2 142.387 18.5C142.387 20.8 141.997 22.76 141.217 24.38C140.437 26 139.367 27.24 138.007 28.1C136.667 28.94 135.127 29.36 133.387 29.36ZM133.387 25.25C134.207 25.25 134.917 25.02 135.517 24.56C136.137 24.1 136.617 23.37 136.957 22.37C137.317 21.37 137.497 20.08 137.497 18.5C137.497 16.92 137.317 15.63 136.957 14.63C136.617 13.63 136.137 12.9 135.517 12.44C134.917 11.98 134.207 11.75 133.387 11.75C132.587 11.75 131.877 11.98 131.257 12.44C130.657 12.9 130.177 13.63 129.817 14.63C129.477 15.63 129.307 16.92 129.307 18.5C129.307 20.08 129.477 21.37 129.817 22.37C130.177 23.37 130.657 24.1 131.257 24.56C131.877 25.02 132.587 25.25 133.387 25.25ZM149.516 25.43V11.57H153.386V25.43H149.516ZM144.326 20.33V16.67H158.606V20.33H144.326Z" fill="#4B4A4A"/>
<path d="M104.757 53V45.3H107.925C108.607 45.3 109.19 45.41 109.674 45.63C110.165 45.85 110.543 46.1653 110.807 46.576C111.071 46.9867 111.203 47.4743 111.203 48.039C111.203 48.6037 111.071 49.0913 110.807 49.502C110.543 49.9127 110.165 50.228 109.674 50.448C109.19 50.668 108.607 50.778 107.925 50.778H105.549L106.187 50.107V53H104.757ZM106.187 50.261L105.549 49.568H107.859C108.489 49.568 108.962 49.436 109.278 49.172C109.6 48.9007 109.762 48.523 109.762 48.039C109.762 47.5477 109.6 47.17 109.278 46.906C108.962 46.642 108.489 46.51 107.859 46.51H105.549L106.187 45.806V50.261ZM112.631 53V45.3H115.799C116.481 45.3 117.064 45.41 117.548 45.63C118.039 45.85 118.417 46.1653 118.681 46.576C118.945 46.9867 119.077 47.4743 119.077 48.039C119.077 48.6037 118.945 49.0913 118.681 49.502C118.417 49.9053 118.039 50.217 117.548 50.437C117.064 50.6497 116.481 50.756 115.799 50.756H113.423L114.061 50.107V53H112.631ZM117.669 53L115.722 50.206H117.251L119.209 53H117.669ZM114.061 50.261L113.423 49.579H115.733C116.363 49.579 116.836 49.4433 117.152 49.172C117.474 48.9007 117.636 48.523 117.636 48.039C117.636 47.5477 117.474 47.17 117.152 46.906C116.836 46.642 116.363 46.51 115.733 46.51H113.423L114.061 45.806V50.261ZM124.285 53.11C123.683 53.11 123.13 53.011 122.624 52.813C122.118 52.615 121.678 52.34 121.304 51.988C120.93 51.6287 120.64 51.2107 120.435 50.734C120.229 50.25 120.127 49.722 120.127 49.15C120.127 48.578 120.229 48.0537 120.435 47.577C120.64 47.093 120.93 46.675 121.304 46.323C121.678 45.9637 122.118 45.685 122.624 45.487C123.13 45.289 123.68 45.19 124.274 45.19C124.875 45.19 125.425 45.289 125.924 45.487C126.43 45.685 126.87 45.9637 127.244 46.323C127.618 46.675 127.907 47.093 128.113 47.577C128.318 48.0537 128.421 48.578 128.421 49.15C128.421 49.722 128.318 50.25 128.113 50.734C127.907 51.218 127.618 51.636 127.244 51.988C126.87 52.34 126.43 52.615 125.924 52.813C125.425 53.011 124.879 53.11 124.285 53.11ZM124.274 51.856C124.662 51.856 125.022 51.79 125.352 51.658C125.682 51.526 125.968 51.339 126.21 51.097C126.452 50.8477 126.639 50.5617 126.771 50.239C126.91 49.909 126.98 49.546 126.98 49.15C126.98 48.754 126.91 48.3947 126.771 48.072C126.639 47.742 126.452 47.456 126.21 47.214C125.968 46.9647 125.682 46.774 125.352 46.642C125.022 46.51 124.662 46.444 124.274 46.444C123.885 46.444 123.526 46.51 123.196 46.642C122.873 46.774 122.587 46.9647 122.338 47.214C122.096 47.456 121.905 47.742 121.766 48.072C121.634 48.3947 121.568 48.754 121.568 49.15C121.568 49.5387 121.634 49.898 121.766 50.228C121.905 50.558 122.096 50.8477 122.338 51.097C122.58 51.339 122.866 51.526 123.196 51.658C123.526 51.79 123.885 51.856 124.274 51.856ZM130.974 53.11C130.483 53.11 130.028 53.0147 129.61 52.824C129.2 52.6333 128.862 52.3583 128.598 51.999L129.412 51.02C129.625 51.3133 129.856 51.5333 130.105 51.68C130.362 51.8267 130.641 51.9 130.941 51.9C131.741 51.9 132.14 51.427 132.14 50.481V46.499H129.401V45.3H133.57V50.404C133.57 51.3133 133.347 51.9917 132.899 52.439C132.459 52.8863 131.818 53.11 130.974 53.11ZM136.896 48.501H140.724V49.678H136.896V48.501ZM137.006 51.801H141.351V53H135.576V45.3H141.197V46.499H137.006V51.801ZM146.509 53.11C145.922 53.11 145.376 53.0147 144.87 52.824C144.371 52.626 143.935 52.351 143.561 51.999C143.194 51.6397 142.908 51.218 142.703 50.734C142.498 50.25 142.395 49.722 142.395 49.15C142.395 48.578 142.498 48.05 142.703 47.566C142.908 47.082 143.198 46.664 143.572 46.312C143.946 45.9527 144.382 45.6777 144.881 45.487C145.38 45.289 145.926 45.19 146.52 45.19C147.151 45.19 147.726 45.3 148.247 45.52C148.768 45.7327 149.208 46.0517 149.567 46.477L148.643 47.346C148.364 47.0453 148.053 46.8217 147.708 46.675C147.363 46.521 146.989 46.444 146.586 46.444C146.183 46.444 145.812 46.51 145.475 46.642C145.145 46.774 144.855 46.961 144.606 47.203C144.364 47.445 144.173 47.731 144.034 48.061C143.902 48.391 143.836 48.754 143.836 49.15C143.836 49.546 143.902 49.909 144.034 50.239C144.173 50.569 144.364 50.855 144.606 51.097C144.855 51.339 145.145 51.526 145.475 51.658C145.812 51.79 146.183 51.856 146.586 51.856C146.989 51.856 147.363 51.7827 147.708 51.636C148.053 51.482 148.364 51.251 148.643 50.943L149.567 51.823C149.208 52.241 148.768 52.56 148.247 52.78C147.726 53 147.147 53.11 146.509 53.11ZM152.413 53V46.51H149.861V45.3H156.395V46.51H153.843V53H152.413ZM159.78 53.11C159.179 53.11 158.603 53.0257 158.053 52.857C157.503 52.681 157.067 52.4573 156.744 52.186L157.239 51.075C157.547 51.317 157.929 51.5187 158.383 51.68C158.838 51.8413 159.304 51.922 159.78 51.922C160.184 51.922 160.51 51.878 160.759 51.79C161.009 51.702 161.192 51.5847 161.309 51.438C161.427 51.284 161.485 51.1117 161.485 50.921C161.485 50.6863 161.401 50.4993 161.232 50.36C161.064 50.2133 160.844 50.0997 160.572 50.019C160.308 49.931 160.011 49.8503 159.681 49.777C159.359 49.7037 159.032 49.6193 158.702 49.524C158.38 49.4213 158.083 49.293 157.811 49.139C157.547 48.9777 157.331 48.765 157.162 48.501C156.994 48.237 156.909 47.8997 156.909 47.489C156.909 47.071 157.019 46.6897 157.239 46.345C157.467 45.993 157.808 45.7143 158.262 45.509C158.724 45.2963 159.307 45.19 160.011 45.19C160.473 45.19 160.932 45.2487 161.386 45.366C161.841 45.4833 162.237 45.652 162.574 45.872L162.123 46.983C161.779 46.7777 161.423 46.6273 161.056 46.532C160.69 46.4293 160.338 46.378 160 46.378C159.604 46.378 159.282 46.4257 159.032 46.521C158.79 46.6163 158.611 46.741 158.493 46.895C158.383 47.049 158.328 47.225 158.328 47.423C158.328 47.6577 158.409 47.8483 158.57 47.995C158.739 48.1343 158.955 48.2443 159.219 48.325C159.491 48.4057 159.791 48.4863 160.121 48.567C160.451 48.6403 160.778 48.7247 161.1 48.82C161.43 48.9153 161.727 49.04 161.991 49.194C162.263 49.348 162.479 49.557 162.64 49.821C162.809 50.085 162.893 50.4187 162.893 50.822C162.893 51.2327 162.78 51.614 162.552 51.966C162.332 52.3107 161.991 52.5893 161.529 52.802C161.067 53.0073 160.484 53.11 159.78 53.11ZM101.848 66.11C101.262 66.11 100.715 66.0147 100.209 65.824C99.7108 65.626 99.2745 65.351 98.9005 64.999C98.5338 64.6397 98.2478 64.218 98.0425 63.734C97.8372 63.25 97.7345 62.722 97.7345 62.15C97.7345 61.578 97.8372 61.05 98.0425 60.566C98.2478 60.082 98.5375 59.664 98.9115 59.312C99.2855 58.9527 99.7218 58.6777 100.22 58.487C100.719 58.289 101.265 58.19 101.859 58.19C102.49 58.19 103.066 58.3 103.586 58.52C104.107 58.7327 104.547 59.0517 104.906 59.477L103.982 60.346C103.704 60.0453 103.392 59.8217 103.047 59.675C102.703 59.521 102.329 59.444 101.925 59.444C101.522 59.444 101.152 59.51 100.814 59.642C100.484 59.774 100.195 59.961 99.9455 60.203C99.7035 60.445 99.5128 60.731 99.3735 61.061C99.2415 61.391 99.1755 61.754 99.1755 62.15C99.1755 62.546 99.2415 62.909 99.3735 63.239C99.5128 63.569 99.7035 63.855 99.9455 64.097C100.195 64.339 100.484 64.526 100.814 64.658C101.152 64.79 101.522 64.856 101.925 64.856C102.329 64.856 102.703 64.7827 103.047 64.636C103.392 64.482 103.704 64.251 103.982 63.943L104.906 64.823C104.547 65.241 104.107 65.56 103.586 65.78C103.066 66 102.486 66.11 101.848 66.11ZM109.724 66.11C109.122 66.11 108.569 66.011 108.063 65.813C107.557 65.615 107.117 65.34 106.743 64.988C106.369 64.6287 106.079 64.2107 105.874 63.734C105.668 63.25 105.566 62.722 105.566 62.15C105.566 61.578 105.668 61.0537 105.874 60.577C106.079 60.093 106.369 59.675 106.743 59.323C107.117 58.9637 107.557 58.685 108.063 58.487C108.569 58.289 109.119 58.19 109.713 58.19C110.314 58.19 110.864 58.289 111.363 58.487C111.869 58.685 112.309 58.9637 112.683 59.323C113.057 59.675 113.346 60.093 113.552 60.577C113.757 61.0537 113.86 61.578 113.86 62.15C113.86 62.722 113.757 63.25 113.552 63.734C113.346 64.218 113.057 64.636 112.683 64.988C112.309 65.34 111.869 65.615 111.363 65.813C110.864 66.011 110.318 66.11 109.724 66.11ZM109.713 64.856C110.101 64.856 110.461 64.79 110.791 64.658C111.121 64.526 111.407 64.339 111.649 64.097C111.891 63.8477 112.078 63.5617 112.21 63.239C112.349 62.909 112.419 62.546 112.419 62.15C112.419 61.754 112.349 61.3947 112.21 61.072C112.078 60.742 111.891 60.456 111.649 60.214C111.407 59.9647 111.121 59.774 110.791 59.642C110.461 59.51 110.101 59.444 109.713 59.444C109.324 59.444 108.965 59.51 108.635 59.642C108.312 59.774 108.026 59.9647 107.777 60.214C107.535 60.456 107.344 60.742 107.205 61.072C107.073 61.3947 107.007 61.754 107.007 62.15C107.007 62.5387 107.073 62.898 107.205 63.228C107.344 63.558 107.535 63.8477 107.777 64.097C108.019 64.339 108.305 64.526 108.635 64.658C108.965 64.79 109.324 64.856 109.713 64.856ZM115.375 66V58.3H116.552L119.918 63.921H119.302L122.613 58.3H123.79L123.801 66H122.448L122.437 60.423H122.723L119.907 65.12H119.269L116.409 60.423H116.739V66H115.375ZM125.881 66V58.3H129.049C129.731 58.3 130.314 58.41 130.798 58.63C131.29 58.85 131.667 59.1653 131.931 59.576C132.195 59.9867 132.327 60.4743 132.327 61.039C132.327 61.6037 132.195 62.0913 131.931 62.502C131.667 62.9127 131.29 63.228 130.798 63.448C130.314 63.668 129.731 63.778 129.049 63.778H126.673L127.311 63.107V66H125.881ZM127.311 63.261L126.673 62.568H128.983C129.614 62.568 130.087 62.436 130.402 62.172C130.725 61.9007 130.886 61.523 130.886 61.039C130.886 60.5477 130.725 60.17 130.402 59.906C130.087 59.642 129.614 59.51 128.983 59.51H126.673L127.311 58.806V63.261ZM133.755 66V58.3H135.185V64.79H139.211V66H133.755ZM141.66 61.501H145.488V62.678H141.66V61.501ZM141.77 64.801H146.115V66H140.34V58.3H145.961V59.499H141.77V64.801ZM149.271 66V59.51H146.719V58.3H153.253V59.51H150.701V66H149.271ZM155.646 61.501H159.474V62.678H155.646V61.501ZM155.756 64.801H160.101V66H154.326V58.3H159.947V59.499H155.756V64.801ZM161.696 66V58.3H165.062C165.898 58.3 166.631 58.4613 167.262 58.784C167.892 59.1067 168.384 59.554 168.736 60.126C169.088 60.698 169.264 61.3727 169.264 62.15C169.264 62.92 169.088 63.5947 168.736 64.174C168.384 64.746 167.892 65.1933 167.262 65.516C166.631 65.8387 165.898 66 165.062 66H161.696ZM163.126 64.79H164.996C165.575 64.79 166.074 64.68 166.492 64.46C166.917 64.24 167.243 63.932 167.471 63.536C167.705 63.14 167.823 62.678 167.823 62.15C167.823 61.6147 167.705 61.1527 167.471 60.764C167.243 60.368 166.917 60.06 166.492 59.84C166.074 59.62 165.575 59.51 164.996 59.51H163.126V64.79Z" fill="#101720" fill-opacity="0.6"/>
<path d="M91.0003 83.3952L87.5419 85.4785C87.3892 85.5757 87.2294 85.6174 87.0628 85.6035C86.8961 85.5896 86.7503 85.5341 86.6253 85.4368C86.5003 85.3396 86.4031 85.2182 86.3336 85.0727C86.2642 84.9271 86.2503 84.7638 86.2919 84.5827L87.2086 80.6452L84.1461 77.9993C84.0072 77.8743 83.9206 77.7318 83.8861 77.5718C83.8517 77.4118 83.8619 77.2557 83.9169 77.1035C83.9719 76.9513 84.0553 76.8263 84.1669 76.7285C84.2786 76.6307 84.4314 76.5682 84.6253 76.541L88.6669 76.1868L90.2294 72.4785C90.2989 72.3118 90.4067 72.1868 90.5528 72.1035C90.6989 72.0202 90.8481 71.9785 91.0003 71.9785C91.1525 71.9785 91.3017 72.0202 91.4478 72.1035C91.5939 72.1868 91.7017 72.3118 91.7711 72.4785L93.3336 76.1868L97.3753 76.541C97.5697 76.5688 97.7225 76.6313 97.8336 76.7285C97.9447 76.8257 98.0281 76.9507 98.0836 77.1035C98.1392 77.2563 98.1497 77.4127 98.1153 77.5727C98.0808 77.7327 97.9939 77.8749 97.8544 77.9993L94.7919 80.6452L95.7086 84.5827C95.7503 84.7632 95.7364 84.9266 95.6669 85.0727C95.5975 85.2188 95.5003 85.3402 95.3753 85.4368C95.2503 85.5335 95.1044 85.5891 94.9378 85.6035C94.7711 85.618 94.6114 85.5763 94.4586 85.4785L91.0003 83.3952Z" fill="#EAE42B"/>
<path d="M111 83.3952L107.542 85.4785C107.389 85.5757 107.229 85.6174 107.063 85.6035C106.896 85.5896 106.75 85.5341 106.625 85.4368C106.5 85.3396 106.403 85.2182 106.334 85.0727C106.264 84.9271 106.25 84.7638 106.292 84.5827L107.209 80.6452L104.146 77.9993C104.007 77.8743 103.921 77.7318 103.886 77.5718C103.852 77.4118 103.862 77.2557 103.917 77.1035C103.972 76.9513 104.055 76.8263 104.167 76.7285C104.279 76.6307 104.431 76.5682 104.625 76.541L108.667 76.1868L110.229 72.4785C110.299 72.3118 110.407 72.1868 110.553 72.1035C110.699 72.0202 110.848 71.9785 111 71.9785C111.152 71.9785 111.302 72.0202 111.448 72.1035C111.594 72.1868 111.702 72.3118 111.771 72.4785L113.334 76.1868L117.375 76.541C117.57 76.5688 117.722 76.6313 117.834 76.7285C117.945 76.8257 118.028 76.9507 118.084 77.1035C118.139 77.2563 118.15 77.4127 118.115 77.5727C118.081 77.7327 117.994 77.8749 117.854 77.9993L114.792 80.6452L115.709 84.5827C115.75 84.7632 115.736 84.9266 115.667 85.0727C115.597 85.2188 115.5 85.3402 115.375 85.4368C115.25 85.5335 115.104 85.5891 114.938 85.6035C114.771 85.618 114.611 85.5763 114.459 85.4785L111 83.3952Z" fill="#EAE42B"/>
<path d="M131 83.3952L127.542 85.4785C127.389 85.5757 127.229 85.6174 127.063 85.6035C126.896 85.5896 126.75 85.5341 126.625 85.4368C126.5 85.3396 126.403 85.2182 126.334 85.0727C126.264 84.9271 126.25 84.7638 126.292 84.5827L127.209 80.6452L124.146 77.9993C124.007 77.8743 123.921 77.7318 123.886 77.5718C123.852 77.4118 123.862 77.2557 123.917 77.1035C123.972 76.9513 124.055 76.8263 124.167 76.7285C124.279 76.6307 124.431 76.5682 124.625 76.541L128.667 76.1868L130.229 72.4785C130.299 72.3118 130.407 72.1868 130.553 72.1035C130.699 72.0202 130.848 71.9785 131 71.9785C131.152 71.9785 131.302 72.0202 131.448 72.1035C131.594 72.1868 131.702 72.3118 131.771 72.4785L133.334 76.1868L137.375 76.541C137.57 76.5688 137.722 76.6313 137.834 76.7285C137.945 76.8257 138.028 76.9507 138.084 77.1035C138.139 77.2563 138.15 77.4127 138.115 77.5727C138.081 77.7327 137.994 77.8749 137.854 77.9993L134.792 80.6452L135.709 84.5827C135.75 84.7632 135.736 84.9266 135.667 85.0727C135.597 85.2188 135.5 85.3402 135.375 85.4368C135.25 85.5335 135.104 85.5891 134.938 85.6035C134.771 85.618 134.611 85.5763 134.459 85.4785L131 83.3952Z" fill="#EAE42B"/>
<path d="M151 83.3952L147.542 85.4785C147.389 85.5757 147.229 85.6174 147.063 85.6035C146.896 85.5896 146.75 85.5341 146.625 85.4368C146.5 85.3396 146.403 85.2182 146.334 85.0727C146.264 84.9271 146.25 84.7638 146.292 84.5827L147.209 80.6452L144.146 77.9993C144.007 77.8743 143.921 77.7318 143.886 77.5718C143.852 77.4118 143.862 77.2557 143.917 77.1035C143.972 76.9513 144.055 76.8263 144.167 76.7285C144.279 76.6307 144.431 76.5682 144.625 76.541L148.667 76.1868L150.229 72.4785C150.299 72.3118 150.407 72.1868 150.553 72.1035C150.699 72.0202 150.848 71.9785 151 71.9785C151.152 71.9785 151.302 72.0202 151.448 72.1035C151.594 72.1868 151.702 72.3118 151.771 72.4785L153.334 76.1868L157.375 76.541C157.57 76.5688 157.722 76.6313 157.834 76.7285C157.945 76.8257 158.028 76.9507 158.084 77.1035C158.139 77.2563 158.15 77.4127 158.115 77.5727C158.081 77.7327 157.994 77.8749 157.854 77.9993L154.792 80.6452L155.709 84.5827C155.75 84.7632 155.736 84.9266 155.667 85.0727C155.597 85.2188 155.5 85.3402 155.375 85.4368C155.25 85.5335 155.104 85.5891 154.938 85.6035C154.771 85.618 154.611 85.5763 154.459 85.4785L151 83.3952Z" fill="#EAE42B"/>
<path d="M171 83.3952L167.542 85.4785C167.389 85.5757 167.229 85.6174 167.063 85.6035C166.896 85.5896 166.75 85.5341 166.625 85.4368C166.5 85.3396 166.403 85.2182 166.334 85.0727C166.264 84.9271 166.25 84.7638 166.292 84.5827L167.209 80.6452L164.146 77.9993C164.007 77.8743 163.921 77.7318 163.886 77.5718C163.852 77.4118 163.862 77.2557 163.917 77.1035C163.972 76.9513 164.055 76.8263 164.167 76.7285C164.279 76.6307 164.431 76.5682 164.625 76.541L168.667 76.1868L170.229 72.4785C170.299 72.3118 170.407 72.1868 170.553 72.1035C170.699 72.0202 170.848 71.9785 171 71.9785C171.152 71.9785 171.302 72.0202 171.448 72.1035C171.594 72.1868 171.702 72.3118 171.771 72.4785L173.334 76.1868L177.375 76.541C177.57 76.5688 177.722 76.6313 177.834 76.7285C177.945 76.8257 178.028 76.9507 178.084 77.1035C178.139 77.2563 178.15 77.4127 178.115 77.5727C178.081 77.7327 177.994 77.8749 177.854 77.9993L174.792 80.6452L175.709 84.5827C175.75 84.7632 175.736 84.9266 175.667 85.0727C175.597 85.2188 175.5 85.3402 175.375 85.4368C175.25 85.5335 175.104 85.5891 174.938 85.6035C174.771 85.618 174.611 85.5763 174.459 85.4785L171 83.3952Z" fill="#EAE42B"/>
<path d="M254.927 35.5186C255.282 38.2552 253.087 40.7952 253.087 40.7952C253.087 40.7952 250.315 38.8986 249.959 36.1619C249.604 33.4219 251.8 30.8836 251.8 30.8836C251.8 30.8836 254.57 32.7819 254.927 35.5186ZM257.529 44.7169C256.369 47.2219 253.155 48.2052 253.155 48.2052C253.155 48.2052 251.822 45.1269 252.982 42.6219C254.142 40.1169 257.357 39.1319 257.357 39.1319C257.357 39.1319 258.69 42.2119 257.529 44.7169ZM256.162 53.5252C253.949 55.1802 250.652 54.5236 250.652 54.5236C250.652 54.5236 250.945 51.1819 253.159 49.5269C255.372 47.8719 258.669 48.5286 258.669 48.5286C258.669 48.5286 258.375 51.8702 256.162 53.5252ZM250.147 60.6886C247.639 61.8519 244.549 60.5302 244.549 60.5302C244.549 60.5302 245.527 57.3219 248.035 56.1569C250.544 54.9936 253.632 56.3169 253.632 56.3169C253.632 56.3169 252.655 59.5252 250.147 60.6886ZM247.367 29.4469C249.384 31.3352 249.307 34.6869 249.307 34.6869C249.307 34.6869 245.957 34.9802 243.94 33.0919C241.924 31.2036 242 27.8502 242 27.8502C242 27.8502 245.35 27.5586 247.367 29.4469Z" fill="#4B4A4A"/>
<path d="M247.927 35.5186C248.282 38.2552 246.087 40.7952 246.087 40.7952C246.087 40.7952 243.315 38.8986 242.959 36.1619C242.604 33.4219 244.8 30.8836 244.8 30.8836C244.8 30.8836 247.57 32.7819 247.927 35.5186ZM250.529 44.7169C249.369 47.2219 246.155 48.2052 246.155 48.2052C246.155 48.2052 244.822 45.1269 245.982 42.6219C247.142 40.1169 250.357 39.1319 250.357 39.1319C250.357 39.1319 251.69 42.2119 250.529 44.7169ZM249.162 53.5252C246.949 55.1802 243.652 54.5236 243.652 54.5236C243.652 54.5236 243.945 51.1819 246.159 49.5269C248.372 47.8719 251.669 48.5286 251.669 48.5286C251.669 48.5286 251.375 51.8702 249.162 53.5252ZM243.147 60.6886C240.639 61.8519 237.549 60.5302 237.549 60.5302C237.549 60.5302 238.527 57.3219 241.035 56.1569C243.544 54.9936 246.632 56.3169 246.632 56.3169C246.632 56.3169 245.655 59.5252 243.147 60.6886ZM240.367 29.4469C242.384 31.3352 242.307 34.6869 242.307 34.6869C242.307 34.6869 238.957 34.9802 236.94 33.0919C234.924 31.2036 235 27.8502 235 27.8502C235 27.8502 238.35 27.5586 240.367 29.4469Z" fill="#4B4A4A"/>
</svg>
