<svg width="267" height="89" viewBox="0 0 267 89" fill="none" xmlns="http://www.w3.org/2000/svg">
<path d="M12.0729 35.5186C11.7179 38.2552 13.9129 40.7952 13.9129 40.7952C13.9129 40.7952 16.6846 38.8986 17.0413 36.1619C17.3963 33.4219 15.1996 30.8836 15.1996 30.8836C15.1996 30.8836 12.4296 32.7819 12.0729 35.5186ZM9.47128 44.7169C10.6313 47.2219 13.8446 48.2052 13.8446 48.2052C13.8446 48.2052 15.1779 45.1269 14.018 42.6219C12.858 40.1169 9.64295 39.1319 9.64295 39.1319C9.64295 39.1319 8.30962 42.2119 9.47128 44.7169ZM10.8379 53.5252C13.0513 55.1802 16.3479 54.5236 16.3479 54.5236C16.3479 54.5236 16.0546 51.1819 13.8413 49.5269C11.628 47.8719 8.33128 48.5286 8.33128 48.5286C8.33128 48.5286 8.62462 51.8702 10.8379 53.5252ZM16.853 60.6886C19.3613 61.8519 22.4513 60.5302 22.4513 60.5302C22.4513 60.5302 21.4729 57.3219 18.9646 56.1569C16.4563 54.9936 13.3679 56.3169 13.3679 56.3169C13.3679 56.3169 14.3446 59.5252 16.853 60.6886ZM19.6329 29.4469C17.6163 31.3352 17.693 34.6869 17.693 34.6869C17.693 34.6869 21.043 34.9802 23.0596 33.0919C25.0763 31.2036 24.9996 27.8502 24.9996 27.8502C24.9996 27.8502 21.6496 27.5586 19.6329 29.4469Z" fill="#4B4A4A"/>
<path d="M19.0729 35.5186C18.7179 38.2552 20.9129 40.7952 20.9129 40.7952C20.9129 40.7952 23.6846 38.8986 24.0413 36.1619C24.3963 33.4219 22.1996 30.8836 22.1996 30.8836C22.1996 30.8836 19.4296 32.7819 19.0729 35.5186ZM16.4713 44.7169C17.6313 47.2219 20.8446 48.2052 20.8446 48.2052C20.8446 48.2052 22.1779 45.1269 21.018 42.6219C19.858 40.1169 16.6429 39.1319 16.6429 39.1319C16.6429 39.1319 15.3096 42.2119 16.4713 44.7169ZM17.8379 53.5252C20.0513 55.1802 23.3479 54.5236 23.3479 54.5236C23.3479 54.5236 23.0546 51.1819 20.8413 49.5269C18.628 47.8719 15.3313 48.5286 15.3313 48.5286C15.3313 48.5286 15.6246 51.8702 17.8379 53.5252ZM23.853 60.6886C26.3613 61.8519 29.4513 60.5302 29.4513 60.5302C29.4513 60.5302 28.4729 57.3219 25.9646 56.1569C23.4563 54.9936 20.3679 56.3169 20.3679 56.3169C20.3679 56.3169 21.3446 59.5252 23.853 60.6886ZM26.6329 29.4469C24.6163 31.3352 24.693 34.6869 24.693 34.6869C24.693 34.6869 28.043 34.9802 30.0596 33.0919C32.0763 31.2036 31.9996 27.8502 31.9996 27.8502C31.9996 27.8502 28.6496 27.5586 26.6329 29.4469Z" fill="#4B4A4A"/>
<path d="M115.336 29V9.8L117.436 11.9H111.136V8H120.196V29H115.336ZM129.784 29.36C128.324 29.36 126.874 29.17 125.434 28.79C124.014 28.39 122.794 27.83 121.774 27.11L123.694 23.39C124.494 23.97 125.414 24.43 126.454 24.77C127.514 25.11 128.584 25.28 129.664 25.28C130.884 25.28 131.844 25.04 132.544 24.56C133.244 24.08 133.594 23.41 133.594 22.55C133.594 22.01 133.454 21.53 133.174 21.11C132.894 20.69 132.394 20.37 131.674 20.15C130.974 19.93 129.984 19.82 128.704 19.82H123.334L124.414 8H137.224V11.9H126.154L128.674 9.68L127.924 18.11L125.404 15.89H129.844C131.924 15.89 133.594 16.18 134.854 16.76C136.134 17.32 137.064 18.09 137.644 19.07C138.224 20.05 138.514 21.16 138.514 22.4C138.514 23.64 138.204 24.79 137.584 25.85C136.964 26.89 136.004 27.74 134.704 28.4C133.424 29.04 131.784 29.36 129.784 29.36ZM145.165 25.43V11.57H149.035V25.43H145.165ZM139.975 20.33V16.67H154.255V20.33H139.975Z" fill="#4B4A4A"/>
<path d="M107.9 53V49.953L108.219 50.833L104.875 45.3H106.404L109.088 49.755H108.23L110.936 45.3H112.344L109 50.833L109.33 49.953V53H107.9ZM114.504 48.501H118.332V49.678H114.504V48.501ZM114.614 51.801H118.959V53H113.184V45.3H118.805V46.499H114.614V51.801ZM119.464 53L122.929 45.3H124.337L127.813 53H126.317L123.336 46.059H123.908L120.938 53H119.464ZM121.059 51.218L121.444 50.096H125.602L125.987 51.218H121.059ZM128.792 53V45.3H131.96C132.642 45.3 133.225 45.41 133.709 45.63C134.201 45.85 134.578 46.1653 134.842 46.576C135.106 46.9867 135.238 47.4743 135.238 48.039C135.238 48.6037 135.106 49.0913 134.842 49.502C134.578 49.9053 134.201 50.217 133.709 50.437C133.225 50.6497 132.642 50.756 131.96 50.756H129.584L130.222 50.107V53H128.792ZM133.83 53L131.883 50.206H133.412L135.37 53H133.83ZM130.222 50.261L129.584 49.579H131.894C132.525 49.579 132.998 49.4433 133.313 49.172C133.636 48.9007 133.797 48.523 133.797 48.039C133.797 47.5477 133.636 47.17 133.313 46.906C132.998 46.642 132.525 46.51 131.894 46.51H129.584L130.222 45.806V50.261ZM139.225 53.11C138.624 53.11 138.048 53.0257 137.498 52.857C136.948 52.681 136.512 52.4573 136.189 52.186L136.684 51.075C136.992 51.317 137.374 51.5187 137.828 51.68C138.283 51.8413 138.749 51.922 139.225 51.922C139.629 51.922 139.955 51.878 140.204 51.79C140.454 51.702 140.637 51.5847 140.754 51.438C140.872 51.284 140.93 51.1117 140.93 50.921C140.93 50.6863 140.846 50.4993 140.677 50.36C140.509 50.2133 140.289 50.0997 140.017 50.019C139.753 49.931 139.456 49.8503 139.126 49.777C138.804 49.7037 138.477 49.6193 138.147 49.524C137.825 49.4213 137.528 49.293 137.256 49.139C136.992 48.9777 136.776 48.765 136.607 48.501C136.439 48.237 136.354 47.8997 136.354 47.489C136.354 47.071 136.464 46.6897 136.684 46.345C136.912 45.993 137.253 45.7143 137.707 45.509C138.169 45.2963 138.752 45.19 139.456 45.19C139.918 45.19 140.377 45.2487 140.831 45.366C141.286 45.4833 141.682 45.652 142.019 45.872L141.568 46.983C141.224 46.7777 140.868 46.6273 140.501 46.532C140.135 46.4293 139.783 46.378 139.445 46.378C139.049 46.378 138.727 46.4257 138.477 46.521C138.235 46.6163 138.056 46.741 137.938 46.895C137.828 47.049 137.773 47.225 137.773 47.423C137.773 47.6577 137.854 47.8483 138.015 47.995C138.184 48.1343 138.4 48.2443 138.664 48.325C138.936 48.4057 139.236 48.4863 139.566 48.567C139.896 48.6403 140.223 48.7247 140.545 48.82C140.875 48.9153 141.172 49.04 141.436 49.194C141.708 49.348 141.924 49.557 142.085 49.821C142.254 50.085 142.338 50.4187 142.338 50.822C142.338 51.2327 142.225 51.614 141.997 51.966C141.777 52.3107 141.436 52.5893 140.974 52.802C140.512 53.0073 139.929 53.11 139.225 53.11ZM150.404 53.11C149.803 53.11 149.249 53.011 148.743 52.813C148.237 52.615 147.797 52.34 147.423 51.988C147.049 51.6287 146.76 51.2107 146.554 50.734C146.349 50.25 146.246 49.722 146.246 49.15C146.246 48.578 146.349 48.0537 146.554 47.577C146.76 47.093 147.049 46.675 147.423 46.323C147.797 45.9637 148.237 45.685 148.743 45.487C149.249 45.289 149.799 45.19 150.393 45.19C150.995 45.19 151.545 45.289 152.043 45.487C152.549 45.685 152.989 45.9637 153.363 46.323C153.737 46.675 154.027 47.093 154.232 47.577C154.438 48.0537 154.54 48.578 154.54 49.15C154.54 49.722 154.438 50.25 154.232 50.734C154.027 51.218 153.737 51.636 153.363 51.988C152.989 52.34 152.549 52.615 152.043 52.813C151.545 53.011 150.998 53.11 150.404 53.11ZM150.393 51.856C150.782 51.856 151.141 51.79 151.471 51.658C151.801 51.526 152.087 51.339 152.329 51.097C152.571 50.8477 152.758 50.5617 152.89 50.239C153.03 49.909 153.099 49.546 153.099 49.15C153.099 48.754 153.03 48.3947 152.89 48.072C152.758 47.742 152.571 47.456 152.329 47.214C152.087 46.9647 151.801 46.774 151.471 46.642C151.141 46.51 150.782 46.444 150.393 46.444C150.005 46.444 149.645 46.51 149.315 46.642C148.993 46.774 148.707 46.9647 148.457 47.214C148.215 47.456 148.025 47.742 147.885 48.072C147.753 48.3947 147.687 48.754 147.687 49.15C147.687 49.5387 147.753 49.898 147.885 50.228C148.025 50.558 148.215 50.8477 148.457 51.097C148.699 51.339 148.985 51.526 149.315 51.658C149.645 51.79 150.005 51.856 150.393 51.856ZM157.365 48.842H161.204V50.052H157.365V48.842ZM157.486 53H156.056V45.3H161.677V46.499H157.486V53ZM99.3091 61.501H103.137V62.678H99.3091V61.501ZM99.4191 64.801H103.764V66H97.9891V58.3H103.61V59.499H99.4191V64.801ZM104.337 66L107.582 61.534V62.612L104.491 58.3H106.108L108.407 61.49L107.747 61.501L110.024 58.3H111.575L108.506 62.535V61.501L111.773 66H110.123L107.703 62.612H108.352L105.965 66H104.337ZM112.641 66V58.3H115.809C116.491 58.3 117.074 58.41 117.558 58.63C118.05 58.85 118.427 59.1653 118.691 59.576C118.955 59.9867 119.087 60.4743 119.087 61.039C119.087 61.6037 118.955 62.0913 118.691 62.502C118.427 62.9127 118.05 63.228 117.558 63.448C117.074 63.668 116.491 63.778 115.809 63.778H113.433L114.071 63.107V66H112.641ZM114.071 63.261L113.433 62.568H115.743C116.374 62.568 116.847 62.436 117.162 62.172C117.485 61.9007 117.646 61.523 117.646 61.039C117.646 60.5477 117.485 60.17 117.162 59.906C116.847 59.642 116.374 59.51 115.743 59.51H113.433L114.071 58.806V63.261ZM121.835 61.501H125.663V62.678H121.835V61.501ZM121.945 64.801H126.29V66H120.515V58.3H126.136V59.499H121.945V64.801ZM127.885 66V58.3H131.053C131.735 58.3 132.318 58.41 132.802 58.63C133.293 58.85 133.671 59.1653 133.935 59.576C134.199 59.9867 134.331 60.4743 134.331 61.039C134.331 61.6037 134.199 62.0913 133.935 62.502C133.671 62.9053 133.293 63.217 132.802 63.437C132.318 63.6497 131.735 63.756 131.053 63.756H128.677L129.315 63.107V66H127.885ZM132.923 66L130.976 63.206H132.505L134.463 66H132.923ZM129.315 63.261L128.677 62.579H130.987C131.617 62.579 132.09 62.4433 132.406 62.172C132.728 61.9007 132.89 61.523 132.89 61.039C132.89 60.5477 132.728 60.17 132.406 59.906C132.09 59.642 131.617 59.51 130.987 59.51H128.677L129.315 58.806V63.261ZM135.93 66V58.3H137.36V66H135.93ZM140.763 61.501H144.591V62.678H140.763V61.501ZM140.873 64.801H145.218V66H139.443V58.3H145.064V59.499H140.873V64.801ZM146.812 66V58.3H147.989L152.818 64.229H152.235V58.3H153.654V66H152.477L147.648 60.071H148.231V66H146.812ZM159.282 66.11C158.695 66.11 158.149 66.0147 157.643 65.824C157.144 65.626 156.708 65.351 156.334 64.999C155.967 64.6397 155.681 64.218 155.476 63.734C155.27 63.25 155.168 62.722 155.168 62.15C155.168 61.578 155.27 61.05 155.476 60.566C155.681 60.082 155.971 59.664 156.345 59.312C156.719 58.9527 157.155 58.6777 157.654 58.487C158.152 58.289 158.699 58.19 159.293 58.19C159.923 58.19 160.499 58.3 161.02 58.52C161.54 58.7327 161.98 59.0517 162.34 59.477L161.416 60.346C161.137 60.0453 160.825 59.8217 160.481 59.675C160.136 59.521 159.762 59.444 159.359 59.444C158.955 59.444 158.585 59.51 158.248 59.642C157.918 59.774 157.628 59.961 157.379 60.203C157.137 60.445 156.946 60.731 156.807 61.061C156.675 61.391 156.609 61.754 156.609 62.15C156.609 62.546 156.675 62.909 156.807 63.239C156.946 63.569 157.137 63.855 157.379 64.097C157.628 64.339 157.918 64.526 158.248 64.658C158.585 64.79 158.955 64.856 159.359 64.856C159.762 64.856 160.136 64.7827 160.481 64.636C160.825 64.482 161.137 64.251 161.416 63.943L162.34 64.823C161.98 65.241 161.54 65.56 161.02 65.78C160.499 66 159.92 66.11 159.282 66.11ZM165.03 61.501H168.858V62.678H165.03V61.501ZM165.14 64.801H169.485V66H163.71V58.3H169.331V59.499H165.14V64.801Z" fill="#101720" fill-opacity="0.6"/>
<path d="M91.0003 83.3952L87.5419 85.4785C87.3892 85.5757 87.2294 85.6174 87.0628 85.6035C86.8961 85.5896 86.7503 85.5341 86.6253 85.4368C86.5003 85.3396 86.4031 85.2182 86.3336 85.0727C86.2642 84.9271 86.2503 84.7638 86.2919 84.5827L87.2086 80.6452L84.1461 77.9993C84.0072 77.8743 83.9206 77.7318 83.8861 77.5718C83.8517 77.4118 83.8619 77.2557 83.9169 77.1035C83.9719 76.9513 84.0553 76.8263 84.1669 76.7285C84.2786 76.6307 84.4314 76.5682 84.6253 76.541L88.6669 76.1868L90.2294 72.4785C90.2989 72.3118 90.4067 72.1868 90.5528 72.1035C90.6989 72.0202 90.8481 71.9785 91.0003 71.9785C91.1525 71.9785 91.3017 72.0202 91.4478 72.1035C91.5939 72.1868 91.7017 72.3118 91.7711 72.4785L93.3336 76.1868L97.3753 76.541C97.5697 76.5688 97.7225 76.6313 97.8336 76.7285C97.9447 76.8257 98.0281 76.9507 98.0836 77.1035C98.1392 77.2563 98.1497 77.4127 98.1153 77.5727C98.0808 77.7327 97.9939 77.8749 97.8544 77.9993L94.7919 80.6452L95.7086 84.5827C95.7503 84.7632 95.7364 84.9266 95.6669 85.0727C95.5975 85.2188 95.5003 85.3402 95.3753 85.4368C95.2503 85.5335 95.1044 85.5891 94.9378 85.6035C94.7711 85.618 94.6114 85.5763 94.4586 85.4785L91.0003 83.3952Z" fill="#EAE42B"/>
<path d="M111 83.3952L107.542 85.4785C107.389 85.5757 107.229 85.6174 107.063 85.6035C106.896 85.5896 106.75 85.5341 106.625 85.4368C106.5 85.3396 106.403 85.2182 106.334 85.0727C106.264 84.9271 106.25 84.7638 106.292 84.5827L107.209 80.6452L104.146 77.9993C104.007 77.8743 103.921 77.7318 103.886 77.5718C103.852 77.4118 103.862 77.2557 103.917 77.1035C103.972 76.9513 104.055 76.8263 104.167 76.7285C104.279 76.6307 104.431 76.5682 104.625 76.541L108.667 76.1868L110.229 72.4785C110.299 72.3118 110.407 72.1868 110.553 72.1035C110.699 72.0202 110.848 71.9785 111 71.9785C111.152 71.9785 111.302 72.0202 111.448 72.1035C111.594 72.1868 111.702 72.3118 111.771 72.4785L113.334 76.1868L117.375 76.541C117.57 76.5688 117.722 76.6313 117.834 76.7285C117.945 76.8257 118.028 76.9507 118.084 77.1035C118.139 77.2563 118.15 77.4127 118.115 77.5727C118.081 77.7327 117.994 77.8749 117.854 77.9993L114.792 80.6452L115.709 84.5827C115.75 84.7632 115.736 84.9266 115.667 85.0727C115.597 85.2188 115.5 85.3402 115.375 85.4368C115.25 85.5335 115.104 85.5891 114.938 85.6035C114.771 85.618 114.611 85.5763 114.459 85.4785L111 83.3952Z" fill="#EAE42B"/>
<path d="M131 83.3952L127.542 85.4785C127.389 85.5757 127.229 85.6174 127.063 85.6035C126.896 85.5896 126.75 85.5341 126.625 85.4368C126.5 85.3396 126.403 85.2182 126.334 85.0727C126.264 84.9271 126.25 84.7638 126.292 84.5827L127.209 80.6452L124.146 77.9993C124.007 77.8743 123.921 77.7318 123.886 77.5718C123.852 77.4118 123.862 77.2557 123.917 77.1035C123.972 76.9513 124.055 76.8263 124.167 76.7285C124.279 76.6307 124.431 76.5682 124.625 76.541L128.667 76.1868L130.229 72.4785C130.299 72.3118 130.407 72.1868 130.553 72.1035C130.699 72.0202 130.848 71.9785 131 71.9785C131.152 71.9785 131.302 72.0202 131.448 72.1035C131.594 72.1868 131.702 72.3118 131.771 72.4785L133.334 76.1868L137.375 76.541C137.57 76.5688 137.722 76.6313 137.834 76.7285C137.945 76.8257 138.028 76.9507 138.084 77.1035C138.139 77.2563 138.15 77.4127 138.115 77.5727C138.081 77.7327 137.994 77.8749 137.854 77.9993L134.792 80.6452L135.709 84.5827C135.75 84.7632 135.736 84.9266 135.667 85.0727C135.597 85.2188 135.5 85.3402 135.375 85.4368C135.25 85.5335 135.104 85.5891 134.938 85.6035C134.771 85.618 134.611 85.5763 134.459 85.4785L131 83.3952Z" fill="#EAE42B"/>
<path d="M151 83.3952L147.542 85.4785C147.389 85.5757 147.229 85.6174 147.063 85.6035C146.896 85.5896 146.75 85.5341 146.625 85.4368C146.5 85.3396 146.403 85.2182 146.334 85.0727C146.264 84.9271 146.25 84.7638 146.292 84.5827L147.209 80.6452L144.146 77.9993C144.007 77.8743 143.921 77.7318 143.886 77.5718C143.852 77.4118 143.862 77.2557 143.917 77.1035C143.972 76.9513 144.055 76.8263 144.167 76.7285C144.279 76.6307 144.431 76.5682 144.625 76.541L148.667 76.1868L150.229 72.4785C150.299 72.3118 150.407 72.1868 150.553 72.1035C150.699 72.0202 150.848 71.9785 151 71.9785C151.152 71.9785 151.302 72.0202 151.448 72.1035C151.594 72.1868 151.702 72.3118 151.771 72.4785L153.334 76.1868L157.375 76.541C157.57 76.5688 157.722 76.6313 157.834 76.7285C157.945 76.8257 158.028 76.9507 158.084 77.1035C158.139 77.2563 158.15 77.4127 158.115 77.5727C158.081 77.7327 157.994 77.8749 157.854 77.9993L154.792 80.6452L155.709 84.5827C155.75 84.7632 155.736 84.9266 155.667 85.0727C155.597 85.2188 155.5 85.3402 155.375 85.4368C155.25 85.5335 155.104 85.5891 154.938 85.6035C154.771 85.618 154.611 85.5763 154.459 85.4785L151 83.3952Z" fill="#EAE42B"/>
<path d="M171 83.3952L167.542 85.4785C167.389 85.5757 167.229 85.6174 167.063 85.6035C166.896 85.5896 166.75 85.5341 166.625 85.4368C166.5 85.3396 166.403 85.2182 166.334 85.0727C166.264 84.9271 166.25 84.7638 166.292 84.5827L167.209 80.6452L164.146 77.9993C164.007 77.8743 163.921 77.7318 163.886 77.5718C163.852 77.4118 163.862 77.2557 163.917 77.1035C163.972 76.9513 164.055 76.8263 164.167 76.7285C164.279 76.6307 164.431 76.5682 164.625 76.541L168.667 76.1868L170.229 72.4785C170.299 72.3118 170.407 72.1868 170.553 72.1035C170.699 72.0202 170.848 71.9785 171 71.9785C171.152 71.9785 171.302 72.0202 171.448 72.1035C171.594 72.1868 171.702 72.3118 171.771 72.4785L173.334 76.1868L177.375 76.541C177.57 76.5688 177.722 76.6313 177.834 76.7285C177.945 76.8257 178.028 76.9507 178.084 77.1035C178.139 77.2563 178.15 77.4127 178.115 77.5727C178.081 77.7327 177.994 77.8749 177.854 77.9993L174.792 80.6452L175.709 84.5827C175.75 84.7632 175.736 84.9266 175.667 85.0727C175.597 85.2188 175.5 85.3402 175.375 85.4368C175.25 85.5335 175.104 85.5891 174.938 85.6035C174.771 85.618 174.611 85.5763 174.459 85.4785L171 83.3952Z" fill="#EAE42B"/>
<path d="M254.927 35.5186C255.282 38.2552 253.087 40.7952 253.087 40.7952C253.087 40.7952 250.315 38.8986 249.959 36.1619C249.604 33.4219 251.8 30.8836 251.8 30.8836C251.8 30.8836 254.57 32.7819 254.927 35.5186ZM257.529 44.7169C256.369 47.2219 253.155 48.2052 253.155 48.2052C253.155 48.2052 251.822 45.1269 252.982 42.6219C254.142 40.1169 257.357 39.1319 257.357 39.1319C257.357 39.1319 258.69 42.2119 257.529 44.7169ZM256.162 53.5252C253.949 55.1802 250.652 54.5236 250.652 54.5236C250.652 54.5236 250.945 51.1819 253.159 49.5269C255.372 47.8719 258.669 48.5286 258.669 48.5286C258.669 48.5286 258.375 51.8702 256.162 53.5252ZM250.147 60.6886C247.639 61.8519 244.549 60.5302 244.549 60.5302C244.549 60.5302 245.527 57.3219 248.035 56.1569C250.544 54.9936 253.632 56.3169 253.632 56.3169C253.632 56.3169 252.655 59.5252 250.147 60.6886ZM247.367 29.4469C249.384 31.3352 249.307 34.6869 249.307 34.6869C249.307 34.6869 245.957 34.9802 243.94 33.0919C241.924 31.2036 242 27.8502 242 27.8502C242 27.8502 245.35 27.5586 247.367 29.4469Z" fill="#4B4A4A"/>
<path d="M247.927 35.5186C248.282 38.2552 246.087 40.7952 246.087 40.7952C246.087 40.7952 243.315 38.8986 242.959 36.1619C242.604 33.4219 244.8 30.8836 244.8 30.8836C244.8 30.8836 247.57 32.7819 247.927 35.5186ZM250.529 44.7169C249.369 47.2219 246.155 48.2052 246.155 48.2052C246.155 48.2052 244.822 45.1269 245.982 42.6219C247.142 40.1169 250.357 39.1319 250.357 39.1319C250.357 39.1319 251.69 42.2119 250.529 44.7169ZM249.162 53.5252C246.949 55.1802 243.652 54.5236 243.652 54.5236C243.652 54.5236 243.945 51.1819 246.159 49.5269C248.372 47.8719 251.669 48.5286 251.669 48.5286C251.669 48.5286 251.375 51.8702 249.162 53.5252ZM243.147 60.6886C240.639 61.8519 237.549 60.5302 237.549 60.5302C237.549 60.5302 238.527 57.3219 241.035 56.1569C243.544 54.9936 246.632 56.3169 246.632 56.3169C246.632 56.3169 245.655 59.5252 243.147 60.6886ZM240.367 29.4469C242.384 31.3352 242.307 34.6869 242.307 34.6869C242.307 34.6869 238.957 34.9802 236.94 33.0919C234.924 31.2036 235 27.8502 235 27.8502C235 27.8502 238.35 27.5586 240.367 29.4469Z" fill="#4B4A4A"/>
</svg>
